<?xml version="1.0" encoding="utf-8"?>
<!-- Generator: Adobe Illustrator 25.0.0, SVG Export Plug-In . SVG Version: 6.00 Build 0)  -->
<svg version="1.1" id="Calque_1" xmlns="http://www.w3.org/2000/svg" xmlns:xlink="http://www.w3.org/1999/xlink" x="0px" y="0px"
	 viewBox="0 0 1920 1080" style="enable-background:new 0 0 1920 1080;" xml:space="preserve">
<style type="text/css">
	.st0{fill:#929292;}
	.st1{fill:#ABABAB;}
	.st2{fill:#7B7B7B;}
	.st3{fill:#3E3E3E;}
	.st4{fill:#989898;}
	.st5{fill:#B5B5B5;}
	.st6{fill:#555555;}
	.st7{fill:#E1E1E1;}
	.st8{fill:#939393;}
	.st9{fill:#B2B2B2;}
	.st10{fill:#444444;}
	.st11{fill:#B4B4B4;}
	.st12{fill:#E0E0E0;}
	.st13{fill:#BBBBBB;}
	.st14{fill:#ECECEC;}
	.st15{fill:#EEEEEE;}
	.st16{fill:#F0F0F0;}
	.st17{fill:#D6D6D6;}
	.st18{fill:#414141;}
	.st19{fill:#424242;}
	.st20{fill:#999999;}
	.st21{fill:#D5D5D5;}
	.st22{fill:#676767;}
	.st23{fill:#6E6E6E;}
	.st24{fill:#D4D4D4;}
	.st25{fill:#B1B1B1;}
	.st26{fill:#B0B0B0;}
	.st27{fill:#717171;}
	.st28{fill:#CFCFCF;}
</style>
<g>
	<path class="st0" d="M1074.4,498.4c6,0,11.9,0,17.9,0c0.8,0.4,1.5,0.4,2.3,0c1.1,0,2.1,0,3.2,0c1.4,0,2.8,0,4.3,0
		c2.8,0.1,4.8,1.4,6,4c0.5,1,0.7,2,0.8,3c-0.8,1.5-1.1,1.7-2.6,1.2c-0.3-0.1-0.6-0.2-0.9-0.3c-1-0.2-1.9,0.1-2.4,0.9
		c-0.6,0.8-0.7,1.7-0.2,2.6c0.5,0.9,1.3,1.2,2.3,1.2c0.8,0,1.3-0.5,1.8-1.1c0.6-0.8,1.4-1.4,2.5-1.1c1.4,7.9,2.8,15.7,4.2,23.6
		c0.1,0.4,0.2,0.7,0.3,1.1c0.3,1.8,0.6,3.6,0.9,5.4c0.1,0.8,0.3,1.6,0.2,2.4c-0.9,0-1.9,0-2.8,0c-84.9,0-169.8,0-254.7,0
		c-0.7,0-1.4,0-2.1,0c-1.6,0-1.8,0.2-1.5,1.7c0,0.1,0,0.2,0.1,0.4c1.5,8,2.9,16,4.4,24c1.3,6.9,2.6,13.8,3.8,20.7
		c2.2,12.3,4.5,24.6,6.7,36.9c1.2,6.8,2.5,13.6,3.7,20.4c2.2,12.1,4.4,24.2,6.6,36.3c1.2,6.6,2.4,13.2,3.6,19.8
		c0.7,3.7,1.3,7.3,2.1,11c0.8,4,3.1,6.8,6.7,8.7c0.4,0.2,0.9,0.5,1.3,0.7c-0.4,0-0.7,0-1.1,0c-10,0-20,0-30,0
		c-0.9-0.5-1.9-0.9-2.8-1.4c-0.4-0.2-0.9-0.4-1.3-0.8c-3.5-2.9-5.6-6.5-5.6-11.1c0-2.1,0-4.2,0-6.3c0-0.6,0-1.1-0.1-1.7
		c-0.3-1.7-0.3-3.3-0.3-5c0-2.1,0-4.2,0-6.3c0-0.6,0-1.3-0.1-1.9c-0.3-1.4-0.3-2.7-0.3-4.1c0-2.2,0-4.5,0-6.7c0-0.6,0-1.3-0.1-1.9
		c-0.3-1.4-0.3-2.8-0.3-4.3c0-2.3,0-4.6,0-6.9c0-0.6,0-1.3-0.1-1.9c-0.3-1.5-0.3-3-0.3-4.5c0-2.3,0-4.6,0-6.9c0-0.6,0-1.3-0.1-1.9
		c-0.2-1.2-0.3-2.5-0.3-3.7c0-2.3,0-4.6,0-6.9c0-0.6,0-1.3-0.1-1.9c-0.3-1.6-0.3-3.2-0.3-4.8c0-2.2,0-4.4,0-6.5c0-0.6,0-1.3-0.1-1.9
		c-0.3-1.4-0.3-2.7-0.3-4.1c0-2.2,0-4.5,0-6.7c0-0.6,0-1.1-0.1-1.7c-0.4-1.8-0.3-3.6-0.3-5.4c0-2.1,0-4.2,0-6.3c0-0.6,0-1.3-0.1-1.9
		c-0.3-1.5-0.3-3-0.3-4.5c0-2.1,0-4.1,0-6.2c0-0.6,0-1.1-0.1-1.7c-0.3-1.5-0.3-3.1-0.3-4.6c0-2.3,0-4.6,0-6.9c0-0.6,0-1.3-0.1-1.9
		c-0.3-1.6-0.3-3.2-0.3-4.8c0-2.2,0-4.4,0-6.5c0-0.6,0-1.3-0.1-1.9c-0.3-1.4-0.3-2.7-0.3-4.1c0-2.2,0-4.5,0-6.7c0-0.6,0-1.3-0.1-1.9
		c-0.3-1.4-0.3-2.7-0.3-4.1c0-2.2,0-4.5,0-6.7c0-0.6,0-1.1-0.1-1.7c-0.4-1.8-0.3-3.6-0.3-5.4c0-2.2,0-4.4,0-6.5c0-0.7,0-1.4-0.1-2
		c-0.2-1-0.2-2-0.2-3c0-4,0-8.1,0-12.1c0-0.8,0.1-1.6-0.3-2.4c0-0.2,0-0.5,0-0.7c0.1-0.8,0.4-1.4,1.1-1.8c1.1-0.1,2.3,0.2,3.4-0.4
		c6,0,11.9,0,17.9,0c0.1,0.3,0.3,0.6,0.2,0.9c-0.4,3.2-1.9,5.8-4.8,7.3c-0.6,0.3-1.2,0.4-1.8,0.1c-0.2-0.1-0.5-0.2-0.7-0.3
		c-1.1-0.3-2.1,0-2.8,1c-0.5,0.7-0.6,1.5-0.1,2.3c0.9,1.5,2.5,1.8,3.8,0.7c0.8-0.7,1.5-1.2,2.4-1.7c3.5-1.8,5.5-4.7,6-8.6
		c0.1-0.6,0.1-1.1,0.4-1.6c5.9,0,11.7,0,17.6,0c0.9,0.4,1.7,0.4,2.6,0c6,0,11.9,0,17.9,0c0.1,0.3,0.2,0.6,0.2,0.9
		c-0.4,2.9-1.5,5.3-4.1,6.9c-0.9,0.6-1.8,0.9-2.8,0.3c-0.2-0.1-0.5-0.2-0.7-0.2c-1.5-0.3-3.4,1.3-2.7,3.2c0.6,1.5,2.6,2.1,3.8,0.9
		c0.8-0.8,1.8-1.3,2.7-1.9c3.4-1.9,5.4-4.7,5.8-8.5c0.1-0.6,0.1-1.1,0.4-1.6c5.9,0,11.7,0,17.6,0c0.9,0.5,1.7,0.3,2.6,0
		c6,0,12,0,17.9,0c0,0.4,0,0.7,0,1.1c-0.3,2.8-1.5,5.1-3.9,6.7c-0.9,0.6-1.9,0.9-3,0.4c-0.2-0.1-0.3-0.1-0.5-0.2
		c-1-0.2-1.8,0.2-2.4,1c-0.5,0.7-0.7,1.4-0.3,2.3c0.4,1,1.2,1.3,2.2,1.4c0.7,0,1.3-0.2,1.7-0.7c0.6-0.8,1.5-1.2,2.4-1.7
		c3.6-1.9,5.5-4.9,6.1-8.8c0.1-0.5,0.2-1,0.4-1.4c5.9,0,11.7,0,17.6,0c0.8,0.3,1.5,0.5,2.3-0.1c0.8,0,1.6,0.1,2.4,0.1
		c5.3,0,10.6,0,15.9,0c0.1,1.3-0.1,2.6-0.6,3.8c-0.8,1.8-2.2,3.1-3.8,4.3c-0.6,0.4-1.2,0.5-1.9,0.3c-0.2-0.1-0.5-0.2-0.7-0.3
		c-1-0.4-1.8-0.1-2.6,0.6c-0.8,0.7-1,1.6-0.6,2.5c0.4,1,1.1,1.4,2.1,1.5c0.8,0,1.5-0.2,2-0.9c0.5-0.7,1.2-1,1.9-1.4
		c3.6-1.8,5.6-4.7,6.3-8.6c0.1-0.6,0.1-1.2,0.4-1.8c5.8,0,11.7,0,17.5,0c0.8,0.3,1.5,0.5,2.3-0.1c0.6,0,1.2,0.1,1.9,0.1
		c5.5,0,10.9,0,16.4,0c0.2,3.6-1.6,6.1-4.4,8c-0.7,0.5-1.3,0.6-2.1,0.3c-0.3-0.1-0.7-0.3-1.1-0.3c-1-0.2-1.7,0.3-2.3,1
		c-0.6,0.7-0.7,1.4-0.4,2.3c0.6,1.6,2.6,2.1,3.8,0.9c0.9-0.9,1.9-1.4,2.9-2c1.7-0.9,3.1-2.3,4.1-3.9c1.1-1.9,1.7-4,1.6-6.2
		c6,0,11.9,0,17.9,0c0.8,0.3,1.5,0.5,2.3-0.1c0.6,0,1.1,0.1,1.7,0.1c5.5,0,11.1,0,16.6,0c0.1,3-1.2,5.4-3.4,7.3
		c-1.1,0.9-2.2,1.6-3.7,0.8c-0.1,0-0.1,0-0.2-0.1c-1.2-0.3-2.3,0.1-2.9,1.2c-0.5,1.1-0.2,2.5,0.8,3.2c0.9,0.6,2.3,0.5,3.1-0.4
		c0.6-0.7,1.3-1.1,2.1-1.5c3.2-1.6,5.2-4.1,6.2-7.5C1074.4,500.3,1074.4,499.3,1074.4,498.4z M886.8,530.9c-1.7,0-3.3,0-5,0
		c-0.4,0-0.9,0-1.3,0.1c-0.8,0.2-1.3,0.8-1.3,1.6c0,0.8,0.4,1.5,1.1,1.8c0.4,0.1,0.8,0.2,1.3,0.2c3.5,0,7.1,0,10.6,0
		c0.4,0,0.7,0,1.1-0.1c0.9-0.2,1.4-1,1.4-1.8c0-0.8-0.6-1.5-1.5-1.7c-0.4-0.1-0.9-0.1-1.3-0.1C890.2,530.9,888.5,530.9,886.8,530.9z
		 M1084.9,530.9c-1.7,0-3.3,0-5,0c-0.5,0-1,0-1.5,0.1c-0.8,0.2-1.3,0.8-1.4,1.6c0,0.8,0.5,1.6,1.3,1.8c0.4,0.1,0.7,0.1,1.1,0.1
		c3.5,0,7.1,0,10.6,0c0.4,0,0.7,0,1.1-0.1c0.9-0.2,1.4-1,1.4-1.8c0-0.8-0.6-1.5-1.5-1.7c-0.4-0.1-0.9-0.1-1.3-0.1
		C1088.1,530.9,1086.5,530.9,1084.9,530.9z M1051.7,534.5C1051.7,534.5,1051.7,534.5,1051.7,534.5c1.7,0,3.4,0,5,0
		c0.5,0,1,0,1.5-0.2c0.9-0.2,1.3-1,1.3-1.8c-0.1-0.8-0.6-1.4-1.4-1.6c-0.4-0.1-0.9-0.1-1.3-0.1c-3.4,0-6.7,0-10.1,0
		c-0.4,0-0.7,0-1.1,0.1c-0.9,0.2-1.5,0.8-1.5,1.6c-0.1,0.9,0.5,1.7,1.5,1.9c0.5,0.1,1,0.1,1.5,0.1
		C1048.6,534.5,1050.2,534.5,1051.7,534.5z M986,530.9c-1.6,0-3.2,0-4.8,0c-0.5,0-1,0-1.5,0.1c-0.9,0.2-1.5,0.8-1.5,1.6
		c0,0.9,0.5,1.6,1.5,1.9c0.4,0.1,0.7,0.1,1.1,0.1c3.4,0,6.8,0,10.2,0c0.5,0,1-0.1,1.5-0.2c0.8-0.2,1.2-1,1.2-1.7
		c0-0.7-0.6-1.4-1.3-1.6c-0.5-0.1-1-0.1-1.5-0.1C989.2,530.9,987.6,530.9,986,530.9z M952.9,530.9c-1.7,0-3.3,0-5,0
		c-0.5,0-1,0-1.5,0.1c-0.8,0.2-1.3,0.9-1.3,1.6c0,0.7,0.4,1.4,1.2,1.7c0.4,0.1,0.8,0.2,1.3,0.2c3.5,0,7.1,0,10.6,0
		c0.4,0,0.9-0.1,1.3-0.2c0.8-0.3,1.2-1,1.1-1.7c0-0.8-0.5-1.4-1.3-1.6c-0.5-0.1-1-0.1-1.5-0.1C956.1,530.9,954.5,530.9,952.9,530.9z
		 M919.8,530.9c-1.6,0-3.2,0-4.8,0c-0.4,0-0.9,0-1.3,0.1c-1,0.2-1.6,0.9-1.6,1.8c0,0.8,0.6,1.5,1.5,1.7c0.4,0.1,0.7,0.1,1.1,0.1
		c3.5,0,6.9,0,10.4,0c0.5,0,1,0,1.4-0.3c0.7-0.3,1.1-0.8,1.1-1.6c0-0.7-0.5-1.4-1.3-1.6c-0.5-0.1-1-0.1-1.5-0.1
		C923.2,530.9,921.5,530.9,919.8,530.9z M1019,530.9c-1.7,0-3.5,0-5.2,0c-0.5,0-1,0-1.5,0.2c-0.7,0.2-1.3,1-1.2,1.7
		c0,0.8,0.5,1.3,1.1,1.5c0.4,0.1,0.8,0.2,1.3,0.2c3.5,0,7.1,0,10.6,0c0.4,0,0.9-0.1,1.3-0.2c0.8-0.3,1.2-0.9,1.2-1.7
		c0-0.8-0.6-1.5-1.5-1.7c-0.4-0.1-0.9-0.1-1.3-0.1C1022.2,530.9,1020.6,530.9,1019,530.9z"/>
	<path class="st1" d="M846.3,501.4c0.4,0.7,0.3,1.6,0.3,2.4c0,4,0,8.1,0,12.1c0,1,0,2,0.2,3c0.1,0.7,0.1,1.4,0.1,2
		c0,2.2,0,4.4,0,6.5c0,1.8-0.1,3.6,0.3,5.4c0.1,0.5,0.1,1.1,0.1,1.7c0,2.2,0,4.5,0,6.7c0,1.4,0,2.7,0.3,4.1c0.1,0.6,0.1,1.2,0.1,1.9
		c0,2.2,0,4.5,0,6.7c0,1.4,0,2.7,0.3,4.1c0.1,0.6,0.1,1.2,0.1,1.9c0,2.2,0,4.4,0,6.5c0,1.6,0,3.2,0.3,4.8c0.1,0.6,0.1,1.2,0.1,1.9
		c0,2.3,0,4.6,0,6.9c0,1.6,0,3.1,0.3,4.6c0.1,0.5,0.1,1.1,0.1,1.7c0,2.1,0,4.1,0,6.2c0,1.5,0,3,0.3,4.5c0.1,0.6,0.1,1.2,0.1,1.9
		c0,2.1,0,4.2,0,6.3c0,1.8-0.1,3.6,0.3,5.4c0.1,0.5,0.1,1.1,0.1,1.7c0,2.2,0,4.5,0,6.7c0,1.4,0,2.7,0.3,4.1c0.1,0.6,0.1,1.2,0.1,1.9
		c0,2.2,0,4.4,0,6.5c0,1.6,0,3.2,0.3,4.8c0.1,0.6,0.1,1.2,0.1,1.9c0,2.3,0,4.6,0,6.9c0,1.2,0,2.5,0.3,3.7c0.1,0.6,0.1,1.2,0.1,1.9
		c0,2.3,0,4.6,0,6.9c0,1.5,0,3,0.3,4.5c0.1,0.6,0.1,1.2,0.1,1.9c0,2.3,0,4.6,0,6.9c0,1.4,0,2.9,0.3,4.3c0.1,0.6,0.1,1.2,0.1,1.9
		c0,2.2,0,4.5,0,6.7c0,1.4,0,2.7,0.3,4.1c0.1,0.6,0.1,1.2,0.1,1.9c0,2.1,0,4.2,0,6.3c0,1.7-0.1,3.4,0.3,5c0.1,0.5,0.1,1.1,0.1,1.7
		c0,2.1,0,4.2,0,6.3c0,4.6,2.1,8.2,5.6,11.1c0.4,0.3,0.8,0.5,1.3,0.8c0.9,0.5,1.9,0.9,2.8,1.4c-6.1,0-12.2,0-18.3,0
		c-0.5-0.5-1.1-0.8-1.8-1.1c-4.8-2.2-8.3-8.3-7.3-14.3c0-0.2,0.1-0.4,0.1-0.6c0-2.4,0.2-4.8,0.4-7.3c0.2-1.8,0.2-3.6,0.3-5.4
		c0.2-2.6,0.4-5.2,0.4-7.8c0-3.1,0.6-6.2,0.4-9.3c0.5-2,0.2-4,0.4-5.9c0.2-2.1,0.4-4.2,0.3-6.3c0-0.4,0-0.8,0.1-1.1
		c0.2-1,0.3-2.1,0.2-3.2c0-3,0.6-5.9,0.4-8.9c0-0.2,0-0.5,0.1-0.7c0.2-0.9,0.2-1.8,0.2-2.8c-0.1-3,0.6-6.1,0.4-9.1
		c0.5-2,0.2-4,0.4-5.9c0.2-2.1,0.4-4.2,0.3-6.3c0-0.4,0-0.8,0.1-1.1c0.2-1,0.3-2.1,0.2-3.2c0-3,0.6-5.9,0.4-8.9c0-0.2,0-0.5,0.1-0.7
		c0.2-0.9,0.2-1.8,0.2-2.8c-0.1-3,0.6-6.1,0.4-9.1c0.5-2,0.3-4,0.4-5.9c0-0.5,0.1-1,0.2-1.5c0.1-0.6,0.2-1.1,0.2-1.7
		c0-1.9,0.1-3.7,0.3-5.6c0.2-2.4,0.2-4.8,0.4-7.2c0.2-1.8,0.2-3.6,0.3-5.4c0.2-2.6,0.4-5.2,0.4-7.8c0-3.1,0.6-6.2,0.4-9.3
		c0.5-2,0.2-4,0.4-5.9c0.2-2.2,0.2-4.4,0.4-6.5c0.2-2.1,0.3-4.2,0.3-6.3c0-0.4,0.1-0.7,0.1-1.1c0.2-0.9,0.2-1.8,0.2-2.8
		c-0.1-3,0.6-6.1,0.4-9.1c0.4-1.8,0.3-3.7,0.4-5.6c0-0.4,0-0.7,0.1-1.1c0.2-1,0.2-2,0.2-3c0-1.1,0.1-2.2,0.2-3.3
		c0.2-1.6,0.4-3.2-0.2-4.8c-0.1-0.9,0.1-1.8-0.3-2.6c0-0.2,0-0.3,0-0.5c0.1-0.3,0.2-0.5,0.3-0.8c0-0.2,0-0.5,0.1-0.7
		C846.1,501.6,846.2,501.5,846.3,501.4z"/>
	<path class="st2" d="M845.6,503.7c0.5,0.8,0.3,1.7,0.3,2.6c-0.2,1.4-0.4,2.8-0.6,4.2c-0.3,2.2-0.6,4.4-0.9,6.7
		c-0.5,3.5-0.9,7-1.4,10.5c-0.3,2.2-0.6,4.4-0.9,6.7c-0.4,3.5-0.9,6.9-1.3,10.4c-0.3,2.3-0.6,4.6-0.9,6.8c-0.4,3.5-0.9,6.9-1.3,10.4
		c-0.3,2.3-0.6,4.6-0.9,6.8c-0.4,3.4-0.9,6.9-1.3,10.4c-0.5,4.1-1.1,8.3-1.6,12.4c-0.5,3.4-0.9,6.9-1.3,10.4
		c-0.3,2.3-0.6,4.6-0.9,6.8c-0.4,3.5-0.9,6.9-1.3,10.4c-0.5,4.1-1.1,8.3-1.6,12.4c-0.5,3.5-0.9,7-1.4,10.5c-0.4,3.2-0.8,6.4-1.3,9.6
		c-0.5,3.5-0.9,7-1.4,10.5c-0.5,4.1-1.1,8.1-1.6,12.2c-0.5,3.5-0.9,7-1.4,10.5c-0.4,3.2-0.8,6.4-1.3,9.6c-0.6,4.3-1.1,8.5-1.7,12.8
		c-0.2,1.3-0.2,2.6-0.3,3.9c-0.1,2.8,0.9,5.2,2.6,7.2c2,2.4,4.4,3.9,7.7,3.8c4.7-0.1,9.3,0,14-0.1c6.1,0,12.2,0,18.3,0
		c10,0,20,0,30,0c0.4,0,0.7,0,1.1,0c1.1,0.1,2.1,0.1,3.2,0.1c70.4,0,140.8,0,211.2,0c0.8,0,1.6-0.1,2.4-0.1
		c-0.3,0.4-0.7,0.4-1.2,0.4c-0.7,0-1.5,0-2.2,0c-71.7,0-143.3,0-215-0.1c-26.1,0-52.3,0-78.4,0c-1.1,0-2.2,0-3.4,0
		c-0.3-0.4-0.6-0.6-1-0.7c-3-1.7-4.2-4.4-3.6-7.8c0.5-2.7,1-5.4,1.5-8.1c0.6-3.3,1.3-6.6,1.9-9.9c0.1-0.6,0.2-1.2,0.1-1.9
		c0,0,0,0,0,0c0.1-0.2,0.2-0.5,0.3-0.7c0.2-0.4,0.4-0.8,0.4-1.2c0-1.5,0.5-3,0.8-4.5c0.1-0.7,0.2-1.5,0.4-2.2
		c0.2-1.1,0.5-2.3,0.7-3.4c0.6-3.1,1.1-6.1,1.7-9.2c1.6-8.3,3.2-16.6,4.8-24.9c0.1-0.4,0.1-0.9,0.2-1.3c0.1-0.2,0.1-0.4,0.2-0.5
		c0.6-2.6,0.8-5.3,1.7-7.8c0-0.1,0-0.2,0-0.4c0.1-0.6,0.2-1.2,0.3-1.8c0.4-2.3,0.9-4.7,1.3-7c0.5-0.8,0.3-1.8,0.5-2.7
		c1.8-9,3.5-17.9,5.2-26.9c0.7-3.6,1.3-7.2,2-10.8c0.5-2.7,1.1-5.5,1.6-8.2c0.6-3.1,1.2-6.2,1.8-9.3c0.1-0.2,0.2-0.4,0.3-0.7
		c0.3-1.5,0.5-3.1,0.8-4.6c0.5-2.4,1-4.8,1.4-7.2c0.1-0.4,0.1-0.9,0.1-1.3c0.4-1.6,0.9-3.2,1.1-4.9c2-10.6,4.1-21.2,6.1-31.7
		c0.1-0.6,0.2-1.2,0.3-1.8c0.3-0.7,0.4-1.4,0.5-2.2C843.9,512.4,844.8,508,845.6,503.7z"/>
	<path class="st3" d="M809.7,722.3c1.1,0,2.2,0,3.4,0c26.1,0,52.3,0,78.4,0c71.7,0,143.3,0,215,0.1c0.7,0,1.5,0,2.2,0
		c0.4,0,0.9-0.1,1.2-0.4c0.4-1.2,1.3-1.7,2.5-2c0.4-0.1,0.8-0.2,1.3-0.3c1.9-0.4,3.7-1,5.3-2.1c1.3-0.8,2.4-1.9,3-3.4
		c0.4,0.1,0.8,0.2,1.2,0.4c1.3,0.5,2.7,0.8,4.1,0.7c0.8,0,1.6,0,2.4-0.1c0.1,1.7,0.2,3.4-0.1,5c-0.3,1.9-0.3,2,1.7,2
		c8.5,0,17,0,25.5,0c0.4,0,0.9,0,1.3-0.1c0.3,0,0.5-0.3,0.6-0.6c0.1-0.2,0.1-0.5,0.1-0.7c0.5-0.3,1-0.6,1.7-0.8
		c1.5-0.4,2.4-1.5,2.9-2.9c0.4-1.1,0.6-2.3,0.5-3.4c0-1.4,0-2.7,0-4.1c0.3-0.4,0.7-0.7,1.1-0.9c1.8-0.8,3.5-1.8,5.2-2.8
		c0.5,0.6,1,1.1,1.4,1.7c0.6,0.8,1.2,1.5,1.7,2.5c0.5,1.1,0.4,2.1-0.2,3c-0.4,0.6-0.8,1.1-1.3,1.6c-1.2,1.3-2.2,2.6-2.5,4.5
		c-0.1,0.9-0.6,1.7-1.3,2.4c-0.2,0.1-0.3,0.2-0.3,0.4c0,0.2,0.2,0.3,0.4,0.3c0.6,0,1.2,0,1.9,0c9.3,0,18.7-0.1,28-0.1
		c6.5,0,13.1,0.1,19.6,0.1c21.7,0,43.4,0,65.1,0c0.4,1.1,0.2,1.4-0.8,1.5c-0.8,0-1.6,0-2.4,0c-134.4,0-268.9,0-403.3,0
		c-73.6,0-147.2,0-220.8,0c-0.7,0-1.5,0-2.2,0c-1-0.1-1.1-0.5-0.6-1.5c0.8,0,1.6,0,2.4,0c23.6,0,47.3-0.1,70.9-0.1
		c6.3,0,12.7,0.1,19,0.1c20.8,0,41.6,0,62.3,0C808.1,722.4,808.9,722.3,809.7,722.3z"/>
	<path class="st4" d="M1282.7,722.4c-21.7,0-43.4,0-65.1,0c-6.5,0-13.1-0.1-19.6-0.1c-9.3,0-18.7,0.1-28,0.1c-0.6,0-1.2,0-1.9,0
		c-0.2,0-0.4-0.1-0.4-0.3c0-0.2,0.1-0.3,0.3-0.4c0.3,0.3,0.6,0.4,1,0.4c0.6,0,1.1,0,1.7,0c6.9,0,13.8,0,20.7,0c0.4,0,0.7,0,1.1,0
		c0.8,0,1.4-0.3,1.8-1c0.9-1.5,2.3-2.1,4-1.8c2,0.3,2.1-0.1,2.3-1.8c0.4-4,1-8,2.3-11.9c0.4-1.2,0.8-2.3,1.5-3.4
		c0.3-0.6,0.7-1.2,1.2-1.7c1.4-1.5,2.7-1.8,4.5-1.1c1.3,0.5,1.8,1.4,1.5,2.8c-0.2,1-0.7,1.9-1.2,2.7c-0.7,1.1-1.4,2.2-2.1,3.3
		c-2.2,3.4-3.6,7.1-4.9,10.9c0,0.1-0.1,0.2-0.1,0.4c-0.1,0.4,0.1,0.7,0.5,0.9c0.4,0.1,0.8,0.1,1-0.3c0.2-0.4,0.4-0.9,0.6-1.4
		c0.7-1.9,1.5-3.7,2.5-5.4c0.7-1.3,1.6-2.5,2.7-3.5c1.3-1.2,3.1-1.4,4.7-0.6c1.2,0.6,1.6,1.6,1.1,2.8c-0.6,1.4-1.7,2.4-3,3.3
		c-1.7,1.2-3.5,2.4-5.3,3.5c-0.6,0.4-1.2,0.9-1.8,1.4c-0.3,0.2-0.1,0.7,0.2,0.7c0.4,0.1,0.9,0.2,1.3,0.2c0.8,0,1.6,0,2.4,0
		c1.1,0,2.1,0.1,3.1,0.5c1.5,0.6,3.1,0.7,4.8,0.7c7.2,0,14.4,0,21.7,0c0.7,0,1.5,0,2.2,0c0.9,0,1.7,0.1,2.6,0.1
		c11.8,0,23.7,0,35.5,0C1281,722.1,1281.9,721.9,1282.7,722.4z"/>
	<path class="st4" d="M809.7,722.3c-0.8,0-1.6,0.1-2.4,0.1c-20.8,0-41.6,0-62.3,0c-6.3,0-12.7-0.1-19-0.1c-23.6,0-47.3,0.1-70.9,0.1
		c-0.8,0-1.6,0-2.4,0c0.7-0.5,1.6-0.3,2.4-0.3c6.7,0,13.4,0,20.1,0c7,0,14,0,21,0c0.8,0,1.6,0,2.4-0.1c2.2,0,4.4,0,6.5,0
		c5.6,0,11.2,0,16.8,0c1.3,0,2.5-0.1,3.7-0.5c1.4-0.4,2.8-0.7,4.2-0.4c0.1,0,0.2-0.1,0.4-0.1c-0.2-0.5-0.8-0.6-1.2-0.8
		c-1.8-0.8-3.6-1.6-5.4-2.5c-0.5-0.2-1-0.5-1.4-0.9c-0.2-0.2-0.1-0.6,0.1-0.8c0.4-0.2,0.8-0.3,1.2-0.3c1.9-0.1,3.5,0.6,5,1.8
		c1.1,0.9,2,1.9,2.8,3c0.3,0.3,0.5,0.7,1,0.8c0.2,0,0.4,0,0.5-0.1c0.2-0.1,0.2-0.3,0.1-0.5c-0.2-0.4-0.5-0.7-0.8-1
		c-2.4-2.9-4.9-5.8-7-8.9c-1.4-1.9-2.7-3.9-3.6-6.1c-0.2-0.5-0.4-1.1-0.5-1.6c-0.2-1.4,0.5-2.1,1.8-2.2c0.7,0,1.4,0.1,2,0.4
		c1.5,0.7,2.7,1.8,3.7,3.1c1.6,2.2,2.7,4.7,3.7,7.3c0.9,2.4,1.5,4.9,2.1,7.3c0.1,0.5,0.3,1.1,0.4,1.6c0.1,0.3,0.4,0.5,0.7,0.4
		c0.3-0.1,0.6-0.2,0.7-0.6c0.1-0.4,0.1-0.9,0.1-1.3c0-0.8,0.3-1.6,0.8-2.3c0.6-0.8,1.4-1.2,2.4-1.2c0.7,0,1.2,0.4,1.3,1.1
		c0.2,0.9,0,1.8-0.3,2.8c-0.2,0.6-0.1,0.8,0.6,0.9c0.6,0.2,1.2,0.5,1.6,0.9c0.5,0.5,1,0.7,1.7,0.6c0.3,0,0.6,0,0.9,0
		c20.4,0,40.8,0,61.2,0c0.8,0,1.6,0.2,2.3-0.4C809.1,721.7,809.4,721.9,809.7,722.3z"/>
	<path class="st5" d="M891.5,498.4c-0.9,0.5-1.7,0.5-2.6,0c0.3-0.5,0.3-1.1,0.4-1.6c0.8-4.7,4.5-9.4,11-9.6
		c5.1-0.1,10.3,3.4,11.4,9.4c0.1,0.6,0.3,1.2,0.4,1.8c-0.2,0.5-0.3,1.1-0.4,1.6c-0.4,3.9-2.5,6.7-5.8,8.5c-1,0.5-1.9,1.1-2.7,1.9
		c-1.2,1.2-3.2,0.7-3.8-0.9c-0.7-1.8,1.2-3.5,2.7-3.2c0.2,0.1,0.5,0.1,0.7,0.2c1,0.5,1.9,0.2,2.8-0.3c2.6-1.6,3.7-4,4.1-6.9
		c0-0.3-0.1-0.6-0.2-0.9c0.1-0.9,0.1-1.9-0.3-2.8c-1.1-2.9-3.1-4.9-6.1-5.8C896.7,487.8,890.9,493.6,891.5,498.4z"/>
	<path class="st5" d="M850.8,498.4c-1.1,0.6-2.2,0.3-3.4,0.4c0.7-0.4,1.1-0.9,1.2-1.8c0.1-0.7,0.2-1.3,0.5-2c1.5-4.7,6-8,10.9-7.8
		c4.8,0.2,8.3,2.6,10.4,7c0.3,0.7,0.5,1.5,0.6,2.3c0.1,0.6,0.2,1.2,0.4,1.8c-0.2,0.5-0.3,1.1-0.4,1.6c-0.5,3.9-2.5,6.8-6,8.6
		c-0.9,0.5-1.7,1-2.4,1.7c-1.3,1.2-2.9,0.8-3.8-0.7c-0.5-0.8-0.4-1.5,0.1-2.3c0.7-0.9,1.7-1.3,2.8-1c0.2,0.1,0.5,0.2,0.7,0.3
		c0.6,0.2,1.2,0.2,1.8-0.1c2.9-1.6,4.4-4.1,4.8-7.3c0-0.3-0.1-0.6-0.2-0.9c0-0.3,0.2-0.6,0.1-0.9c-0.2-2.3-1.2-4.2-2.9-5.7
		c-2.9-2.5-6.2-3.2-9.7-1.6C852.9,491.8,850.8,494.4,850.8,498.4z"/>
	<path class="st5" d="M952.7,498.4c-0.1,0.5-0.3,1-0.4,1.4c-0.6,4-2.5,7-6.1,8.8c-0.9,0.5-1.8,0.9-2.4,1.7c-0.4,0.5-1,0.7-1.7,0.7
		c-1,0-1.8-0.4-2.2-1.4c-0.4-0.8-0.2-1.6,0.3-2.3c0.6-0.8,1.4-1.2,2.4-1c0.2,0,0.4,0.1,0.5,0.2c1.1,0.6,2,0.3,3-0.4
		c2.4-1.6,3.6-3.9,3.9-6.7c0-0.4,0-0.7,0-1.1c0.1-1.3-0.2-2.5-0.7-3.6c-1.2-2.5-3.1-4.2-5.7-5c-6.7-2-12.1,3.8-11.5,8.6
		c-0.9,0.4-1.7,0.5-2.6,0c0.1-0.5,0.3-1,0.3-1.4c0.8-5.6,5.5-9.7,11.2-9.7c0.5,0,1,0,1.5,0c0.5,0.2,1.1,0.3,1.6,0.5
		c4.6,1.4,7.2,4.6,8.1,9.3C952.4,497.5,952.5,498,952.7,498.4z"/>
	<path class="st5" d="M846.3,501.4c-0.1,0.1-0.2,0.3-0.4,0.4c0-0.4,0.1-0.8,0.3-1.1C846.3,500.9,846.3,501.1,846.3,501.4z"/>
	<path class="st5" d="M845.9,502.4c-0.1,0.3-0.2,0.5-0.3,0.8C845.7,503,845.8,502.7,845.9,502.4z"/>
	<path class="st6" d="M1158.4,578.4c0.5,2.1,0.9,4.1,1.4,6.2c0.8,3.5,1.6,7,2.1,10.6c0.1,0.9,0.2,1.8,0,2.8
		c-0.7,4.3-1.6,8.5-2.6,12.8c-0.5,2.4-1.1,4.8-1.7,7.3c-0.1,0.6-0.4,1-1.1,1.1c-0.5-0.2-1-0.3-1.6-0.5c-1.2-0.3-2.4-0.8-3.3-1.8
		c-0.4-0.7-0.3-1.4-0.3-2.2c0.3-4.7,0.3-9.4,0.5-14.2c0.1-1.6,0.1-3.1-0.1-4.7c0-0.6-0.1-1.2-0.5-1.8c-1.1-1.5-2.1-3.1-3.2-4.6
		c-0.1-0.1-0.2-0.1-0.3-0.1c-0.4,0.3-0.3,0.7-0.3,1c0,4.8-0.1,9.6,0.3,14.4c0.2,2,0.3,4,0.4,6c0.1,0.8,0.1,1.5-0.6,2
		c-0.1,0.1-0.2,0.3-0.4,0.4c0,0,0,0,0,0c-4.6,2.1-9.3,3.9-14.3,4.7c-3.1,0.5-6.2,0.6-9.3,0.5c-1.5-0.1-3-0.4-4.5-0.3
		c-0.7-0.4-1.6-0.3-2.3-0.3c-1.2,0-2.5-0.1-3.7-0.4c-0.3-0.2-0.4-0.6-0.4-1c-0.1-1.1-0.2-2.2-0.2-3.3c-0.2-8.7,0.1-17.4,0.4-26
		c0-0.5,0-1,0-1.5c0-0.6-0.4-0.7-0.9-0.7c0.8-0.6,1.1-1.4,1.1-2.4c0-1.1-0.1-2.2,0.1-3.3c0.2-0.9,0.2-1.8,0.2-2.8
		c0-0.6,0-1.1,0.1-1.7c0.3-2.5,0.6-4.9,0.9-7.4c0.1-0.6,0-1.1-0.4-1.6c0.7-0.7,1-1.5,1.2-2.4c0.3-1.2,0.8-2.3,1.3-3.4
		c0.4-0.9,0.9-1.7,1.3-2.6c1.4-1.7,2.7-3.4,4.3-4.8c0.8-0.7,1.6-1.5,2.5-2.2c0.2-0.1,0.3-0.2,0.5-0.3c0.2,0,0.4,0,0.6,0
		c0.5,0.1,1,0.2,1.4,0.3c1.9,0.1,3.8-0.4,5.5-1.2c1.3-0.6,2.7-1.2,4-1.8c0.8-0.4,1.6-0.6,2.5-0.7c2.4,1.3,4.7,2.8,6.8,4.5
		c2.4,2,4.3,4.3,5.5,7.2c0.8,1.9,1.5,3.8,2.3,5.7c0.2,0.6,0.5,1.1,0.7,1.7c0.1,0.9,0.4,1.7,0.8,2.5c0.1,0.5,0.2,1.1,0.4,1.6
		c0.7,2.5,1.4,5,2.1,7.5C1158,577.5,1158.2,577.9,1158.4,578.4z M1147.1,591.4C1147.2,591.4,1147.2,591.4,1147.1,591.4
		c0.1-0.7,0-1.4,0.1-2.1c0.1-1-0.3-1.8-0.8-2.6c-1.5-2.3-3-4.6-4.5-6.9c-0.2-0.3-0.4-0.6-0.6-0.9c-0.1-0.1-0.3-0.2-0.5-0.2
		c-0.3,0-0.4,0.3-0.5,0.5c-0.2,0.5-0.1,1-0.1,1.5c0.1,0.4,0.2,0.9,0.2,1.3c0.4,4,2,7.4,4.3,10.6c0.5,0.7,1.1,1.3,1.8,1.9
		c0.2,0.1,0.6,0,0.6-0.3C1147.1,593.3,1147.1,592.4,1147.1,591.4z"/>
	<path class="st7" d="M1154.6,565.3c-0.2-0.6-0.5-1.1-0.7-1.7c-0.8-1.9-1.5-3.8-2.3-5.7c-1.2-2.9-3.1-5.2-5.5-7.2
		c-2.1-1.8-4.4-3.2-6.8-4.5c-1.4-1.8-2.4-3.8-3-6c-0.2-0.9-0.3-1.7,0.2-2.5c0.3-0.5,0.4-1,0.6-1.6c2-1.6,3.1-3.8,3.7-6.3
		c0.2-1,0.5-2,0.7-3.1c0.2-1.5,0.4-2.9,0.1-4.4c-0.2-1.4-0.5-2.7-2.2-2.9c-0.3,0-0.5-0.3-0.8-0.5c1.8,0.4,3.5-0.1,5.3-0.7
		c3.4-1.1,6.8-1.9,10.3-2.6c1.4-0.2,2.9-0.2,4.3-0.1c0.5,0,0.8,0.4,0.6,0.9c-0.2,0.4-0.5,0.9-0.7,1.3c-2.5,3.5-4.5,7.3-6.7,11
		c-0.8,1.3-1.3,2.7-1.9,4.1c-0.2,0.6-0.3,1.2-0.3,1.8c0.1,0.7,0.6,1.1,1.4,0.8c0.3-0.1,0.6-0.2,0.8-0.4c0.9-0.7,1.8-1.3,2.6-2.1
		c2.3-2.2,4.3-4.6,6.4-7c2.5-3,5-6,7.3-9.2c0.9-1.2,1.9-2,3.5-2.1c0.9-0.1,1.9-0.2,2.8-0.1c4,0.2,8.1,0.6,11.9,2.2
		c2.3,1,4.3,2.5,5.7,4.6c0.5,0.8,0.9,1.6,1.1,2.6c0.5,1.9,0.8,3.9,0.9,5.9c0.2,3.1-0.5,6.1-1.7,8.9c-0.7,1.6-1.9,2.9-3.3,4
		c-0.5,0.4-1.2,0.8-1.9,0.8c-1.5,0.2-3.1,0.5-4.6,0.5c-4.2,0-8.3,0-12.5,0c-1.2,0-2.4,0.1-3.5,0.4c-0.2,0.1-0.5,0.1-0.7,0.2
		c-1.1,0.4-1.3,1.1-0.4,1.9c0.4,0.4,0.9,0.7,1.3,1c3.3,1.9,7,3,10.7,3.6c0.8,0.1,1.6,0.3,2.4,0.3c1.4,0.1,2.9,0.2,4.3-0.1
		c0.3-0.1,0.6-0.1,0.9,0.2c0.3,0.3,0.1,0.7-0.1,1c0,0.1-0.1,0.2-0.2,0.3c-1.9,3.2-3.9,6.4-6.3,9.3c-1.8,2.2-3.9,4-6.2,5.5
		c-1.5,1-3.3,1.6-5.1,1.7c-1.5,0.1-3-0.2-4.4-0.7c-2.3-0.7-4.5-1.4-6.5-2.8C1155.7,565.5,1155.3,565,1154.6,565.3z"/>
	<path class="st8" d="M1119.2,617.8c1.5,0,3,0.2,4.5,0.3c3.1,0.2,6.2,0,9.3-0.5c5-0.8,9.7-2.6,14.3-4.7c0.5,4.1,1,8.1,1.1,12.3
		c0.1,1.8,0.3,3.6,0.7,5.4c1.5,6.8,3.6,13.3,6.6,19.6c0.8,1.7,1.8,3.3,2.9,4.8c1.4,1.8,2.3,3.8,3.1,5.9c1.6,3.9,2.7,7.9,3.7,11.9
		c2.2,8.8,3.6,17.8,4.9,26.8c0.2,1.4,0.3,2.7,0.5,4.1c0.1,0.8,0,1.6-0.5,2.3c-1.7,1-3.4,2-5.2,2.8c-0.5,0.2-0.9,0.5-1.1,0.9
		c-0.6-0.5-1-1.1-1.4-1.7c-3.5-6-7-12-10.5-18c-2.7-4.7-5.4-9.3-7.8-14.2c-1.5-3-3-6-4.5-9c-0.2-0.4-0.5-0.9-0.7-1.3
		c0-0.1-0.2-0.1-0.3-0.1c-0.1,0-0.2,0.2-0.2,0.3c0,0.2,0,0.4,0,0.6c-0.1,0-0.2,0.1-0.3,0.1c0-0.2-0.1-0.5,0-0.7
		c0.1-1.6-0.3-3-1.1-4.5c-1-2-2-4.2-2.9-6.2c-1.4-3.1-2.8-6.2-4.2-9.4c-1.1-2.6-2.3-5.1-3.4-7.7c-2.3-5.4-4.6-10.7-6.8-16.1
		c-0.4-1-0.8-2-1.1-3C1118.6,618.4,1118.8,618.1,1119.2,617.8z"/>
	<path class="st9" d="M1137.2,536.2c-0.2,0.5-0.3,1.1-0.6,1.6c-0.5,0.8-0.4,1.6-0.2,2.5c0.6,2.2,1.6,4.2,3,6c-0.9,0-1.7,0.3-2.5,0.7
		c-1.3,0.6-2.7,1.2-4,1.8c-1.8,0.8-3.6,1.3-5.5,1.2c-0.5,0-1-0.2-1.4-0.3c1.1-0.4,1.5-1.1,1.2-2.3c-0.2-1.1-0.3-2.2-0.4-3.3
		c0.7,0.9,0.9,1,1.6,0.7c1.8-0.8,3.5-1.8,4.8-3.4c0.1-0.1,0.2-0.3,0-0.5c-0.1-0.1-0.2-0.1-0.3-0.1c-1.5,0.6-3.1,0.6-4.8,0.6
		c-0.5,0-1,0.1-1.4,0.4c-0.6-0.3-1.2-0.4-1.8-0.4c-0.7-0.1-1.2-0.4-1.5-1c-0.3-0.5-0.6-1.1-0.7-1.7c-0.3-1.1-0.5-2.3-0.5-3.5
		c0-2,0-4,0-6c0-1,0-1-1.2-1.1c-0.2-0.1-0.5-0.3-0.7-0.4c1.5,0.1,3-0.2,4.4-0.7c1.1-0.4,2.2-0.6,3.3-0.6c1.2,0,2.1,0.4,2.7,1.4
		c0.3,0.5,0.6,0.9,0.9,1.4c0.2,0.4,0.4,0.9,0.7,1.3c0.4,0.7,0.9,0.8,1.5,0.3c0.2-0.2,0.4-0.3,0.6-0.4c0.6-0.3,1.1-0.1,1.3,0.6
		c0.1,0.6,0.1,1.2,0,1.9C1135.5,534.2,1136,535.3,1137.2,536.2z"/>
	<path class="st10" d="M1137.2,536.2c-1.2-0.8-1.6-2-1.5-3.4c0.1-0.6,0.1-1.2,0-1.9c-0.2-0.6-0.7-0.9-1.3-0.6
		c-0.2,0.1-0.4,0.3-0.6,0.4c-0.6,0.5-1.1,0.4-1.5-0.3c-0.3-0.4-0.5-0.9-0.7-1.3c-0.3-0.5-0.5-1-0.9-1.4c-0.7-0.9-1.6-1.4-2.7-1.4
		c-1.1,0-2.2,0.2-3.3,0.6c-1.4,0.5-2.9,0.8-4.4,0.7c-1.1-0.8-1.6-2-1.8-3.3c-0.3-1.8,0.4-3.3,1.9-4.3c0.7-0.5,1.4-0.8,2.2-1
		c1.1-0.4,2.3-0.6,3.5-0.7c2.2-0.1,4.3-0.2,6.5-0.2c2.1,0,4.1,0.3,6,0.9c0.3,0.2,0.5,0.5,0.8,0.5c1.7,0.3,2,1.6,2.2,2.9
		c0.3,1.5,0.1,3-0.1,4.4c-0.2,1-0.4,2.1-0.7,3.1C1140.3,532.3,1139.2,534.5,1137.2,536.2z"/>
	<path class="st7" d="M1121,528c1.2,0.1,1.2,0.1,1.2,1.1c0,2,0,4,0,6c0,1.2,0.2,2.4,0.5,3.5c0.1,0.6,0.4,1.2,0.7,1.7
		c0.3,0.6,0.8,0.9,1.5,1c0.6,0.1,1.2,0.1,1.8,0.4c0,0.7,0,1.5,0.1,2.2c0.1,1.1,0.2,2.2,0.4,3.3c0.3,1.2-0.2,1.9-1.2,2.3
		c-0.2,0-0.4,0-0.6,0c-0.2,0.1-0.3,0.2-0.5,0.3c-0.8,0.7-1.6,1.5-2.5,2.2c-1.6,1.4-2.9,3.2-4.3,4.8c-1-5.3-2-10.5-3-15.8
		c0.1-0.8-0.1-1.6-0.2-2.4c-0.3-1.8-0.6-3.6-0.9-5.4c0.3-0.2,0.7-0.2,1-0.5c1.8-1.7,3.9-3.2,5.8-4.7
		C1120.9,528.2,1120.9,528.1,1121,528z"/>
	<path class="st5" d="M1109.5,508.9c-1.1-0.3-1.9,0.3-2.5,1.1c-0.5,0.6-1,1-1.8,1.1c-1,0.1-1.8-0.2-2.3-1.2
		c-0.5-0.9-0.4-1.8,0.2-2.6c0.6-0.8,1.4-1.1,2.4-0.9c0.3,0.1,0.6,0.2,0.9,0.3c1.5,0.5,1.8,0.3,2.6-1.2c0.6,0.3,0.9,0,1.3-0.4
		c2.6-2.4,3.9-6.8,1.6-10.9c-2.4-4.3-7.9-6-12.2-3.6c-3.1,1.7-4.7,4.3-4.9,7.8c-0.8,0.4-1.5,0.4-2.3,0c0.2-1,0.2-2.1,0.6-3.1
		c1.6-4.9,6.2-8.4,11.5-8c7.1,0.5,11.9,6.9,10.5,13.7c-0.6,2.7-1.9,5-4.1,6.7C1110.3,507.9,1109.8,508.3,1109.5,508.9z"/>
	<path class="st5" d="M1053.9,498.3c-0.7,0.6-1.5,0.4-2.3,0.1c0.3-1.8,0.6-3.5,1.5-5.2c3.3-6,11.1-7.9,16.6-3.9
		c3.1,2.2,4.6,5.2,4.7,9c0,1,0,2-0.3,3c-0.9,3.5-3,6-6.2,7.5c-0.8,0.4-1.5,0.8-2.1,1.5c-0.7,0.9-2.2,1-3.1,0.4
		c-1-0.6-1.3-2.1-0.8-3.2c0.5-1,1.6-1.5,2.9-1.2c0.1,0,0.1,0,0.2,0.1c1.5,0.9,2.6,0.2,3.7-0.8c2.2-1.9,3.5-4.3,3.4-7.3
		c0-0.2,0-0.4,0-0.6c-0.3-4-3.1-7.2-7-8.1c-3.8-0.9-7.7,0.7-9.8,4.1C1054.5,495.2,1054.2,496.7,1053.9,498.3z"/>
	<path class="st11" d="M972.5,498.3c-0.7,0.6-1.5,0.4-2.3,0.1c0.1-0.6,0.3-1.2,0.4-1.8c1-5.6,5.7-9.2,10.8-9.4
		c4.5-0.2,9.7,2.5,11.3,8.5c0.2,0.9,0.2,1.9,0.7,2.7c-0.3,0.6-0.3,1.2-0.4,1.8c-0.7,3.9-2.7,6.9-6.3,8.6c-0.7,0.4-1.4,0.7-1.9,1.4
		c-0.5,0.6-1.2,0.9-2,0.9c-1.1,0-1.8-0.5-2.1-1.5c-0.4-1-0.2-1.8,0.6-2.5c0.7-0.7,1.6-1,2.6-0.6c0.2,0.1,0.5,0.2,0.7,0.3
		c0.7,0.3,1.4,0.2,1.9-0.3c1.5-1.2,3-2.4,3.8-4.3c0.5-1.2,0.7-2.5,0.6-3.8c0.1-2.5-0.9-4.6-2.7-6.3c-2.5-2.4-5.4-3.2-8.7-2.3
		c-3.6,1-5.6,3.4-6.6,6.9C972.7,497.2,972.6,497.8,972.5,498.3z"/>
	<path class="st11" d="M1013.2,498.3c-0.7,0.6-1.5,0.4-2.3,0.1c0.1-0.5,0.3-1.1,0.3-1.6c0.8-6.5,8.6-12.2,16.3-8.3
		c4,2,6.1,5.4,6.2,9.9c0.1,2.2-0.5,4.3-1.6,6.2c-1,1.7-2.4,3-4.1,3.9c-1,0.6-2,1.1-2.9,2c-1.2,1.2-3.2,0.7-3.8-0.9
		c-0.3-0.8-0.2-1.6,0.4-2.3c0.6-0.7,1.3-1.2,2.3-1c0.4,0.1,0.7,0.2,1.1,0.3c0.8,0.3,1.4,0.2,2.1-0.3c2.8-1.9,4.7-4.4,4.4-8
		c0.1-2.6-1-4.7-2.8-6.4c-4.8-4.5-11.2-2.4-13.8,1.5C1013.9,494.9,1013.5,496.6,1013.2,498.3z"/>
	<path class="st9" d="M1151.7,616.7c0.9,0.9,2.1,1.4,3.3,1.8c0.5,0.1,1,0.3,1.6,0.5c0,2-0.6,3.7-1.9,5.3c-0.9,1-1.8,2-2.8,3
		c-0.2,0.2-0.5,0.5-0.8,0.3c-0.5-0.2-0.3-0.6-0.2-1c0.2-1,0.4-1.9,0.6-2.9c0-0.2,0.1-0.5,0.1-0.7c0-0.1-0.1-0.2-0.2-0.2
		c0,0-0.1,0-0.2,0.1c-0.1,0.1-0.2,0.2-0.2,0.3c-0.2,0.3-0.3,0.8-0.8,0.6c-0.3-0.1-0.3-0.5-0.4-0.8c-0.3-1.4,0-2.7,0.8-3.9
		C1151,618.3,1151.6,617.7,1151.7,616.7z"/>
	<path class="st12" d="M1158.4,578.4c-0.2-0.5-0.3-0.9-0.5-1.4c-0.7-2.5-1.4-5-2.1-7.5c-0.1-0.5-0.3-1.1-0.4-1.6
		c2,1.6,3.7,3.5,5.5,5.3c0.4,0.4,0.6,0.8,0.7,1.3c0.2,0.8,0.1,1.5-0.7,2c-0.5,0.3-1,0.6-1.5,0.8
		C1159,577.5,1158.6,577.8,1158.4,578.4z"/>
	<path class="st8" d="M1147.3,613c0.1-0.1,0.2-0.3,0.4-0.4C1147.5,612.8,1147.4,612.9,1147.3,613z"/>
	<path class="st13" d="M829.1,588.7c-0.7,3.6-1.3,7.2-2,10.8c-1.7,9-3.5,17.9-5.2,26.9c-0.2,0.9,0,1.9-0.5,2.7
		c-0.3-0.9-0.4-1-1.1-0.6c-0.6,0.4-1.2,0.8-1.9,0.9c-0.2-0.4-0.5-0.8-0.7-1.3c-1.8-4.2-4.6-7.8-7.8-11c-2-2.1-4.3-4-6.6-5.8
		c-6.6-5.1-13.7-9.5-21-13.4c-5-2.6-10.1-5.1-15.2-7.5c-5.2-2.4-10.5-4.6-15.8-6.7c-3-1.2-6.1-2.4-9.2-3.5c-1.6-0.6-3.1-1.4-4.8-1.6
		c-0.1-0.1-0.2-0.1-0.3-0.2c0,0-0.1,0-0.2,0c-0.1,0.1-0.1,0.1,0.1,0.2c0.1,0,0.2,0,0.3,0c0.4,0.4,0.9,0.7,1.4,0.9
		c1.9,0.8,3.8,1.6,5.7,2.4c4.2,1.9,8.4,3.6,12.6,5.6c5.1,2.5,10.2,5,15.1,7.7c5.9,3.2,11.8,6.7,17.4,10.5
		c5.5,3.7,10.7,7.8,15.4,12.6c2.3,2.3,4.3,4.8,6,7.6c1.1,1.7,2,3.6,2.6,5.6c0.8,2.5,1.1,5.1,0.3,7.7c-0.2,0.6-0.2,1.2-0.3,1.8
		c-0.4,0.1-0.6,0.4-0.9,0.7c-2.2,3.4-5.4,5.4-9.1,6.8c-4.2,1.6-8.5,2.5-12.9,3c-1.9,0.2-3.7,0.3-5.6,0.3c-0.7,0-1.4,0.1-2,0.2
		c-1,0.1-2,0.2-3,0c-1.3-0.2-2.6-0.2-3.9-0.2c-4.6-0.3-9.2-0.9-13.5-2.5c-1-0.4-1.9-0.8-2.7-1.6c-0.9-1-1-1.7-0.4-2.9
		c0.3-0.5,0.7-1.1,1.1-1.5c2.4-2.6,5-4.8,7.8-6.9c1.8-1.4,4-2.3,6.2-2.9c3.6-1,7.3-1.5,11-1.9c2.3-0.2,4.6-0.5,6.8-0.8
		c1.3-0.2,2.6-0.5,3.7-1.1c0.6-0.3,1.2-0.7,1.3-1.5c0-0.9-0.7-1.3-1.3-1.6c-1.7-0.8-3.6-1.1-5.4-1.2c-2.1-0.1-4.2-0.1-6.3,0
		c-2.1,0.1-4.1,0.8-6.1,1.7c-2.4,1.1-4.5,2.6-6.8,4c-3.1,2-6.4,3.6-9.9,4.7c-2.4,0.7-4.8,1.2-7.3,1.5c-2.2,0.3-4.3-0.3-6.4-1.2
		c-2.1-0.9-4-2.2-5.7-3.8c-2.5-2.3-4.8-4.9-6.8-7.7c-2.9-4.1-5.3-8.4-7.4-12.9c-0.1-0.1-0.1-0.2-0.2-0.3c-0.1-0.4-0.5-0.8-0.2-1.2
		c0.3-0.5,0.8-0.2,1.2-0.1c3,0.6,6,0.6,8.9,0.4c5.6-0.5,11.1-1.7,16.2-4c0.8-0.4,1.5-0.9,2.2-1.3c0.4-0.2,0.7-0.6,0.9-0.9
		c0.7-0.9,0.6-1.6-0.5-2c-1.9-0.8-3.8-1.1-5.8-1.3c-2.2-0.2-4.5-0.4-6.7-0.7c-0.2,0-0.4,0-0.6,0c-3.4-0.1-6.7-0.2-10.1-0.4
		c-2.4-0.1-4.8-0.4-7.2-0.6c-1.5-0.2-2.7-0.9-3.8-1.9c-3-2.8-4.6-6.3-5.3-10.3c-1.1-6-0.3-11.8,1.7-17.4c0.9-2.7,2.8-4.7,5-6.4
		c2.1-1.6,4.4-2.6,6.9-3.3c3.7-1,7.4-1.5,11.2-1.5c2.7,0,5.5,0.2,8.2,0.4c0.2,0,0.4,0,0.6,0.1c2.1,0.3,2.1,0.3,3.4,2.2
		c3.5,5.2,7.1,10.4,10.9,15.4c3.2,4.2,6.3,8.3,10.2,11.9c0.7,0.7,1.5,1.4,2.3,1.9c0.3,0.2,0.7,0.4,1,0.5c0.9,0.3,1.5-0.1,1.6-1
		c0-0.5,0-1-0.1-1.5c-0.2-0.9-0.4-1.8-0.8-2.7c-0.8-2.2-1.7-4.3-2.7-6.3c-2.7-5.5-5.5-10.9-8.6-16.1c-1-1.7-0.8-2,1.1-2
		c2.2,0,4.3,0.5,6.4,1c4.6,1,9,2.6,13.4,4.1c4.6,1.7,9.1,3.6,13.7,5.5c1.3,0.5,2.5,1.2,3.7,1.7c0.8,0.3,1.1,0.9,1.1,1.7
		c-0.1,2.2,0,4.5-0.2,6.7c-0.3,2.7-0.2,5.5,0,8.2c0.1,0.7,0.2,1.5,0.2,2.2c-0.1,2.8,0.2,5.6,0.5,8.4c0.2,2,0.6,3.9,1.2,5.8
		c0.2,0.8,0.6,1.5,1.1,2.1c0.8,0.8,1.7,0.8,2.4,0c0.6-0.6,0.8-1.4,1-2.2c0.2-0.9,0.4-1.8,0.5-2.8c0.2-2.4,0.2-4.7,0-7.1
		c-0.2-2.2-0.4-4.5-0.7-6.7c-0.4-3.1-0.9-6.2-1.3-9.2c-0.1-0.8-0.3-1.6-0.4-2.4c-0.1-0.5,0.3-0.8,0.8-0.7c0.3,0.1,0.6,0.2,0.9,0.3
		c2,0.7,3.8,1.8,5.6,3c3.1,1.9,5.9,4.4,8.6,6.8C828.2,587.9,828.6,588.3,829.1,588.7z"/>
	<path class="st4" d="M810.1,687.6c-0.3,1.5-0.7,3-0.8,4.5c0,0.4-0.2,0.8-0.4,1.2c-0.1,0.2-0.2,0.5-0.3,0.7c0,0,0,0,0,0
		c-0.2,0.3-0.4,0.6-0.6,0.9c-2.3,4.6-5.6,8.5-9.4,12c-1,0.9-2.1,1.8-3.3,2.5c-0.5,0.3-1,0.5-1.5,0.7c-1,0.3-1.7-0.1-2-1.1
		c-0.2-0.5-0.3-1.1-0.3-1.6c0-1.4-0.1-2.7,0-4.1c0.1-2.1,0.8-4,1.9-5.8c1-1.6,2-3.1,3-4.7c0.5-0.8,1.1-1.7,1.6-2.5
		c0.3-0.5,0.5-1.1,0.5-1.8c0-0.7-0.5-1-1.1-0.8c-0.7,0.2-1.2,0.6-1.7,1.1c-2.7,2.3-4.6,5.1-5,8.7c-0.2,1.5-0.5,2.9-0.8,4.4
		c-0.4,2.1-1.3,4-2.4,5.9c-1.6,2.8-4.1,4-7.2,4.4c-3.4,0.4-6.7,0-10-0.6c-1.2-0.2-2.4-0.6-3.6-0.9c-0.5-0.2-0.6-0.6-0.2-1
		c1.2-1.2,2.5-2.5,3.5-3.9c1.5-2.1,2.7-4.3,3.5-6.8c0.2-0.6,0.4-1.3,0.5-2c0.1-0.5,0.2-1-0.3-1.4c-0.6-0.4-1.1,0-1.5,0.3
		c-0.3,0.2-0.6,0.4-0.9,0.7c-2.3,1.9-4.4,4.1-6.4,6.3c-1.1,1.1-2.1,2.2-3.2,3.4c-1.1,1.1-2.3,1.6-3.9,1.6c-1.8,0-3.4-0.4-5-1.3
		c-2.7-1.6-4.8-3.7-6.5-6.3c-1.7-2.6-1.6-5.4-0.6-8.2c0.5-1.3,1.2-2.6,2-3.8c1.4-1.9,2.9-3.7,4.6-5.4c0.9-0.9,1.9-1.2,3.2-1
		c5.6,0.7,11.3,1.2,16.9,1c0.5,0,1,0,1.5-0.1c0.5-0.1,1-0.2,1.5-0.3c0.4-0.1,0.7-0.3,0.8-0.7c0.1-0.5-0.3-0.8-0.7-1
		c-0.5-0.3-1-0.5-1.5-0.7c-1.5-0.5-2.9-1-4.5-1.4c-2.7-0.7-5.3-1.2-8-1.8c-0.4-0.1-0.7-0.1-1.1-0.3c-0.4-0.1-0.5-0.5-0.3-0.9
		c0.7-0.8,1.5-1.5,2.3-2.2c2.2-1.7,4.6-3.2,7.1-4.5c2.7-1.4,5.5-2.7,8.1-4.1c1.2-0.6,2-0.4,2.9,0.5c2.7,2.5,5.6,5,8.6,7.2
		c1.1,0.8,2.2,1.6,3.4,2.2c0.6,0.3,1.2,0.6,2,0.5c0.5-0.1,0.9-0.5,0.8-1.1c-0.1-0.6-0.4-1-0.8-1.5c-0.9-1-1.9-1.9-3-2.8
		c-2.5-1.9-5.1-3.6-7.7-5.2c-0.4-0.2-0.7-0.5-1.1-0.7c-0.2-0.2-0.2-0.5,0-0.6c0.2-0.2,0.5-0.4,0.8-0.5c1.2-0.6,2.5-1,3.9-1.3
		c2.8-0.7,5.6-1,8.5-0.9c3.3,0.1,6,1.6,8,4.2c0.9,1.3,1.6,2.6,2,4.2c0.7,2.7,1.1,5.4,0.7,8.1c-0.4,2.8-0.3,2.8,2.1,4.4
		c0.7,0.4,1.3,1,2.2,0.8c-0.2,1.1-0.5,2.3-0.7,3.4c-0.8,0.2-1,0.3-0.9,0.8C809.7,686.8,809.8,687.2,810.1,687.6z"/>
	<path class="st13" d="M833.6,565.9c-0.3,1.5-0.5,3.1-0.8,4.6c0,0.2-0.2,0.4-0.3,0.7c0-1-0.5-1.6-1.3-2.1c-2.6-1.6-5.1-3.3-7.7-4.9
		c-4-2.5-7.8-5.1-11.6-7.8c-4.6-3.2-9.1-6.5-13.4-10.1c-3.1-2.6-6.3-5.3-8.8-8.6c-0.6-0.8-1.2-1.6-1.6-2.5c-0.3-0.6-0.5-1.1-0.7-1.7
		c-0.5-1.8,0.2-3.2,2-3.9c1.7-0.7,3.4-0.7,5.1-0.2c2.1,0.5,4,1.5,5.8,2.6c3.2,2,6.2,4.4,8.9,7c2.8,2.7,5.6,5.5,8.3,8.3
		c2.3,2.4,4.5,5,6.6,7.6c2.8,3.3,5.5,6.8,8.2,10.2C832.8,565.3,833.1,565.7,833.6,565.9z"/>
	<path class="st4" d="M813.4,641c0.1-0.6,0.1-1.2,0.3-1.8c0.8-2.6,0.5-5.2-0.3-7.7c-0.6-2-1.5-3.8-2.6-5.6c-1.7-2.8-3.7-5.2-6-7.6
		c-4.7-4.8-9.9-8.9-15.4-12.6c-5.6-3.8-11.4-7.2-17.4-10.5c-5-2.7-10-5.2-15.1-7.7c-4.1-2-8.4-3.8-12.6-5.6
		c-1.9-0.8-3.8-1.6-5.7-2.4c-0.5-0.2-1-0.5-1.4-0.9l0,0c1.7,0.2,3.2,1,4.8,1.6c3.1,1.1,6.2,2.3,9.2,3.5c5.3,2.2,10.6,4.4,15.8,6.7
		c5.1,2.4,10.2,4.9,15.2,7.5c7.4,3.9,14.5,8.2,21,13.4c2.3,1.8,4.5,3.7,6.6,5.8c3.2,3.3,6,6.8,7.8,11c0.2,0.5,0.5,0.9,0.7,1.3
		c0,0.1-0.1,0.2-0.1,0.4c-0.3,0.5-0.3,1,0,1.5c0.1,2.2,0.3,4.4,0.8,6.6c0.1,0.5,0.4,0.2,0.7,0c0,0.1,0,0.3,0,0.4
		c-0.9,2.5-1.1,5.2-1.7,7.8c0,0.2-0.1,0.4-0.2,0.5c-0.2-0.3-0.5-0.6-0.7-0.9C816.2,644,814.9,642.5,813.4,641z"/>
	<path class="st13" d="M836.2,552.5c-0.2,1.7-0.6,3.3-1.1,4.9c-1.4-1.9-2.5-4-3.7-6c-2.2-3.8-4.4-7.7-6.2-11.7
		c-1.4-2.9-2.6-5.8-3.6-8.8c-0.5-1.6-0.8-3.3-0.7-5c0-1.8,1.5-3.1,3.5-2.3c0.9,0.3,1.6,0.9,2.2,1.7c1.4,1.8,2.4,3.9,3.3,6
		c1.8,4.5,3.1,9.2,4.1,13.9c0.5,2.4,1,4.7,1.5,7.1C835.6,552.9,835.9,552.7,836.2,552.5z"/>
	<path class="st14" d="M1115.1,541.3c1,5.3,2,10.5,3,15.8c-0.4,0.9-0.9,1.7-1.3,2.6c-0.5,1.1-1,2.2-1.3,3.4
		c-0.2,0.9-0.6,1.7-1.2,2.4c-0.6,0.5-1.1,1-1.7,1.5c-1.4,1.3-2.7,2.6-4.1,3.8c-0.8,0.7-1.7,1.3-2.5,1.9c-0.5,0.4-1.1,0.5-1.7,0.1
		c-1.5-1-3.1-1.8-4.5-3c0-1.2-0.3-2.4-0.6-3.6c-0.4-1.4-1.3-2.2-2.7-2.5c-0.5-0.1-1-0.2-1.5-0.2c-1.7,0-3.3,0-5,0
		c-0.5-0.3-1.1-0.6-1.6-0.9c-1.7-1.1-3.4-2.2-5.1-3.3c-0.5-1-0.5-2.2-0.7-3.3c2.1-0.4,4.2-0.8,6.3-1.2c0.3,0,0.6-0.1,0.8-0.3l0,0
		c0.3,0,0.6,0,0.9,0c1.4-0.2,2-1,2.1-2.4c0-0.7-0.1-1.3-0.3-2c-0.4-1.1-0.9-1.5-2-1.6c-0.7,0-1.5,0-2.2,0.3c-4,0.6-8,1.7-12.1,2
		c-0.3,0-0.6,0.1-0.9,0.2c-0.7,0.2-1.3,0.4-2,0.5c-4.7,0.9-9.4,1.8-14.1,2.6c-1,0.5-1.9,1.1-2.7,1.8c-1,0.4-1.9,1.2-2.8,1.7
		c-0.2,0.1-0.4,0.3-0.4,0.5c0,0.3,0.3,0.3,0.5,0.4c1,0.2,2,0.4,3.1,0.6c1.1,0.3,2.2,0.7,3.4,0.7c0.2,0,0.4,0,0.7,0
		c0.4,0.1,0.8,0,1.2-0.3c1.2-0.2,2.3-0.4,3.5-0.6c3.2-0.6,6.4-1.1,9.5-1.7c0.8,0,1.4,0.3,1.8,1.1c0.4,0.9,1.1,1.6,2.1,2
		c-0.2,0.6-0.2,1.1,0.2,1.7c0.6,0.8,1.1,1.6,1.6,2.4c-0.4,0.8-0.4,1.7-0.2,2.5c0.4,2.3,0.9,4.5,1.3,6.8c0.4,1.8,0.7,3.7,1.1,5.5
		c0.5,2,1.7,2.9,3.7,3.1c0.2,0,0.4,0,0.6,0c3.1,0,6.2,0,9.3,0c1.1,0.8,2.3,1.7,3.4,2.5c1.1,0.8,2.3,1.4,3.7,1.8
		c0.9,0.3,1.8,0.4,2.8,0.1c2-0.6,3.9-1.1,5.7-2.1c0.5,0,0.9,0.1,0.9,0.7c0,0.5,0,1,0,1.5c-0.3,8.7-0.5,17.4-0.4,26
		c0,1.1,0.1,2.2,0.2,3.3c0,0.4,0.1,0.7,0.4,1c0.6,0.8,0.6,1.9,0.7,2.8c0.4,5.4,0.8,10.9,1.3,16.3c0.2,2.3,0.2,4.7,0.7,7
		c0,0.9,0,1.8,0.1,2.8c0.2,2.8,0.5,5.6,0.7,8.4c-0.1,0.2-0.2,0.8-0.5,0.4c-1-1.4-2.4-1.9-4-1.9c-3.6,0-7.2,0-10.8,0
		c-0.6,0-1.1,0-1.7,0.2c-1.4,0.4-2.2,1.5-1.9,2.9c0.2,1,0.4,2.1,0.6,3.1c0.6,3.1,1.2,6.2,1.8,9.3c0.6,2.5,1.7,3.4,4.3,3.5
		c0.3,0,0.6,0,0.9,0c4,0,7.9-0.1,11.9-0.1c0.2,0,0.5,0.1,0.7,0.1c0.2,3.2,0.5,6.4,0.7,9.6c0.2,4.9,0.8,9.8,0.9,14.6
		c0,0.4,0,0.7,0.1,1.1c0.2,2.7,0.4,5.4,0.7,8.1c0.2,2.2,0.5,4.3,0.6,6.5c0.1,0.8,0.4,1.5,0.9,2.2c-0.6,1.5-1.7,2.6-3,3.4
		c-1.6,1-3.4,1.6-5.3,2.1c-0.4,0.1-0.9,0.1-1.3,0.3c-1.1,0.3-2,0.9-2.5,2c-0.8,0-1.6,0.1-2.4,0.1c-70.4,0-140.8,0-211.2,0
		c-1.1,0-2.1-0.1-3.2-0.1c-0.4-0.2-0.9-0.5-1.3-0.7c-3.6-1.8-5.9-4.7-6.7-8.7c-0.7-3.7-1.4-7.3-2.1-11c-1.2-6.6-2.4-13.2-3.6-19.8
		c-2.2-12.1-4.4-24.2-6.6-36.3c-1.2-6.8-2.5-13.6-3.7-20.4c-2.2-12.3-4.5-24.6-6.7-36.9c-1.3-6.9-2.6-13.8-3.8-20.7
		c-1.5-8-2.9-16-4.4-24c0-0.1,0-0.2-0.1-0.4c-0.2-1.5-0.1-1.7,1.5-1.7c0.7,0,1.4,0,2.1,0c84.9,0,169.8,0,254.7,0
		C1113.2,541.3,1114.2,541.3,1115.1,541.3z M1017.6,582.4c4.6,0,9.3,0,13.9,0c0.4,0,0.9,0,1.3-0.1c1.6-0.3,2.4-1.5,2.2-3.1
		c-0.3-1.6-0.6-3.2-0.9-4.7c0.6-0.5,1.1-1,1.7-1.5c1.7-1.5,3.2-3.1,4.4-5c0.9-1.3,1.5-2.7,1.7-4.3c0.3-1.9-0.7-3.4-2.5-4.1
		c-0.8-0.3-1.6-0.4-2.4-0.4c-2.8-0.1-5.4,0.5-8,1.4c-2.1,0.7-4.1,1.8-6.1,2.8c-0.7,0-1.3,0-2,0c-0.6,0-1.2,0-1.7-0.4
		c0.8-0.7,1.7-1.4,2.5-2.2c0.2-0.2,0.4-0.4,0.6-0.7c0,0,0-0.1,0-0.2c-0.1-0.1-0.2-0.2-0.3-0.2c-0.5,0-0.8,0.4-1.1,0.6
		c-1.2,1-2.4,1.9-3.6,2.9c-0.4,0-0.7,0-1.1,0.1c-1.7,0.3-2.5,1.2-2.6,2.9c0,0.2,0,0.5,0,0.7c-0.9,1.1-1.7,2.1-2.5,3.2
		c-1.1,1.5-2,3-2.5,4.8c-1.1,4.1,1.1,7.2,5.4,7.4C1015.2,582.5,1016.4,582.4,1017.6,582.4z M945.3,681.7
		C945.3,681.7,945.3,681.7,945.3,681.7c-1.9,0-3.9,0-5.8,0c-2.6,0-3.5,1.1-3,3.7c0.6,3.3,1.3,6.6,1.9,9.9c0.2,0.9,0.3,1.7,0.5,2.6
		c0.2,1.1,0.9,1.9,1.9,2.4c0.8,0.4,1.6,0.5,2.5,0.5c3,0,6,0,9,0c0.9,0,1.7,0,2.6,0c2,0,3.2-1.7,2.7-3.5c-0.7-3-1.2-6.1-1.8-9.2
		c-0.2-1.1-0.4-2.2-0.7-3.3c-0.5-1.9-1.6-2.8-3.6-3c-0.4,0-0.9,0-1.3,0C948.7,681.7,947,681.7,945.3,681.7z M915.5,700.7
		c1.7,0,3.5,0,5.2,0c0.5,0,1,0,1.5-0.1c1.4-0.2,2.1-1,2.1-2.4c0-0.4,0-0.7-0.1-1.1c-0.7-4-1.5-8.1-2.3-12.1c-0.4-1.9-1.6-3-3.6-3.3
		c-0.2,0-0.5-0.1-0.7-0.1c-3.8,0-7.7,0-11.5,0c-2.5,0-3.4,1.1-3,3.6c0.7,3.9,1.4,7.8,2.3,11.7c0.6,2.7,1.8,3.7,4.5,3.7
		c0.4,0,0.7,0,1.1,0C912.6,700.7,914.1,700.7,915.5,700.7z M1040,653c-1.8,0-3.6,0-5.4,0c-0.6,0-1.2,0-1.8,0.2c-1,0.3-1.6,1-1.6,2
		c0,0.7,0,1.5,0.2,2.2c0.7,3.7,1.4,7.4,2.1,11.2c0.1,0.8,0.5,1.4,1,2c0.9,1,2,1.4,3.3,1.4c3.8,0,7.7,0,11.5,0c0.2,0,0.4,0,0.6,0
		c1.9-0.2,2.8-1.2,2.6-3.1c0-0.3-0.1-0.6-0.2-0.9c-0.5-2.4-0.9-4.7-1.4-7.1c-0.3-1.6-0.6-3.2-0.9-4.7c-0.5-2-1.6-2.9-3.7-3.1
		c-0.4,0-0.9,0-1.3,0C1043.2,652.9,1041.6,653,1040,653z M976.6,672c1.9,0,3.7,0,5.6,0c0.6,0,1.1,0,1.7-0.2c1.1-0.3,1.7-1,1.7-2.2
		c0-0.6-0.1-1.2-0.2-1.8c-0.5-2.6-1-5.1-1.5-7.7c-0.3-1.4-0.6-2.8-0.9-4.2c-0.3-1.6-1.4-2.4-2.9-2.8c-0.5-0.1-1-0.1-1.5-0.1
		c-3.7,0-7.5,0-11.2,0c-0.5,0-1,0-1.5,0.2c-1.1,0.3-1.6,1-1.7,2.2c0,0.6,0,1.1,0.1,1.7c0.7,3.7,1.4,7.3,2.1,11
		c0.1,0.4,0.2,0.8,0.3,1.3c0.3,1.3,1.2,2.1,2.5,2.5c0.7,0.2,1.3,0.2,2,0.2C973.1,672,974.9,672,976.6,672z M992.8,582.4
		c1.7,0,3.5,0,5.2,0c0.6,0,1.1,0,1.7-0.1c1.3-0.3,1.9-1,2-2.3c0-0.6-0.1-1.1-0.2-1.7c-0.2-1.2-0.4-2.3-0.6-3.5c-0.5-2.7-1-5.4-1.5-8
		c-0.4-1.9-1.6-3-3.5-3.3c-0.3,0-0.6-0.1-0.9-0.1c-3.8,0-7.6,0-11.4,0c-0.5,0-1,0.1-1.5,0.2c-1,0.3-1.6,1-1.6,2c0,0.7,0.1,1.4,0.2,2
		c0.6,3.2,1.2,6.3,1.8,9.5c0.2,0.8,0.3,1.6,0.5,2.4c0.3,1.4,1.3,2.2,2.6,2.6c0.7,0.2,1.3,0.2,2,0.2
		C989.3,582.4,991,582.4,992.8,582.4z M931.6,611.1C931.6,611.1,931.6,611.1,931.6,611.1c1.8,0,3.6,0,5.4,0c0.6,0,1.2,0,1.8-0.2
		c0.9-0.3,1.4-1,1.5-1.9c0-0.7,0-1.5-0.1-2.2c-0.7-3.5-1.4-7.1-2.1-10.6c-0.6-3-1.8-4-4.9-4c-3.5,0-7,0-10.5,0c-0.4,0-0.9,0-1.3,0
		c-1.6,0.2-2.4,1.2-2.4,2.8c0,0.2,0,0.4,0.1,0.6c0.8,4,1.5,7.9,2.3,11.9c0.6,2.9,1.7,3.7,4.7,3.8c0.4,0,0.7,0,1.1,0
		C928.8,611.1,930.2,611.1,931.6,611.1z M961.3,592.1C961.3,592.1,961.3,592.1,961.3,592.1c-1.1,0-2.1,0-3.2,0c-1.1,0-2.2,0-3.4,0.1
		c-1.6,0.2-2.6,1.4-2.3,3c0.8,4.2,1.6,8.4,2.4,12.6c0.1,0.6,0.4,1.2,0.8,1.7c0.9,1.1,1.9,1.7,3.4,1.7c3.9,0,7.7,0,11.6,0
		c0.4,0,0.7,0,1.1-0.1c1.6-0.4,2.4-1.5,2-3.2c-0.8-4.2-1.6-8.4-2.4-12.6c-0.3-1.4-1-2.2-2.3-2.7c-0.7-0.3-1.4-0.4-2.2-0.4
		C965.1,592.1,963.2,592.1,961.3,592.1z M1045.5,681.7c-0.5,0-1,0-1.5,0c-1.6,0-3.1,0-4.7,0c-2.1,0.1-3,1.3-2.7,3.3
		c0.1,0.9,0.3,1.7,0.5,2.6c0.6,3.2,1.2,6.3,1.8,9.5c0.1,0.7,0.3,1.3,0.7,1.9c0.9,1.1,2,1.8,3.5,1.8c3.8,0,7.6,0,11.4,0
		c0.2,0,0.4,0,0.6,0c2.1-0.2,3-1.4,2.6-3.5c-0.6-3.3-1.3-6.6-1.9-9.9c-0.2-0.9-0.3-1.7-0.5-2.6c-0.3-1.7-1.4-2.6-3-2.9
		c-0.5-0.1-1.1-0.1-1.7-0.1C1049,681.7,1047.2,681.7,1045.5,681.7z M1006.6,653C1006.6,653,1006.6,653,1006.6,653
		c-1.9,0-3.7,0-5.6,0c-0.5,0-1,0-1.5,0.1c-1.3,0.3-2,1.2-1.9,2.6c0,0.4,0.1,0.7,0.2,1.1c0.3,1.6,0.6,3.3,0.9,4.9
		c0.5,2.4,1,4.9,1.4,7.3c0.2,1.3,1,2.1,2.1,2.6c0.6,0.3,1.3,0.4,2,0.4c3.8,0,7.7,0,11.5,0c0.4,0,0.7,0,1.1-0.1
		c1.3-0.3,2-1.2,1.9-2.6c0-0.6-0.1-1.2-0.2-1.8c-0.7-3.6-1.4-7.2-2.1-10.8c-0.5-2.5-1.9-3.6-4.4-3.7
		C1010.3,652.9,1008.5,653,1006.6,653z M1076.9,672c1.8,0,3.6,0,5.4,0c0.6,0,1.2,0,1.8-0.2c0.9-0.3,1.5-1,1.5-1.9
		c0-0.6,0-1.2-0.2-1.9c-0.7-3.6-1.5-7.2-2-10.8c-0.4-3-2.2-4.2-4.8-4.1c-0.1,0-0.1,0-0.2,0c-3.5,0-7.1,0-10.6,0c-0.5,0-1,0-1.5,0.1
		c-1.2,0.2-1.8,1-2,2.2c-0.1,0.6,0,1.2,0.2,1.9c0.7,3.7,1.4,7.3,2.1,11c0.1,0.4,0.2,0.8,0.3,1.3c0.5,1.5,1.6,2.3,3.1,2.5
		c0.5,0.1,1,0.1,1.5,0.1C1073.4,672,1075.1,672,1076.9,672z M943.1,671.9C943.1,671.9,943.1,671.9,943.1,671.9c1.9,0,3.8,0,5.8,0
		c0.6,0,1.1,0,1.7-0.2c1.2-0.4,1.8-1.3,1.7-2.6c0-0.4-0.1-0.7-0.2-1.1c-0.6-2.9-1.1-5.9-1.7-8.8c-0.2-1.2-0.4-2.3-0.7-3.5
		c-0.4-1.5-1.4-2.4-3-2.7c-0.4-0.1-0.7-0.1-1.1-0.1c-3.8,0-7.7,0-11.5,0c-2.6,0-3.5,1.1-3,3.7c0.7,3.9,1.5,7.8,2.3,11.7
		c0.1,0.3,0.1,0.6,0.2,0.9c0.5,1.5,1.5,2.4,3.1,2.6c0.5,0.1,1,0.1,1.5,0.1C939.8,671.9,941.5,671.9,943.1,671.9z M894.7,592.1
		C894.7,592.1,894.7,592.1,894.7,592.1c-1.8,0-3.6,0-5.4,0c-0.6,0-1.2,0-1.8,0.2c-0.9,0.3-1.4,0.9-1.5,1.9c0,0.7,0,1.5,0.1,2.2
		c0.2,1.1,0.4,2.2,0.6,3.3c0.5,2.7,1,5.4,1.6,8c0.4,1.9,1.7,3,3.6,3.2c0.4,0,0.7,0.1,1.1,0.1c3.5,0,7,0,10.4,0c0.6,0,1.1,0,1.7-0.2
		c1.5-0.3,2.1-1.2,2-2.7c0-0.4-0.1-0.7-0.2-1.1c-0.3-1.8-0.7-3.7-1-5.5c-0.4-2.1-0.9-4.1-1.3-6.2c-0.3-1.9-1.4-3.3-4-3.4
		c-0.4,0-0.9,0-1.3,0C897.8,592.1,896.2,592.1,894.7,592.1z M998.4,611.1C998.4,611.1,998.4,611.1,998.4,611.1c1.8,0,3.6,0,5.4,0
		c0.6,0,1.2,0,1.8-0.2c1-0.4,1.5-1,1.5-2.1c0-0.5-0.1-1-0.2-1.5c-0.7-3.8-1.4-7.6-2.1-11.3c-0.1-0.4-0.2-0.8-0.4-1.3
		c-0.5-1.5-1.6-2.3-3.1-2.6c-0.4-0.1-0.7-0.1-1.1-0.1c-3.7,0-7.4,0-11.2,0c-0.5,0-1,0-1.5,0.2c-1.1,0.3-1.6,1-1.7,2.2
		c0,0.6,0,1.1,0.1,1.7c0.7,3.8,1.4,7.7,2.2,11.5c0.4,2.1,1.7,3.2,3.8,3.4c0.5,0,1,0,1.5,0C995.2,611.1,996.8,611.1,998.4,611.1z
		 M982.3,700.7c1.7,0,3.5,0,5.2,0c0.6,0,1.1,0,1.7-0.1c1.1-0.2,1.7-1,1.9-2.1c0.1-0.6,0-1.1-0.1-1.7c-0.4-1.8-0.7-3.7-1-5.5
		c-0.4-2.2-0.8-4.4-1.4-6.6c-0.5-2-1.6-2.9-3.7-3.1c-0.2,0-0.5,0-0.7,0c-3.7,0-7.3,0-11,0c-0.5,0-1,0-1.5,0.2
		c-1.1,0.3-1.7,1-1.8,2.1c-0.1,0.7,0,1.5,0.2,2.2c0.5,2.6,1,5.1,1.5,7.7c0.2,1.2,0.4,2.3,0.7,3.5c0.5,2,1.7,3.1,3.8,3.3
		c0.5,0.1,1,0,1.5,0C979.1,700.7,980.7,700.7,982.3,700.7z M1056,563.4C1056,563.4,1056,563.4,1056,563.4c-1.8,0-3.6,0-5.4,0
		c-0.6,0-1.1,0-1.7,0.2c-1.1,0.3-1.7,1-1.7,2.1c0,0.7,0.1,1.4,0.2,2c0.2,1,0.4,2.1,0.6,3.1c0.5,2.7,1,5.4,1.5,8.1
		c0.5,2.2,1.7,3.4,3.8,3.4c4.2,0.1,8.5,0.1,12.7,0c1.7,0,2.6-1.2,2.4-2.9c0-0.4-0.1-0.7-0.2-1.1c-0.3-1.8-0.6-3.5-1-5.3
		c-0.4-2.1-0.8-4.3-1.3-6.4c-0.5-2.1-1.7-3.1-3.8-3.2c-0.4,0-0.9,0-1.3,0C1059.2,563.4,1057.6,563.4,1056,563.4z M909.9,672
		c1.8,0,3.6,0,5.4,0c0.6,0,1.1,0,1.7-0.2c1.1-0.3,1.7-1,1.8-2.1c0.1-0.7,0-1.5-0.2-2.2c-0.6-3-1.1-6-1.7-9c-0.2-0.9-0.3-1.7-0.5-2.6
		c-0.4-1.6-1.5-2.5-3.1-2.9c-0.5-0.1-1-0.1-1.5-0.1c-3.7,0-7.3,0-11,0c-2.7,0-3.5,1.1-3,3.8c0.6,3,1.1,6,1.7,9
		c0.2,1,0.4,2.1,0.7,3.1c0.5,2,1.6,2.9,3.7,3.1c0.4,0,0.9,0,1.3,0C906.6,672,908.3,672,909.9,672z M1012.1,681.7c-1.8,0-3.6,0-5.4,0
		c-0.5,0-1,0-1.5,0.1c-1.2,0.2-2,1.1-2,2.3c0,0.4,0.1,0.9,0.1,1.3c0.5,2.6,1,5.3,1.5,7.9c0.3,1.5,0.6,3,1,4.6c0.3,1.2,1,2,2.1,2.4
		c0.7,0.3,1.4,0.4,2.2,0.4c3.7,0,7.5,0,11.2,0c0.6,0,1.1,0,1.7-0.2c0.9-0.3,1.5-1,1.5-1.9c0-0.7,0-1.4-0.1-2
		c-0.7-3.7-1.5-7.4-2.1-11.2c-0.4-2.1-2-3.8-4.4-3.6C1015.8,681.8,1013.9,681.7,1012.1,681.7z M1028.1,592.1
		C1028.1,592.1,1028.1,592.1,1028.1,592.1c-1.9,0-3.7,0-5.6,0c-0.6,0-1.1,0-1.7,0.2c-1,0.3-1.6,1-1.6,2c0,0.4,0.1,0.9,0.1,1.3
		c0.5,2.5,0.9,5,1.4,7.5c0.3,1.6,0.6,3.3,1,4.9c0.3,1.8,1.6,2.6,3.2,3c0.4,0.1,0.9,0.1,1.3,0.1c3.6,0,7.2,0,10.8,0
		c0.5,0,1,0,1.5-0.1c1.2-0.3,1.8-1,1.8-2.2c0-0.6,0-1.2-0.1-1.9c-0.7-3.9-1.4-7.7-2.2-11.5c-0.1-0.6-0.4-1.2-0.8-1.7
		c-0.8-1-1.9-1.6-3.2-1.6C1032.1,592.1,1030.1,592.1,1028.1,592.1z M1094.9,592.1c-1.8,0-3.6,0-5.4,0c-0.6,0-1.1,0-1.7,0.1
		c-1.2,0.3-1.8,1-1.8,2.2c0,0.6,0.1,1.1,0.2,1.7c0.7,3.5,1.4,7.1,2.1,10.6c0.1,0.7,0.3,1.3,0.5,2c0.5,1.2,1.3,1.9,2.6,2.2
		c0.4,0.1,0.9,0.1,1.3,0.1c3.8,0,7.6,0,11.4,0c0.6,0,1.2-0.1,1.8-0.3c0.8-0.3,1.3-0.9,1.4-1.8c0-0.6,0-1.2-0.1-1.9
		c-0.4-2-0.7-4-1.1-6.1c-0.4-2-0.7-3.9-1.2-5.9c-0.4-1.9-1.6-2.8-3.5-3.1c-0.5-0.1-1,0-1.5,0
		C1098.2,592.1,1096.5,592.1,1094.9,592.1z M1061.5,592.1C1061.5,592.1,1061.5,592.1,1061.5,592.1c-1.2,0-2.4,0-3.5,0
		c-0.9,0-1.7,0-2.6,0c-2.1,0.1-3,1.3-2.6,3.4c0.2,1.4,0.5,2.8,0.8,4.2c0.5,2.7,1,5.4,1.6,8.1c0.4,1.9,1.7,3,3.6,3.3
		c0.4,0,0.7,0.1,1.1,0.1c3.5,0,7.1,0,10.6,0c0.5,0,1,0,1.5-0.1c1.5-0.4,2.3-1.5,2-3c-0.8-4.3-1.7-8.5-2.5-12.8
		c-0.3-1.4-1.1-2.2-2.3-2.7c-0.7-0.3-1.3-0.3-2-0.3C1065.2,592.1,1063.4,592.1,1061.5,592.1z M1078.7,681.7
		C1078.7,681.7,1078.7,681.7,1078.7,681.7c-1.8,0-3.6,0-5.4,0c-0.6,0-1.2,0-1.8,0.2c-0.9,0.3-1.5,1-1.5,1.9c0,0.6,0,1.2,0.2,1.9
		c0.7,3.7,1.4,7.3,2.1,11c0.1,0.4,0.2,0.9,0.3,1.3c0.4,1.3,1.3,2.1,2.5,2.5c0.4,0.1,0.9,0.2,1.3,0.2c4,0,8,0,11.9,0
		c0.3,0,0.6-0.1,0.9-0.1c1.4-0.3,2-1.1,2-2.5c0-0.5-0.1-1-0.2-1.5c-0.7-3.5-1.3-7-2-10.4c-0.1-0.5-0.2-1.1-0.4-1.6
		c-0.5-1.7-1.7-2.6-3.4-2.7c-0.5,0-1,0-1.5,0C1082.1,681.7,1080.4,681.7,1078.7,681.7z M904.1,641.4
		C904.1,641.4,904.1,641.4,904.1,641.4c1.7,0,3.5,0,5.2,0c0.6,0,1.1,0,1.7,0c1.3-0.1,2.1-1.1,2.1-2.4c0-0.2-0.1-0.5-0.1-0.7
		c-0.8-4.1-1.6-8.2-2.4-12.3c-0.4-2.1-1.6-3.2-3.7-3.2c-4.2,0-8.5,0-12.7,0c-1.9,0-2.7,1.1-2.4,3.1c0.1,0.9,0.3,1.7,0.5,2.6
		c0.6,3.1,1.2,6.2,1.8,9.3c0,0.1,0,0.2,0.1,0.4c0.5,2.3,1.6,3.3,4,3.3C900.1,641.4,902.1,641.4,904.1,641.4z M1034.3,622.7
		c-1.9,0-3.7,0-5.6,0c-0.4,0-0.9,0-1.3,0c-1.4,0.1-2.1,0.9-2.2,2.3c0,0.6,0.1,1.2,0.2,1.8c0.6,3.4,1.3,6.8,2,10.3
		c0.1,0.7,0.3,1.3,0.5,2c0.5,1.4,1.5,2.1,3,2.2c0.2,0,0.5,0,0.7,0c3.9,0,7.8,0,11.8,0c0.4,0,0.9,0,1.3-0.1c1-0.2,1.7-0.9,1.8-1.9
		c0-0.5,0-1.1-0.1-1.7c-0.7-3.9-1.4-7.7-2.2-11.5c-0.1-0.6-0.3-1.2-0.6-1.8c-0.4-0.9-1.2-1.4-2.1-1.6c-0.5-0.1-1-0.1-1.5-0.1
		C1038,622.7,1036.1,622.7,1034.3,622.7z M1000.5,622.7C1000.5,622.7,1000.5,622.7,1000.5,622.7c-1.8,0-3.6,0-5.4,0
		c-0.6,0-1.1,0-1.7,0.1c-1,0.2-1.8,1-1.8,2.1c0,0.2,0.1,0.5,0.1,0.7c0.8,4.2,1.6,8.4,2.4,12.6c0.4,2.2,1.5,3,3.8,3.1
		c0.2,0,0.5,0,0.7,0c3.7,0,7.3,0,11,0c0.4,0,0.7,0,1.1,0c1.5-0.1,2.3-1.1,2.2-2.6c0-0.4-0.1-0.7-0.2-1.1c-0.5-2.3-0.9-4.6-1.4-7
		c-0.2-1.2-0.4-2.3-0.6-3.5c-0.1-0.6-0.2-1.2-0.4-1.8c-0.5-1.7-1.7-2.6-3.4-2.6C1004.9,622.7,1002.7,622.7,1000.5,622.7z
		 M967.5,622.7C967.5,622.7,967.5,622.7,967.5,622.7c-2.2,0-4.3,0-6.5,0c-1.7,0-2.9,1.1-2.6,3c0.8,4.3,1.6,8.5,2.5,12.8
		c0.3,1.6,1.6,2.7,3.2,2.9c0.3,0,0.6,0,0.9,0c3.8,0,7.6,0,11.4,0c0.4,0,0.9,0,1.3-0.1c1.2-0.2,1.7-0.7,1.8-2c0.1-0.8,0-1.6-0.2-2.4
		c-0.7-3.5-1.4-7.1-2.1-10.6c-0.1-0.4-0.2-0.9-0.3-1.3c-0.5-1.4-1.4-2.1-2.9-2.3c-0.5-0.1-1,0-1.5,0
		C971,622.7,969.2,622.7,967.5,622.7z M1070.8,641.4C1070.8,641.4,1070.8,641.4,1070.8,641.4c1.9,0,3.7,0,5.6,0c0.5,0,1,0,1.5-0.1
		c1.4-0.2,2-1.1,2-2.5c0-0.4-0.1-0.7-0.2-1.1c-0.2-1.3-0.5-2.7-0.7-4c-0.5-2.6-1-5.2-1.6-7.9c-0.5-2.2-1.6-3.1-3.7-3.2
		c-0.2,0-0.4,0-0.6,0c-3.8,0-7.6,0-11.4,0c-0.4,0-0.7,0-1.1,0c-1.2,0.1-2,1-2.1,2.2c0,0.4,0,0.7,0.1,1.1c0.2,1,0.4,2,0.6,2.9
		c0.6,3,1.1,6.1,1.8,9.1c0.5,2.3,1.7,3.2,4.1,3.3C1066.9,641.4,1068.8,641.4,1070.8,641.4z M937.4,641.4c1.9,0,3.7,0,5.6,0
		c0.5,0,1,0,1.5-0.1c1.1-0.2,1.8-0.9,1.8-2c0-0.4,0-0.8,0-1.1c-0.8-4.1-1.5-8.2-2.4-12.2c-0.5-2.3-1.7-3.2-4.1-3.2
		c-3.8,0-7.6,0-11.4,0c-0.4,0-0.9,0-1.3,0.1c-1.2,0.2-1.9,0.9-2,2.1c0,0.6,0,1.2,0.1,1.8c0.7,3.6,1.4,7.2,2.1,10.8
		c0.1,0.5,0.3,1.1,0.4,1.6c0.5,1.4,1.4,2.1,2.9,2.2c0.4,0,0.9,0,1.3,0C933.8,641.4,935.6,641.4,937.4,641.4z M1104.2,641.4
		C1104.2,641.4,1104.2,641.4,1104.2,641.4c1.9,0,3.8,0,5.8,0c0.5,0,1,0,1.5-0.1c1.1-0.2,1.8-1,1.8-2.1c0-0.4-0.1-0.9-0.2-1.3
		c-0.4-2.4-0.9-4.8-1.3-7.1c-0.3-1.8-0.7-3.5-1.1-5.3c-0.5-1.8-1.6-2.7-3.5-2.8c-0.2,0-0.4,0-0.6,0c-3.8,0-7.7,0-11.5,0
		c-0.5,0-1,0-1.5,0.1c-1,0.2-1.5,0.8-1.5,1.8c0,0.6,0,1.3,0.1,1.9c0.7,3.9,1.4,7.8,2.3,11.7c0.5,2.3,1.6,3.2,3.9,3.2
		C1100.2,641.4,1102.2,641.4,1104.2,641.4z M913,564.1c-5.2,0-10.3,0-15.5,0c-0.6,0-1.1,0-1.7,0.1c-0.3,0-0.6,0.2-0.8,0.3
		c-0.4,0.2-0.4,0.9,0,1.1c0.3,0.2,0.6,0.3,0.9,0.3c0.6,0.1,1.1,0.1,1.7,0.1c10.3,0,20.6,0,30.9,0c0.5,0,1,0,1.5,0
		c0.2,0,0.5-0.1,0.7-0.2c0.3-0.1,0.5-0.3,0.6-0.7c0-0.4-0.2-0.7-0.6-0.8c-0.7-0.3-1.3-0.2-2-0.2C923.4,564.1,918.2,564.1,913,564.1z
		 M914,568.6c-4.3,0-8.7,0-13,0c-1.2,0-2.4,0-3.5,0c-0.4,0-0.9,0-1.3,0.2c-0.4,0.2-0.5,0.8-0.2,1.1c0.2,0.2,0.5,0.4,0.8,0.4
		c0.6,0,1.2,0.1,1.9,0.1c10.2,0,20.4,0,30.6,0c0.6,0,1.1,0,1.7,0c0.4,0,0.7-0.1,1-0.4c0.3-0.2,0.4-0.5,0.3-0.8
		c-0.1-0.2-0.3-0.5-0.5-0.5c-0.6-0.1-1.2-0.1-1.8-0.1C924.6,568.6,919.3,568.6,914,568.6z M887.5,571.2c0.9,0,1.7,0,2.6,0
		c1-0.1,1.4-0.5,1.2-1.4c-0.3-1.7-0.6-3.4-1-5.1c-0.2-0.8-0.7-1.3-1.6-1.3c-1.7,0-3.5-0.1-5.2,0c-1,0-1.4,0.5-1.3,1.4
		c0.3,1.7,0.6,3.4,1,5.1c0.2,0.9,0.9,1.3,1.8,1.4C885.8,571.2,886.6,571.2,887.5,571.2z"/>
	<path class="st15" d="M1094.6,498.4c0.2-3.5,1.8-6.1,4.9-7.8c4.3-2.4,9.8-0.7,12.2,3.6c2.3,4.1,1,8.5-1.6,10.9
		c-0.4,0.4-0.8,0.6-1.3,0.4c-0.1-1.1-0.3-2.1-0.8-3c-1.2-2.5-3.3-3.8-6-4c-1.4-0.1-2.8,0-4.3,0
		C1096.7,498.4,1095.7,498.4,1094.6,498.4z"/>
	<path class="st15" d="M1053.9,498.3c0.3-1.6,0.6-3.2,1.5-4.6c2.1-3.3,6-5,9.8-4.1c4,1,6.7,4.1,7,8.1c0,0.2,0,0.4,0,0.6
		c-5.5,0-11.1,0-16.6,0C1055,498.4,1054.5,498.4,1053.9,498.3z"/>
	<path class="st5" d="M843.7,722c-4.7,0-9.3-0.1-14,0.1c-3.3,0.1-5.8-1.4-7.7-3.8c-1.7-2.1-2.7-4.4-2.6-7.2c0.1-1.3,0.1-2.6,0.3-3.9
		c0.6-4.2,1.1-8.5,1.7-12.8c0.4-3.2,0.8-6.4,1.3-9.6c0.5-3.5,0.9-7,1.4-10.5c0.5-4.1,1.1-8.1,1.6-12.2c0.5-3.5,0.9-7,1.4-10.5
		c0.4-3.2,0.8-6.4,1.3-9.6c0.5-3.5,0.9-7,1.4-10.5c0.5-4.1,1.1-8.3,1.6-12.4c0.5-3.4,0.9-6.9,1.3-10.4c0.3-2.3,0.6-4.6,0.9-6.8
		c0.4-3.5,0.9-6.9,1.3-10.4c0.5-4.1,1.1-8.3,1.6-12.4c0.5-3.4,0.9-6.9,1.3-10.4c0.3-2.3,0.6-4.6,0.9-6.8c0.4-3.5,0.9-6.9,1.3-10.4
		c0.3-2.3,0.6-4.6,0.9-6.8c0.4-3.5,0.9-6.9,1.3-10.4c0.3-2.2,0.6-4.4,0.9-6.7c0.5-3.5,0.9-7,1.4-10.5c0.3-2.2,0.6-4.4,0.9-6.7
		c0.2-1.4,0.4-2.8,0.6-4.2c0.6,1.6,0.4,3.2,0.2,4.8c-0.1,1.1-0.3,2.2-0.2,3.3c0,1,0,2-0.2,3c-0.1,0.4-0.1,0.7-0.1,1.1
		c0,1.9,0.1,3.7-0.4,5.6c0.2,3.1-0.5,6.1-0.4,9.1c0,0.9,0,1.9-0.2,2.8c-0.1,0.4-0.1,0.7-0.1,1.1c0,2.1-0.1,4.2-0.3,6.3
		c-0.2,2.2-0.2,4.3-0.4,6.5c-0.2,2,0.1,4-0.4,5.9c0.2,3.1-0.4,6.2-0.4,9.3c0,2.6-0.3,5.2-0.4,7.8c-0.1,1.8-0.2,3.6-0.3,5.4
		c-0.2,2.4-0.2,4.8-0.4,7.2c-0.2,1.9-0.3,3.7-0.3,5.6c0,0.6-0.1,1.1-0.2,1.7c-0.1,0.5-0.2,1-0.2,1.5c-0.1,2,0.1,4-0.4,5.9
		c0.2,3.1-0.5,6.1-0.4,9.1c0,0.9,0,1.9-0.2,2.8c-0.1,0.2-0.1,0.5-0.1,0.7c0.1,3-0.5,5.9-0.4,8.9c0,1.1,0,2.1-0.2,3.2
		c-0.1,0.4-0.1,0.7-0.1,1.1c0,2.1-0.1,4.2-0.3,6.3c-0.2,2,0.1,4-0.4,5.9c0.2,3.1-0.5,6.1-0.4,9.1c0,0.9,0,1.9-0.2,2.8
		c-0.1,0.2-0.1,0.5-0.1,0.7c0.1,3-0.5,5.9-0.4,8.9c0,1.1,0,2.1-0.2,3.2c-0.1,0.4-0.1,0.7-0.1,1.1c0,2.1-0.1,4.2-0.3,6.3
		c-0.2,2,0.1,4-0.4,5.9c0.2,3.1-0.4,6.2-0.4,9.3c0,2.6-0.3,5.2-0.4,7.8c-0.1,1.8-0.2,3.6-0.3,5.4c-0.2,2.4-0.4,4.8-0.4,7.3
		c0,0.2,0,0.4-0.1,0.6c-1,5.9,2.5,12.1,7.3,14.3C842.6,721.2,843.2,721.5,843.7,722z"/>
	<path class="st16" d="M819.8,637.9c-0.2,0.2-0.5,0.5-0.7,0c-0.5-2.2-0.8-4.4-0.8-6.6c0-0.5,0-1,0-1.5c0-0.1,0.1-0.2,0.1-0.4
		c0.7-0.1,1.3-0.6,1.9-0.9c0.6-0.4,0.7-0.3,1.1,0.6c-0.4,2.3-0.9,4.7-1.3,7C819.9,636.7,819.8,637.3,819.8,637.9z"/>
	<path class="st17" d="M810.1,687.6c-0.3-0.4-0.4-0.9-0.5-1.3c-0.1-0.5,0-0.6,0.9-0.8C810.3,686.2,810.2,686.9,810.1,687.6z"/>
	<path class="st0" d="M1121.9,714.2c-0.5-0.6-0.8-1.3-0.9-2.2c-0.2-2.2-0.4-4.3-0.6-6.5c-0.2-2.7-0.5-5.4-0.7-8.1
		c0-0.4-0.1-0.7-0.1-1.1c0-4.9-0.6-9.8-0.9-14.6c-0.2-3.2-0.5-6.4-0.7-9.6c-0.2-1.8-0.4-3.6-0.4-5.4c0-0.2,0-0.5-0.1-0.7
		c-0.2-0.9-0.2-1.8-0.2-2.8c0-0.6,0-1.1-0.1-1.7c-0.3-1.5-0.3-3.1-0.3-4.6c0-0.8,0.1-1.6-0.3-2.4c-0.2-2.8-0.5-5.6-0.7-8.4
		c-0.1-0.9-0.1-1.8-0.1-2.8c0.1,0.1,0.2,0.3,0.3,0.4c3.9,6,7.7,12,11.6,18c1.5,2.3,2.9,4.6,4.4,6.9c1.3,2.1,2.7,4.2,4,6.3
		c0.3,0.4,0.4,0.9,1.1,1.1c0.2-0.6,0.4-1.1,0.6-1.7c0.2,1.3-0.2,2.6-0.3,3.9c-0.3,3.8-0.8,7.5-1.4,11.3c-0.8,5.5-2,11-3.2,16.5
		c-0.6,2.7-1.4,5.3-2.1,7.9c-0.2,0.7-0.4,1.3-1.2,1.5c-0.8,0-1.6,0-2.4,0.1c-1.4,0-2.8-0.2-4.1-0.7
		C1122.7,714.4,1122.3,714.3,1121.9,714.2z"/>
	<path class="st14" d="M1138.6,666.3c-0.2,2.8,0.4,5.6,0.9,8.3c1.3,6.9,2.6,13.8,3.8,20.7c0.8,4.1,1.5,8.2,2.2,12.3
		c0.3,2,0.4,4-0.2,5.9c-0.9,3.3-2.9,5.7-5.8,7.5c-0.4,0.2-0.8,0.3-1.1,0.7c0.3,0.5,0.8,0.3,1.2,0.3c3.7,0,7.3,0,11,0
		c1.9,0,3.9,0,5.8,0c1,0,1.8-0.2,2.4-1.1c0,0.2-0.1,0.5-0.1,0.7c-0.1,0.3-0.3,0.6-0.6,0.6c-0.4,0-0.9,0.1-1.3,0.1
		c-8.5,0-17,0-25.5,0c-2,0-2,0-1.7-2c0.3-1.7,0.1-3.3,0.1-5c0.8-0.1,1.1-0.8,1.2-1.5c0.7-2.7,1.4-5.3,2.1-7.9
		c1.3-5.4,2.4-10.9,3.2-16.5c0.6-3.8,1.1-7.5,1.4-11.3c0.1-1.3,0.5-2.6,0.3-3.9c0.2-2.6,0.5-5.2,0.5-7.8
		C1138.4,666.4,1138.5,666.4,1138.6,666.3z"/>
	<path class="st2" d="M1138.3,666.5c0.1,2.6-0.2,5.2-0.5,7.8c-0.2,0.6-0.4,1.1-0.6,1.7c-0.6-0.1-0.8-0.7-1.1-1.1
		c-1.4-2.1-2.7-4.2-4-6.3c-1.5-2.3-2.9-4.6-4.4-6.9c-3.9-6-7.7-12-11.6-18c-0.1-0.2-0.2-0.3-0.3-0.4c-0.5-2.3-0.5-4.7-0.7-7
		c-0.5-5.4-0.8-10.8-1.3-16.3c-0.1-1-0.1-2-0.7-2.8c1.2,0.3,2.4,0.4,3.7,0.4c0.8,0,1.6-0.1,2.3,0.3c-0.5,0.2-0.6,0.6-0.4,1.1
		c0.4,1,0.7,2,1.1,3c2.3,5.4,4.5,10.8,6.8,16.1c1.1,2.6,2.2,5.1,3.4,7.7c1.4,3.1,2.8,6.2,4.2,9.4c0.9,2.1,1.9,4.2,2.9,6.2
		c0.7,1.4,1.2,2.8,1.1,4.5C1138.2,666,1138.3,666.2,1138.3,666.5z"/>
	<path class="st18" d="M1083.4,559.2c1.7,1.1,3.4,2.2,5.1,3.3c0.5,0.3,1,0.6,1.6,0.9c3,2.2,6.2,4.2,9.4,6.2c0.1,0.1,0.2,0.1,0.3,0.1
		c1.4,1.2,3,2,4.5,3c0.6,0.4,1.2,0.3,1.7-0.1c0.9-0.6,1.7-1.2,2.5-1.9c1.4-1.2,2.7-2.5,4.1-3.8c0.5-0.5,1.1-1,1.7-1.5
		c0.4,0.5,0.4,1,0.4,1.6c-0.3,2.5-0.6,4.9-0.9,7.4c-0.1,0.6-0.1,1.1-0.1,1.7c0,0.9,0,1.9-0.2,2.8c-0.2,1.1-0.2,2.2-0.1,3.3
		c0,1-0.3,1.8-1.1,2.4c-1.8,1-3.8,1.5-5.7,2.1c-0.9,0.3-1.8,0.2-2.8-0.1c-1.3-0.4-2.5-1-3.7-1.8c-1.2-0.8-2.3-1.7-3.4-2.5
		c-0.1-0.1-0.1-0.2-0.2-0.3c-4.3-3.9-8.1-8.2-11.7-12.8c-1.3-1.6-2.5-3.2-3.8-4.8c-0.5-0.8-1-1.6-1.6-2.4c-0.4-0.6-0.4-1.1-0.2-1.7
		C1080.3,559.4,1081.8,559.1,1083.4,559.2z"/>
	<path class="st19" d="M1147.1,591.4c0,0.9,0,1.9,0,2.8c0,0.2-0.4,0.4-0.6,0.3c-0.7-0.5-1.3-1.2-1.8-1.9c-2.3-3.2-3.9-6.6-4.3-10.6
		c0-0.4-0.2-0.9-0.2-1.3c-0.1-0.5-0.1-1,0.1-1.5c0.1-0.2,0.2-0.5,0.5-0.5c0.2,0,0.4,0.1,0.5,0.2c0.2,0.3,0.4,0.6,0.6,0.9
		c1.5,2.3,3,4.6,4.5,6.9c0.6,0.8,0.9,1.6,0.8,2.6C1147.2,590.1,1147.2,590.8,1147.1,591.4C1147.2,591.4,1147.2,591.4,1147.1,591.4z"
		/>
	<path class="st9" d="M1124.9,550c0.2-0.1,0.3-0.2,0.5-0.3C1125.2,549.7,1125,549.8,1124.9,550z"/>
	<path class="st20" d="M1126.7,543.9c0-0.7,0-1.5-0.1-2.2c0.4-0.3,0.9-0.4,1.4-0.4c1.6,0,3.2,0,4.8-0.6c0.1,0,0.3,0,0.3,0.1
		c0.2,0.1,0.1,0.3,0,0.5c-1.3,1.6-3,2.6-4.8,3.4C1127.6,545,1127.5,544.9,1126.7,543.9z"/>
	<path class="st4" d="M737.3,578.6c-0.1,0-0.2,0-0.3,0c-0.2,0-0.2-0.1-0.1-0.2c0,0,0.1,0,0.2,0C737.1,578.5,737.2,578.6,737.3,578.6
		C737.3,578.7,737.3,578.6,737.3,578.6z"/>
	<path class="st13" d="M818.3,629.8c0,0.5,0,1,0,1.5C818,630.8,818,630.3,818.3,629.8z"/>
	<path class="st21" d="M945.3,681.7c1.7,0,3.4,0,5,0c0.4,0,0.9,0,1.3,0c1.9,0.2,3.1,1.1,3.6,3c0.3,1.1,0.5,2.2,0.7,3.3
		c0.6,3.1,1,6.1,1.8,9.2c0.5,1.9-0.8,3.5-2.7,3.5c-0.9,0-1.7,0-2.6,0c-3,0-6,0-9,0c-0.9,0-1.7-0.1-2.5-0.5c-1-0.5-1.7-1.3-1.9-2.4
		c-0.2-0.9-0.3-1.7-0.5-2.6c-0.6-3.3-1.3-6.6-1.9-9.9c-0.5-2.6,0.3-3.6,3-3.7C941.5,681.7,943.4,681.7,945.3,681.7
		C945.3,681.7,945.3,681.7,945.3,681.7z"/>
	<path class="st21" d="M915.5,700.7c-1.5,0-3,0-4.5,0c-0.4,0-0.7,0-1.1,0c-2.7-0.1-4-1-4.5-3.7c-0.8-3.9-1.6-7.8-2.3-11.7
		c-0.4-2.5,0.5-3.5,3-3.6c3.8,0,7.7,0,11.5,0c0.2,0,0.5,0,0.7,0.1c2,0.3,3.2,1.4,3.6,3.3c0.8,4,1.5,8,2.3,12.1
		c0.1,0.4,0.1,0.7,0.1,1.1c0,1.4-0.7,2.2-2.1,2.4c-0.5,0.1-1,0.1-1.5,0.1C919,700.7,917.3,700.7,915.5,700.7z"/>
	<path class="st21" d="M1040,653c1.6,0,3.2,0,4.8,0c0.4,0,0.9,0,1.3,0c2.1,0.2,3.2,1,3.7,3.1c0.4,1.6,0.6,3.2,0.9,4.7
		c0.5,2.4,0.9,4.7,1.4,7.1c0.1,0.3,0.1,0.6,0.2,0.9c0.2,1.9-0.7,3-2.6,3.1c-0.2,0-0.4,0-0.6,0c-3.8,0-7.7,0-11.5,0
		c-1.3,0-2.4-0.4-3.3-1.4c-0.5-0.6-0.8-1.2-1-2c-0.7-3.7-1.4-7.4-2.1-11.2c-0.1-0.7-0.2-1.5-0.2-2.2c0-1.1,0.6-1.7,1.6-2
		c0.6-0.2,1.2-0.2,1.8-0.2C1036.4,653,1038.2,653,1040,653z"/>
	<path class="st21" d="M976.6,672c-1.7,0-3.5,0-5.2,0c-0.7,0-1.4,0-2-0.2c-1.3-0.4-2.2-1.2-2.5-2.5c-0.1-0.4-0.2-0.8-0.3-1.3
		c-0.7-3.7-1.4-7.3-2.1-11c-0.1-0.5-0.2-1.1-0.1-1.7c0-1.2,0.6-1.9,1.7-2.2c0.5-0.1,1-0.2,1.5-0.2c3.7,0,7.5,0,11.2,0
		c0.5,0,1,0,1.5,0.1c1.5,0.3,2.6,1.2,2.9,2.8c0.3,1.4,0.6,2.8,0.9,4.2c0.5,2.6,1,5.1,1.5,7.7c0.1,0.6,0.2,1.2,0.2,1.8
		c0,1.2-0.6,1.9-1.7,2.2c-0.5,0.1-1.1,0.2-1.7,0.2C980.3,672,978.5,672,976.6,672z"/>
	<path class="st21" d="M992.8,582.4c-1.7,0-3.5,0-5.2,0c-0.7,0-1.4,0-2-0.2c-1.3-0.4-2.3-1.2-2.6-2.6c-0.2-0.8-0.4-1.6-0.5-2.4
		c-0.6-3.2-1.2-6.3-1.8-9.5c-0.1-0.7-0.2-1.3-0.2-2c0-1.1,0.6-1.7,1.6-2c0.5-0.1,1-0.2,1.5-0.2c3.8,0,7.6,0,11.4,0
		c0.3,0,0.6,0,0.9,0.1c1.9,0.3,3.1,1.4,3.5,3.3c0.5,2.7,1,5.4,1.5,8c0.2,1.2,0.4,2.3,0.6,3.5c0.1,0.5,0.2,1.1,0.2,1.7
		c0,1.3-0.7,2.1-2,2.3c-0.5,0.1-1.1,0.1-1.7,0.1C996.2,582.4,994.5,582.4,992.8,582.4z"/>
	<path class="st21" d="M931.6,611.1c-1.4,0-2.9,0-4.3,0c-0.4,0-0.7,0-1.1,0c-3-0.1-4.1-0.9-4.7-3.8c-0.8-4-1.6-7.9-2.3-11.9
		c0-0.2-0.1-0.4-0.1-0.6c-0.1-1.6,0.8-2.6,2.4-2.8c0.4,0,0.9,0,1.3,0c3.5,0,7,0,10.5,0c3.1,0,4.3,1,4.9,4c0.7,3.5,1.4,7.1,2.1,10.6
		c0.1,0.7,0.2,1.5,0.1,2.2c-0.1,1-0.6,1.6-1.5,1.9c-0.6,0.2-1.2,0.2-1.8,0.2C935.2,611.1,933.4,611.1,931.6,611.1
		C931.6,611.1,931.6,611.1,931.6,611.1z"/>
	<path class="st21" d="M961.3,592.1c1.9,0,3.7,0,5.6,0c0.7,0,1.5,0.1,2.2,0.4c1.2,0.5,2,1.4,2.3,2.7c0.8,4.2,1.6,8.4,2.4,12.6
		c0.3,1.6-0.4,2.8-2,3.2c-0.4,0.1-0.7,0.1-1.1,0.1c-3.9,0-7.7,0-11.6,0c-1.4,0-2.5-0.6-3.4-1.7c-0.4-0.5-0.6-1.1-0.8-1.7
		c-0.8-4.2-1.6-8.4-2.4-12.6c-0.3-1.6,0.7-2.8,2.3-3c1.1-0.1,2.2,0,3.4-0.1C959.2,592.1,960.3,592.1,961.3,592.1
		C961.3,592.1,961.3,592.1,961.3,592.1z"/>
	<path class="st21" d="M1045.5,681.7c1.7,0,3.5,0,5.2,0c0.6,0,1.1,0,1.7,0.1c1.6,0.3,2.7,1.2,3,2.9c0.2,0.9,0.3,1.7,0.5,2.6
		c0.6,3.3,1.3,6.6,1.9,9.9c0.4,2.1-0.5,3.3-2.6,3.5c-0.2,0-0.4,0-0.6,0c-3.8,0-7.6,0-11.4,0c-1.5,0-2.6-0.6-3.5-1.8
		c-0.4-0.6-0.6-1.2-0.7-1.9c-0.6-3.2-1.2-6.3-1.8-9.5c-0.2-0.9-0.3-1.7-0.5-2.6c-0.3-2,0.7-3.2,2.7-3.3c1.6-0.1,3.1,0,4.7,0
		C1044.5,681.7,1045,681.7,1045.5,681.7z"/>
	<path class="st21" d="M1006.6,653c1.9,0,3.7,0,5.6,0c2.5,0,3.9,1.2,4.4,3.7c0.7,3.6,1.4,7.2,2.1,10.8c0.1,0.6,0.2,1.2,0.2,1.8
		c0,1.4-0.6,2.2-1.9,2.6c-0.4,0.1-0.7,0.1-1.1,0.1c-3.8,0-7.7,0-11.5,0c-0.7,0-1.4-0.1-2-0.4c-1.2-0.5-1.9-1.3-2.1-2.6
		c-0.5-2.4-1-4.9-1.4-7.3c-0.3-1.6-0.6-3.3-0.9-4.9c-0.1-0.4-0.2-0.7-0.2-1.1c-0.1-1.3,0.6-2.3,1.9-2.6c0.5-0.1,1-0.1,1.5-0.1
		C1002.9,652.9,1004.7,653,1006.6,653C1006.6,653,1006.6,653,1006.6,653z"/>
	<path class="st5" d="M1076.9,672c-1.7,0-3.5,0-5.2,0c-0.5,0-1,0-1.5-0.1c-1.6-0.2-2.6-1-3.1-2.5c-0.1-0.4-0.3-0.8-0.3-1.3
		c-0.7-3.7-1.4-7.3-2.1-11c-0.1-0.6-0.2-1.2-0.2-1.9c0.1-1.2,0.8-2,2-2.2c0.5-0.1,1-0.1,1.5-0.1c3.5,0,7.1,0,10.6,0
		c0.1,0,0.1,0,0.2,0c2.6-0.1,4.3,1.2,4.8,4.1c0.5,3.6,1.4,7.2,2,10.8c0.1,0.6,0.2,1.2,0.2,1.9c0,1-0.6,1.6-1.5,1.9
		c-0.6,0.2-1.2,0.2-1.8,0.2C1080.5,672,1078.7,672,1076.9,672z"/>
	<path class="st8" d="M943.1,671.9c-1.7,0-3.4,0-5,0c-0.5,0-1,0-1.5-0.1c-1.6-0.2-2.6-1.1-3.1-2.6c-0.1-0.3-0.2-0.6-0.2-0.9
		c-0.8-3.9-1.5-7.8-2.3-11.7c-0.5-2.6,0.4-3.6,3-3.7c3.8,0,7.7,0,11.5,0c0.4,0,0.8,0,1.1,0.1c1.5,0.3,2.6,1.2,3,2.7
		c0.3,1.1,0.5,2.3,0.7,3.5c0.6,2.9,1.1,5.9,1.7,8.8c0.1,0.4,0.2,0.7,0.2,1.1c0.1,1.2-0.5,2.2-1.7,2.6c-0.5,0.2-1.1,0.2-1.7,0.2
		C947,671.9,945.1,671.9,943.1,671.9C943.1,671.9,943.1,671.9,943.1,671.9z"/>
	<path class="st21" d="M894.7,592.1c1.6,0,3.1,0,4.7,0c0.4,0,0.9,0,1.3,0c2.6,0.1,3.7,1.5,4,3.4c0.4,2.1,0.8,4.1,1.3,6.2
		c0.4,1.8,0.7,3.7,1,5.5c0.1,0.4,0.2,0.7,0.2,1.1c0.1,1.5-0.5,2.3-2,2.7c-0.5,0.1-1.1,0.2-1.7,0.2c-3.5,0-7,0-10.4,0
		c-0.4,0-0.7,0-1.1-0.1c-2-0.2-3.2-1.3-3.6-3.2c-0.6-2.7-1.1-5.4-1.6-8c-0.2-1.1-0.4-2.2-0.6-3.3c-0.1-0.7-0.2-1.5-0.1-2.2
		c0.1-1,0.6-1.6,1.5-1.9c0.6-0.2,1.2-0.2,1.8-0.2C891.1,592.1,892.9,592.1,894.7,592.1C894.7,592.1,894.7,592.1,894.7,592.1z"/>
	<path class="st21" d="M998.4,611.1c-1.6,0-3.2,0-4.8,0c-0.5,0-1,0-1.5,0c-2.1-0.2-3.4-1.3-3.8-3.4c-0.7-3.8-1.5-7.7-2.2-11.5
		c-0.1-0.5-0.2-1.1-0.1-1.7c0-1.2,0.6-1.9,1.7-2.2c0.5-0.1,1-0.2,1.5-0.2c3.7,0,7.4,0,11.2,0c0.4,0,0.7,0,1.1,0.1
		c1.6,0.2,2.6,1,3.1,2.6c0.1,0.4,0.3,0.8,0.4,1.3c0.7,3.8,1.4,7.6,2.1,11.3c0.1,0.5,0.2,1,0.2,1.5c0,1.1-0.5,1.7-1.5,2.1
		c-0.6,0.2-1.2,0.2-1.8,0.2C1002,611.1,1000.2,611.1,998.4,611.1C998.4,611.1,998.4,611.1,998.4,611.1z"/>
	<path class="st21" d="M982.3,700.7c-1.6,0-3.2,0-4.9,0c-0.5,0-1,0-1.5,0c-2.1-0.2-3.3-1.3-3.8-3.3c-0.3-1.1-0.5-2.3-0.7-3.5
		c-0.5-2.6-1-5.1-1.5-7.7c-0.1-0.7-0.2-1.5-0.2-2.2c0.1-1.2,0.6-1.8,1.8-2.1c0.5-0.1,1-0.2,1.5-0.2c3.7,0,7.3,0,11,0
		c0.2,0,0.5,0,0.7,0c2.1,0.2,3.2,1,3.7,3.1c0.5,2.2,0.9,4.4,1.4,6.6c0.4,1.8,0.7,3.7,1,5.5c0.1,0.6,0.2,1.1,0.1,1.7
		c-0.1,1.1-0.8,1.8-1.9,2.1c-0.5,0.1-1.1,0.1-1.7,0.1C985.8,700.7,984.1,700.7,982.3,700.7z"/>
	<path class="st5" d="M1056,563.4c1.6,0,3.2,0,4.9,0c0.4,0,0.9,0,1.3,0c2.1,0.2,3.3,1.2,3.8,3.2c0.5,2.1,0.9,4.3,1.3,6.4
		c0.3,1.8,0.7,3.5,1,5.3c0.1,0.4,0.2,0.7,0.2,1.1c0.1,1.7-0.7,2.8-2.4,2.9c-4.2,0.1-8.5,0.1-12.7,0c-2.1,0-3.4-1.2-3.8-3.4
		c-0.6-2.7-1-5.4-1.5-8.1c-0.2-1-0.4-2.1-0.6-3.1c-0.1-0.7-0.2-1.4-0.2-2c0-1.2,0.6-1.9,1.7-2.1c0.5-0.1,1.1-0.2,1.7-0.2
		C1052.4,563.4,1054.2,563.4,1056,563.4C1056,563.4,1056,563.4,1056,563.4z"/>
	<path class="st21" d="M909.9,672c-1.6,0-3.2,0-4.9,0c-0.4,0-0.9,0-1.3,0c-2.1-0.2-3.1-1.1-3.7-3.1c-0.3-1-0.5-2.1-0.7-3.1
		c-0.6-3-1.1-6-1.7-9c-0.5-2.7,0.4-3.8,3-3.8c3.7,0,7.3,0,11,0c0.5,0,1,0,1.5,0.1c1.6,0.3,2.7,1.3,3.1,2.9c0.2,0.8,0.4,1.7,0.5,2.6
		c0.6,3,1.1,6,1.7,9c0.1,0.7,0.2,1.5,0.2,2.2c-0.1,1.1-0.6,1.8-1.8,2.1c-0.5,0.1-1.1,0.2-1.7,0.2C913.5,672,911.7,672,909.9,672z"/>
	<path class="st21" d="M1012.1,681.7c1.9,0,3.7,0.1,5.6,0c2.4-0.1,4.1,1.6,4.4,3.6c0.7,3.7,1.4,7.4,2.1,11.2c0.1,0.7,0.1,1.4,0.1,2
		c0,1-0.6,1.6-1.5,1.9c-0.5,0.2-1.1,0.2-1.7,0.2c-3.7,0-7.5,0-11.2,0c-0.8,0-1.5-0.1-2.2-0.4c-1.1-0.5-1.8-1.3-2.1-2.4
		c-0.3-1.5-0.7-3-1-4.6c-0.5-2.6-1-5.2-1.5-7.9c-0.1-0.4-0.2-0.9-0.1-1.3c0.1-1.3,0.8-2.1,2-2.3c0.5-0.1,1-0.1,1.5-0.1
		C1008.5,681.7,1010.3,681.7,1012.1,681.7z"/>
	<path class="st21" d="M1028.1,592.1c2,0,4,0,6,0c1.4,0,2.4,0.6,3.2,1.6c0.4,0.5,0.7,1,0.8,1.7c0.7,3.8,1.5,7.7,2.2,11.5
		c0.1,0.6,0.1,1.2,0.1,1.9c0,1.3-0.6,2-1.8,2.2c-0.5,0.1-1,0.1-1.5,0.1c-3.6,0-7.2,0-10.8,0c-0.4,0-0.9,0-1.3-0.1
		c-1.6-0.4-2.9-1.2-3.2-3c-0.3-1.6-0.6-3.3-1-4.9c-0.5-2.5-1-5-1.4-7.5c-0.1-0.4-0.2-0.9-0.1-1.3c0-1,0.7-1.8,1.6-2
		c0.5-0.1,1.1-0.2,1.7-0.2C1024.4,592.1,1026.3,592.1,1028.1,592.1C1028.1,592.1,1028.1,592.1,1028.1,592.1z"/>
	<path class="st5" d="M1094.9,592.1c1.6,0,3.2,0,4.9,0c0.5,0,1,0,1.5,0c1.9,0.2,3.1,1.2,3.5,3.1c0.4,1.9,0.8,3.9,1.2,5.9
		c0.4,2,0.8,4,1.1,6.1c0.1,0.6,0.2,1.2,0.1,1.9c0,0.9-0.5,1.5-1.4,1.8c-0.6,0.2-1.2,0.3-1.8,0.3c-3.8,0-7.6,0-11.4,0
		c-0.4,0-0.9-0.1-1.3-0.1c-1.2-0.3-2.1-1-2.6-2.2c-0.2-0.6-0.4-1.3-0.5-2c-0.7-3.5-1.4-7.1-2.1-10.6c-0.1-0.5-0.2-1.1-0.2-1.7
		c0-1.2,0.6-2,1.8-2.2c0.5-0.1,1.1-0.1,1.7-0.1C1091.3,592.1,1093.1,592.1,1094.9,592.1z"/>
	<path class="st5" d="M1061.5,592.1c1.9,0,3.7,0,5.6,0c0.7,0,1.4,0,2,0.3c1.2,0.5,2.1,1.3,2.3,2.7c0.8,4.3,1.7,8.5,2.5,12.8
		c0.3,1.6-0.5,2.7-2,3c-0.5,0.1-1,0.1-1.5,0.1c-3.5,0-7.1,0-10.6,0c-0.4,0-0.7,0-1.1-0.1c-1.9-0.3-3.2-1.4-3.6-3.3
		c-0.6-2.7-1-5.4-1.6-8.1c-0.3-1.4-0.6-2.8-0.8-4.2c-0.4-2.1,0.5-3.2,2.6-3.4c0.9-0.1,1.7,0,2.6,0
		C1059.1,592.1,1060.3,592.1,1061.5,592.1C1061.5,592.1,1061.5,592.1,1061.5,592.1z"/>
	<path class="st5" d="M1078.7,681.7c1.7,0,3.4,0,5,0c0.5,0,1,0,1.5,0c1.7,0.2,2.9,1.1,3.4,2.7c0.2,0.5,0.3,1.1,0.4,1.6
		c0.7,3.5,1.3,7,2,10.4c0.1,0.5,0.2,1,0.2,1.5c0,1.4-0.6,2.2-2,2.5c-0.3,0.1-0.6,0.1-0.9,0.1c-4,0-8,0-11.9,0
		c-0.4,0-0.9-0.1-1.3-0.2c-1.3-0.4-2.2-1.2-2.5-2.5c-0.1-0.4-0.2-0.8-0.3-1.3c-0.7-3.7-1.4-7.3-2.1-11c-0.1-0.6-0.2-1.2-0.2-1.9
		c0-1,0.6-1.6,1.5-1.9c0.6-0.2,1.2-0.2,1.8-0.2C1075.1,681.7,1076.9,681.7,1078.7,681.7C1078.7,681.7,1078.7,681.7,1078.7,681.7z"/>
	<path class="st21" d="M904.1,641.4c-2,0-4,0-6,0c-2.4,0-3.5-1-4-3.3c0-0.1,0-0.2-0.1-0.4c-0.6-3.1-1.2-6.2-1.8-9.3
		c-0.2-0.9-0.4-1.7-0.5-2.6c-0.3-2,0.5-3.1,2.4-3.1c4.2,0,8.5,0,12.7,0c2.1,0,3.3,1,3.7,3.2c0.8,4.1,1.6,8.2,2.4,12.3
		c0,0.2,0.1,0.5,0.1,0.7c0.1,1.3-0.8,2.3-2.1,2.4c-0.6,0.1-1.1,0-1.7,0C907.6,641.4,905.8,641.4,904.1,641.4
		C904.1,641.4,904.1,641.4,904.1,641.4z"/>
	<path class="st21" d="M1034.3,622.7c1.9,0,3.7,0,5.6,0c0.5,0,1,0,1.5,0.1c1,0.2,1.7,0.7,2.1,1.6c0.3,0.6,0.5,1.2,0.6,1.8
		c0.7,3.8,1.5,7.7,2.2,11.5c0.1,0.5,0.2,1.1,0.1,1.7c-0.1,1-0.8,1.7-1.8,1.9c-0.4,0.1-0.9,0.1-1.3,0.1c-3.9,0-7.8,0-11.8,0
		c-0.2,0-0.5,0-0.7,0c-1.4-0.2-2.5-0.8-3-2.2c-0.2-0.6-0.4-1.3-0.5-2c-0.7-3.4-1.3-6.8-2-10.3c-0.1-0.6-0.2-1.2-0.2-1.8
		c0-1.4,0.8-2.2,2.2-2.3c0.4,0,0.9,0,1.3,0C1030.5,622.7,1032.4,622.7,1034.3,622.7z"/>
	<path class="st21" d="M1000.5,622.7c2.2,0,4.4,0,6.5,0c1.8,0,2.9,1,3.4,2.6c0.2,0.6,0.3,1.2,0.4,1.8c0.2,1.2,0.4,2.3,0.6,3.5
		c0.5,2.3,0.9,4.6,1.4,7c0.1,0.4,0.2,0.7,0.2,1.1c0.1,1.5-0.8,2.5-2.2,2.6c-0.4,0-0.7,0-1.1,0c-3.7,0-7.3,0-11,0c-0.2,0-0.5,0-0.7,0
		c-2.2-0.1-3.3-0.9-3.8-3.1c-0.8-4.2-1.6-8.4-2.4-12.6c0-0.2-0.1-0.5-0.1-0.7c0-1,0.7-1.9,1.8-2.1c0.5-0.1,1.1-0.1,1.7-0.1
		C996.9,622.7,998.7,622.7,1000.5,622.7C1000.5,622.7,1000.5,622.7,1000.5,622.7z"/>
	<path class="st21" d="M967.5,622.7c1.7,0,3.5,0,5.2,0c0.5,0,1,0,1.5,0c1.4,0.2,2.4,0.9,2.9,2.3c0.1,0.4,0.2,0.8,0.3,1.3
		c0.7,3.5,1.4,7.1,2.1,10.6c0.2,0.8,0.2,1.6,0.2,2.4c-0.1,1.2-0.6,1.8-1.8,2c-0.4,0.1-0.9,0.1-1.3,0.1c-3.8,0-7.6,0-11.4,0
		c-0.3,0-0.6,0-0.9,0c-1.7-0.2-2.9-1.2-3.2-2.9c-0.9-4.3-1.7-8.5-2.5-12.8c-0.4-1.9,0.9-3,2.6-3
		C963.2,622.8,965.3,622.7,967.5,622.7C967.5,622.7,967.5,622.7,967.5,622.7z"/>
	<path class="st5" d="M1070.8,641.4c-1.9,0-3.9,0-5.8,0c-2.4,0-3.6-0.9-4.1-3.3c-0.7-3-1.2-6.1-1.8-9.1c-0.2-1-0.4-1.9-0.6-2.9
		c-0.1-0.4-0.1-0.7-0.1-1.1c0.1-1.2,0.9-2.1,2.1-2.2c0.4,0,0.7,0,1.1,0c3.8,0,7.6,0,11.4,0c0.2,0,0.4,0,0.6,0c2.2,0.1,3.3,1,3.7,3.2
		c0.6,2.6,1,5.2,1.6,7.9c0.3,1.3,0.5,2.7,0.7,4c0.1,0.4,0.1,0.7,0.2,1.1c0.1,1.4-0.6,2.3-2,2.5c-0.5,0.1-1,0.1-1.5,0.1
		C1074.5,641.4,1072.6,641.4,1070.8,641.4C1070.8,641.4,1070.8,641.4,1070.8,641.4z"/>
	<path class="st21" d="M937.4,641.4c-1.8,0-3.6,0-5.4,0c-0.4,0-0.9,0-1.3,0c-1.5-0.1-2.4-0.8-2.9-2.2c-0.2-0.5-0.3-1.1-0.4-1.6
		c-0.7-3.6-1.4-7.2-2.1-10.8c-0.1-0.6-0.2-1.2-0.1-1.8c0.1-1.2,0.8-2,2-2.1c0.4-0.1,0.9-0.1,1.3-0.1c3.8,0,7.6,0,11.4,0
		c2.4,0,3.6,0.9,4.1,3.2c0.9,4.1,1.6,8.2,2.4,12.2c0.1,0.4,0.1,0.7,0,1.1c-0.1,1.1-0.8,1.9-1.8,2c-0.5,0.1-1,0.1-1.5,0.1
		C941.1,641.4,939.3,641.4,937.4,641.4z"/>
	<path class="st5" d="M1104.2,641.4c-2,0-4,0-6,0c-2.3,0-3.4-0.9-3.9-3.2c-0.8-3.9-1.5-7.8-2.3-11.7c-0.1-0.6-0.1-1.2-0.1-1.9
		c0.1-1,0.6-1.6,1.5-1.8c0.5-0.1,1-0.1,1.5-0.1c3.8,0,7.7,0,11.5,0c0.2,0,0.4,0,0.6,0c1.8,0.1,3,1,3.5,2.8c0.4,1.7,0.8,3.5,1.1,5.3
		c0.5,2.4,0.9,4.8,1.3,7.1c0.1,0.4,0.2,0.9,0.2,1.3c0,1.1-0.7,1.9-1.8,2.1c-0.5,0.1-1,0.1-1.5,0.1
		C1108,641.4,1106.1,641.4,1104.2,641.4C1104.2,641.4,1104.2,641.4,1104.2,641.4z"/>
	<path class="st5" d="M1116.7,654.4c0.4,0.8,0.3,1.6,0.3,2.4c0,1.6,0,3.1,0.3,4.6c0.1,0.5,0.1,1.1,0.1,1.7c0,0.9,0,1.9,0.2,2.8
		c0.1,0.2,0.1,0.5,0.1,0.7c0,1.8,0.2,3.6,0.4,5.4c-0.2,0-0.5-0.1-0.7-0.1c-4,0-7.9,0-11.9,0.1c-0.3,0-0.6,0-0.9,0
		c-2.6-0.1-3.8-0.9-4.3-3.5c-0.7-3.1-1.2-6.2-1.8-9.3c-0.2-1-0.4-2.1-0.6-3.1c-0.2-1.5,0.5-2.6,1.9-2.9c0.5-0.1,1.1-0.2,1.7-0.2
		c3.6,0,7.2,0,10.8,0c1.6,0,3,0.4,4,1.9C1116.5,655.3,1116.5,654.6,1116.7,654.4z"/>
	<path class="st21" d="M1019.2,563c0.5,0.3,1.1,0.4,1.7,0.4c0.7,0,1.3,0,2,0c-0.6,0.4-1.2,0.9-1.7,1.3c-0.1,0.1-0.2,0.3-0.2,0.5
		c0,0.1,0.1,0.2,0.2,0.3c0.3,0.1,0.6-0.1,0.8-0.3c1.2-0.8,2.3-1.7,3.6-2.1c0.9,0.5,1.9,0.3,2.9,0.4c2.2,0.1,3.7,1.3,4.2,3.5
		c0.3,1.3,0.5,2.7,0.8,4c0.2,0.8,0.3,1.6,0.8,2.3c-4.3,3.6-9.1,6.2-14.5,7.8c-1.1,0.3-2.3,0.7-3.5,0.7c0.4-0.4,0.4-0.8,0.3-1.3
		c-0.5-2.3-0.9-4.7-1.4-7.1c-0.4-1.7-0.5-3.4-1.1-5C1015.5,566.2,1017.2,564.5,1019.2,563z"/>
	<path class="st22" d="M1075.1,557.3c-3.2,0.6-6.4,1.1-9.5,1.7c-1.2,0.2-2.3,0.4-3.5,0.6c-0.4-0.1-0.8,0-1.2,0.3c-0.2,0-0.4,0-0.7,0
		c-0.5-1.9-0.9-3.9-1.1-5.8c4.7-0.9,9.4-1.7,14.1-2.6c0.7-0.1,1.3-0.3,2-0.5c0.3-0.1,0.6-0.2,0.9-0.2c4.1-0.4,8-1.4,12.1-2
		c0.5,0.5,0.6,1.2,0.8,1.8c0.2,1.3,0.5,2.5,0.8,3.8c0,0,0,0,0,0c-0.3,0.1-0.5,0.2-0.8,0.3c-2.1,0.4-4.2,0.8-6.3,1.2
		c-0.7-0.2-1.3-0.7-1.7-1.3c-0.3-0.3-0.6-0.6-0.9-0.9c-0.2-0.2-0.7,0-0.7,0.4c0,0.5,0.1,1,0.2,1.5c0.1,0.6-0.1,0.9-0.8,1.1
		c-0.4,0.1-0.7,0.1-1.1,0.2C1076.8,557,1075.9,556.8,1075.1,557.3z"/>
	<path class="st5" d="M1080.8,564.4c1.3,1.6,2.6,3.2,3.8,4.8c3.6,4.5,7.4,8.9,11.7,12.8c0.1,0.1,0.2,0.2,0.2,0.3c-3.1,0-6.2,0-9.3,0
		c-0.2,0-0.4,0-0.6,0c-2-0.2-3.2-1.2-3.7-3.1c-0.4-1.8-0.8-3.6-1.1-5.5c-0.4-2.3-0.9-4.5-1.3-6.8
		C1080.4,566.1,1080.4,565.3,1080.8,564.4z"/>
	<path class="st23" d="M1016.2,581.6c1.2,0.1,2.3-0.3,3.5-0.7c5.4-1.6,10.2-4.2,14.5-7.8c2-1.4,3.6-3.2,5-5.1
		c0.9-1.3,1.6-2.7,1.8-4.2c0.3-1.6-0.4-2.8-1.9-3.4c-0.8-0.3-1.6-0.4-2.4-0.4c-4,0-7.7,1.2-11.2,3c-1.3,0.5-2.5,1.3-3.6,2.1
		c-0.2,0.2-0.5,0.4-0.8,0.3c-0.1,0-0.2-0.2-0.2-0.3c0-0.2,0.1-0.4,0.2-0.5c0.6-0.5,1.2-0.9,1.7-1.3c2-1,4-2.1,6.1-2.8
		c2.6-0.9,5.3-1.5,8-1.4c0.8,0,1.6,0.1,2.4,0.4c1.8,0.7,2.7,2.2,2.5,4.1c-0.2,1.6-0.8,3-1.7,4.3c-1.2,1.9-2.7,3.5-4.4,5
		c-0.6,0.5-1.1,1-1.7,1.5c-0.5,0.3-1,0.7-1.5,1c-3.5,2.4-7.1,4.4-11.2,5.8c-1.2,0.4-2.5,0.7-3.7,1.1c-1.2,0-2.5,0.1-3.7,0.1
		c-4.3-0.2-6.5-3.3-5.4-7.4c0.5-1.8,1.4-3.3,2.5-4.8c0.8-1.1,1.7-2.1,2.5-3.2c1.2-1.2,2.5-2.5,3.7-3.7c1.2-1,2.4-1.9,3.6-2.9
		c0.3-0.3,0.6-0.6,1.1-0.6c0.1,0,0.2,0.1,0.3,0.2c0,0,0,0.1,0,0.2c-0.2,0.2-0.4,0.5-0.6,0.7c-0.8,0.7-1.7,1.4-2.5,2.2
		c-1.9,1.5-3.7,3.3-5.3,5.2c0,0,0,0,0,0c-0.1,0.1-0.3,0.3-0.4,0.4c-1.5,1.5-2.7,3.2-3.6,5.2c-0.3,0.7-0.6,1.5-0.7,2.3
		c-0.5,2.9,1.1,5.1,4,5.6C1014.2,581.7,1015.2,581.7,1016.2,581.6z"/>
	<path class="st21" d="M913,564.1c5.2,0,10.4,0,15.6,0c0.7,0,1.4-0.1,2,0.2c0.4,0.1,0.6,0.4,0.6,0.8c0,0.3-0.3,0.6-0.6,0.7
		c-0.2,0.1-0.5,0.1-0.7,0.2c-0.5,0-1,0-1.5,0c-10.3,0-20.6,0-30.9,0c-0.6,0-1.1,0-1.7-0.1c-0.3,0-0.6-0.2-0.9-0.3
		c-0.4-0.2-0.4-0.9,0-1.1c0.3-0.2,0.6-0.3,0.8-0.3c0.6-0.1,1.1-0.1,1.7-0.1C902.6,564.1,907.8,564.1,913,564.1z"/>
	<path class="st24" d="M914,568.6c5.3,0,10.6,0,15.8,0c0.6,0,1.2,0.1,1.8,0.1c0.3,0,0.4,0.2,0.5,0.5c0.1,0.3-0.1,0.6-0.3,0.8
		c-0.3,0.2-0.7,0.4-1,0.4c-0.6,0-1.1,0-1.7,0c-10.2,0-20.4,0-30.6,0c-0.6,0-1.2,0-1.9-0.1c-0.3,0-0.6-0.2-0.8-0.4
		c-0.3-0.3-0.2-0.9,0.2-1.1c0.4-0.2,0.8-0.2,1.3-0.2c1.2,0,2.4,0,3.5,0C905.3,568.6,909.7,568.6,914,568.6z"/>
	<path class="st8" d="M887.5,571.2c-0.8,0-1.6,0-2.4,0c-0.9,0-1.6-0.5-1.8-1.4c-0.4-1.7-0.7-3.4-1-5.1c-0.1-0.9,0.3-1.4,1.3-1.4
		c1.7-0.1,3.5,0,5.2,0c0.8,0,1.4,0.5,1.6,1.3c0.4,1.7,0.7,3.4,1,5.1c0.2,0.9-0.2,1.4-1.2,1.4C889.2,571.3,888.3,571.2,887.5,571.2z"
		/>
	<path class="st24" d="M1017.6,582.4c1.2-0.4,2.5-0.7,3.7-1.1c4-1.3,7.7-3.3,11.2-5.8c0.5-0.4,1-0.7,1.5-1c0.3,1.6,0.6,3.1,0.9,4.7
		c0.3,1.6-0.6,2.8-2.2,3.1c-0.4,0.1-0.9,0.1-1.3,0.1C1026.9,582.4,1022.3,582.4,1017.6,582.4z"/>
	<path class="st5" d="M1099.8,569.7c-0.1,0-0.2-0.1-0.3-0.1c-3.2-2-6.4-4-9.4-6.2c1.7,0,3.3,0,5,0c0.5,0,1,0.1,1.5,0.2
		c1.4,0.3,2.3,1.2,2.7,2.5C1099.5,567.3,1099.8,568.5,1099.8,569.7z"/>
	<path class="st25" d="M1075.1,557.3c0.8-0.5,1.7-0.3,2.5-0.5c0.4-0.1,0.7-0.1,1.1-0.2c0.6-0.2,0.8-0.4,0.8-1.1c0-0.5-0.1-1-0.2-1.5
		c0-0.3,0.4-0.6,0.7-0.4c0.3,0.3,0.6,0.6,0.9,0.9c0.5,0.6,1,1.1,1.7,1.3c0.2,1.1,0.2,2.2,0.7,3.3c-1.6-0.1-3.1,0.2-4.4,1.2
		c-1-0.3-1.6-1.1-2.1-2C1076.5,557.6,1075.9,557.3,1075.1,557.3z"/>
	<path class="st9" d="M1089.7,554.4c-0.3-1.3-0.5-2.5-0.8-3.8c-0.1-0.7-0.2-1.3-0.8-1.8c0.7-0.3,1.4-0.3,2.2-0.3
		c1.1,0.1,1.6,0.5,2,1.6c0.2,0.6,0.3,1.3,0.3,2c0,1.4-0.7,2.1-2.1,2.4C1090.4,554.4,1090,554.4,1089.7,554.4z"/>
	<path class="st26" d="M1059.2,554.1c0.2,2,0.5,3.9,1.1,5.8c-1.2-0.1-2.3-0.4-3.4-0.7c0.1-1.1-0.2-2.2-0.4-3.3
		C1057.4,555.2,1058.3,554.6,1059.2,554.1z"/>
	<path class="st27" d="M1056.5,555.9c0.2,1.1,0.5,2.2,0.4,3.3c-1-0.2-2-0.4-3.1-0.6c-0.2,0-0.5-0.1-0.5-0.4c0-0.3,0.2-0.4,0.4-0.5
		C1054.6,557.1,1055.5,556.3,1056.5,555.9z"/>
	<path class="st28" d="M1017.3,563.3c-1.2,1.2-2.5,2.5-3.7,3.7c0-0.2,0-0.5,0-0.7c0.1-1.8,0.9-2.6,2.6-2.9
		C1016.6,563.3,1016.9,563.4,1017.3,563.3z"/>
	<path class="st26" d="M1060.9,559.9c0.4-0.2,0.8-0.3,1.2-0.3C1061.8,559.9,1061.4,560,1060.9,559.9z"/>
	<path class="st9" d="M1089,554.7c0.3-0.1,0.5-0.2,0.8-0.3C1089.5,554.6,1089.3,554.7,1089,554.7z"/>
	<path class="st14" d="M1025.5,563c3.5-1.8,7.2-3,11.2-3c0.8,0,1.6,0.1,2.4,0.4c1.5,0.6,2.2,1.7,1.9,3.4c-0.2,1.6-0.9,3-1.8,4.2
		c-1.4,2-3,3.8-5,5.1c-0.5-0.7-0.6-1.5-0.8-2.3c-0.3-1.3-0.5-2.7-0.8-4c-0.5-2.2-1.9-3.4-4.2-3.5
		C1027.5,563.3,1026.4,563.5,1025.5,563z"/>
	<path class="st14" d="M1016.2,581.6c-1,0.1-2,0.1-3,0c-2.9-0.4-4.6-2.7-4-5.6c0.1-0.8,0.4-1.6,0.7-2.3c0.9-1.9,2.1-3.7,3.6-5.2
		c0.1-0.1,0.3-0.3,0.4-0.4c0,0,0,0,0,0c0.6,1.6,0.8,3.4,1.1,5c0.5,2.3,0.9,4.7,1.4,7.1C1016.6,580.8,1016.6,581.2,1016.2,581.6z"/>
	<path class="st21" d="M1013.9,568.2c-0.1,0.1-0.3,0.3-0.4,0.4C1013.7,568.4,1013.8,568.3,1013.9,568.2z"/>
</g>
</svg>
