<?xml version="1.0" encoding="utf-8"?>
<!-- Generator: Adobe Illustrator 25.0.0, SVG Export Plug-In . SVG Version: 6.00 Build 0)  -->
<svg version="1.1" id="Calque_1" xmlns="http://www.w3.org/2000/svg" xmlns:xlink="http://www.w3.org/1999/xlink" x="0px" y="0px"
	 viewBox="0 0 595.3 841.9" style="enable-background:new 0 0 595.3 841.9;" xml:space="preserve">
<style type="text/css">
	.st0{fill:#FFFFFF;stroke:#000000;stroke-width:0.25;stroke-miterlimit:10;}
	.st1{fill:none;stroke:#000000;stroke-width:0.25;stroke-miterlimit:10;}
	.st2{fill:#463F32;}
	.st3{font-family:'Apple-Chancery';}
	.st4{font-size:15px;}
	.st5{letter-spacing:30;}
</style>
<g>
	<g>
		<g>
			
				<ellipse transform="matrix(0.9944 -0.1057 0.1057 0.9944 -38.5922 33.8338)" class="st0" cx="299.9" cy="381" rx="0.9" ry="2.3"/>
			<path class="st0" d="M292.2,361.6l7.5,17.1c-0.7-2.6-1.6-5.5-2.9-8.6c-1.3-3.2-2.8-6-4.3-8.5
				C292.3,361.6,292.2,361.6,292.2,361.6z"/>
			<path class="st1" d="M303.2,350.7c-3.5,3.6-7.1,7.1-10.9,10.5c-3.8,0.6-7.6,0.7-11.5,1.3"/>
			<path class="st1" d="M302.7,347.9c-1.3,4.9-4.9,9.4-9.6,12.1c-2.5,1.4-5.5,1.3-8.3,1.1c-2.8-0.3-5.5-1.6-6.4-4"/>
			<path class="st1" d="M281.3,355.6c-0.6,4.6,5.9,5.5,9.6,4.9c2.1-0.4,4-2.9,5.3-4.5c1.5-1.8,2.8-3.8,3.3-6"/>
			<path class="st1" d="M297.7,349.8c-2.8,3.1-5,6.6-6.4,10.4c-3-0.8-5.2-3.7-5.5-6.6"/>
			<path class="st1" d="M281.4,354.8c0,1.8,1.4,3.3,3.1,4.1c1.7,0.8,3.7,1,5.6,1.2c2-1.4,4.5-3.3,5.9-5.2c1.5-1.9,2.4-4.2,1.8-6.3"
				/>
			<path class="st1" d="M289.1,353.4c0.1,2.4,0.5,4.7,1.3,7C291.4,356.5,288.2,357.2,289.1,353.4z"/>
		</g>
		<g>
			
				<ellipse transform="matrix(0.9944 -0.1057 0.1057 0.9944 -38.5922 33.8338)" class="st0" cx="299.9" cy="381" rx="0.9" ry="2.3"/>
			<path class="st0" d="M292.2,361.6l7.5,17.1c-0.7-2.6-1.6-5.5-2.9-8.6c-1.3-3.2-2.8-6-4.3-8.5
				C292.3,361.6,292.2,361.6,292.2,361.6z"/>
			<path class="st1" d="M303.2,350.7c-3.5,3.6-7.1,7.1-10.9,10.5c-3.8,0.6-7.6,0.7-11.5,1.3"/>
			<path class="st1" d="M302.7,347.9c-1.3,4.9-4.9,9.4-9.6,12.1c-2.5,1.4-5.5,1.3-8.3,1.1c-2.8-0.3-5.5-1.6-6.4-4"/>
			<path class="st1" d="M281.3,355.6c-0.6,4.6,5.9,5.5,9.6,4.9c2.1-0.4,4-2.9,5.3-4.5c1.5-1.8,2.8-3.8,3.3-6"/>
			<path class="st1" d="M297.7,349.8c-2.8,3.1-5,6.6-6.4,10.4c-3-0.8-5.2-3.7-5.5-6.6"/>
			<path class="st1" d="M281.4,354.8c0,1.8,1.4,3.3,3.1,4.1c1.7,0.8,3.7,1,5.6,1.2c2-1.4,4.5-3.3,5.9-5.2c1.5-1.9,2.4-4.2,1.8-6.3"
				/>
			<path class="st1" d="M289.1,353.4c0.1,2.4,0.5,4.7,1.3,7C291.4,356.5,288.2,357.2,289.1,353.4z"/>
		</g>
	</g>
	<g>
		<g>
			
				<ellipse transform="matrix(0.9944 -0.1057 0.1057 0.9944 -38.5922 33.8338)" class="st0" cx="299.9" cy="381" rx="0.9" ry="2.3"/>
			<path class="st0" d="M292.2,361.6l7.5,17.1c-0.7-2.6-1.6-5.5-2.9-8.6c-1.3-3.2-2.8-6-4.3-8.5
				C292.3,361.6,292.2,361.6,292.2,361.6z"/>
			<path class="st1" d="M303.2,350.7c-3.5,3.6-7.1,7.1-10.9,10.5c-3.8,0.6-7.6,0.7-11.5,1.3"/>
			<path class="st1" d="M302.7,347.9c-1.3,4.9-4.9,9.4-9.6,12.1c-2.5,1.4-5.5,1.3-8.3,1.1c-2.8-0.3-5.5-1.6-6.4-4"/>
			<path class="st1" d="M281.3,355.6c-0.6,4.6,5.9,5.5,9.6,4.9c2.1-0.4,4-2.9,5.3-4.5c1.5-1.8,2.8-3.8,3.3-6"/>
			<path class="st1" d="M297.7,349.8c-2.8,3.1-5,6.6-6.4,10.4c-3-0.8-5.2-3.7-5.5-6.6"/>
			<path class="st1" d="M281.4,354.8c0,1.8,1.4,3.3,3.1,4.1c1.7,0.8,3.7,1,5.6,1.2c2-1.4,4.5-3.3,5.9-5.2c1.5-1.9,2.4-4.2,1.8-6.3"
				/>
			<path class="st1" d="M289.1,353.4c0.1,2.4,0.5,4.7,1.3,7C291.4,356.5,288.2,357.2,289.1,353.4z"/>
		</g>
		<g>
			
				<ellipse transform="matrix(0.9944 -0.1057 0.1057 0.9944 -38.5922 33.8338)" class="st0" cx="299.9" cy="381" rx="0.9" ry="2.3"/>
			<path class="st0" d="M292.2,361.6l7.5,17.1c-0.7-2.6-1.6-5.5-2.9-8.6c-1.3-3.2-2.8-6-4.3-8.5
				C292.3,361.6,292.2,361.6,292.2,361.6z"/>
			<path class="st1" d="M303.2,350.7c-3.5,3.6-7.1,7.1-10.9,10.5c-3.8,0.6-7.6,0.7-11.5,1.3"/>
			<path class="st1" d="M302.7,347.9c-1.3,4.9-4.9,9.4-9.6,12.1c-2.5,1.4-5.5,1.3-8.3,1.1c-2.8-0.3-5.5-1.6-6.4-4"/>
			<path class="st1" d="M281.3,355.6c-0.6,4.6,5.9,5.5,9.6,4.9c2.1-0.4,4-2.9,5.3-4.5c1.5-1.8,2.8-3.8,3.3-6"/>
			<path class="st1" d="M297.7,349.8c-2.8,3.1-5,6.6-6.4,10.4c-3-0.8-5.2-3.7-5.5-6.6"/>
			<path class="st1" d="M281.4,354.8c0,1.8,1.4,3.3,3.1,4.1c1.7,0.8,3.7,1,5.6,1.2c2-1.4,4.5-3.3,5.9-5.2c1.5-1.9,2.4-4.2,1.8-6.3"
				/>
			<path class="st1" d="M289.1,353.4c0.1,2.4,0.5,4.7,1.3,7C291.4,356.5,288.2,357.2,289.1,353.4z"/>
		</g>
	</g>
</g>
<text transform="matrix(1 0 0 1 111.7822 328.3835)" class="st2 st3 st4 st5">   </text>
</svg>
