<?xml version="1.0" encoding="utf-8"?>
<!-- Generator: Adobe Illustrator 25.0.0, SVG Export Plug-In . SVG Version: 6.00 Build 0)  -->
<svg version="1.1" id="Calque_1" xmlns="http://www.w3.org/2000/svg" xmlns:xlink="http://www.w3.org/1999/xlink" x="0px" y="0px"
	 viewBox="0 0 1920 1080" style="enable-background:new 0 0 1920 1080;" xml:space="preserve">
<style type="text/css">
	.st0{fill:none;stroke:#8E8D8A;stroke-width:0.25;stroke-miterlimit:10;}
	.st1{fill:#FFFFFF;stroke:#8E8D8A;stroke-width:0.25;stroke-miterlimit:9.9988;}
	.st2{fill:#FFFFFF;stroke:#8E8D8A;stroke-width:0.25;stroke-miterlimit:10;}
	.st3{fill:#FFFFFF;stroke:#8E8D8F;stroke-width:0.25;stroke-miterlimit:9.9988;}
	.st4{fill:#FFFFFF;stroke:#8E8D8F;stroke-width:0.25;stroke-miterlimit:10;}
	.st5{fill:none;stroke:#8E8D8F;stroke-width:0.25;stroke-miterlimit:10;}
	.st6{fill:#463F32;}
	.st7{font-family:'Apple-Chancery';}
	.st8{font-size:15px;}
	.st9{letter-spacing:30;}
</style>
<ellipse class="st0" cx="922.1" cy="444.1" rx="5.6" ry="5.4"/>
<g>
	
		<ellipse transform="matrix(0.9121 -0.4099 0.4099 0.9121 -98.7596 414.6862)" class="st1" cx="917.8" cy="437.7" rx="1.3" ry="3.5"/>
	<path class="st2" d="M897.9,411.7l18.4,22.6c-2.2-3.6-4.9-7.5-8.1-11.6c-3.4-4.2-6.8-7.9-10-11C898.2,411.7,898,411.7,897.9,411.7z
		"/>
	<path class="st0" d="M908.8,393c-3.4,6.1-7,12.2-10.8,18.1c-5.2,1.9-10.6,3-15.8,4.9"/>
	<path class="st0" d="M906.8,389.2c0.3,7.4-2.8,14.8-8.3,20c-2.9,2.7-7.3,3.4-11.3,3.8c-4,0.4-8.5-0.9-10.9-4.1"/>
	<path class="st0" d="M879.7,406c1.3,6.9,10.9,6.3,15.9,4.4c2.9-1.1,4.4-5.2,5.5-7.9c1.3-3,2.3-6.2,2-9.5"/>
	<path class="st0" d="M900.5,393.2c-2.7,5.2-4.2,10.9-4.4,16.7c-4.6-0.3-9.1-4-10.8-8.1"/>
	<path class="st0" d="M879.4,404.8c0.9,2.6,3.5,4.4,6.3,5.1c2.8,0.7,5.7,0.5,8.6,0.3c2.1-2.6,4.9-6,6.1-9c1.2-3.1,1.5-6.7-0.2-9.5"
		/>
	<path class="st0" d="M889.9,400.7c1.2,3.4,2.9,6.7,5,9.7C894.5,404.6,890.3,406.5,889.9,400.7z"/>
</g>
<g>
	<g>
		
			<ellipse transform="matrix(0.3634 -0.9316 0.9316 0.3634 180.2197 1136.1742)" class="st3" cx="921.5" cy="436.2" rx="3.5" ry="1.3"/>
		<path class="st4" d="M925.4,404.3l-2.7,28.5c1-4.1,1.9-8.7,2.4-13.7c0.6-5.3,0.7-10.2,0.6-14.6
			C925.6,404.4,925.5,404.4,925.4,404.3z"/>
		<path class="st5" d="M946.7,397.8c-6.9,2.3-13.8,4.3-20.8,6.2c-5.1-2-9.9-4.7-15-6.8"/>
		<path class="st5" d="M948,393.6c-5.1,5.6-12.6,9-20.4,9.2c-4.1,0.1-7.7-2.3-11-4.6c-3.2-2.4-5.6-6.2-5-10.1"/>
		<path class="st5" d="M916.2,388.3c-4,5.8,3.4,11.7,8.5,13.6c2.9,1.1,6.9-0.9,9.7-2.1c3.1-1.4,6.1-3,8.2-5.6"/>
		<path class="st5" d="M940.5,392.5c-5.6,2-10.8,5.2-15.1,9.3c-3.1-3.2-3.9-8.9-2.1-12.9"/>
		<path class="st5" d="M916.9,387.2c-1.3,2.5-0.6,5.5,0.9,7.9c1.5,2.3,3.8,4.1,6.1,5.8c3.4-0.5,7.8-1.2,10.9-2.6
			c3.1-1.4,5.9-3.9,6.6-7.1"/>
		<path class="st5" d="M927.4,391c-1.5,3.3-2.6,6.8-3.2,10.4C928,396.9,923.6,395.4,927.4,391z"/>
	</g>
	<g>
		
			<ellipse transform="matrix(0.3634 -0.9316 0.9316 0.3634 180.2197 1136.1742)" class="st3" cx="921.5" cy="436.2" rx="3.5" ry="1.3"/>
		<path class="st4" d="M925.4,404.3l-2.7,28.5c1-4.1,1.9-8.7,2.4-13.7c0.6-5.3,0.7-10.2,0.6-14.6
			C925.6,404.4,925.5,404.4,925.4,404.3z"/>
		<path class="st5" d="M946.7,397.8c-6.9,2.3-13.8,4.3-20.8,6.2c-5.1-2-9.9-4.7-15-6.8"/>
		<path class="st5" d="M948,393.6c-5.1,5.6-12.6,9-20.4,9.2c-4.1,0.1-7.7-2.3-11-4.6c-3.2-2.4-5.6-6.2-5-10.1"/>
		<path class="st5" d="M916.2,388.3c-4,5.8,3.4,11.7,8.5,13.6c2.9,1.1,6.9-0.9,9.7-2.1c3.1-1.4,6.1-3,8.2-5.6"/>
		<path class="st5" d="M940.5,392.5c-5.6,2-10.8,5.2-15.1,9.3c-3.1-3.2-3.9-8.9-2.1-12.9"/>
		<path class="st5" d="M916.9,387.2c-1.3,2.5-0.6,5.5,0.9,7.9c1.5,2.3,3.8,4.1,6.1,5.8c3.4-0.5,7.8-1.2,10.9-2.6
			c3.1-1.4,5.9-3.9,6.6-7.1"/>
		<path class="st5" d="M927.4,391c-1.5,3.3-2.6,6.8-3.2,10.4C928,396.9,923.6,395.4,927.4,391z"/>
	</g>
</g>
<g>
	<g>
		<g>
			
				<ellipse transform="matrix(0.3876 -0.9218 0.9218 0.3876 157.4748 1111.921)" class="st0" cx="915.6" cy="437.4" rx="1.3" ry="3.6"/>
			<path class="st0" d="M882.5,431.5l29.6,4.5c-4.2-1.2-8.9-2.3-14.2-3.2c-5.5-0.9-10.6-1.4-15.1-1.6
				C882.7,431.4,882.6,431.5,882.5,431.5z"/>
			<path class="st0" d="M877.1,410.8c1.9,6.7,3.6,13.5,5,20.3c-2.5,4.7-5.6,9.1-8.1,13.9"/>
			<path class="st0" d="M872.9,409.3c5.5,5.2,8.6,12.7,8.2,20c-0.2,3.9-2.9,7.2-5.6,10.1s-6.9,4.9-10.9,4.1"/>
			<path class="st0" d="M865.2,439.2c5.8,4.2,12.5-2.5,14.8-7.2c1.3-2.6-0.5-6.7-1.6-9.4c-1.2-3.1-2.7-6-5.3-8.2"/>
			<path class="st0" d="M871.2,416.4c1.8,5.5,4.7,10.7,8.7,15c-3.6,2.8-9.5,3.1-13.6,1.2"/>
			<path class="st0" d="M864.1,438.5c2.5,1.4,5.7,1,8.3-0.3c2.6-1.3,4.5-3.4,6.5-5.4c-0.3-3.3-0.7-7.6-2-10.6c-1.3-3-3.7-5.8-7-6.8"
				/>
			<path class="st0" d="M868.8,428.7c3.3,1.7,6.9,3,10.6,3.8C875,428.6,873.1,432.7,868.8,428.7z"/>
		</g>
		<g>
			
				<ellipse transform="matrix(0.3876 -0.9218 0.9218 0.3876 157.4748 1111.921)" class="st0" cx="915.6" cy="437.4" rx="1.3" ry="3.6"/>
			<path class="st0" d="M882.5,431.5l29.6,4.5c-4.2-1.2-8.9-2.3-14.2-3.2c-5.5-0.9-10.6-1.4-15.1-1.6
				C882.7,431.4,882.6,431.5,882.5,431.5z"/>
			<path class="st0" d="M877.1,410.8c1.9,6.7,3.6,13.5,5,20.3c-2.5,4.7-5.6,9.1-8.1,13.9"/>
			<path class="st0" d="M872.9,409.3c5.5,5.2,8.6,12.7,8.2,20c-0.2,3.9-2.9,7.2-5.6,10.1s-6.9,4.9-10.9,4.1"/>
			<path class="st0" d="M865.2,439.2c5.8,4.2,12.5-2.5,14.8-7.2c1.3-2.6-0.5-6.7-1.6-9.4c-1.2-3.1-2.7-6-5.3-8.2"/>
			<path class="st0" d="M871.2,416.4c1.8,5.5,4.7,10.7,8.7,15c-3.6,2.8-9.5,3.1-13.6,1.2"/>
			<path class="st0" d="M864.1,438.5c2.5,1.4,5.7,1,8.3-0.3c2.6-1.3,4.5-3.4,6.5-5.4c-0.3-3.3-0.7-7.6-2-10.6c-1.3-3-3.7-5.8-7-6.8"
				/>
			<path class="st0" d="M868.8,428.7c3.3,1.7,6.9,3,10.6,3.8C875,428.6,873.1,432.7,868.8,428.7z"/>
		</g>
	</g>
	<g>
		<g>
			
				<ellipse transform="matrix(0.3876 -0.9218 0.9218 0.3876 157.4748 1111.921)" class="st0" cx="915.6" cy="437.4" rx="1.3" ry="3.6"/>
			<path class="st0" d="M882.5,431.5l29.6,4.5c-4.2-1.2-8.9-2.3-14.2-3.2c-5.5-0.9-10.6-1.4-15.1-1.6
				C882.7,431.4,882.6,431.5,882.5,431.5z"/>
			<path class="st0" d="M877.1,410.8c1.9,6.7,3.6,13.5,5,20.3c-2.5,4.7-5.6,9.1-8.1,13.9"/>
			<path class="st0" d="M872.9,409.3c5.5,5.2,8.6,12.7,8.2,20c-0.2,3.9-2.9,7.2-5.6,10.1s-6.9,4.9-10.9,4.1"/>
			<path class="st0" d="M865.2,439.2c5.8,4.2,12.5-2.5,14.8-7.2c1.3-2.6-0.5-6.7-1.6-9.4c-1.2-3.1-2.7-6-5.3-8.2"/>
			<path class="st0" d="M871.2,416.4c1.8,5.5,4.7,10.7,8.7,15c-3.6,2.8-9.5,3.1-13.6,1.2"/>
			<path class="st0" d="M864.1,438.5c2.5,1.4,5.7,1,8.3-0.3c2.6-1.3,4.5-3.4,6.5-5.4c-0.3-3.3-0.7-7.6-2-10.6c-1.3-3-3.7-5.8-7-6.8"
				/>
			<path class="st0" d="M868.8,428.7c3.3,1.7,6.9,3,10.6,3.8C875,428.6,873.1,432.7,868.8,428.7z"/>
		</g>
		<g>
			
				<ellipse transform="matrix(0.3876 -0.9218 0.9218 0.3876 157.4748 1111.921)" class="st0" cx="915.6" cy="437.4" rx="1.3" ry="3.6"/>
			<path class="st0" d="M882.5,431.5l29.6,4.5c-4.2-1.2-8.9-2.3-14.2-3.2c-5.5-0.9-10.6-1.4-15.1-1.6
				C882.7,431.4,882.6,431.5,882.5,431.5z"/>
			<path class="st0" d="M877.1,410.8c1.9,6.7,3.6,13.5,5,20.3c-2.5,4.7-5.6,9.1-8.1,13.9"/>
			<path class="st0" d="M872.9,409.3c5.5,5.2,8.6,12.7,8.2,20c-0.2,3.9-2.9,7.2-5.6,10.1s-6.9,4.9-10.9,4.1"/>
			<path class="st0" d="M865.2,439.2c5.8,4.2,12.5-2.5,14.8-7.2c1.3-2.6-0.5-6.7-1.6-9.4c-1.2-3.1-2.7-6-5.3-8.2"/>
			<path class="st0" d="M871.2,416.4c1.8,5.5,4.7,10.7,8.7,15c-3.6,2.8-9.5,3.1-13.6,1.2"/>
			<path class="st0" d="M864.1,438.5c2.5,1.4,5.7,1,8.3-0.3c2.6-1.3,4.5-3.4,6.5-5.4c-0.3-3.3-0.7-7.6-2-10.6c-1.3-3-3.7-5.8-7-6.8"
				/>
			<path class="st0" d="M868.8,428.7c3.3,1.7,6.9,3,10.6,3.8C875,428.6,873.1,432.7,868.8,428.7z"/>
		</g>
	</g>
</g>
<g>
	<g>
		<g>
			<ellipse transform="matrix(0.964 -0.266 0.266 0.964 -84.7146 259.4945)" class="st5" cx="915.6" cy="442.5" rx="3.6" ry="1.3"/>
			<path class="st5" d="M886.3,458.4l25.6-14.9c-4,1.7-8.4,3.7-13,6.3c-4.8,2.7-9,5.5-12.6,8.2C886.3,458.2,886.3,458.3,886.3,458.4
				z"/>
			<path class="st5" d="M868.2,445.9c6,3.9,11.8,8,17.6,12.3c1.3,5.1,1.9,10.4,3.3,15.6"/>
			<path class="st5" d="M863.9,447.4c7.7,0.6,15.1,4.4,19.9,10.2c2.5,3.1,2.7,7.3,2.6,11.2c-0.1,3.9-1.9,8-5.5,9.9"/>
			<path class="st5" d="M878.3,475c7.3-0.4,7.8-9.6,6.4-14.6c-0.8-2.8-4.9-4.8-7.5-6.2c-3-1.6-6.2-2.9-9.6-3"/>
			<path class="st5" d="M867.4,453.9c5.1,3.1,10.9,5.2,16.8,6.1c-0.9,4.3-5.2,8.2-9.6,9.3"/>
			<path class="st5" d="M877,475.2c2.8-0.5,5-2.8,6.1-5.4c1.1-2.6,1.2-5.4,1.3-8.1c-2.4-2.3-5.7-5.3-8.7-6.9c-3-1.5-6.8-2.2-9.9-0.9
				"/>
			<path class="st5" d="M873.9,464.8c3.7-0.8,7.3-2,10.6-3.7C878.6,460.9,880,465.1,873.9,464.8z"/>
		</g>
		<g>
			<ellipse transform="matrix(0.964 -0.266 0.266 0.964 -84.7146 259.4945)" class="st5" cx="915.6" cy="442.5" rx="3.6" ry="1.3"/>
			<path class="st5" d="M886.3,458.4l25.6-14.9c-4,1.7-8.4,3.7-13,6.3c-4.8,2.7-9,5.5-12.6,8.2C886.3,458.2,886.3,458.3,886.3,458.4
				z"/>
			<path class="st5" d="M868.2,445.9c6,3.9,11.8,8,17.6,12.3c1.3,5.1,1.9,10.4,3.3,15.6"/>
			<path class="st5" d="M863.9,447.4c7.7,0.6,15.1,4.4,19.9,10.2c2.5,3.1,2.7,7.3,2.6,11.2c-0.1,3.9-1.9,8-5.5,9.9"/>
			<path class="st5" d="M878.3,475c7.3-0.4,7.8-9.6,6.4-14.6c-0.8-2.8-4.9-4.8-7.5-6.2c-3-1.6-6.2-2.9-9.6-3"/>
			<path class="st5" d="M867.4,453.9c5.1,3.1,10.9,5.2,16.8,6.1c-0.9,4.3-5.2,8.2-9.6,9.3"/>
			<path class="st5" d="M877,475.2c2.8-0.5,5-2.8,6.1-5.4c1.1-2.6,1.2-5.4,1.3-8.1c-2.4-2.3-5.7-5.3-8.7-6.9c-3-1.5-6.8-2.2-9.9-0.9
				"/>
			<path class="st5" d="M873.9,464.8c3.7-0.8,7.3-2,10.6-3.7C878.6,460.9,880,465.1,873.9,464.8z"/>
		</g>
	</g>
	<g>
		<g>
			<ellipse transform="matrix(0.964 -0.266 0.266 0.964 -84.7146 259.4945)" class="st5" cx="915.6" cy="442.5" rx="3.6" ry="1.3"/>
			<path class="st5" d="M886.3,458.4l25.6-14.9c-4,1.7-8.4,3.7-13,6.3c-4.8,2.7-9,5.5-12.6,8.2C886.3,458.2,886.3,458.3,886.3,458.4
				z"/>
			<path class="st5" d="M868.2,445.9c6,3.9,11.8,8,17.6,12.3c1.3,5.1,1.9,10.4,3.3,15.6"/>
			<path class="st5" d="M863.9,447.4c7.7,0.6,15.1,4.4,19.9,10.2c2.5,3.1,2.7,7.3,2.6,11.2c-0.1,3.9-1.9,8-5.5,9.9"/>
			<path class="st5" d="M878.3,475c7.3-0.4,7.8-9.6,6.4-14.6c-0.8-2.8-4.9-4.8-7.5-6.2c-3-1.6-6.2-2.9-9.6-3"/>
			<path class="st5" d="M867.4,453.9c5.1,3.1,10.9,5.2,16.8,6.1c-0.9,4.3-5.2,8.2-9.6,9.3"/>
			<path class="st5" d="M877,475.2c2.8-0.5,5-2.8,6.1-5.4c1.1-2.6,1.2-5.4,1.3-8.1c-2.4-2.3-5.7-5.3-8.7-6.9c-3-1.5-6.8-2.2-9.9-0.9
				"/>
			<path class="st5" d="M873.9,464.8c3.7-0.8,7.3-2,10.6-3.7C878.6,460.9,880,465.1,873.9,464.8z"/>
		</g>
		<g>
			<ellipse transform="matrix(0.964 -0.266 0.266 0.964 -84.7146 259.4945)" class="st5" cx="915.6" cy="442.5" rx="3.6" ry="1.3"/>
			<path class="st5" d="M886.3,458.4l25.6-14.9c-4,1.7-8.4,3.7-13,6.3c-4.8,2.7-9,5.5-12.6,8.2C886.3,458.2,886.3,458.3,886.3,458.4
				z"/>
			<path class="st5" d="M868.2,445.9c6,3.9,11.8,8,17.6,12.3c1.3,5.1,1.9,10.4,3.3,15.6"/>
			<path class="st5" d="M863.9,447.4c7.7,0.6,15.1,4.4,19.9,10.2c2.5,3.1,2.7,7.3,2.6,11.2c-0.1,3.9-1.9,8-5.5,9.9"/>
			<path class="st5" d="M878.3,475c7.3-0.4,7.8-9.6,6.4-14.6c-0.8-2.8-4.9-4.8-7.5-6.2c-3-1.6-6.2-2.9-9.6-3"/>
			<path class="st5" d="M867.4,453.9c5.1,3.1,10.9,5.2,16.8,6.1c-0.9,4.3-5.2,8.2-9.6,9.3"/>
			<path class="st5" d="M877,475.2c2.8-0.5,5-2.8,6.1-5.4c1.1-2.6,1.2-5.4,1.3-8.1c-2.4-2.3-5.7-5.3-8.7-6.9c-3-1.5-6.8-2.2-9.9-0.9
				"/>
			<path class="st5" d="M873.9,464.8c3.7-0.8,7.3-2,10.6-3.7C878.6,460.9,880,465.1,873.9,464.8z"/>
		</g>
	</g>
</g>
<g>
	<g>
		<g>
			
				<ellipse transform="matrix(0.2478 -0.9688 0.9688 0.2478 270.2913 1229.9233)" class="st5" cx="927.2" cy="440.9" rx="1.3" ry="3.6"/>
			<path class="st5" d="M960.9,441.9l-30-0.1c4.3,0.6,9.2,1,14.5,1.1c5.6,0.1,10.7-0.2,15.2-0.7C960.7,442.2,960.8,442,960.9,441.9z
				"/>
			<path class="st5" d="M969.5,461.7c-3-6.3-5.7-12.8-8.2-19.3c1.7-5,4-9.9,5.7-14.9"/>
			<path class="st5" d="M974,462.5c-6.3-4.3-10.5-11.2-11.4-18.6c-0.5-3.9,1.7-7.6,3.9-10.8c2.2-3.3,6-5.9,10.1-5.7"/>
			<path class="st5" d="M976.8,431.8c-6.4-3.3-11.9,4.3-13.5,9.2c-0.9,2.8,1.6,6.5,3,9c1.7,2.9,3.7,5.5,6.6,7.4"/>
			<path class="st5" d="M974.5,455.3c-2.6-5.2-6.4-9.9-11-13.6c3.1-3.3,8.9-4.4,13.3-3.2"/>
			<path class="st5" d="M978,432.3c-2.7-1-5.8-0.1-8.1,1.6c-2.3,1.7-4,4-5.5,6.3c0.8,3.2,1.9,7.4,3.7,10.2c1.7,2.8,4.6,5.2,8,5.7"/>
			<path class="st5" d="M974.9,442.7c-3.6-1.2-7.3-1.9-11.1-2.2C968.8,443.7,969.9,439.4,974.9,442.7z"/>
		</g>
		<g>
			
				<ellipse transform="matrix(0.2478 -0.9688 0.9688 0.2478 270.2913 1229.9233)" class="st5" cx="927.2" cy="440.9" rx="1.3" ry="3.6"/>
			<path class="st5" d="M960.9,441.9l-30-0.1c4.3,0.6,9.2,1,14.5,1.1c5.6,0.1,10.7-0.2,15.2-0.7C960.7,442.2,960.8,442,960.9,441.9z
				"/>
			<path class="st5" d="M969.5,461.7c-3-6.3-5.7-12.8-8.2-19.3c1.7-5,4-9.9,5.7-14.9"/>
			<path class="st5" d="M974,462.5c-6.3-4.3-10.5-11.2-11.4-18.6c-0.5-3.9,1.7-7.6,3.9-10.8c2.2-3.3,6-5.9,10.1-5.7"/>
			<path class="st5" d="M976.8,431.8c-6.4-3.3-11.9,4.3-13.5,9.2c-0.9,2.8,1.6,6.5,3,9c1.7,2.9,3.7,5.5,6.6,7.4"/>
			<path class="st5" d="M974.5,455.3c-2.6-5.2-6.4-9.9-11-13.6c3.1-3.3,8.9-4.4,13.3-3.2"/>
			<path class="st5" d="M978,432.3c-2.7-1-5.8-0.1-8.1,1.6c-2.3,1.7-4,4-5.5,6.3c0.8,3.2,1.9,7.4,3.7,10.2c1.7,2.8,4.6,5.2,8,5.7"/>
			<path class="st5" d="M974.9,442.7c-3.6-1.2-7.3-1.9-11.1-2.2C968.8,443.7,969.9,439.4,974.9,442.7z"/>
		</g>
	</g>
	<g>
		<g>
			
				<ellipse transform="matrix(0.2478 -0.9688 0.9688 0.2478 270.2913 1229.9233)" class="st5" cx="927.2" cy="440.9" rx="1.3" ry="3.6"/>
			<path class="st5" d="M960.9,441.9l-30-0.1c4.3,0.6,9.2,1,14.5,1.1c5.6,0.1,10.7-0.2,15.2-0.7C960.7,442.2,960.8,442,960.9,441.9z
				"/>
			<path class="st5" d="M969.5,461.7c-3-6.3-5.7-12.8-8.2-19.3c1.7-5,4-9.9,5.7-14.9"/>
			<path class="st5" d="M974,462.5c-6.3-4.3-10.5-11.2-11.4-18.6c-0.5-3.9,1.7-7.6,3.9-10.8c2.2-3.3,6-5.9,10.1-5.7"/>
			<path class="st5" d="M976.8,431.8c-6.4-3.3-11.9,4.3-13.5,9.2c-0.9,2.8,1.6,6.5,3,9c1.7,2.9,3.7,5.5,6.6,7.4"/>
			<path class="st5" d="M974.5,455.3c-2.6-5.2-6.4-9.9-11-13.6c3.1-3.3,8.9-4.4,13.3-3.2"/>
			<path class="st5" d="M978,432.3c-2.7-1-5.8-0.1-8.1,1.6c-2.3,1.7-4,4-5.5,6.3c0.8,3.2,1.9,7.4,3.7,10.2c1.7,2.8,4.6,5.2,8,5.7"/>
			<path class="st5" d="M974.9,442.7c-3.6-1.2-7.3-1.9-11.1-2.2C968.8,443.7,969.9,439.4,974.9,442.7z"/>
		</g>
		<g>
			
				<ellipse transform="matrix(0.2478 -0.9688 0.9688 0.2478 270.2913 1229.9233)" class="st5" cx="927.2" cy="440.9" rx="1.3" ry="3.6"/>
			<path class="st5" d="M960.9,441.9l-30-0.1c4.3,0.6,9.2,1,14.5,1.1c5.6,0.1,10.7-0.2,15.2-0.7C960.7,442.2,960.8,442,960.9,441.9z
				"/>
			<path class="st5" d="M969.5,461.7c-3-6.3-5.7-12.8-8.2-19.3c1.7-5,4-9.9,5.7-14.9"/>
			<path class="st5" d="M974,462.5c-6.3-4.3-10.5-11.2-11.4-18.6c-0.5-3.9,1.7-7.6,3.9-10.8c2.2-3.3,6-5.9,10.1-5.7"/>
			<path class="st5" d="M976.8,431.8c-6.4-3.3-11.9,4.3-13.5,9.2c-0.9,2.8,1.6,6.5,3,9c1.7,2.9,3.7,5.5,6.6,7.4"/>
			<path class="st5" d="M974.5,455.3c-2.6-5.2-6.4-9.9-11-13.6c3.1-3.3,8.9-4.4,13.3-3.2"/>
			<path class="st5" d="M978,432.3c-2.7-1-5.8-0.1-8.1,1.6c-2.3,1.7-4,4-5.5,6.3c0.8,3.2,1.9,7.4,3.7,10.2c1.7,2.8,4.6,5.2,8,5.7"/>
			<path class="st5" d="M974.9,442.7c-3.6-1.2-7.3-1.9-11.1-2.2C968.8,443.7,969.9,439.4,974.9,442.7z"/>
		</g>
	</g>
</g>
<g>
	<g>
		<g>
			<ellipse transform="matrix(0.99 -0.1408 0.1408 0.99 -53.6639 134.1168)" class="st5" cx="920.9" cy="446.3" rx="1.3" ry="3.5"/>
			<path class="st5" d="M933,476.4L921.4,450c1.1,4,2.6,8.5,4.6,13.2c2.1,5,4.3,9.3,6.6,13.1C932.7,476.3,932.8,476.3,933,476.4z"/>
			<path class="st5" d="M917.3,491.6c5-5.1,10.1-10,15.4-14.7c5.5-0.5,11.1-0.3,16.6-0.7"/>
			<path class="st5" d="M918.2,495.9c1.8-7.2,6.8-13.6,13.5-17.2c3.6-1.9,7.9-1.4,12-0.8c4.1,0.6,8,3,9.4,6.7"/>
			<path class="st5" d="M948.9,486.4c0.7-6.9-8.8-8.9-14.2-8.3c-3,0.3-5.7,3.9-7.5,6.2c-2.1,2.6-3.9,5.4-4.6,8.6"/>
			<path class="st5" d="M925.3,493.5c4-4.3,7-9.5,8.8-15c4.3,1.5,7.7,6.1,8.2,10.5"/>
			<path class="st5" d="M948.9,487.7c-0.1-2.8-2.2-5.2-4.6-6.5c-2.4-1.3-5.4-1.9-8.2-2.4c-2.8,1.9-6.4,4.6-8.4,7.2s-3.3,6.1-2.4,9.2
				"/>
			<path class="st5" d="M937.7,489c-0.2-3.6-1-7.2-2.2-10.6C934.3,484.1,938.9,483.4,937.7,489z"/>
		</g>
		<g>
			<ellipse transform="matrix(0.99 -0.1408 0.1408 0.99 -53.6639 134.1168)" class="st5" cx="920.9" cy="446.3" rx="1.3" ry="3.5"/>
			<path class="st5" d="M933,476.4L921.4,450c1.1,4,2.6,8.5,4.6,13.2c2.1,5,4.3,9.3,6.6,13.1C932.7,476.3,932.8,476.3,933,476.4z"/>
			<path class="st5" d="M917.3,491.6c5-5.1,10.1-10,15.4-14.7c5.5-0.5,11.1-0.3,16.6-0.7"/>
			<path class="st5" d="M918.2,495.9c1.8-7.2,6.8-13.6,13.5-17.2c3.6-1.9,7.9-1.4,12-0.8c4.1,0.6,8,3,9.4,6.7"/>
			<path class="st5" d="M948.9,486.4c0.7-6.9-8.8-8.9-14.2-8.3c-3,0.3-5.7,3.9-7.5,6.2c-2.1,2.6-3.9,5.4-4.6,8.6"/>
			<path class="st5" d="M925.3,493.5c4-4.3,7-9.5,8.8-15c4.3,1.5,7.7,6.1,8.2,10.5"/>
			<path class="st5" d="M948.9,487.7c-0.1-2.8-2.2-5.2-4.6-6.5c-2.4-1.3-5.4-1.9-8.2-2.4c-2.8,1.9-6.4,4.6-8.4,7.2s-3.3,6.1-2.4,9.2
				"/>
			<path class="st5" d="M937.7,489c-0.2-3.6-1-7.2-2.2-10.6C934.3,484.1,938.9,483.4,937.7,489z"/>
		</g>
	</g>
	<g>
		<g>
			<ellipse transform="matrix(0.99 -0.1408 0.1408 0.99 -53.6639 134.1168)" class="st5" cx="920.9" cy="446.3" rx="1.3" ry="3.5"/>
			<path class="st5" d="M933,476.4L921.4,450c1.1,4,2.6,8.5,4.6,13.2c2.1,5,4.3,9.3,6.6,13.1C932.7,476.3,932.8,476.3,933,476.4z"/>
			<path class="st5" d="M917.3,491.6c5-5.1,10.1-10,15.4-14.7c5.5-0.5,11.1-0.3,16.6-0.7"/>
			<path class="st5" d="M918.2,495.9c1.8-7.2,6.8-13.6,13.5-17.2c3.6-1.9,7.9-1.4,12-0.8c4.1,0.6,8,3,9.4,6.7"/>
			<path class="st5" d="M948.9,486.4c0.7-6.9-8.8-8.9-14.2-8.3c-3,0.3-5.7,3.9-7.5,6.2c-2.1,2.6-3.9,5.4-4.6,8.6"/>
			<path class="st5" d="M925.3,493.5c4-4.3,7-9.5,8.8-15c4.3,1.5,7.7,6.1,8.2,10.5"/>
			<path class="st5" d="M948.9,487.7c-0.1-2.8-2.2-5.2-4.6-6.5c-2.4-1.3-5.4-1.9-8.2-2.4c-2.8,1.9-6.4,4.6-8.4,7.2s-3.3,6.1-2.4,9.2
				"/>
			<path class="st5" d="M937.7,489c-0.2-3.6-1-7.2-2.2-10.6C934.3,484.1,938.9,483.4,937.7,489z"/>
		</g>
		<g>
			<ellipse transform="matrix(0.99 -0.1408 0.1408 0.99 -53.6639 134.1168)" class="st5" cx="920.9" cy="446.3" rx="1.3" ry="3.5"/>
			<path class="st5" d="M933,476.4L921.4,450c1.1,4,2.6,8.5,4.6,13.2c2.1,5,4.3,9.3,6.6,13.1C932.7,476.3,932.8,476.3,933,476.4z"/>
			<path class="st5" d="M917.3,491.6c5-5.1,10.1-10,15.4-14.7c5.5-0.5,11.1-0.3,16.6-0.7"/>
			<path class="st5" d="M918.2,495.9c1.8-7.2,6.8-13.6,13.5-17.2c3.6-1.9,7.9-1.4,12-0.8c4.1,0.6,8,3,9.4,6.7"/>
			<path class="st5" d="M948.9,486.4c0.7-6.9-8.8-8.9-14.2-8.3c-3,0.3-5.7,3.9-7.5,6.2c-2.1,2.6-3.9,5.4-4.6,8.6"/>
			<path class="st5" d="M925.3,493.5c4-4.3,7-9.5,8.8-15c4.3,1.5,7.7,6.1,8.2,10.5"/>
			<path class="st5" d="M948.9,487.7c-0.1-2.8-2.2-5.2-4.6-6.5c-2.4-1.3-5.4-1.9-8.2-2.4c-2.8,1.9-6.4,4.6-8.4,7.2s-3.3,6.1-2.4,9.2
				"/>
			<path class="st5" d="M937.7,489c-0.2-3.6-1-7.2-2.2-10.6C934.3,484.1,938.9,483.4,937.7,489z"/>
		</g>
	</g>
</g>
<g>
	<g>
		<g>
			
				<ellipse transform="matrix(0.5895 -0.8078 0.8078 0.5895 16.5699 924.2661)" class="st5" cx="917.6" cy="445.8" rx="3.6" ry="1.3"/>
			<path class="st5" d="M905.4,475.8l10-27c-2,3.7-4,8-5.9,12.7c-1.9,5-3.3,9.7-4.4,14C905.3,475.6,905.3,475.7,905.4,475.8z"/>
			<path class="st5" d="M883.1,477c7.2-0.6,14.5-0.9,21.8-1c4.4,3.2,8.4,6.9,12.8,10.1"/>
			<path class="st5" d="M880.8,480.8c6.4-4.2,14.6-5.7,22.1-4.1c4,0.9,6.9,4,9.4,7.1s3.8,7.3,2.3,11"/>
			<path class="st5" d="M910.2,493.5c5.4-4.7-0.3-12.2-4.7-15.2c-2.5-1.7-7-0.7-9.9-0.2c-3.4,0.6-6.7,1.5-9.4,3.5"/>
			<path class="st5" d="M887.7,483.6c6-0.6,11.9-2.5,17.1-5.4c2.2,3.9,1.4,9.5-1.3,13"/>
			<path class="st5" d="M909.3,494.4c1.9-2.1,2-5.2,1.1-7.8c-0.9-2.6-2.6-4.9-4.4-7.1c-3.4-0.3-7.9-0.7-11.3-0.1
				c-3.4,0.6-6.7,2.4-8.3,5.3"/>
			<path class="st5" d="M900,488.2c2.4-2.8,4.3-6,5.8-9.3C901,482.3,904.9,484.8,900,488.2z"/>
		</g>
		<g>
			
				<ellipse transform="matrix(0.5895 -0.8078 0.8078 0.5895 16.5699 924.2661)" class="st5" cx="917.6" cy="445.8" rx="3.6" ry="1.3"/>
			<path class="st5" d="M905.4,475.8l10-27c-2,3.7-4,8-5.9,12.7c-1.9,5-3.3,9.7-4.4,14C905.3,475.6,905.3,475.7,905.4,475.8z"/>
			<path class="st5" d="M883.1,477c7.2-0.6,14.5-0.9,21.8-1c4.4,3.2,8.4,6.9,12.8,10.1"/>
			<path class="st5" d="M880.8,480.8c6.4-4.2,14.6-5.7,22.1-4.1c4,0.9,6.9,4,9.4,7.1s3.8,7.3,2.3,11"/>
			<path class="st5" d="M910.2,493.5c5.4-4.7-0.3-12.2-4.7-15.2c-2.5-1.7-7-0.7-9.9-0.2c-3.4,0.6-6.7,1.5-9.4,3.5"/>
			<path class="st5" d="M887.7,483.6c6-0.6,11.9-2.5,17.1-5.4c2.2,3.9,1.4,9.5-1.3,13"/>
			<path class="st5" d="M909.3,494.4c1.9-2.1,2-5.2,1.1-7.8c-0.9-2.6-2.6-4.9-4.4-7.1c-3.4-0.3-7.9-0.7-11.3-0.1
				c-3.4,0.6-6.7,2.4-8.3,5.3"/>
			<path class="st5" d="M900,488.2c2.4-2.8,4.3-6,5.8-9.3C901,482.3,904.9,484.8,900,488.2z"/>
		</g>
	</g>
	<g>
		<g>
			
				<ellipse transform="matrix(0.5895 -0.8078 0.8078 0.5895 16.5699 924.2661)" class="st5" cx="917.6" cy="445.8" rx="3.6" ry="1.3"/>
			<path class="st5" d="M905.4,475.8l10-27c-2,3.7-4,8-5.9,12.7c-1.9,5-3.3,9.7-4.4,14C905.3,475.6,905.3,475.7,905.4,475.8z"/>
			<path class="st5" d="M883.1,477c7.2-0.6,14.5-0.9,21.8-1c4.4,3.2,8.4,6.9,12.8,10.1"/>
			<path class="st5" d="M880.8,480.8c6.4-4.2,14.6-5.7,22.1-4.1c4,0.9,6.9,4,9.4,7.1s3.8,7.3,2.3,11"/>
			<path class="st5" d="M910.2,493.5c5.4-4.7-0.3-12.2-4.7-15.2c-2.5-1.7-7-0.7-9.9-0.2c-3.4,0.6-6.7,1.5-9.4,3.5"/>
			<path class="st5" d="M887.7,483.6c6-0.6,11.9-2.5,17.1-5.4c2.2,3.9,1.4,9.5-1.3,13"/>
			<path class="st5" d="M909.3,494.4c1.9-2.1,2-5.2,1.1-7.8c-0.9-2.6-2.6-4.9-4.4-7.1c-3.4-0.3-7.9-0.7-11.3-0.1
				c-3.4,0.6-6.7,2.4-8.3,5.3"/>
			<path class="st5" d="M900,488.2c2.4-2.8,4.3-6,5.8-9.3C901,482.3,904.9,484.8,900,488.2z"/>
		</g>
		<g>
			
				<ellipse transform="matrix(0.5895 -0.8078 0.8078 0.5895 16.5699 924.2661)" class="st5" cx="917.6" cy="445.8" rx="3.6" ry="1.3"/>
			<path class="st5" d="M905.4,475.8l10-27c-2,3.7-4,8-5.9,12.7c-1.9,5-3.3,9.7-4.4,14C905.3,475.6,905.3,475.7,905.4,475.8z"/>
			<path class="st5" d="M883.1,477c7.2-0.6,14.5-0.9,21.8-1c4.4,3.2,8.4,6.9,12.8,10.1"/>
			<path class="st5" d="M880.8,480.8c6.4-4.2,14.6-5.7,22.1-4.1c4,0.9,6.9,4,9.4,7.1s3.8,7.3,2.3,11"/>
			<path class="st5" d="M910.2,493.5c5.4-4.7-0.3-12.2-4.7-15.2c-2.5-1.7-7-0.7-9.9-0.2c-3.4,0.6-6.7,1.5-9.4,3.5"/>
			<path class="st5" d="M887.7,483.6c6-0.6,11.9-2.5,17.1-5.4c2.2,3.9,1.4,9.5-1.3,13"/>
			<path class="st5" d="M909.3,494.4c1.9-2.1,2-5.2,1.1-7.8c-0.9-2.6-2.6-4.9-4.4-7.1c-3.4-0.3-7.9-0.7-11.3-0.1
				c-3.4,0.6-6.7,2.4-8.3,5.3"/>
			<path class="st5" d="M900,488.2c2.4-2.8,4.3-6,5.8-9.3C901,482.3,904.9,484.8,900,488.2z"/>
		</g>
	</g>
</g>
<g>
	<g>
		<g>
			
				<ellipse transform="matrix(0.6515 -0.7586 0.7586 0.6515 -15.532 858.7651)" class="st5" cx="927" cy="446.3" rx="1.3" ry="3.6"/>
			<path class="st5" d="M956.5,461.9l-26.6-13.1c3.6,2.4,7.7,4.9,12.4,7.3c4.9,2.5,9.6,4.5,13.9,6C956.3,462,956.4,462,956.5,461.9z
				"/>
			<path class="st5" d="M954.8,483.2c0.4-6.9,1-13.9,1.9-20.8c3.9-3.8,8.3-7,12.2-10.8"/>
			<path class="st5" d="M958.3,485.9c-3.5-6.6-4-14.6-1.2-21.5c1.4-3.6,5.1-6,8.6-8s8.1-2.6,11.7-0.7"/>
			<path class="st5" d="M975.5,459.8c-4.2-5.7-12.7-1.4-16.4,2.3c-2.1,2.1-1.7,6.5-1.6,9.4c0.1,3.3,0.6,6.5,2.3,9.4"/>
			<path class="st5" d="M962.2,479.7c0.1-5.8-1-11.6-3.3-16.9c4.3-1.5,10-0.1,13.3,3"/>
			<path class="st5" d="M976.3,460.8c-1.9-2-5.1-2.6-8-2.2c-2.9,0.4-5.4,1.8-7.9,3.2c-0.8,3.2-1.8,7.4-1.6,10.7
				c0.2,3.3,1.6,6.6,4.4,8.5"/>
			<path class="st5" d="M968.6,468.7c-2.6-2.6-5.6-4.9-8.8-6.8C962.7,467,965.8,463.6,968.6,468.7z"/>
		</g>
		<g>
			
				<ellipse transform="matrix(0.6515 -0.7586 0.7586 0.6515 -15.532 858.7651)" class="st5" cx="927" cy="446.3" rx="1.3" ry="3.6"/>
			<path class="st5" d="M956.5,461.9l-26.6-13.1c3.6,2.4,7.7,4.9,12.4,7.3c4.9,2.5,9.6,4.5,13.9,6C956.3,462,956.4,462,956.5,461.9z
				"/>
			<path class="st5" d="M954.8,483.2c0.4-6.9,1-13.9,1.9-20.8c3.9-3.8,8.3-7,12.2-10.8"/>
			<path class="st5" d="M958.3,485.9c-3.5-6.6-4-14.6-1.2-21.5c1.4-3.6,5.1-6,8.6-8s8.1-2.6,11.7-0.7"/>
			<path class="st5" d="M975.5,459.8c-4.2-5.7-12.7-1.4-16.4,2.3c-2.1,2.1-1.7,6.5-1.6,9.4c0.1,3.3,0.6,6.5,2.3,9.4"/>
			<path class="st5" d="M962.2,479.7c0.1-5.8-1-11.6-3.3-16.9c4.3-1.5,10-0.1,13.3,3"/>
			<path class="st5" d="M976.3,460.8c-1.9-2-5.1-2.6-8-2.2c-2.9,0.4-5.4,1.8-7.9,3.2c-0.8,3.2-1.8,7.4-1.6,10.7
				c0.2,3.3,1.6,6.6,4.4,8.5"/>
			<path class="st5" d="M968.6,468.7c-2.6-2.6-5.6-4.9-8.8-6.8C962.7,467,965.8,463.6,968.6,468.7z"/>
		</g>
	</g>
	<g>
		<g>
			
				<ellipse transform="matrix(0.6515 -0.7586 0.7586 0.6515 -15.532 858.7651)" class="st5" cx="927" cy="446.3" rx="1.3" ry="3.6"/>
			<path class="st5" d="M956.5,461.9l-26.6-13.1c3.6,2.4,7.7,4.9,12.4,7.3c4.9,2.5,9.6,4.5,13.9,6C956.3,462,956.4,462,956.5,461.9z
				"/>
			<path class="st5" d="M954.8,483.2c0.4-6.9,1-13.9,1.9-20.8c3.9-3.8,8.3-7,12.2-10.8"/>
			<path class="st5" d="M958.3,485.9c-3.5-6.6-4-14.6-1.2-21.5c1.4-3.6,5.1-6,8.6-8s8.1-2.6,11.7-0.7"/>
			<path class="st5" d="M975.5,459.8c-4.2-5.7-12.7-1.4-16.4,2.3c-2.1,2.1-1.7,6.5-1.6,9.4c0.1,3.3,0.6,6.5,2.3,9.4"/>
			<path class="st5" d="M962.2,479.7c0.1-5.8-1-11.6-3.3-16.9c4.3-1.5,10-0.1,13.3,3"/>
			<path class="st5" d="M976.3,460.8c-1.9-2-5.1-2.6-8-2.2c-2.9,0.4-5.4,1.8-7.9,3.2c-0.8,3.2-1.8,7.4-1.6,10.7
				c0.2,3.3,1.6,6.6,4.4,8.5"/>
			<path class="st5" d="M968.6,468.7c-2.6-2.6-5.6-4.9-8.8-6.8C962.7,467,965.8,463.6,968.6,468.7z"/>
		</g>
		<g>
			
				<ellipse transform="matrix(0.6515 -0.7586 0.7586 0.6515 -15.532 858.7651)" class="st5" cx="927" cy="446.3" rx="1.3" ry="3.6"/>
			<path class="st5" d="M956.5,461.9l-26.6-13.1c3.6,2.4,7.7,4.9,12.4,7.3c4.9,2.5,9.6,4.5,13.9,6C956.3,462,956.4,462,956.5,461.9z
				"/>
			<path class="st5" d="M954.8,483.2c0.4-6.9,1-13.9,1.9-20.8c3.9-3.8,8.3-7,12.2-10.8"/>
			<path class="st5" d="M958.3,485.9c-3.5-6.6-4-14.6-1.2-21.5c1.4-3.6,5.1-6,8.6-8s8.1-2.6,11.7-0.7"/>
			<path class="st5" d="M975.5,459.8c-4.2-5.7-12.7-1.4-16.4,2.3c-2.1,2.1-1.7,6.5-1.6,9.4c0.1,3.3,0.6,6.5,2.3,9.4"/>
			<path class="st5" d="M962.2,479.7c0.1-5.8-1-11.6-3.3-16.9c4.3-1.5,10-0.1,13.3,3"/>
			<path class="st5" d="M976.3,460.8c-1.9-2-5.1-2.6-8-2.2c-2.9,0.4-5.4,1.8-7.9,3.2c-0.8,3.2-1.8,7.4-1.6,10.7
				c0.2,3.3,1.6,6.6,4.4,8.5"/>
			<path class="st5" d="M968.6,468.7c-2.6-2.6-5.6-4.9-8.8-6.8C962.7,467,965.8,463.6,968.6,468.7z"/>
		</g>
	</g>
</g>
<g>
	<g>
		<g>
			
				<ellipse transform="matrix(0.6216 -0.7833 0.7833 0.6216 8.6261 889.2077)" class="st0" cx="924.7" cy="435.7" rx="2.3" ry="0.9"/>
			<path class="st0" d="M932.7,416.4l-6.5,17.4c1.4-2.4,2.7-5.1,3.9-8.2c1.3-3.2,2.2-6.3,2.8-9C932.8,416.5,932.8,416.4,932.7,416.4
				z"/>
			<path class="st0" d="M948.6,415.5c-5.1,0.4-10.3,0.6-15.5,0.8c-3.2-2-6.1-4.4-9.4-6.5"/>
			<path class="st0" d="M950.1,413.1c-4.4,2.7-10.2,3.8-15.6,2.7c-2.9-0.5-5-2.6-6.9-4.5c-1.9-1.9-2.9-4.7-1.9-7.1"/>
			<path class="st0" d="M929,405c-3.7,3.1,0.5,7.8,3.6,9.8c1.8,1.1,5,0.5,7.1,0.1c2.4-0.4,4.7-1,6.6-2.3"/>
			<path class="st0" d="M945.1,411.2c-4.3,0.4-8.4,1.7-12,3.6c-1.6-2.5-1.2-6.1,0.6-8.4"/>
			<path class="st0" d="M929.6,404.4c-1.3,1.4-1.3,3.4-0.6,5.1c0.7,1.7,2,3.1,3.3,4.6c2.4,0.2,5.6,0.4,8,0c2.4-0.4,4.7-1.6,5.8-3.5"
				/>
			<path class="st0" d="M936.3,408.4c-1.6,1.8-3,3.9-3.9,6C935.7,412.1,932.9,410.6,936.3,408.4z"/>
		</g>
		<g>
			
				<ellipse transform="matrix(0.6216 -0.7833 0.7833 0.6216 8.6261 889.2077)" class="st0" cx="924.7" cy="435.7" rx="2.3" ry="0.9"/>
			<path class="st0" d="M932.7,416.4l-6.5,17.4c1.4-2.4,2.7-5.1,3.9-8.2c1.3-3.2,2.2-6.3,2.8-9C932.8,416.5,932.8,416.4,932.7,416.4
				z"/>
			<path class="st0" d="M948.6,415.5c-5.1,0.4-10.3,0.6-15.5,0.8c-3.2-2-6.1-4.4-9.4-6.5"/>
			<path class="st0" d="M950.1,413.1c-4.4,2.7-10.2,3.8-15.6,2.7c-2.9-0.5-5-2.6-6.9-4.5c-1.9-1.9-2.9-4.7-1.9-7.1"/>
			<path class="st0" d="M929,405c-3.7,3.1,0.5,7.8,3.6,9.8c1.8,1.1,5,0.5,7.1,0.1c2.4-0.4,4.7-1,6.6-2.3"/>
			<path class="st0" d="M945.1,411.2c-4.3,0.4-8.4,1.7-12,3.6c-1.6-2.5-1.2-6.1,0.6-8.4"/>
			<path class="st0" d="M929.6,404.4c-1.3,1.4-1.3,3.4-0.6,5.1c0.7,1.7,2,3.1,3.3,4.6c2.4,0.2,5.6,0.4,8,0c2.4-0.4,4.7-1.6,5.8-3.5"
				/>
			<path class="st0" d="M936.3,408.4c-1.6,1.8-3,3.9-3.9,6C935.7,412.1,932.9,410.6,936.3,408.4z"/>
		</g>
	</g>
	<g>
		<g>
			
				<ellipse transform="matrix(0.6216 -0.7833 0.7833 0.6216 8.6261 889.2077)" class="st0" cx="924.7" cy="435.7" rx="2.3" ry="0.9"/>
			<path class="st0" d="M932.7,416.4l-6.5,17.4c1.4-2.4,2.7-5.1,3.9-8.2c1.3-3.2,2.2-6.3,2.8-9C932.8,416.5,932.8,416.4,932.7,416.4
				z"/>
			<path class="st0" d="M948.6,415.5c-5.1,0.4-10.3,0.6-15.5,0.8c-3.2-2-6.1-4.4-9.4-6.5"/>
			<path class="st0" d="M950.1,413.1c-4.4,2.7-10.2,3.8-15.6,2.7c-2.9-0.5-5-2.6-6.9-4.5c-1.9-1.9-2.9-4.7-1.9-7.1"/>
			<path class="st0" d="M929,405c-3.7,3.1,0.5,7.8,3.6,9.8c1.8,1.1,5,0.5,7.1,0.1c2.4-0.4,4.7-1,6.6-2.3"/>
			<path class="st0" d="M945.1,411.2c-4.3,0.4-8.4,1.7-12,3.6c-1.6-2.5-1.2-6.1,0.6-8.4"/>
			<path class="st0" d="M929.6,404.4c-1.3,1.4-1.3,3.4-0.6,5.1c0.7,1.7,2,3.1,3.3,4.6c2.4,0.2,5.6,0.4,8,0c2.4-0.4,4.7-1.6,5.8-3.5"
				/>
			<path class="st0" d="M936.3,408.4c-1.6,1.8-3,3.9-3.9,6C935.7,412.1,932.9,410.6,936.3,408.4z"/>
		</g>
		<g>
			
				<ellipse transform="matrix(0.6216 -0.7833 0.7833 0.6216 8.6261 889.2077)" class="st0" cx="924.7" cy="435.7" rx="2.3" ry="0.9"/>
			<path class="st0" d="M932.7,416.4l-6.5,17.4c1.4-2.4,2.7-5.1,3.9-8.2c1.3-3.2,2.2-6.3,2.8-9C932.8,416.5,932.8,416.4,932.7,416.4
				z"/>
			<path class="st0" d="M948.6,415.5c-5.1,0.4-10.3,0.6-15.5,0.8c-3.2-2-6.1-4.4-9.4-6.5"/>
			<path class="st0" d="M950.1,413.1c-4.4,2.7-10.2,3.8-15.6,2.7c-2.9-0.5-5-2.6-6.9-4.5c-1.9-1.9-2.9-4.7-1.9-7.1"/>
			<path class="st0" d="M929,405c-3.7,3.1,0.5,7.8,3.6,9.8c1.8,1.1,5,0.5,7.1,0.1c2.4-0.4,4.7-1,6.6-2.3"/>
			<path class="st0" d="M945.1,411.2c-4.3,0.4-8.4,1.7-12,3.6c-1.6-2.5-1.2-6.1,0.6-8.4"/>
			<path class="st0" d="M929.6,404.4c-1.3,1.4-1.3,3.4-0.6,5.1c0.7,1.7,2,3.1,3.3,4.6c2.4,0.2,5.6,0.4,8,0c2.4-0.4,4.7-1.6,5.8-3.5"
				/>
			<path class="st0" d="M936.3,408.4c-1.6,1.8-3,3.9-3.9,6C935.7,412.1,932.9,410.6,936.3,408.4z"/>
		</g>
	</g>
</g>
<g>
	<g>
		<g>
			
				<ellipse transform="matrix(0.7251 -0.6887 0.6887 0.7251 -50.0729 750.9896)" class="st5" cx="915.5" cy="438.2" rx="0.9" ry="2.4"/>
			<path class="st5" d="M897.2,426.9l16.6,9.6c-2.2-1.7-4.7-3.5-7.7-5.3c-3.1-1.8-6-3.3-8.7-4.4
				C897.3,426.8,897.3,426.8,897.2,426.9z"/>
			<path class="st5" d="M899.4,411.8c-0.6,4.9-1.4,9.8-2.3,14.6c-2.7,2.6-5.8,4.9-8.5,7.5"/>
			<path class="st5" d="M897.3,409.9c1.9,4.7,1.8,10.3-0.3,15.2c-1.1,2.6-3.6,4.2-6,5.5c-2.4,1.3-5.4,1.8-7.6,0.3"/>
			<path class="st5" d="M884.8,428.1c2.4,4.1,8.1,1.1,10.8-1.5c1.5-1.5,1.5-4.6,1.5-6.6c0.1-2.3,0-4.6-1-6.7"/>
			<path class="st5" d="M894.4,414.2c-0.4,4.1,0,8.2,1.3,12c-2.9,1-6.5-0.1-8.5-2.3"/>
			<path class="st5" d="M884.3,427.4c1.1,1.5,3.2,1.9,5.1,1.6c1.9-0.3,3.6-1.2,5.3-2.2c0.7-2.2,1.5-5.2,1.6-7.5
				c0-2.3-0.7-4.7-2.4-6.1"/>
			<path class="st5" d="M889.7,421.9c1.6,1.9,3.4,3.5,5.4,4.9C893.4,423.2,891.3,425.5,889.7,421.9z"/>
		</g>
		<g>
			
				<ellipse transform="matrix(0.7251 -0.6887 0.6887 0.7251 -50.0729 750.9896)" class="st5" cx="915.5" cy="438.2" rx="0.9" ry="2.4"/>
			<path class="st5" d="M897.2,426.9l16.6,9.6c-2.2-1.7-4.7-3.5-7.7-5.3c-3.1-1.8-6-3.3-8.7-4.4
				C897.3,426.8,897.3,426.8,897.2,426.9z"/>
			<path class="st5" d="M899.4,411.8c-0.6,4.9-1.4,9.8-2.3,14.6c-2.7,2.6-5.8,4.9-8.5,7.5"/>
			<path class="st5" d="M897.3,409.9c1.9,4.7,1.8,10.3-0.3,15.2c-1.1,2.6-3.6,4.2-6,5.5c-2.4,1.3-5.4,1.8-7.6,0.3"/>
			<path class="st5" d="M884.8,428.1c2.4,4.1,8.1,1.1,10.8-1.5c1.5-1.5,1.5-4.6,1.5-6.6c0.1-2.3,0-4.6-1-6.7"/>
			<path class="st5" d="M894.4,414.2c-0.4,4.1,0,8.2,1.3,12c-2.9,1-6.5-0.1-8.5-2.3"/>
			<path class="st5" d="M884.3,427.4c1.1,1.5,3.2,1.9,5.1,1.6c1.9-0.3,3.6-1.2,5.3-2.2c0.7-2.2,1.5-5.2,1.6-7.5
				c0-2.3-0.7-4.7-2.4-6.1"/>
			<path class="st5" d="M889.7,421.9c1.6,1.9,3.4,3.5,5.4,4.9C893.4,423.2,891.3,425.5,889.7,421.9z"/>
		</g>
	</g>
	<g>
		<g>
			
				<ellipse transform="matrix(0.7251 -0.6887 0.6887 0.7251 -50.0729 750.9896)" class="st5" cx="915.5" cy="438.2" rx="0.9" ry="2.4"/>
			<path class="st5" d="M897.2,426.9l16.6,9.6c-2.2-1.7-4.7-3.5-7.7-5.3c-3.1-1.8-6-3.3-8.7-4.4
				C897.3,426.8,897.3,426.8,897.2,426.9z"/>
			<path class="st5" d="M899.4,411.8c-0.6,4.9-1.4,9.8-2.3,14.6c-2.7,2.6-5.8,4.9-8.5,7.5"/>
			<path class="st5" d="M897.3,409.9c1.9,4.7,1.8,10.3-0.3,15.2c-1.1,2.6-3.6,4.2-6,5.5c-2.4,1.3-5.4,1.8-7.6,0.3"/>
			<path class="st5" d="M884.8,428.1c2.4,4.1,8.1,1.1,10.8-1.5c1.5-1.5,1.5-4.6,1.5-6.6c0.1-2.3,0-4.6-1-6.7"/>
			<path class="st5" d="M894.4,414.2c-0.4,4.1,0,8.2,1.3,12c-2.9,1-6.5-0.1-8.5-2.3"/>
			<path class="st5" d="M884.3,427.4c1.1,1.5,3.2,1.9,5.1,1.6c1.9-0.3,3.6-1.2,5.3-2.2c0.7-2.2,1.5-5.2,1.6-7.5
				c0-2.3-0.7-4.7-2.4-6.1"/>
			<path class="st5" d="M889.7,421.9c1.6,1.9,3.4,3.5,5.4,4.9C893.4,423.2,891.3,425.5,889.7,421.9z"/>
		</g>
		<g>
			
				<ellipse transform="matrix(0.7251 -0.6887 0.6887 0.7251 -50.0729 750.9896)" class="st5" cx="915.5" cy="438.2" rx="0.9" ry="2.4"/>
			<path class="st5" d="M897.2,426.9l16.6,9.6c-2.2-1.7-4.7-3.5-7.7-5.3c-3.1-1.8-6-3.3-8.7-4.4
				C897.3,426.8,897.3,426.8,897.2,426.9z"/>
			<path class="st5" d="M899.4,411.8c-0.6,4.9-1.4,9.8-2.3,14.6c-2.7,2.6-5.8,4.9-8.5,7.5"/>
			<path class="st5" d="M897.3,409.9c1.9,4.7,1.8,10.3-0.3,15.2c-1.1,2.6-3.6,4.2-6,5.5c-2.4,1.3-5.4,1.8-7.6,0.3"/>
			<path class="st5" d="M884.8,428.1c2.4,4.1,8.1,1.1,10.8-1.5c1.5-1.5,1.5-4.6,1.5-6.6c0.1-2.3,0-4.6-1-6.7"/>
			<path class="st5" d="M894.4,414.2c-0.4,4.1,0,8.2,1.3,12c-2.9,1-6.5-0.1-8.5-2.3"/>
			<path class="st5" d="M884.3,427.4c1.1,1.5,3.2,1.9,5.1,1.6c1.9-0.3,3.6-1.2,5.3-2.2c0.7-2.2,1.5-5.2,1.6-7.5
				c0-2.3-0.7-4.7-2.4-6.1"/>
			<path class="st5" d="M889.7,421.9c1.6,1.9,3.4,3.5,5.4,4.9C893.4,423.2,891.3,425.5,889.7,421.9z"/>
		</g>
	</g>
</g>
<g>
	<g>
		<g>
			
				<ellipse transform="matrix(0.8163 -0.5776 0.5776 0.8163 -89.1217 610.127)" class="st0" cx="914.7" cy="445.2" rx="2.4" ry="0.9"/>
			<path class="st0" d="M901.4,461.7l11.4-15c-2,1.9-4.1,4.2-6.2,6.9c-2.2,2.8-3.9,5.4-5.3,7.9C901.3,461.5,901.3,461.6,901.4,461.7
				z"/>
			<path class="st0" d="M885.9,458.3c5.1,1,10.1,2.1,15.1,3.4c2.5,2.8,4.6,5.9,7.1,8.7"/>
			<path class="st0" d="M883.7,460.2c5.1-1.4,10.9-0.9,15.8,1.6c2.6,1.3,4,3.8,5.2,6.2s1.4,5.3-0.3,7.3"/>
			<path class="st0" d="M901.6,473.6c4.5-1.9,1.9-7.6-0.6-10.4c-1.4-1.5-4.6-1.8-6.7-2c-2.4-0.3-4.8-0.3-7.1,0.4"/>
			<path class="st0" d="M887.9,463.2c4.2,0.7,8.5,0.6,12.6-0.2c0.9,2.8-0.6,6.2-3.1,7.9"/>
			<path class="st0" d="M900.9,474c1.6-1,2.3-2.9,2.1-4.7c-0.2-1.8-1-3.5-1.8-5.2c-2.3-0.9-5.3-1.9-7.7-2.1c-2.4-0.2-5,0.2-6.6,1.8"
				/>
			<path class="st0" d="M895.6,468.4c2.1-1.3,4-2.9,5.5-4.7C897.2,464.9,899.5,467.2,895.6,468.4z"/>
		</g>
		<g>
			
				<ellipse transform="matrix(0.8163 -0.5776 0.5776 0.8163 -89.1217 610.127)" class="st0" cx="914.7" cy="445.2" rx="2.4" ry="0.9"/>
			<path class="st0" d="M901.4,461.7l11.4-15c-2,1.9-4.1,4.2-6.2,6.9c-2.2,2.8-3.9,5.4-5.3,7.9C901.3,461.5,901.3,461.6,901.4,461.7
				z"/>
			<path class="st0" d="M885.9,458.3c5.1,1,10.1,2.1,15.1,3.4c2.5,2.8,4.6,5.9,7.1,8.7"/>
			<path class="st0" d="M883.7,460.2c5.1-1.4,10.9-0.9,15.8,1.6c2.6,1.3,4,3.8,5.2,6.2s1.4,5.3-0.3,7.3"/>
			<path class="st0" d="M901.6,473.6c4.5-1.9,1.9-7.6-0.6-10.4c-1.4-1.5-4.6-1.8-6.7-2c-2.4-0.3-4.8-0.3-7.1,0.4"/>
			<path class="st0" d="M887.9,463.2c4.2,0.7,8.5,0.6,12.6-0.2c0.9,2.8-0.6,6.2-3.1,7.9"/>
			<path class="st0" d="M900.9,474c1.6-1,2.3-2.9,2.1-4.7c-0.2-1.8-1-3.5-1.8-5.2c-2.3-0.9-5.3-1.9-7.7-2.1c-2.4-0.2-5,0.2-6.6,1.8"
				/>
			<path class="st0" d="M895.6,468.4c2.1-1.3,4-2.9,5.5-4.7C897.2,464.9,899.5,467.2,895.6,468.4z"/>
		</g>
	</g>
	<g>
		<g>
			
				<ellipse transform="matrix(0.8163 -0.5776 0.5776 0.8163 -89.1217 610.127)" class="st0" cx="914.7" cy="445.2" rx="2.4" ry="0.9"/>
			<path class="st0" d="M901.4,461.7l11.4-15c-2,1.9-4.1,4.2-6.2,6.9c-2.2,2.8-3.9,5.4-5.3,7.9C901.3,461.5,901.3,461.6,901.4,461.7
				z"/>
			<path class="st0" d="M885.9,458.3c5.1,1,10.1,2.1,15.1,3.4c2.5,2.8,4.6,5.9,7.1,8.7"/>
			<path class="st0" d="M883.7,460.2c5.1-1.4,10.9-0.9,15.8,1.6c2.6,1.3,4,3.8,5.2,6.2s1.4,5.3-0.3,7.3"/>
			<path class="st0" d="M901.6,473.6c4.5-1.9,1.9-7.6-0.6-10.4c-1.4-1.5-4.6-1.8-6.7-2c-2.4-0.3-4.8-0.3-7.1,0.4"/>
			<path class="st0" d="M887.9,463.2c4.2,0.7,8.5,0.6,12.6-0.2c0.9,2.8-0.6,6.2-3.1,7.9"/>
			<path class="st0" d="M900.9,474c1.6-1,2.3-2.9,2.1-4.7c-0.2-1.8-1-3.5-1.8-5.2c-2.3-0.9-5.3-1.9-7.7-2.1c-2.4-0.2-5,0.2-6.6,1.8"
				/>
			<path class="st0" d="M895.6,468.4c2.1-1.3,4-2.9,5.5-4.7C897.2,464.9,899.5,467.2,895.6,468.4z"/>
		</g>
		<g>
			
				<ellipse transform="matrix(0.8163 -0.5776 0.5776 0.8163 -89.1217 610.127)" class="st0" cx="914.7" cy="445.2" rx="2.4" ry="0.9"/>
			<path class="st0" d="M901.4,461.7l11.4-15c-2,1.9-4.1,4.2-6.2,6.9c-2.2,2.8-3.9,5.4-5.3,7.9C901.3,461.5,901.3,461.6,901.4,461.7
				z"/>
			<path class="st0" d="M885.9,458.3c5.1,1,10.1,2.1,15.1,3.4c2.5,2.8,4.6,5.9,7.1,8.7"/>
			<path class="st0" d="M883.7,460.2c5.1-1.4,10.9-0.9,15.8,1.6c2.6,1.3,4,3.8,5.2,6.2s1.4,5.3-0.3,7.3"/>
			<path class="st0" d="M901.6,473.6c4.5-1.9,1.9-7.6-0.6-10.4c-1.4-1.5-4.6-1.8-6.7-2c-2.4-0.3-4.8-0.3-7.1,0.4"/>
			<path class="st0" d="M887.9,463.2c4.2,0.7,8.5,0.6,12.6-0.2c0.9,2.8-0.6,6.2-3.1,7.9"/>
			<path class="st0" d="M900.9,474c1.6-1,2.3-2.9,2.1-4.7c-0.2-1.8-1-3.5-1.8-5.2c-2.3-0.9-5.3-1.9-7.7-2.1c-2.4-0.2-5,0.2-6.6,1.8"
				/>
			<path class="st0" d="M895.6,468.4c2.1-1.3,4-2.9,5.5-4.7C897.2,464.9,899.5,467.2,895.6,468.4z"/>
		</g>
	</g>
</g>
<g>
	<g>
		<g>
			
				<ellipse transform="matrix(0.4059 -0.9139 0.9139 0.4059 138.8449 1108.3994)" class="st0" cx="922" cy="447.4" rx="2.3" ry="0.9"/>
			<path class="st0" d="M919,468l1.9-18.4c-0.7,2.6-1.3,5.6-1.7,8.9c-0.4,3.4-0.5,6.6-0.4,9.4C918.9,468,919,468,919,468z"/>
			<path class="st0" d="M903.9,472.6c4.9-1.6,9.8-3,14.8-4.3c3.6,1.2,7.1,2.9,10.7,4.1"/>
			<path class="st0" d="M903,475.3c3.6-3.7,9-6,14.5-6.3c2.9-0.1,5.5,1.3,7.8,2.8s4,3.9,3.6,6.4"/>
			<path class="st0" d="M925.6,478.2c2.8-3.8-2.5-7.5-6-8.6c-2-0.6-4.9,0.7-6.9,1.5c-2.2,0.9-4.3,2-5.9,3.8"/>
			<path class="st0" d="M908.3,475.9c4-1.4,7.7-3.6,10.8-6.3c2.2,2,2.7,5.6,1.5,8.3"/>
			<path class="st0" d="M925.1,478.9c0.9-1.6,0.4-3.6-0.7-5.1c-1.1-1.5-2.7-2.6-4.3-3.6c-2.4,0.4-5.6,0.9-7.8,1.9s-4.2,2.6-4.7,4.7"
				/>
			<path class="st0" d="M917.6,476.6c1.1-2.1,1.9-4.4,2.3-6.7C917.2,472.9,920.3,473.7,917.6,476.6z"/>
		</g>
		<g>
			
				<ellipse transform="matrix(0.4059 -0.9139 0.9139 0.4059 138.8449 1108.3994)" class="st0" cx="922" cy="447.4" rx="2.3" ry="0.9"/>
			<path class="st0" d="M919,468l1.9-18.4c-0.7,2.6-1.3,5.6-1.7,8.9c-0.4,3.4-0.5,6.6-0.4,9.4C918.9,468,919,468,919,468z"/>
			<path class="st0" d="M903.9,472.6c4.9-1.6,9.8-3,14.8-4.3c3.6,1.2,7.1,2.9,10.7,4.1"/>
			<path class="st0" d="M903,475.3c3.6-3.7,9-6,14.5-6.3c2.9-0.1,5.5,1.3,7.8,2.8s4,3.9,3.6,6.4"/>
			<path class="st0" d="M925.6,478.2c2.8-3.8-2.5-7.5-6-8.6c-2-0.6-4.9,0.7-6.9,1.5c-2.2,0.9-4.3,2-5.9,3.8"/>
			<path class="st0" d="M908.3,475.9c4-1.4,7.7-3.6,10.8-6.3c2.2,2,2.7,5.6,1.5,8.3"/>
			<path class="st0" d="M925.1,478.9c0.9-1.6,0.4-3.6-0.7-5.1c-1.1-1.5-2.7-2.6-4.3-3.6c-2.4,0.4-5.6,0.9-7.8,1.9s-4.2,2.6-4.7,4.7"
				/>
			<path class="st0" d="M917.6,476.6c1.1-2.1,1.9-4.4,2.3-6.7C917.2,472.9,920.3,473.7,917.6,476.6z"/>
		</g>
	</g>
	<g>
		<g>
			
				<ellipse transform="matrix(0.4059 -0.9139 0.9139 0.4059 138.8449 1108.3994)" class="st0" cx="922" cy="447.4" rx="2.3" ry="0.9"/>
			<path class="st0" d="M919,468l1.9-18.4c-0.7,2.6-1.3,5.6-1.7,8.9c-0.4,3.4-0.5,6.6-0.4,9.4C918.9,468,919,468,919,468z"/>
			<path class="st0" d="M903.9,472.6c4.9-1.6,9.8-3,14.8-4.3c3.6,1.2,7.1,2.9,10.7,4.1"/>
			<path class="st0" d="M903,475.3c3.6-3.7,9-6,14.5-6.3c2.9-0.1,5.5,1.3,7.8,2.8s4,3.9,3.6,6.4"/>
			<path class="st0" d="M925.6,478.2c2.8-3.8-2.5-7.5-6-8.6c-2-0.6-4.9,0.7-6.9,1.5c-2.2,0.9-4.3,2-5.9,3.8"/>
			<path class="st0" d="M908.3,475.9c4-1.4,7.7-3.6,10.8-6.3c2.2,2,2.7,5.6,1.5,8.3"/>
			<path class="st0" d="M925.1,478.9c0.9-1.6,0.4-3.6-0.7-5.1c-1.1-1.5-2.7-2.6-4.3-3.6c-2.4,0.4-5.6,0.9-7.8,1.9s-4.2,2.6-4.7,4.7"
				/>
			<path class="st0" d="M917.6,476.6c1.1-2.1,1.9-4.4,2.3-6.7C917.2,472.9,920.3,473.7,917.6,476.6z"/>
		</g>
		<g>
			
				<ellipse transform="matrix(0.4059 -0.9139 0.9139 0.4059 138.8449 1108.3994)" class="st0" cx="922" cy="447.4" rx="2.3" ry="0.9"/>
			<path class="st0" d="M919,468l1.9-18.4c-0.7,2.6-1.3,5.6-1.7,8.9c-0.4,3.4-0.5,6.6-0.4,9.4C918.9,468,919,468,919,468z"/>
			<path class="st0" d="M903.9,472.6c4.9-1.6,9.8-3,14.8-4.3c3.6,1.2,7.1,2.9,10.7,4.1"/>
			<path class="st0" d="M903,475.3c3.6-3.7,9-6,14.5-6.3c2.9-0.1,5.5,1.3,7.8,2.8s4,3.9,3.6,6.4"/>
			<path class="st0" d="M925.6,478.2c2.8-3.8-2.5-7.5-6-8.6c-2-0.6-4.9,0.7-6.9,1.5c-2.2,0.9-4.3,2-5.9,3.8"/>
			<path class="st0" d="M908.3,475.9c4-1.4,7.7-3.6,10.8-6.3c2.2,2,2.7,5.6,1.5,8.3"/>
			<path class="st0" d="M925.1,478.9c0.9-1.6,0.4-3.6-0.7-5.1c-1.1-1.5-2.7-2.6-4.3-3.6c-2.4,0.4-5.6,0.9-7.8,1.9s-4.2,2.6-4.7,4.7"
				/>
			<path class="st0" d="M917.6,476.6c1.1-2.1,1.9-4.4,2.3-6.7C917.2,472.9,920.3,473.7,917.6,476.6z"/>
		</g>
	</g>
</g>
<g>
	<g>
		<g>
			
				<ellipse transform="matrix(0.8528 -0.5223 0.5223 0.8528 -98.7786 549.9875)" class="st0" cx="926.1" cy="450.2" rx="0.9" ry="2.3"/>
			<path class="st0" d="M941.6,464.9l-14.2-12.6c1.8,2.1,3.9,4.4,6.4,6.7c2.6,2.4,5.2,4.4,7.5,6C941.4,465,941.5,464.9,941.6,464.9z
				"/>
			<path class="st0" d="M936.1,479.2c1.7-4.7,3.5-9.3,5.4-13.9c3.2-2,6.7-3.6,9.9-5.6"/>
			<path class="st0" d="M937.8,481.5c-0.9-5,0.5-10.5,3.6-14.8c1.6-2.3,4.5-3.4,7.1-4.2c2.6-0.8,5.7-0.7,7.5,1.2"/>
			<path class="st0" d="M954,466.1c-1.5-4.5-7.7-2.7-10.9-0.7c-1.8,1.1-2.4,4.2-2.9,6.1c-0.6,2.2-0.9,4.5-0.4,6.7"/>
			<path class="st0" d="M941.6,477.8c1.3-3.9,1.7-8,1.3-12c3-0.5,6.4,1.4,7.8,3.9"/>
			<path class="st0" d="M954.3,466.9c-0.8-1.7-2.7-2.5-4.6-2.6c-1.9-0.1-3.8,0.5-5.7,1.1c-1.2,2.1-2.6,4.8-3.2,7
				c-0.5,2.3-0.4,4.8,1,6.4"/>
			<path class="st0" d="M947.9,471.2c-1.1-2.1-2.5-4.1-4.2-5.8C944.4,469.2,947,467.4,947.9,471.2z"/>
		</g>
		<g>
			
				<ellipse transform="matrix(0.8528 -0.5223 0.5223 0.8528 -98.7786 549.9875)" class="st0" cx="926.1" cy="450.2" rx="0.9" ry="2.3"/>
			<path class="st0" d="M941.6,464.9l-14.2-12.6c1.8,2.1,3.9,4.4,6.4,6.7c2.6,2.4,5.2,4.4,7.5,6C941.4,465,941.5,464.9,941.6,464.9z
				"/>
			<path class="st0" d="M936.1,479.2c1.7-4.7,3.5-9.3,5.4-13.9c3.2-2,6.7-3.6,9.9-5.6"/>
			<path class="st0" d="M937.8,481.5c-0.9-5,0.5-10.5,3.6-14.8c1.6-2.3,4.5-3.4,7.1-4.2c2.6-0.8,5.7-0.7,7.5,1.2"/>
			<path class="st0" d="M954,466.1c-1.5-4.5-7.7-2.7-10.9-0.7c-1.8,1.1-2.4,4.2-2.9,6.1c-0.6,2.2-0.9,4.5-0.4,6.7"/>
			<path class="st0" d="M941.6,477.8c1.3-3.9,1.7-8,1.3-12c3-0.5,6.4,1.4,7.8,3.9"/>
			<path class="st0" d="M954.3,466.9c-0.8-1.7-2.7-2.5-4.6-2.6c-1.9-0.1-3.8,0.5-5.7,1.1c-1.2,2.1-2.6,4.8-3.2,7
				c-0.5,2.3-0.4,4.8,1,6.4"/>
			<path class="st0" d="M947.9,471.2c-1.1-2.1-2.5-4.1-4.2-5.8C944.4,469.2,947,467.4,947.9,471.2z"/>
		</g>
	</g>
	<g>
		<g>
			
				<ellipse transform="matrix(0.8528 -0.5223 0.5223 0.8528 -98.7786 549.9875)" class="st0" cx="926.1" cy="450.2" rx="0.9" ry="2.3"/>
			<path class="st0" d="M941.6,464.9l-14.2-12.6c1.8,2.1,3.9,4.4,6.4,6.7c2.6,2.4,5.2,4.4,7.5,6C941.4,465,941.5,464.9,941.6,464.9z
				"/>
			<path class="st0" d="M936.1,479.2c1.7-4.7,3.5-9.3,5.4-13.9c3.2-2,6.7-3.6,9.9-5.6"/>
			<path class="st0" d="M937.8,481.5c-0.9-5,0.5-10.5,3.6-14.8c1.6-2.3,4.5-3.4,7.1-4.2c2.6-0.8,5.7-0.7,7.5,1.2"/>
			<path class="st0" d="M954,466.1c-1.5-4.5-7.7-2.7-10.9-0.7c-1.8,1.1-2.4,4.2-2.9,6.1c-0.6,2.2-0.9,4.5-0.4,6.7"/>
			<path class="st0" d="M941.6,477.8c1.3-3.9,1.7-8,1.3-12c3-0.5,6.4,1.4,7.8,3.9"/>
			<path class="st0" d="M954.3,466.9c-0.8-1.7-2.7-2.5-4.6-2.6c-1.9-0.1-3.8,0.5-5.7,1.1c-1.2,2.1-2.6,4.8-3.2,7
				c-0.5,2.3-0.4,4.8,1,6.4"/>
			<path class="st0" d="M947.9,471.2c-1.1-2.1-2.5-4.1-4.2-5.8C944.4,469.2,947,467.4,947.9,471.2z"/>
		</g>
		<g>
			
				<ellipse transform="matrix(0.8528 -0.5223 0.5223 0.8528 -98.7786 549.9875)" class="st0" cx="926.1" cy="450.2" rx="0.9" ry="2.3"/>
			<path class="st0" d="M941.6,464.9l-14.2-12.6c1.8,2.1,3.9,4.4,6.4,6.7c2.6,2.4,5.2,4.4,7.5,6C941.4,465,941.5,464.9,941.6,464.9z
				"/>
			<path class="st0" d="M936.1,479.2c1.7-4.7,3.5-9.3,5.4-13.9c3.2-2,6.7-3.6,9.9-5.6"/>
			<path class="st0" d="M937.8,481.5c-0.9-5,0.5-10.5,3.6-14.8c1.6-2.3,4.5-3.4,7.1-4.2c2.6-0.8,5.7-0.7,7.5,1.2"/>
			<path class="st0" d="M954,466.1c-1.5-4.5-7.7-2.7-10.9-0.7c-1.8,1.1-2.4,4.2-2.9,6.1c-0.6,2.2-0.9,4.5-0.4,6.7"/>
			<path class="st0" d="M941.6,477.8c1.3-3.9,1.7-8,1.3-12c3-0.5,6.4,1.4,7.8,3.9"/>
			<path class="st0" d="M954.3,466.9c-0.8-1.7-2.7-2.5-4.6-2.6c-1.9-0.1-3.8,0.5-5.7,1.1c-1.2,2.1-2.6,4.8-3.2,7
				c-0.5,2.3-0.4,4.8,1,6.4"/>
			<path class="st0" d="M947.9,471.2c-1.1-2.1-2.5-4.1-4.2-5.8C944.4,469.2,947,467.4,947.9,471.2z"/>
		</g>
	</g>
</g>
<g>
	<g>
		<g>
			
				<ellipse transform="matrix(0.1344 -0.9909 0.9909 0.1344 355.6373 1287.1464)" class="st0" cx="914.6" cy="440" rx="0.9" ry="2.4"/>
			<path class="st0" d="M892.9,442.6l19.1-2.8c-2.8,0-6,0.2-9.4,0.6c-3.6,0.5-6.8,1.2-9.6,2C893,442.4,893,442.5,892.9,442.6z"/>
			<path class="st0" d="M884.5,429.7c2.8,4.1,5.5,8.3,8.1,12.6c-0.3,3.7-1.1,7.3-1.5,10.9"/>
			<path class="st0" d="M881.6,429.5c4.6,2.4,8.3,6.8,10,11.8c0.9,2.6,0,5.4-0.9,7.9c-0.9,2.5-3,4.7-5.6,4.9"/>
			<path class="st0" d="M884.3,451.2c4.6,1.7,7-4.1,7.3-7.7c0.1-2-1.9-4.4-3.3-6c-1.5-1.8-3.1-3.5-5.3-4.5"/>
			<path class="st0" d="M882.3,434.6c2.4,3.4,5.5,6.2,9,8.4c-1.5,2.6-5,3.9-8,3.5"/>
			<path class="st0" d="M883.4,450.9c1.9,0.4,3.7-0.5,5-1.9c1.2-1.4,1.9-3.2,2.6-4.9c-1-2.1-2.3-4.9-3.8-6.7
				c-1.5-1.8-3.7-3.2-5.9-3.2"/>
			<path class="st0" d="M883.9,443.4c2.4,0.5,4.9,0.6,7.4,0.5C887.6,442.1,887.5,445.2,883.9,443.4z"/>
		</g>
		<g>
			
				<ellipse transform="matrix(0.1344 -0.9909 0.9909 0.1344 355.6373 1287.1464)" class="st0" cx="914.6" cy="440" rx="0.9" ry="2.4"/>
			<path class="st0" d="M892.9,442.6l19.1-2.8c-2.8,0-6,0.2-9.4,0.6c-3.6,0.5-6.8,1.2-9.6,2C893,442.4,893,442.5,892.9,442.6z"/>
			<path class="st0" d="M884.5,429.7c2.8,4.1,5.5,8.3,8.1,12.6c-0.3,3.7-1.1,7.3-1.5,10.9"/>
			<path class="st0" d="M881.6,429.5c4.6,2.4,8.3,6.8,10,11.8c0.9,2.6,0,5.4-0.9,7.9c-0.9,2.5-3,4.7-5.6,4.9"/>
			<path class="st0" d="M884.3,451.2c4.6,1.7,7-4.1,7.3-7.7c0.1-2-1.9-4.4-3.3-6c-1.5-1.8-3.1-3.5-5.3-4.5"/>
			<path class="st0" d="M882.3,434.6c2.4,3.4,5.5,6.2,9,8.4c-1.5,2.6-5,3.9-8,3.5"/>
			<path class="st0" d="M883.4,450.9c1.9,0.4,3.7-0.5,5-1.9c1.2-1.4,1.9-3.2,2.6-4.9c-1-2.1-2.3-4.9-3.8-6.7
				c-1.5-1.8-3.7-3.2-5.9-3.2"/>
			<path class="st0" d="M883.9,443.4c2.4,0.5,4.9,0.6,7.4,0.5C887.6,442.1,887.5,445.2,883.9,443.4z"/>
		</g>
	</g>
	<g>
		<g>
			
				<ellipse transform="matrix(0.1344 -0.9909 0.9909 0.1344 355.6373 1287.1464)" class="st0" cx="914.6" cy="440" rx="0.9" ry="2.4"/>
			<path class="st0" d="M892.9,442.6l19.1-2.8c-2.8,0-6,0.2-9.4,0.6c-3.6,0.5-6.8,1.2-9.6,2C893,442.4,893,442.5,892.9,442.6z"/>
			<path class="st0" d="M884.5,429.7c2.8,4.1,5.5,8.3,8.1,12.6c-0.3,3.7-1.1,7.3-1.5,10.9"/>
			<path class="st0" d="M881.6,429.5c4.6,2.4,8.3,6.8,10,11.8c0.9,2.6,0,5.4-0.9,7.9c-0.9,2.5-3,4.7-5.6,4.9"/>
			<path class="st0" d="M884.3,451.2c4.6,1.7,7-4.1,7.3-7.7c0.1-2-1.9-4.4-3.3-6c-1.5-1.8-3.1-3.5-5.3-4.5"/>
			<path class="st0" d="M882.3,434.6c2.4,3.4,5.5,6.2,9,8.4c-1.5,2.6-5,3.9-8,3.5"/>
			<path class="st0" d="M883.4,450.9c1.9,0.4,3.7-0.5,5-1.9c1.2-1.4,1.9-3.2,2.6-4.9c-1-2.1-2.3-4.9-3.8-6.7
				c-1.5-1.8-3.7-3.2-5.9-3.2"/>
			<path class="st0" d="M883.9,443.4c2.4,0.5,4.9,0.6,7.4,0.5C887.6,442.1,887.5,445.2,883.9,443.4z"/>
		</g>
		<g>
			
				<ellipse transform="matrix(0.1344 -0.9909 0.9909 0.1344 355.6373 1287.1464)" class="st0" cx="914.6" cy="440" rx="0.9" ry="2.4"/>
			<path class="st0" d="M892.9,442.6l19.1-2.8c-2.8,0-6,0.2-9.4,0.6c-3.6,0.5-6.8,1.2-9.6,2C893,442.4,893,442.5,892.9,442.6z"/>
			<path class="st0" d="M884.5,429.7c2.8,4.1,5.5,8.3,8.1,12.6c-0.3,3.7-1.1,7.3-1.5,10.9"/>
			<path class="st0" d="M881.6,429.5c4.6,2.4,8.3,6.8,10,11.8c0.9,2.6,0,5.4-0.9,7.9c-0.9,2.5-3,4.7-5.6,4.9"/>
			<path class="st0" d="M884.3,451.2c4.6,1.7,7-4.1,7.3-7.7c0.1-2-1.9-4.4-3.3-6c-1.5-1.8-3.1-3.5-5.3-4.5"/>
			<path class="st0" d="M882.3,434.6c2.4,3.4,5.5,6.2,9,8.4c-1.5,2.6-5,3.9-8,3.5"/>
			<path class="st0" d="M883.4,450.9c1.9,0.4,3.7-0.5,5-1.9c1.2-1.4,1.9-3.2,2.6-4.9c-1-2.1-2.3-4.9-3.8-6.7
				c-1.5-1.8-3.7-3.2-5.9-3.2"/>
			<path class="st0" d="M883.9,443.4c2.4,0.5,4.9,0.6,7.4,0.5C887.6,442.1,887.5,445.2,883.9,443.4z"/>
		</g>
	</g>
</g>
<g>
	<g>
		<g>
			
				<ellipse transform="matrix(0.9944 -0.1057 0.1057 0.9944 -40.9584 99.7547)" class="st0" cx="920.6" cy="436.3" rx="0.9" ry="2.3"/>
			<path class="st0" d="M912.9,416.9l7.5,17.1c-0.7-2.6-1.6-5.5-2.9-8.6c-1.3-3.2-2.8-6-4.3-8.5C913,416.9,912.9,416.9,912.9,416.9z
				"/>
			<path class="st0" d="M923.9,406c-3.5,3.6-7.1,7.1-10.9,10.5c-3.8,0.6-7.6,0.7-11.5,1.3"/>
			<path class="st0" d="M923.4,403.2c-1.3,4.9-4.9,9.4-9.6,12.1c-2.5,1.4-5.5,1.3-8.3,1.1c-2.8-0.3-5.5-1.6-6.4-4"/>
			<path class="st0" d="M902,410.9c-0.6,4.6,5.9,5.5,9.6,4.9c2.1-0.4,4-2.9,5.3-4.5c1.5-1.8,2.8-3.8,3.3-6"/>
			<path class="st0" d="M918.4,405.1c-2.8,3.1-5,6.6-6.4,10.4c-3-0.8-5.2-3.7-5.5-6.6"/>
			<path class="st0" d="M902.1,410.1c0,1.8,1.4,3.3,3.1,4.1c1.7,0.8,3.7,1,5.6,1.2c2-1.4,4.5-3.3,5.9-5.2c1.5-1.9,2.4-4.2,1.8-6.3"
				/>
			<path class="st0" d="M909.8,408.7c0.1,2.4,0.5,4.7,1.3,7C912.1,411.8,908.9,412.5,909.8,408.7z"/>
		</g>
		<g>
			
				<ellipse transform="matrix(0.9944 -0.1057 0.1057 0.9944 -40.9584 99.7547)" class="st0" cx="920.6" cy="436.3" rx="0.9" ry="2.3"/>
			<path class="st0" d="M912.9,416.9l7.5,17.1c-0.7-2.6-1.6-5.5-2.9-8.6c-1.3-3.2-2.8-6-4.3-8.5C913,416.9,912.9,416.9,912.9,416.9z
				"/>
			<path class="st0" d="M923.9,406c-3.5,3.6-7.1,7.1-10.9,10.5c-3.8,0.6-7.6,0.7-11.5,1.3"/>
			<path class="st0" d="M923.4,403.2c-1.3,4.9-4.9,9.4-9.6,12.1c-2.5,1.4-5.5,1.3-8.3,1.1c-2.8-0.3-5.5-1.6-6.4-4"/>
			<path class="st0" d="M902,410.9c-0.6,4.6,5.9,5.5,9.6,4.9c2.1-0.4,4-2.9,5.3-4.5c1.5-1.8,2.8-3.8,3.3-6"/>
			<path class="st0" d="M918.4,405.1c-2.8,3.1-5,6.6-6.4,10.4c-3-0.8-5.2-3.7-5.5-6.6"/>
			<path class="st0" d="M902.1,410.1c0,1.8,1.4,3.3,3.1,4.1c1.7,0.8,3.7,1,5.6,1.2c2-1.4,4.5-3.3,5.9-5.2c1.5-1.9,2.4-4.2,1.8-6.3"
				/>
			<path class="st0" d="M909.8,408.7c0.1,2.4,0.5,4.7,1.3,7C912.1,411.8,908.9,412.5,909.8,408.7z"/>
		</g>
	</g>
	<g>
		<g>
			
				<ellipse transform="matrix(0.9944 -0.1057 0.1057 0.9944 -40.9584 99.7547)" class="st0" cx="920.6" cy="436.3" rx="0.9" ry="2.3"/>
			<path class="st0" d="M912.9,416.9l7.5,17.1c-0.7-2.6-1.6-5.5-2.9-8.6c-1.3-3.2-2.8-6-4.3-8.5C913,416.9,912.9,416.9,912.9,416.9z
				"/>
			<path class="st0" d="M923.9,406c-3.5,3.6-7.1,7.1-10.9,10.5c-3.8,0.6-7.6,0.7-11.5,1.3"/>
			<path class="st0" d="M923.4,403.2c-1.3,4.9-4.9,9.4-9.6,12.1c-2.5,1.4-5.5,1.3-8.3,1.1c-2.8-0.3-5.5-1.6-6.4-4"/>
			<path class="st0" d="M902,410.9c-0.6,4.6,5.9,5.5,9.6,4.9c2.1-0.4,4-2.9,5.3-4.5c1.5-1.8,2.8-3.8,3.3-6"/>
			<path class="st0" d="M918.4,405.1c-2.8,3.1-5,6.6-6.4,10.4c-3-0.8-5.2-3.7-5.5-6.6"/>
			<path class="st0" d="M902.1,410.1c0,1.8,1.4,3.3,3.1,4.1c1.7,0.8,3.7,1,5.6,1.2c2-1.4,4.5-3.3,5.9-5.2c1.5-1.9,2.4-4.2,1.8-6.3"
				/>
			<path class="st0" d="M909.8,408.7c0.1,2.4,0.5,4.7,1.3,7C912.1,411.8,908.9,412.5,909.8,408.7z"/>
		</g>
		<g>
			
				<ellipse transform="matrix(0.9944 -0.1057 0.1057 0.9944 -40.9584 99.7547)" class="st0" cx="920.6" cy="436.3" rx="0.9" ry="2.3"/>
			<path class="st0" d="M912.9,416.9l7.5,17.1c-0.7-2.6-1.6-5.5-2.9-8.6c-1.3-3.2-2.8-6-4.3-8.5C913,416.9,912.9,416.9,912.9,416.9z
				"/>
			<path class="st0" d="M923.9,406c-3.5,3.6-7.1,7.1-10.9,10.5c-3.8,0.6-7.6,0.7-11.5,1.3"/>
			<path class="st0" d="M923.4,403.2c-1.3,4.9-4.9,9.4-9.6,12.1c-2.5,1.4-5.5,1.3-8.3,1.1c-2.8-0.3-5.5-1.6-6.4-4"/>
			<path class="st0" d="M902,410.9c-0.6,4.6,5.9,5.5,9.6,4.9c2.1-0.4,4-2.9,5.3-4.5c1.5-1.8,2.8-3.8,3.3-6"/>
			<path class="st0" d="M918.4,405.1c-2.8,3.1-5,6.6-6.4,10.4c-3-0.8-5.2-3.7-5.5-6.6"/>
			<path class="st0" d="M902.1,410.1c0,1.8,1.4,3.3,3.1,4.1c1.7,0.8,3.7,1,5.6,1.2c2-1.4,4.5-3.3,5.9-5.2c1.5-1.9,2.4-4.2,1.8-6.3"
				/>
			<path class="st0" d="M909.8,408.7c0.1,2.4,0.5,4.7,1.3,7C912.1,411.8,908.9,412.5,909.8,408.7z"/>
		</g>
	</g>
</g>
<g>
	<g>
		<g>
			
				<ellipse transform="matrix(0.7335 -0.6797 0.6797 0.7335 -54.4486 747.9349)" class="st0" cx="926.5" cy="443.4" rx="0.4" ry="2"/>
			<path class="st0" d="M912.3,430.7l12.8,11.1c-1.7-1.7-3.7-3.6-5.9-5.6c-2.4-2.1-4.6-3.9-6.7-5.5
				C912.5,430.7,912.4,430.7,912.3,430.7z"/>
			<path class="st0" d="M913.9,424.5c-0.4,2.1-1,4.1-1.6,6c-2.1,0.1-4.4,0-6.5,0.1"/>
			<path class="st0" d="M912.2,422.7c1.5,3,1.5,5.6-0.1,7.1c-0.8,0.8-2.8,0.5-4.6,0.2c-1.8-0.3-4.1-1.3-5.8-2.9"/>
			<path class="st0" d="M902.8,426.4c1.9,2.9,6.3,3.8,8.3,3.6c1.1-0.1,1.1-1.6,1.1-2.5c0-1.1-0.1-2.2-0.8-3.6"/>
			<path class="st0" d="M910.1,423.6c-0.3,1.8,0.1,3.9,1.1,6.2c-2.2-0.6-5-2.6-6.5-4.5"/>
			<path class="st0" d="M902.4,425.8c0.9,1.1,2.5,2.2,3.9,2.8c1.4,0.6,2.8,0.9,4.1,1.1c0.5-0.8,1.1-1.8,1.2-2.9
				c0-1.1-0.6-2.5-1.9-3.8"/>
			<path class="st0" d="M906.5,425.4c1.2,1.5,2.6,3,4.2,4.5C909.4,427.5,907.8,427.7,906.5,425.4z"/>
		</g>
		<g>
			
				<ellipse transform="matrix(0.7335 -0.6797 0.6797 0.7335 -54.4486 747.9349)" class="st0" cx="926.5" cy="443.4" rx="0.4" ry="2"/>
			<path class="st0" d="M912.3,430.7l12.8,11.1c-1.7-1.7-3.7-3.6-5.9-5.6c-2.4-2.1-4.6-3.9-6.7-5.5
				C912.5,430.7,912.4,430.7,912.3,430.7z"/>
			<path class="st0" d="M913.9,424.5c-0.4,2.1-1,4.1-1.6,6c-2.1,0.1-4.4,0-6.5,0.1"/>
			<path class="st0" d="M912.2,422.7c1.5,3,1.5,5.6-0.1,7.1c-0.8,0.8-2.8,0.5-4.6,0.2c-1.8-0.3-4.1-1.3-5.8-2.9"/>
			<path class="st0" d="M902.8,426.4c1.9,2.9,6.3,3.8,8.3,3.6c1.1-0.1,1.1-1.6,1.1-2.5c0-1.1-0.1-2.2-0.8-3.6"/>
			<path class="st0" d="M910.1,423.6c-0.3,1.8,0.1,3.9,1.1,6.2c-2.2-0.6-5-2.6-6.5-4.5"/>
			<path class="st0" d="M902.4,425.8c0.9,1.1,2.5,2.2,3.9,2.8c1.4,0.6,2.8,0.9,4.1,1.1c0.5-0.8,1.1-1.8,1.2-2.9
				c0-1.1-0.6-2.5-1.9-3.8"/>
			<path class="st0" d="M906.5,425.4c1.2,1.5,2.6,3,4.2,4.5C909.4,427.5,907.8,427.7,906.5,425.4z"/>
		</g>
	</g>
	<g>
		<g>
			
				<ellipse transform="matrix(0.7335 -0.6797 0.6797 0.7335 -54.4486 747.9349)" class="st0" cx="926.5" cy="443.4" rx="0.4" ry="2"/>
			<path class="st0" d="M912.3,430.7l12.8,11.1c-1.7-1.7-3.7-3.6-5.9-5.6c-2.4-2.1-4.6-3.9-6.7-5.5
				C912.5,430.7,912.4,430.7,912.3,430.7z"/>
			<path class="st0" d="M913.9,424.5c-0.4,2.1-1,4.1-1.6,6c-2.1,0.1-4.4,0-6.5,0.1"/>
			<path class="st0" d="M912.2,422.7c1.5,3,1.5,5.6-0.1,7.1c-0.8,0.8-2.8,0.5-4.6,0.2c-1.8-0.3-4.1-1.3-5.8-2.9"/>
			<path class="st0" d="M902.8,426.4c1.9,2.9,6.3,3.8,8.3,3.6c1.1-0.1,1.1-1.6,1.1-2.5c0-1.1-0.1-2.2-0.8-3.6"/>
			<path class="st0" d="M910.1,423.6c-0.3,1.8,0.1,3.9,1.1,6.2c-2.2-0.6-5-2.6-6.5-4.5"/>
			<path class="st0" d="M902.4,425.8c0.9,1.1,2.5,2.2,3.9,2.8c1.4,0.6,2.8,0.9,4.1,1.1c0.5-0.8,1.1-1.8,1.2-2.9
				c0-1.1-0.6-2.5-1.9-3.8"/>
			<path class="st0" d="M906.5,425.4c1.2,1.5,2.6,3,4.2,4.5C909.4,427.5,907.8,427.7,906.5,425.4z"/>
		</g>
		<g>
			
				<ellipse transform="matrix(0.7335 -0.6797 0.6797 0.7335 -54.4486 747.9349)" class="st0" cx="926.5" cy="443.4" rx="0.4" ry="2"/>
			<path class="st0" d="M912.3,430.7l12.8,11.1c-1.7-1.7-3.7-3.6-5.9-5.6c-2.4-2.1-4.6-3.9-6.7-5.5
				C912.5,430.7,912.4,430.7,912.3,430.7z"/>
			<path class="st0" d="M913.9,424.5c-0.4,2.1-1,4.1-1.6,6c-2.1,0.1-4.4,0-6.5,0.1"/>
			<path class="st0" d="M912.2,422.7c1.5,3,1.5,5.6-0.1,7.1c-0.8,0.8-2.8,0.5-4.6,0.2c-1.8-0.3-4.1-1.3-5.8-2.9"/>
			<path class="st0" d="M902.8,426.4c1.9,2.9,6.3,3.8,8.3,3.6c1.1-0.1,1.1-1.6,1.1-2.5c0-1.1-0.1-2.2-0.8-3.6"/>
			<path class="st0" d="M910.1,423.6c-0.3,1.8,0.1,3.9,1.1,6.2c-2.2-0.6-5-2.6-6.5-4.5"/>
			<path class="st0" d="M902.4,425.8c0.9,1.1,2.5,2.2,3.9,2.8c1.4,0.6,2.8,0.9,4.1,1.1c0.5-0.8,1.1-1.8,1.2-2.9
				c0-1.1-0.6-2.5-1.9-3.8"/>
			<path class="st0" d="M906.5,425.4c1.2,1.5,2.6,3,4.2,4.5C909.4,427.5,907.8,427.7,906.5,425.4z"/>
		</g>
	</g>
</g>
<g>
	<g>
		<g>
			
				<ellipse transform="matrix(0.5256 -0.8507 0.8507 0.5256 63.7004 1001.979)" class="st5" cx="930.3" cy="443.9" rx="0.9" ry="2.4"/>
			<path class="st5" d="M951,450.5l-18.6-5.2c2.6,1.1,5.5,2.3,8.8,3.2c3.5,1,6.7,1.7,9.6,2.1C950.9,450.6,950.9,450.5,951,450.5z"/>
			<path class="st5" d="M952.9,465.5c-0.7-4.9-1.3-9.8-1.7-14.7c1.9-3.2,4.2-6.1,6.2-9.3"/>
			<path class="st5" d="M955.5,466.9c-3.1-4.1-4.5-9.5-3.8-14.8c0.4-2.8,2.4-4.9,4.3-6.8c1.9-1.9,4.8-3,7.2-2.2"/>
			<path class="st5" d="M962.6,446.2c-3.4-3.4-8.2,0.9-10,4.1c-1,1.8-0.2,4.8,0.3,6.7c0.5,2.2,1.3,4.5,2.8,6.2"/>
			<path class="st5" d="M957.1,462c-0.7-4-2.2-7.9-4.5-11.3c2.5-1.7,6.3-1.5,8.8,0.1"/>
			<path class="st5" d="M963.3,446.7c-1.5-1.1-3.6-1.1-5.3-0.3c-1.7,0.8-3.2,2.1-4.5,3.4c-0.1,2.3-0.1,5.4,0.5,7.6
				c0.6,2.2,1.9,4.4,4,5.3"/>
			<path class="st5" d="M959.6,453.4c-2-1.4-4.2-2.6-6.5-3.4C955.6,453.1,957.1,450.3,959.6,453.4z"/>
		</g>
		<g>
			
				<ellipse transform="matrix(0.5256 -0.8507 0.8507 0.5256 63.7004 1001.979)" class="st5" cx="930.3" cy="443.9" rx="0.9" ry="2.4"/>
			<path class="st5" d="M951,450.5l-18.6-5.2c2.6,1.1,5.5,2.3,8.8,3.2c3.5,1,6.7,1.7,9.6,2.1C950.9,450.6,950.9,450.5,951,450.5z"/>
			<path class="st5" d="M952.9,465.5c-0.7-4.9-1.3-9.8-1.7-14.7c1.9-3.2,4.2-6.1,6.2-9.3"/>
			<path class="st5" d="M955.5,466.9c-3.1-4.1-4.5-9.5-3.8-14.8c0.4-2.8,2.4-4.9,4.3-6.8c1.9-1.9,4.8-3,7.2-2.2"/>
			<path class="st5" d="M962.6,446.2c-3.4-3.4-8.2,0.9-10,4.1c-1,1.8-0.2,4.8,0.3,6.7c0.5,2.2,1.3,4.5,2.8,6.2"/>
			<path class="st5" d="M957.1,462c-0.7-4-2.2-7.9-4.5-11.3c2.5-1.7,6.3-1.5,8.8,0.1"/>
			<path class="st5" d="M963.3,446.7c-1.5-1.1-3.6-1.1-5.3-0.3c-1.7,0.8-3.2,2.1-4.5,3.4c-0.1,2.3-0.1,5.4,0.5,7.6
				c0.6,2.2,1.9,4.4,4,5.3"/>
			<path class="st5" d="M959.6,453.4c-2-1.4-4.2-2.6-6.5-3.4C955.6,453.1,957.1,450.3,959.6,453.4z"/>
		</g>
	</g>
	<g>
		<g>
			
				<ellipse transform="matrix(0.5256 -0.8507 0.8507 0.5256 63.7004 1001.979)" class="st5" cx="930.3" cy="443.9" rx="0.9" ry="2.4"/>
			<path class="st5" d="M951,450.5l-18.6-5.2c2.6,1.1,5.5,2.3,8.8,3.2c3.5,1,6.7,1.7,9.6,2.1C950.9,450.6,950.9,450.5,951,450.5z"/>
			<path class="st5" d="M952.9,465.5c-0.7-4.9-1.3-9.8-1.7-14.7c1.9-3.2,4.2-6.1,6.2-9.3"/>
			<path class="st5" d="M955.5,466.9c-3.1-4.1-4.5-9.5-3.8-14.8c0.4-2.8,2.4-4.9,4.3-6.8c1.9-1.9,4.8-3,7.2-2.2"/>
			<path class="st5" d="M962.6,446.2c-3.4-3.4-8.2,0.9-10,4.1c-1,1.8-0.2,4.8,0.3,6.7c0.5,2.2,1.3,4.5,2.8,6.2"/>
			<path class="st5" d="M957.1,462c-0.7-4-2.2-7.9-4.5-11.3c2.5-1.7,6.3-1.5,8.8,0.1"/>
			<path class="st5" d="M963.3,446.7c-1.5-1.1-3.6-1.1-5.3-0.3c-1.7,0.8-3.2,2.1-4.5,3.4c-0.1,2.3-0.1,5.4,0.5,7.6
				c0.6,2.2,1.9,4.4,4,5.3"/>
			<path class="st5" d="M959.6,453.4c-2-1.4-4.2-2.6-6.5-3.4C955.6,453.1,957.1,450.3,959.6,453.4z"/>
		</g>
		<g>
			
				<ellipse transform="matrix(0.5256 -0.8507 0.8507 0.5256 63.7004 1001.979)" class="st5" cx="930.3" cy="443.9" rx="0.9" ry="2.4"/>
			<path class="st5" d="M951,450.5l-18.6-5.2c2.6,1.1,5.5,2.3,8.8,3.2c3.5,1,6.7,1.7,9.6,2.1C950.9,450.6,950.9,450.5,951,450.5z"/>
			<path class="st5" d="M952.9,465.5c-0.7-4.9-1.3-9.8-1.7-14.7c1.9-3.2,4.2-6.1,6.2-9.3"/>
			<path class="st5" d="M955.5,466.9c-3.1-4.1-4.5-9.5-3.8-14.8c0.4-2.8,2.4-4.9,4.3-6.8c1.9-1.9,4.8-3,7.2-2.2"/>
			<path class="st5" d="M962.6,446.2c-3.4-3.4-8.2,0.9-10,4.1c-1,1.8-0.2,4.8,0.3,6.7c0.5,2.2,1.3,4.5,2.8,6.2"/>
			<path class="st5" d="M957.1,462c-0.7-4-2.2-7.9-4.5-11.3c2.5-1.7,6.3-1.5,8.8,0.1"/>
			<path class="st5" d="M963.3,446.7c-1.5-1.1-3.6-1.1-5.3-0.3c-1.7,0.8-3.2,2.1-4.5,3.4c-0.1,2.3-0.1,5.4,0.5,7.6
				c0.6,2.2,1.9,4.4,4,5.3"/>
			<path class="st5" d="M959.6,453.4c-2-1.4-4.2-2.6-6.5-3.4C955.6,453.1,957.1,450.3,959.6,453.4z"/>
		</g>
	</g>
</g>
<g>
	<g>
		<g>
			
				<ellipse transform="matrix(0.9955 -9.479863e-02 9.479863e-02 0.9955 -37.5354 89.0649)" class="st0" cx="918.6" cy="439.6" rx="0.4" ry="1.9"/>
			<path class="st0" d="M922.2,457.8l-3.4-16.2c0.3,2.3,0.8,5,1.3,7.8c0.6,3,1.3,5.8,2,8.3C922.1,457.7,922.1,457.7,922.2,457.8z"/>
			<path class="st0" d="M917.1,461.9c1.6-1.4,3.3-2.7,5-3.9c1.8,1,3.5,2.5,5.3,3.5"/>
			<path class="st0" d="M917.3,464.3c0.6-3.3,2.3-5.4,4.5-5.6c1.1-0.1,2.5,1.1,3.8,2.4s2.5,3.4,2.9,5.6"/>
			<path class="st0" d="M927.2,466.7c0.3-3.4-2.7-6.6-4.4-7.6c-1-0.6-1.8,0.7-2.5,1.4c-0.7,0.8-1.3,1.8-1.5,3.4"/>
			<path class="st0" d="M919.6,464.8c1.3-1.3,2.3-3.2,3-5.6c1.4,1.8,2.4,4.9,2.5,7.3"/>
			<path class="st0" d="M927.2,467.3c0-1.4-0.6-3.1-1.4-4.5c-0.8-1.3-1.7-2.2-2.6-3.2c-0.9,0.3-2.1,0.8-2.7,1.7
				c-0.7,0.9-1.1,2.3-0.9,4.2"/>
			<path class="st0" d="M923.6,465.3c0-1.9-0.2-3.9-0.6-5.9C922.5,462,924,462.7,923.6,465.3z"/>
		</g>
		<g>
			
				<ellipse transform="matrix(0.9955 -9.479863e-02 9.479863e-02 0.9955 -37.5354 89.0649)" class="st0" cx="918.6" cy="439.6" rx="0.4" ry="1.9"/>
			<path class="st0" d="M922.2,457.8l-3.4-16.2c0.3,2.3,0.8,5,1.3,7.8c0.6,3,1.3,5.8,2,8.3C922.1,457.7,922.1,457.7,922.2,457.8z"/>
			<path class="st0" d="M917.1,461.9c1.6-1.4,3.3-2.7,5-3.9c1.8,1,3.5,2.5,5.3,3.5"/>
			<path class="st0" d="M917.3,464.3c0.6-3.3,2.3-5.4,4.5-5.6c1.1-0.1,2.5,1.1,3.8,2.4s2.5,3.4,2.9,5.6"/>
			<path class="st0" d="M927.2,466.7c0.3-3.4-2.7-6.6-4.4-7.6c-1-0.6-1.8,0.7-2.5,1.4c-0.7,0.8-1.3,1.8-1.5,3.4"/>
			<path class="st0" d="M919.6,464.8c1.3-1.3,2.3-3.2,3-5.6c1.4,1.8,2.4,4.9,2.5,7.3"/>
			<path class="st0" d="M927.2,467.3c0-1.4-0.6-3.1-1.4-4.5c-0.8-1.3-1.7-2.2-2.6-3.2c-0.9,0.3-2.1,0.8-2.7,1.7
				c-0.7,0.9-1.1,2.3-0.9,4.2"/>
			<path class="st0" d="M923.6,465.3c0-1.9-0.2-3.9-0.6-5.9C922.5,462,924,462.7,923.6,465.3z"/>
		</g>
	</g>
	<g>
		<g>
			
				<ellipse transform="matrix(0.9955 -9.479863e-02 9.479863e-02 0.9955 -37.5354 89.0649)" class="st0" cx="918.6" cy="439.6" rx="0.4" ry="1.9"/>
			<path class="st0" d="M922.2,457.8l-3.4-16.2c0.3,2.3,0.8,5,1.3,7.8c0.6,3,1.3,5.8,2,8.3C922.1,457.7,922.1,457.7,922.2,457.8z"/>
			<path class="st0" d="M917.1,461.9c1.6-1.4,3.3-2.7,5-3.9c1.8,1,3.5,2.5,5.3,3.5"/>
			<path class="st0" d="M917.3,464.3c0.6-3.3,2.3-5.4,4.5-5.6c1.1-0.1,2.5,1.1,3.8,2.4s2.5,3.4,2.9,5.6"/>
			<path class="st0" d="M927.2,466.7c0.3-3.4-2.7-6.6-4.4-7.6c-1-0.6-1.8,0.7-2.5,1.4c-0.7,0.8-1.3,1.8-1.5,3.4"/>
			<path class="st0" d="M919.6,464.8c1.3-1.3,2.3-3.2,3-5.6c1.4,1.8,2.4,4.9,2.5,7.3"/>
			<path class="st0" d="M927.2,467.3c0-1.4-0.6-3.1-1.4-4.5c-0.8-1.3-1.7-2.2-2.6-3.2c-0.9,0.3-2.1,0.8-2.7,1.7
				c-0.7,0.9-1.1,2.3-0.9,4.2"/>
			<path class="st0" d="M923.6,465.3c0-1.9-0.2-3.9-0.6-5.9C922.5,462,924,462.7,923.6,465.3z"/>
		</g>
		<g>
			
				<ellipse transform="matrix(0.9955 -9.479863e-02 9.479863e-02 0.9955 -37.5354 89.0649)" class="st0" cx="918.6" cy="439.6" rx="0.4" ry="1.9"/>
			<path class="st0" d="M922.2,457.8l-3.4-16.2c0.3,2.3,0.8,5,1.3,7.8c0.6,3,1.3,5.8,2,8.3C922.1,457.7,922.1,457.7,922.2,457.8z"/>
			<path class="st0" d="M917.1,461.9c1.6-1.4,3.3-2.7,5-3.9c1.8,1,3.5,2.5,5.3,3.5"/>
			<path class="st0" d="M917.3,464.3c0.6-3.3,2.3-5.4,4.5-5.6c1.1-0.1,2.5,1.1,3.8,2.4s2.5,3.4,2.9,5.6"/>
			<path class="st0" d="M927.2,466.7c0.3-3.4-2.7-6.6-4.4-7.6c-1-0.6-1.8,0.7-2.5,1.4c-0.7,0.8-1.3,1.8-1.5,3.4"/>
			<path class="st0" d="M919.6,464.8c1.3-1.3,2.3-3.2,3-5.6c1.4,1.8,2.4,4.9,2.5,7.3"/>
			<path class="st0" d="M927.2,467.3c0-1.4-0.6-3.1-1.4-4.5c-0.8-1.3-1.7-2.2-2.6-3.2c-0.9,0.3-2.1,0.8-2.7,1.7
				c-0.7,0.9-1.1,2.3-0.9,4.2"/>
			<path class="st0" d="M923.6,465.3c0-1.9-0.2-3.9-0.6-5.9C922.5,462,924,462.7,923.6,465.3z"/>
		</g>
	</g>
</g>
<g>
	<g>
		<g>
			<ellipse transform="matrix(0.8559 -0.5171 0.5171 0.8559 -93.6969 539.6912)" class="st0" cx="921.6" cy="438" rx="2" ry="0.4"/>
			<path class="st0" d="M906.3,449.4l13.5-10.4c-2,1.3-4.3,2.9-6.7,4.7c-2.5,1.9-4.8,3.8-6.8,5.5
				C906.3,449.3,906.3,449.4,906.3,449.4z"/>
			<path class="st0" d="M900.1,447c2.1,0.7,4,1.6,6,2.5c-0.2,2-0.7,4.1-0.9,6.1"/>
			<path class="st0" d="M898,448.3c3.3-1,6-0.5,7.3,1.2c0.7,0.9,0.1,2.7-0.5,4.4c-0.6,1.7-2,3.7-3.9,5.1"/>
			<path class="st0" d="M900.3,457.7c3.3-1.3,4.9-5.3,5-7.2c0.1-1.1-1.5-1.3-2.4-1.5c-1.1-0.2-2.3-0.3-3.8,0.2"/>
			<path class="st0" d="M898.6,450.4c1.8,0.5,4,0.5,6.5,0c-1,2-3.5,4.3-5.6,5.5"/>
			<path class="st0" d="M899.7,458c1.3-0.7,2.6-2,3.5-3.2c0.9-1.2,1.3-2.5,1.8-3.7c-0.7-0.6-1.7-1.4-2.8-1.5s-2.7,0.1-4.3,1.2"/>
			<path class="st0" d="M899.9,454.1c1.8-0.9,3.5-2,5.2-3.2C902.5,451.7,902.5,453.3,899.9,454.1z"/>
		</g>
		<g>
			<ellipse transform="matrix(0.8559 -0.5171 0.5171 0.8559 -93.6969 539.6912)" class="st0" cx="921.6" cy="438" rx="2" ry="0.4"/>
			<path class="st0" d="M906.3,449.4l13.5-10.4c-2,1.3-4.3,2.9-6.7,4.7c-2.5,1.9-4.8,3.8-6.8,5.5
				C906.3,449.3,906.3,449.4,906.3,449.4z"/>
			<path class="st0" d="M900.1,447c2.1,0.7,4,1.6,6,2.5c-0.2,2-0.7,4.1-0.9,6.1"/>
			<path class="st0" d="M898,448.3c3.3-1,6-0.5,7.3,1.2c0.7,0.9,0.1,2.7-0.5,4.4c-0.6,1.7-2,3.7-3.9,5.1"/>
			<path class="st0" d="M900.3,457.7c3.3-1.3,4.9-5.3,5-7.2c0.1-1.1-1.5-1.3-2.4-1.5c-1.1-0.2-2.3-0.3-3.8,0.2"/>
			<path class="st0" d="M898.6,450.4c1.8,0.5,4,0.5,6.5,0c-1,2-3.5,4.3-5.6,5.5"/>
			<path class="st0" d="M899.7,458c1.3-0.7,2.6-2,3.5-3.2c0.9-1.2,1.3-2.5,1.8-3.7c-0.7-0.6-1.7-1.4-2.8-1.5s-2.7,0.1-4.3,1.2"/>
			<path class="st0" d="M899.9,454.1c1.8-0.9,3.5-2,5.2-3.2C902.5,451.7,902.5,453.3,899.9,454.1z"/>
		</g>
	</g>
	<g>
		<g>
			<ellipse transform="matrix(0.8559 -0.5171 0.5171 0.8559 -93.6969 539.6912)" class="st0" cx="921.6" cy="438" rx="2" ry="0.4"/>
			<path class="st0" d="M906.3,449.4l13.5-10.4c-2,1.3-4.3,2.9-6.7,4.7c-2.5,1.9-4.8,3.8-6.8,5.5
				C906.3,449.3,906.3,449.4,906.3,449.4z"/>
			<path class="st0" d="M900.1,447c2.1,0.7,4,1.6,6,2.5c-0.2,2-0.7,4.1-0.9,6.1"/>
			<path class="st0" d="M898,448.3c3.3-1,6-0.5,7.3,1.2c0.7,0.9,0.1,2.7-0.5,4.4c-0.6,1.7-2,3.7-3.9,5.1"/>
			<path class="st0" d="M900.3,457.7c3.3-1.3,4.9-5.3,5-7.2c0.1-1.1-1.5-1.3-2.4-1.5c-1.1-0.2-2.3-0.3-3.8,0.2"/>
			<path class="st0" d="M898.6,450.4c1.8,0.5,4,0.5,6.5,0c-1,2-3.5,4.3-5.6,5.5"/>
			<path class="st0" d="M899.7,458c1.3-0.7,2.6-2,3.5-3.2c0.9-1.2,1.3-2.5,1.8-3.7c-0.7-0.6-1.7-1.4-2.8-1.5s-2.7,0.1-4.3,1.2"/>
			<path class="st0" d="M899.9,454.1c1.8-0.9,3.5-2,5.2-3.2C902.5,451.7,902.5,453.3,899.9,454.1z"/>
		</g>
		<g>
			<ellipse transform="matrix(0.8559 -0.5171 0.5171 0.8559 -93.6969 539.6912)" class="st0" cx="921.6" cy="438" rx="2" ry="0.4"/>
			<path class="st0" d="M906.3,449.4l13.5-10.4c-2,1.3-4.3,2.9-6.7,4.7c-2.5,1.9-4.8,3.8-6.8,5.5
				C906.3,449.3,906.3,449.4,906.3,449.4z"/>
			<path class="st0" d="M900.1,447c2.1,0.7,4,1.6,6,2.5c-0.2,2-0.7,4.1-0.9,6.1"/>
			<path class="st0" d="M898,448.3c3.3-1,6-0.5,7.3,1.2c0.7,0.9,0.1,2.7-0.5,4.4c-0.6,1.7-2,3.7-3.9,5.1"/>
			<path class="st0" d="M900.3,457.7c3.3-1.3,4.9-5.3,5-7.2c0.1-1.1-1.5-1.3-2.4-1.5c-1.1-0.2-2.3-0.3-3.8,0.2"/>
			<path class="st0" d="M898.6,450.4c1.8,0.5,4,0.5,6.5,0c-1,2-3.5,4.3-5.6,5.5"/>
			<path class="st0" d="M899.7,458c1.3-0.7,2.6-2,3.5-3.2c0.9-1.2,1.3-2.5,1.8-3.7c-0.7-0.6-1.7-1.4-2.8-1.5s-2.7,0.1-4.3,1.2"/>
			<path class="st0" d="M899.9,454.1c1.8-0.9,3.5-2,5.2-3.2C902.5,451.7,902.5,453.3,899.9,454.1z"/>
		</g>
	</g>
</g>
<g>
	<g>
		<g>
			
				<ellipse transform="matrix(0.3652 -0.9309 0.9309 0.3652 174.7367 1132.4221)" class="st5" cx="917.7" cy="438.1" rx="1.9" ry="0.4"/>
			<path class="st5" d="M912.7,456l4.2-16c-0.8,2.2-1.6,4.8-2.3,7.6C913.8,450.6,913.1,453.4,912.7,456
				C912.6,455.9,912.7,455.9,912.7,456z"/>
			<path class="st5" d="M906.2,457.6c2.1-0.6,4.2-1.1,6.3-1.4c1.1,1.7,2.1,3.7,3.2,5.4"/>
			<path class="st5" d="M905.3,459.8c2-2.7,4.5-3.9,6.6-3.2c1.1,0.4,1.8,2.1,2.4,3.8c0.6,1.7,0.7,4.1,0.1,6.3"/>
			<path class="st5" d="M913.1,466.1c1.8-2.9,0.5-7.1-0.6-8.7c-0.6-0.9-2-0.2-2.8,0.2c-1,0.5-2,1.1-2.9,2.4"/>
			<path class="st5" d="M907.2,461.2c1.8-0.6,3.5-1.9,5.2-3.8c0.4,2.2-0.1,5.5-1,7.6"/>
			<path class="st5" d="M912.8,466.6c0.6-1.3,0.9-3.1,0.7-4.6c-0.1-1.5-0.5-2.7-0.9-3.9c-1-0.1-2.2-0.1-3.2,0.4s-2,1.6-2.6,3.4"/>
			<path class="st5" d="M910.5,463.4c0.8-1.7,1.5-3.6,2.1-5.6C911.1,459.9,912.1,461.2,910.5,463.4z"/>
		</g>
		<g>
			
				<ellipse transform="matrix(0.3652 -0.9309 0.9309 0.3652 174.7367 1132.4221)" class="st5" cx="917.7" cy="438.1" rx="1.9" ry="0.4"/>
			<path class="st5" d="M912.7,456l4.2-16c-0.8,2.2-1.6,4.8-2.3,7.6C913.8,450.6,913.1,453.4,912.7,456
				C912.6,455.9,912.7,455.9,912.7,456z"/>
			<path class="st5" d="M906.2,457.6c2.1-0.6,4.2-1.1,6.3-1.4c1.1,1.7,2.1,3.7,3.2,5.4"/>
			<path class="st5" d="M905.3,459.8c2-2.7,4.5-3.9,6.6-3.2c1.1,0.4,1.8,2.1,2.4,3.8c0.6,1.7,0.7,4.1,0.1,6.3"/>
			<path class="st5" d="M913.1,466.1c1.8-2.9,0.5-7.1-0.6-8.7c-0.6-0.9-2-0.2-2.8,0.2c-1,0.5-2,1.1-2.9,2.4"/>
			<path class="st5" d="M907.2,461.2c1.8-0.6,3.5-1.9,5.2-3.8c0.4,2.2-0.1,5.5-1,7.6"/>
			<path class="st5" d="M912.8,466.6c0.6-1.3,0.9-3.1,0.7-4.6c-0.1-1.5-0.5-2.7-0.9-3.9c-1-0.1-2.2-0.1-3.2,0.4s-2,1.6-2.6,3.4"/>
			<path class="st5" d="M910.5,463.4c0.8-1.7,1.5-3.6,2.1-5.6C911.1,459.9,912.1,461.2,910.5,463.4z"/>
		</g>
	</g>
	<g>
		<g>
			
				<ellipse transform="matrix(0.3652 -0.9309 0.9309 0.3652 174.7367 1132.4221)" class="st5" cx="917.7" cy="438.1" rx="1.9" ry="0.4"/>
			<path class="st5" d="M912.7,456l4.2-16c-0.8,2.2-1.6,4.8-2.3,7.6C913.8,450.6,913.1,453.4,912.7,456
				C912.6,455.9,912.7,455.9,912.7,456z"/>
			<path class="st5" d="M906.2,457.6c2.1-0.6,4.2-1.1,6.3-1.4c1.1,1.7,2.1,3.7,3.2,5.4"/>
			<path class="st5" d="M905.3,459.8c2-2.7,4.5-3.9,6.6-3.2c1.1,0.4,1.8,2.1,2.4,3.8c0.6,1.7,0.7,4.1,0.1,6.3"/>
			<path class="st5" d="M913.1,466.1c1.8-2.9,0.5-7.1-0.6-8.7c-0.6-0.9-2-0.2-2.8,0.2c-1,0.5-2,1.1-2.9,2.4"/>
			<path class="st5" d="M907.2,461.2c1.8-0.6,3.5-1.9,5.2-3.8c0.4,2.2-0.1,5.5-1,7.6"/>
			<path class="st5" d="M912.8,466.6c0.6-1.3,0.9-3.1,0.7-4.6c-0.1-1.5-0.5-2.7-0.9-3.9c-1-0.1-2.2-0.1-3.2,0.4s-2,1.6-2.6,3.4"/>
			<path class="st5" d="M910.5,463.4c0.8-1.7,1.5-3.6,2.1-5.6C911.1,459.9,912.1,461.2,910.5,463.4z"/>
		</g>
		<g>
			
				<ellipse transform="matrix(0.3652 -0.9309 0.9309 0.3652 174.7367 1132.4221)" class="st5" cx="917.7" cy="438.1" rx="1.9" ry="0.4"/>
			<path class="st5" d="M912.7,456l4.2-16c-0.8,2.2-1.6,4.8-2.3,7.6C913.8,450.6,913.1,453.4,912.7,456
				C912.6,455.9,912.7,455.9,912.7,456z"/>
			<path class="st5" d="M906.2,457.6c2.1-0.6,4.2-1.1,6.3-1.4c1.1,1.7,2.1,3.7,3.2,5.4"/>
			<path class="st5" d="M905.3,459.8c2-2.7,4.5-3.9,6.6-3.2c1.1,0.4,1.8,2.1,2.4,3.8c0.6,1.7,0.7,4.1,0.1,6.3"/>
			<path class="st5" d="M913.1,466.1c1.8-2.9,0.5-7.1-0.6-8.7c-0.6-0.9-2-0.2-2.8,0.2c-1,0.5-2,1.1-2.9,2.4"/>
			<path class="st5" d="M907.2,461.2c1.8-0.6,3.5-1.9,5.2-3.8c0.4,2.2-0.1,5.5-1,7.6"/>
			<path class="st5" d="M912.8,466.6c0.6-1.3,0.9-3.1,0.7-4.6c-0.1-1.5-0.5-2.7-0.9-3.9c-1-0.1-2.2-0.1-3.2,0.4s-2,1.6-2.6,3.4"/>
			<path class="st5" d="M910.5,463.4c0.8-1.7,1.5-3.6,2.1-5.6C911.1,459.9,912.1,461.2,910.5,463.4z"/>
		</g>
	</g>
</g>
<g>
	<g>
		<g>
			
				<ellipse transform="matrix(0.1729 -0.9849 0.9849 0.1729 320.329 1274.3109)" class="st0" cx="918.9" cy="446.4" rx="1.9" ry="0.4"/>
			<path class="st0" d="M920.2,428l-1,16.5c0.3-2.3,0.6-5,0.8-7.9c0.2-3.1,0.3-5.9,0.3-8.5C920.3,428.1,920.2,428,920.2,428z"/>
			<path class="st0" d="M926.3,425.2c-2,1-3.9,1.8-5.9,2.6c-1.4-1.5-2.8-3.2-4.2-4.7"/>
			<path class="st0" d="M926.7,422.9c-1.5,3-3.6,4.6-5.8,4.4c-1.1-0.1-2.2-1.7-3.1-3.3c-0.9-1.5-1.5-3.9-1.4-6.1"/>
			<path class="st0" d="M917.7,418.2c-1.2,3.2,0.9,7,2.3,8.4c0.8,0.8,2-0.2,2.7-0.8c0.9-0.6,1.8-1.5,2.4-2.9"/>
			<path class="st0" d="M924.6,421.8c-1.6,0.9-3.1,2.5-4.3,4.7c-0.9-2-1-5.4-0.5-7.7"/>
			<path class="st0" d="M917.9,417.6c-0.4,1.4-0.2,3.2,0.2,4.6c0.4,1.4,1,2.6,1.7,3.7c1-0.1,2.2-0.3,3.1-1c0.9-0.7,1.7-2,1.9-3.8"/>
			<path class="st0" d="M920.9,420.3c-0.5,1.9-0.8,3.8-1,5.9C921,423.8,919.8,422.7,920.9,420.3z"/>
		</g>
		<g>
			
				<ellipse transform="matrix(0.1729 -0.9849 0.9849 0.1729 320.329 1274.3109)" class="st0" cx="918.9" cy="446.4" rx="1.9" ry="0.4"/>
			<path class="st0" d="M920.2,428l-1,16.5c0.3-2.3,0.6-5,0.8-7.9c0.2-3.1,0.3-5.9,0.3-8.5C920.3,428.1,920.2,428,920.2,428z"/>
			<path class="st0" d="M926.3,425.2c-2,1-3.9,1.8-5.9,2.6c-1.4-1.5-2.8-3.2-4.2-4.7"/>
			<path class="st0" d="M926.7,422.9c-1.5,3-3.6,4.6-5.8,4.4c-1.1-0.1-2.2-1.7-3.1-3.3c-0.9-1.5-1.5-3.9-1.4-6.1"/>
			<path class="st0" d="M917.7,418.2c-1.2,3.2,0.9,7,2.3,8.4c0.8,0.8,2-0.2,2.7-0.8c0.9-0.6,1.8-1.5,2.4-2.9"/>
			<path class="st0" d="M924.6,421.8c-1.6,0.9-3.1,2.5-4.3,4.7c-0.9-2-1-5.4-0.5-7.7"/>
			<path class="st0" d="M917.9,417.6c-0.4,1.4-0.2,3.2,0.2,4.6c0.4,1.4,1,2.6,1.7,3.7c1-0.1,2.2-0.3,3.1-1c0.9-0.7,1.7-2,1.9-3.8"/>
			<path class="st0" d="M920.9,420.3c-0.5,1.9-0.8,3.8-1,5.9C921,423.8,919.8,422.7,920.9,420.3z"/>
		</g>
	</g>
	<g>
		<g>
			
				<ellipse transform="matrix(0.1729 -0.9849 0.9849 0.1729 320.329 1274.3109)" class="st0" cx="918.9" cy="446.4" rx="1.9" ry="0.4"/>
			<path class="st0" d="M920.2,428l-1,16.5c0.3-2.3,0.6-5,0.8-7.9c0.2-3.1,0.3-5.9,0.3-8.5C920.3,428.1,920.2,428,920.2,428z"/>
			<path class="st0" d="M926.3,425.2c-2,1-3.9,1.8-5.9,2.6c-1.4-1.5-2.8-3.2-4.2-4.7"/>
			<path class="st0" d="M926.7,422.9c-1.5,3-3.6,4.6-5.8,4.4c-1.1-0.1-2.2-1.7-3.1-3.3c-0.9-1.5-1.5-3.9-1.4-6.1"/>
			<path class="st0" d="M917.7,418.2c-1.2,3.2,0.9,7,2.3,8.4c0.8,0.8,2-0.2,2.7-0.8c0.9-0.6,1.8-1.5,2.4-2.9"/>
			<path class="st0" d="M924.6,421.8c-1.6,0.9-3.1,2.5-4.3,4.7c-0.9-2-1-5.4-0.5-7.7"/>
			<path class="st0" d="M917.9,417.6c-0.4,1.4-0.2,3.2,0.2,4.6c0.4,1.4,1,2.6,1.7,3.7c1-0.1,2.2-0.3,3.1-1c0.9-0.7,1.7-2,1.9-3.8"/>
			<path class="st0" d="M920.9,420.3c-0.5,1.9-0.8,3.8-1,5.9C921,423.8,919.8,422.7,920.9,420.3z"/>
		</g>
		<g>
			
				<ellipse transform="matrix(0.1729 -0.9849 0.9849 0.1729 320.329 1274.3109)" class="st0" cx="918.9" cy="446.4" rx="1.9" ry="0.4"/>
			<path class="st0" d="M920.2,428l-1,16.5c0.3-2.3,0.6-5,0.8-7.9c0.2-3.1,0.3-5.9,0.3-8.5C920.3,428.1,920.2,428,920.2,428z"/>
			<path class="st0" d="M926.3,425.2c-2,1-3.9,1.8-5.9,2.6c-1.4-1.5-2.8-3.2-4.2-4.7"/>
			<path class="st0" d="M926.7,422.9c-1.5,3-3.6,4.6-5.8,4.4c-1.1-0.1-2.2-1.7-3.1-3.3c-0.9-1.5-1.5-3.9-1.4-6.1"/>
			<path class="st0" d="M917.7,418.2c-1.2,3.2,0.9,7,2.3,8.4c0.8,0.8,2-0.2,2.7-0.8c0.9-0.6,1.8-1.5,2.4-2.9"/>
			<path class="st0" d="M924.6,421.8c-1.6,0.9-3.1,2.5-4.3,4.7c-0.9-2-1-5.4-0.5-7.7"/>
			<path class="st0" d="M917.9,417.6c-0.4,1.4-0.2,3.2,0.2,4.6c0.4,1.4,1,2.6,1.7,3.7c1-0.1,2.2-0.3,3.1-1c0.9-0.7,1.7-2,1.9-3.8"/>
			<path class="st0" d="M920.9,420.3c-0.5,1.9-0.8,3.8-1,5.9C921,423.8,919.8,422.7,920.9,420.3z"/>
		</g>
	</g>
</g>
<g>
	<g>
		<g>
			
				<ellipse transform="matrix(0.2363 -0.9717 0.9717 0.2363 276.5797 1229.8859)" class="st5" cx="920.7" cy="439" rx="0.3" ry="1.8"/>
			<path class="st5" d="M937.4,441.5l-15.1-2c2.1,0.4,4.5,0.9,7.2,1.2c2.8,0.4,5.4,0.7,7.7,0.9C937.3,441.6,937.3,441.6,937.4,441.5
				z"/>
			<path class="st5" d="M939.5,446.8c-0.8-1.7-1.4-3.4-1.9-5.1c1.4-1.1,3.2-2.1,4.6-3.2"/>
			<path class="st5" d="M941.6,447.3c-2.6-1.5-4-3.4-3.6-5.2c0.2-1,1.7-1.7,3.2-2.3s3.7-1,5.7-0.7"/>
			<path class="st5" d="M946.6,440.2c-2.9-1.2-6.5,0.2-7.9,1.3c-0.8,0.6,0,1.7,0.5,2.4c0.5,0.8,1.2,1.6,2.5,2.2"/>
			<path class="st5" d="M942.7,445.6c-0.7-1.4-2.1-2.8-4-4c1.9-0.6,5-0.5,7.1,0.1"/>
			<path class="st5" d="M947.1,440.4c-1.2-0.4-2.9-0.4-4.3-0.2c-1.4,0.2-2.5,0.7-3.5,1.1c0,0.8,0.1,1.9,0.7,2.7
				c0.5,0.8,1.7,1.5,3.4,1.9"/>
			<path class="st5" d="M944.4,442.7c-1.7-0.5-3.5-1-5.3-1.3C941.2,442.5,942.2,441.5,944.4,442.7z"/>
		</g>
		<g>
			
				<ellipse transform="matrix(0.2363 -0.9717 0.9717 0.2363 276.5797 1229.8859)" class="st5" cx="920.7" cy="439" rx="0.3" ry="1.8"/>
			<path class="st5" d="M937.4,441.5l-15.1-2c2.1,0.4,4.5,0.9,7.2,1.2c2.8,0.4,5.4,0.7,7.7,0.9C937.3,441.6,937.3,441.6,937.4,441.5
				z"/>
			<path class="st5" d="M939.5,446.8c-0.8-1.7-1.4-3.4-1.9-5.1c1.4-1.1,3.2-2.1,4.6-3.2"/>
			<path class="st5" d="M941.6,447.3c-2.6-1.5-4-3.4-3.6-5.2c0.2-1,1.7-1.7,3.2-2.3s3.7-1,5.7-0.7"/>
			<path class="st5" d="M946.6,440.2c-2.9-1.2-6.5,0.2-7.9,1.3c-0.8,0.6,0,1.7,0.5,2.4c0.5,0.8,1.2,1.6,2.5,2.2"/>
			<path class="st5" d="M942.7,445.6c-0.7-1.4-2.1-2.8-4-4c1.9-0.6,5-0.5,7.1,0.1"/>
			<path class="st5" d="M947.1,440.4c-1.2-0.4-2.9-0.4-4.3-0.2c-1.4,0.2-2.5,0.7-3.5,1.1c0,0.8,0.1,1.9,0.7,2.7
				c0.5,0.8,1.7,1.5,3.4,1.9"/>
			<path class="st5" d="M944.4,442.7c-1.7-0.5-3.5-1-5.3-1.3C941.2,442.5,942.2,441.5,944.4,442.7z"/>
		</g>
	</g>
	<g>
		<g>
			
				<ellipse transform="matrix(0.2363 -0.9717 0.9717 0.2363 276.5797 1229.8859)" class="st5" cx="920.7" cy="439" rx="0.3" ry="1.8"/>
			<path class="st5" d="M937.4,441.5l-15.1-2c2.1,0.4,4.5,0.9,7.2,1.2c2.8,0.4,5.4,0.7,7.7,0.9C937.3,441.6,937.3,441.6,937.4,441.5
				z"/>
			<path class="st5" d="M939.5,446.8c-0.8-1.7-1.4-3.4-1.9-5.1c1.4-1.1,3.2-2.1,4.6-3.2"/>
			<path class="st5" d="M941.6,447.3c-2.6-1.5-4-3.4-3.6-5.2c0.2-1,1.7-1.7,3.2-2.3s3.7-1,5.7-0.7"/>
			<path class="st5" d="M946.6,440.2c-2.9-1.2-6.5,0.2-7.9,1.3c-0.8,0.6,0,1.7,0.5,2.4c0.5,0.8,1.2,1.6,2.5,2.2"/>
			<path class="st5" d="M942.7,445.6c-0.7-1.4-2.1-2.8-4-4c1.9-0.6,5-0.5,7.1,0.1"/>
			<path class="st5" d="M947.1,440.4c-1.2-0.4-2.9-0.4-4.3-0.2c-1.4,0.2-2.5,0.7-3.5,1.1c0,0.8,0.1,1.9,0.7,2.7
				c0.5,0.8,1.7,1.5,3.4,1.9"/>
			<path class="st5" d="M944.4,442.7c-1.7-0.5-3.5-1-5.3-1.3C941.2,442.5,942.2,441.5,944.4,442.7z"/>
		</g>
		<g>
			
				<ellipse transform="matrix(0.2363 -0.9717 0.9717 0.2363 276.5797 1229.8859)" class="st5" cx="920.7" cy="439" rx="0.3" ry="1.8"/>
			<path class="st5" d="M937.4,441.5l-15.1-2c2.1,0.4,4.5,0.9,7.2,1.2c2.8,0.4,5.4,0.7,7.7,0.9C937.3,441.6,937.3,441.6,937.4,441.5
				z"/>
			<path class="st5" d="M939.5,446.8c-0.8-1.7-1.4-3.4-1.9-5.1c1.4-1.1,3.2-2.1,4.6-3.2"/>
			<path class="st5" d="M941.6,447.3c-2.6-1.5-4-3.4-3.6-5.2c0.2-1,1.7-1.7,3.2-2.3s3.7-1,5.7-0.7"/>
			<path class="st5" d="M946.6,440.2c-2.9-1.2-6.5,0.2-7.9,1.3c-0.8,0.6,0,1.7,0.5,2.4c0.5,0.8,1.2,1.6,2.5,2.2"/>
			<path class="st5" d="M942.7,445.6c-0.7-1.4-2.1-2.8-4-4c1.9-0.6,5-0.5,7.1,0.1"/>
			<path class="st5" d="M947.1,440.4c-1.2-0.4-2.9-0.4-4.3-0.2c-1.4,0.2-2.5,0.7-3.5,1.1c0,0.8,0.1,1.9,0.7,2.7
				c0.5,0.8,1.7,1.5,3.4,1.9"/>
			<path class="st5" d="M944.4,442.7c-1.7-0.5-3.5-1-5.3-1.3C941.2,442.5,942.2,441.5,944.4,442.7z"/>
		</g>
	</g>
</g>
<g>
	<g>
		<g>
			
				<ellipse transform="matrix(5.200974e-02 -0.9986 0.9986 5.200974e-02 438.1139 1339.783)" class="st0" cx="924.7" cy="439.1" rx="0.3" ry="1.8"/>
			<path class="st0" d="M907.4,439.7l15.4-0.7c-2.2,0-4.7,0-7.5,0.1C912.4,439.2,909.8,439.4,907.4,439.7L907.4,439.7z"/>
			<path class="st0" d="M903.3,435.4c1.4,1.4,2.7,2.8,3.9,4.2c-1,1.2-2.3,2.3-3.3,3.5"/>
			<path class="st0" d="M901,435.3c3.1,0.8,5.2,2.3,5.5,3.9c0.2,0.9-1,1.7-2.2,2.5c-1.2,0.8-3.2,1.5-5.3,1.5"/>
			<path class="st0" d="M899,442.3c3.2,0.6,6.2-1.2,7.1-2.4c0.5-0.6-0.7-1.4-1.4-2c-0.8-0.6-1.8-1.2-3.2-1.5"/>
			<path class="st0" d="M900.6,437c1.2,1.1,3.1,2.1,5.4,2.8c-1.7,0.8-4.7,1.2-6.9,1"/>
			<path class="st0" d="M898.4,442.3c1.4,0.2,3-0.1,4.2-0.5s2.1-1,3-1.5c-0.3-0.7-0.9-1.6-1.7-2.2c-0.8-0.6-2.2-1.1-4-1.1"/>
			<path class="st0" d="M900.1,439.8c1.8,0.2,3.7,0.3,5.7,0.2C903.3,439.5,902.6,440.5,900.1,439.8z"/>
		</g>
		<g>
			
				<ellipse transform="matrix(5.200974e-02 -0.9986 0.9986 5.200974e-02 438.1139 1339.783)" class="st0" cx="924.7" cy="439.1" rx="0.3" ry="1.8"/>
			<path class="st0" d="M907.4,439.7l15.4-0.7c-2.2,0-4.7,0-7.5,0.1C912.4,439.2,909.8,439.4,907.4,439.7L907.4,439.7z"/>
			<path class="st0" d="M903.3,435.4c1.4,1.4,2.7,2.8,3.9,4.2c-1,1.2-2.3,2.3-3.3,3.5"/>
			<path class="st0" d="M901,435.3c3.1,0.8,5.2,2.3,5.5,3.9c0.2,0.9-1,1.7-2.2,2.5c-1.2,0.8-3.2,1.5-5.3,1.5"/>
			<path class="st0" d="M899,442.3c3.2,0.6,6.2-1.2,7.1-2.4c0.5-0.6-0.7-1.4-1.4-2c-0.8-0.6-1.8-1.2-3.2-1.5"/>
			<path class="st0" d="M900.6,437c1.2,1.1,3.1,2.1,5.4,2.8c-1.7,0.8-4.7,1.2-6.9,1"/>
			<path class="st0" d="M898.4,442.3c1.4,0.2,3-0.1,4.2-0.5s2.1-1,3-1.5c-0.3-0.7-0.9-1.6-1.7-2.2c-0.8-0.6-2.2-1.1-4-1.1"/>
			<path class="st0" d="M900.1,439.8c1.8,0.2,3.7,0.3,5.7,0.2C903.3,439.5,902.6,440.5,900.1,439.8z"/>
		</g>
	</g>
	<g>
		<g>
			
				<ellipse transform="matrix(5.200974e-02 -0.9986 0.9986 5.200974e-02 438.1139 1339.783)" class="st0" cx="924.7" cy="439.1" rx="0.3" ry="1.8"/>
			<path class="st0" d="M907.4,439.7l15.4-0.7c-2.2,0-4.7,0-7.5,0.1C912.4,439.2,909.8,439.4,907.4,439.7L907.4,439.7z"/>
			<path class="st0" d="M903.3,435.4c1.4,1.4,2.7,2.8,3.9,4.2c-1,1.2-2.3,2.3-3.3,3.5"/>
			<path class="st0" d="M901,435.3c3.1,0.8,5.2,2.3,5.5,3.9c0.2,0.9-1,1.7-2.2,2.5c-1.2,0.8-3.2,1.5-5.3,1.5"/>
			<path class="st0" d="M899,442.3c3.2,0.6,6.2-1.2,7.1-2.4c0.5-0.6-0.7-1.4-1.4-2c-0.8-0.6-1.8-1.2-3.2-1.5"/>
			<path class="st0" d="M900.6,437c1.2,1.1,3.1,2.1,5.4,2.8c-1.7,0.8-4.7,1.2-6.9,1"/>
			<path class="st0" d="M898.4,442.3c1.4,0.2,3-0.1,4.2-0.5s2.1-1,3-1.5c-0.3-0.7-0.9-1.6-1.7-2.2c-0.8-0.6-2.2-1.1-4-1.1"/>
			<path class="st0" d="M900.1,439.8c1.8,0.2,3.7,0.3,5.7,0.2C903.3,439.5,902.6,440.5,900.1,439.8z"/>
		</g>
		<g>
			
				<ellipse transform="matrix(5.200974e-02 -0.9986 0.9986 5.200974e-02 438.1139 1339.783)" class="st0" cx="924.7" cy="439.1" rx="0.3" ry="1.8"/>
			<path class="st0" d="M907.4,439.7l15.4-0.7c-2.2,0-4.7,0-7.5,0.1C912.4,439.2,909.8,439.4,907.4,439.7L907.4,439.7z"/>
			<path class="st0" d="M903.3,435.4c1.4,1.4,2.7,2.8,3.9,4.2c-1,1.2-2.3,2.3-3.3,3.5"/>
			<path class="st0" d="M901,435.3c3.1,0.8,5.2,2.3,5.5,3.9c0.2,0.9-1,1.7-2.2,2.5c-1.2,0.8-3.2,1.5-5.3,1.5"/>
			<path class="st0" d="M899,442.3c3.2,0.6,6.2-1.2,7.1-2.4c0.5-0.6-0.7-1.4-1.4-2c-0.8-0.6-1.8-1.2-3.2-1.5"/>
			<path class="st0" d="M900.6,437c1.2,1.1,3.1,2.1,5.4,2.8c-1.7,0.8-4.7,1.2-6.9,1"/>
			<path class="st0" d="M898.4,442.3c1.4,0.2,3-0.1,4.2-0.5s2.1-1,3-1.5c-0.3-0.7-0.9-1.6-1.7-2.2c-0.8-0.6-2.2-1.1-4-1.1"/>
			<path class="st0" d="M900.1,439.8c1.8,0.2,3.7,0.3,5.7,0.2C903.3,439.5,902.6,440.5,900.1,439.8z"/>
		</g>
	</g>
</g>
<g>
	<g>
		<g>
			<path class="st0" d="M914,438.3c0.1-0.2,1,0,2,0.5s1.7,1.1,1.6,1.3c-0.1,0.2-1,0-2-0.5C914.7,439.1,913.9,438.5,914,438.3z"/>
			<path class="st0" d="M933.8,446.2l-16.1-6c2.2,1,4.8,2.1,7.6,3.2c3,1.1,5.8,2.1,8.3,2.9C933.7,446.2,933.7,446.2,933.8,446.2z"/>
			<path class="st0" d="M934.6,452.5c-0.4-2.1-0.6-4.1-0.7-6.2c1.9-0.8,4.1-1.5,6-2.3"/>
			<path class="st0" d="M936.9,453.6c-2.5-2.3-3.5-4.7-2.5-6.6c0.5-1,2.4-1.4,4.2-1.8c1.8-0.3,4.4-0.2,6.5,0.7"/>
			<path class="st0" d="M944.3,447c-2.8-2.1-7.3-1.4-9.1-0.5c-1,0.5-0.4,1.8-0.1,2.7c0.4,1,0.9,2,2.1,3"/>
			<path class="st0" d="M938.5,452c-0.4-1.8-1.5-3.6-3.3-5.4c2.3-0.1,5.6,0.8,7.8,1.9"/>
			<path class="st0" d="M944.9,447.3c-1.3-0.8-3.1-1.2-4.7-1.3c-1.6-0.1-2.9,0.1-4.2,0.4c-0.2,0.9-0.4,2.1,0,3.1
				c0.4,1,1.5,2.1,3.2,2.9"/>
			<path class="st0" d="M941.2,449.2c-1.7-1-3.6-1.9-5.5-2.7C937.7,448.2,939.1,447.4,941.2,449.2z"/>
		</g>
		<g>
			<path class="st0" d="M914,438.3c0.1-0.2,1,0,2,0.5s1.7,1.1,1.6,1.3c-0.1,0.2-1,0-2-0.5C914.7,439.1,913.9,438.5,914,438.3z"/>
			<path class="st0" d="M933.8,446.2l-16.1-6c2.2,1,4.8,2.1,7.6,3.2c3,1.1,5.8,2.1,8.3,2.9C933.7,446.2,933.7,446.2,933.8,446.2z"/>
			<path class="st0" d="M934.6,452.5c-0.4-2.1-0.6-4.1-0.7-6.2c1.9-0.8,4.1-1.5,6-2.3"/>
			<path class="st0" d="M936.9,453.6c-2.5-2.3-3.5-4.7-2.5-6.6c0.5-1,2.4-1.4,4.2-1.8c1.8-0.3,4.4-0.2,6.5,0.7"/>
			<path class="st0" d="M944.3,447c-2.8-2.1-7.3-1.4-9.1-0.5c-1,0.5-0.4,1.8-0.1,2.7c0.4,1,0.9,2,2.1,3"/>
			<path class="st0" d="M938.5,452c-0.4-1.8-1.5-3.6-3.3-5.4c2.3-0.1,5.6,0.8,7.8,1.9"/>
			<path class="st0" d="M944.9,447.3c-1.3-0.8-3.1-1.2-4.7-1.3c-1.6-0.1-2.9,0.1-4.2,0.4c-0.2,0.9-0.4,2.1,0,3.1
				c0.4,1,1.5,2.1,3.2,2.9"/>
			<path class="st0" d="M941.2,449.2c-1.7-1-3.6-1.9-5.5-2.7C937.7,448.2,939.1,447.4,941.2,449.2z"/>
		</g>
	</g>
	<g>
		<g>
			<path class="st0" d="M914,438.3c0.1-0.2,1,0,2,0.5s1.7,1.1,1.6,1.3c-0.1,0.2-1,0-2-0.5C914.7,439.1,913.9,438.5,914,438.3z"/>
			<path class="st0" d="M933.8,446.2l-16.1-6c2.2,1,4.8,2.1,7.6,3.2c3,1.1,5.8,2.1,8.3,2.9C933.7,446.2,933.7,446.2,933.8,446.2z"/>
			<path class="st0" d="M934.6,452.5c-0.4-2.1-0.6-4.1-0.7-6.2c1.9-0.8,4.1-1.5,6-2.3"/>
			<path class="st0" d="M936.9,453.6c-2.5-2.3-3.5-4.7-2.5-6.6c0.5-1,2.4-1.4,4.2-1.8c1.8-0.3,4.4-0.2,6.5,0.7"/>
			<path class="st0" d="M944.3,447c-2.8-2.1-7.3-1.4-9.1-0.5c-1,0.5-0.4,1.8-0.1,2.7c0.4,1,0.9,2,2.1,3"/>
			<path class="st0" d="M938.5,452c-0.4-1.8-1.5-3.6-3.3-5.4c2.3-0.1,5.6,0.8,7.8,1.9"/>
			<path class="st0" d="M944.9,447.3c-1.3-0.8-3.1-1.2-4.7-1.3c-1.6-0.1-2.9,0.1-4.2,0.4c-0.2,0.9-0.4,2.1,0,3.1
				c0.4,1,1.5,2.1,3.2,2.9"/>
			<path class="st0" d="M941.2,449.2c-1.7-1-3.6-1.9-5.5-2.7C937.7,448.2,939.1,447.4,941.2,449.2z"/>
		</g>
		<g>
			<path class="st0" d="M914,438.3c0.1-0.2,1,0,2,0.5s1.7,1.1,1.6,1.3c-0.1,0.2-1,0-2-0.5C914.7,439.1,913.9,438.5,914,438.3z"/>
			<path class="st0" d="M933.8,446.2l-16.1-6c2.2,1,4.8,2.1,7.6,3.2c3,1.1,5.8,2.1,8.3,2.9C933.7,446.2,933.7,446.2,933.8,446.2z"/>
			<path class="st0" d="M934.6,452.5c-0.4-2.1-0.6-4.1-0.7-6.2c1.9-0.8,4.1-1.5,6-2.3"/>
			<path class="st0" d="M936.9,453.6c-2.5-2.3-3.5-4.7-2.5-6.6c0.5-1,2.4-1.4,4.2-1.8c1.8-0.3,4.4-0.2,6.5,0.7"/>
			<path class="st0" d="M944.3,447c-2.8-2.1-7.3-1.4-9.1-0.5c-1,0.5-0.4,1.8-0.1,2.7c0.4,1,0.9,2,2.1,3"/>
			<path class="st0" d="M938.5,452c-0.4-1.8-1.5-3.6-3.3-5.4c2.3-0.1,5.6,0.8,7.8,1.9"/>
			<path class="st0" d="M944.9,447.3c-1.3-0.8-3.1-1.2-4.7-1.3c-1.6-0.1-2.9,0.1-4.2,0.4c-0.2,0.9-0.4,2.1,0,3.1
				c0.4,1,1.5,2.1,3.2,2.9"/>
			<path class="st0" d="M941.2,449.2c-1.7-1-3.6-1.9-5.5-2.7C937.7,448.2,939.1,447.4,941.2,449.2z"/>
		</g>
	</g>
</g>
<text transform="matrix(1 0 0 1 752.0146 560.8721)" class="st6 st7 st8 st9">   </text>
<text transform="matrix(1 0 0 1 752.0146 578.8721)" class="st6 st7 st8 st9">   </text>
<g>
	<g>
		<g>
			
				<ellipse transform="matrix(0.8378 -0.546 0.546 0.8378 -90.899 572.8462)" class="st5" cx="918.6" cy="439.4" rx="0.4" ry="1.9"/>
			<path class="st5" d="M930.3,454.1l-10.7-13c1.4,1.9,3,4.1,4.9,6.4c2,2.4,3.9,4.6,5.6,6.5C930.2,454.1,930.2,454.1,930.3,454.1z"
				/>
			<path class="st5" d="M927.6,460c0.8-2,1.7-3.9,2.7-5.7c2.1,0.2,4.3,0.7,6.4,0.9"/>
			<path class="st5" d="M929,462c-1-3.2-0.5-5.8,1.4-7c1-0.6,2.8-0.1,4.5,0.5c1.8,0.6,3.9,2,5.2,3.8"/>
			<path class="st5" d="M938.9,459.9c-1.4-3.1-5.5-4.7-7.5-4.9c-1.1-0.1-1.3,1.4-1.5,2.3c-0.2,1-0.3,2.2,0.2,3.6"/>
			<path class="st5" d="M931.3,461.5c0.6-1.7,0.6-3.9,0-6.3c2,1,4.5,3.4,5.7,5.4"/>
			<path class="st5" d="M939.2,460.5c-0.7-1.3-2-2.5-3.4-3.4c-1.3-0.8-2.6-1.3-3.8-1.7c-0.6,0.7-1.5,1.6-1.6,2.7
				c-0.2,1.1,0.1,2.6,1.2,4.1"/>
			<path class="st5" d="M935.1,460.3c-0.9-1.7-2-3.4-3.3-5C932.6,457.8,934.3,457.8,935.1,460.3z"/>
		</g>
		<g>
			
				<ellipse transform="matrix(0.8378 -0.546 0.546 0.8378 -90.899 572.8462)" class="st5" cx="918.6" cy="439.4" rx="0.4" ry="1.9"/>
			<path class="st5" d="M930.3,454.1l-10.7-13c1.4,1.9,3,4.1,4.9,6.4c2,2.4,3.9,4.6,5.6,6.5C930.2,454.1,930.2,454.1,930.3,454.1z"
				/>
			<path class="st5" d="M927.6,460c0.8-2,1.7-3.9,2.7-5.7c2.1,0.2,4.3,0.7,6.4,0.9"/>
			<path class="st5" d="M929,462c-1-3.2-0.5-5.8,1.4-7c1-0.6,2.8-0.1,4.5,0.5c1.8,0.6,3.9,2,5.2,3.8"/>
			<path class="st5" d="M938.9,459.9c-1.4-3.1-5.5-4.7-7.5-4.9c-1.1-0.1-1.3,1.4-1.5,2.3c-0.2,1-0.3,2.2,0.2,3.6"/>
			<path class="st5" d="M931.3,461.5c0.6-1.7,0.6-3.9,0-6.3c2,1,4.5,3.4,5.7,5.4"/>
			<path class="st5" d="M939.2,460.5c-0.7-1.3-2-2.5-3.4-3.4c-1.3-0.8-2.6-1.3-3.8-1.7c-0.6,0.7-1.5,1.6-1.6,2.7
				c-0.2,1.1,0.1,2.6,1.2,4.1"/>
			<path class="st5" d="M935.1,460.3c-0.9-1.7-2-3.4-3.3-5C932.6,457.8,934.3,457.8,935.1,460.3z"/>
		</g>
	</g>
	<g>
		<g>
			
				<ellipse transform="matrix(0.8378 -0.546 0.546 0.8378 -90.899 572.8462)" class="st5" cx="918.6" cy="439.4" rx="0.4" ry="1.9"/>
			<path class="st5" d="M930.3,454.1l-10.7-13c1.4,1.9,3,4.1,4.9,6.4c2,2.4,3.9,4.6,5.6,6.5C930.2,454.1,930.2,454.1,930.3,454.1z"
				/>
			<path class="st5" d="M927.6,460c0.8-2,1.7-3.9,2.7-5.7c2.1,0.2,4.3,0.7,6.4,0.9"/>
			<path class="st5" d="M929,462c-1-3.2-0.5-5.8,1.4-7c1-0.6,2.8-0.1,4.5,0.5c1.8,0.6,3.9,2,5.2,3.8"/>
			<path class="st5" d="M938.9,459.9c-1.4-3.1-5.5-4.7-7.5-4.9c-1.1-0.1-1.3,1.4-1.5,2.3c-0.2,1-0.3,2.2,0.2,3.6"/>
			<path class="st5" d="M931.3,461.5c0.6-1.7,0.6-3.9,0-6.3c2,1,4.5,3.4,5.7,5.4"/>
			<path class="st5" d="M939.2,460.5c-0.7-1.3-2-2.5-3.4-3.4c-1.3-0.8-2.6-1.3-3.8-1.7c-0.6,0.7-1.5,1.6-1.6,2.7
				c-0.2,1.1,0.1,2.6,1.2,4.1"/>
			<path class="st5" d="M935.1,460.3c-0.9-1.7-2-3.4-3.3-5C932.6,457.8,934.3,457.8,935.1,460.3z"/>
		</g>
		<g>
			
				<ellipse transform="matrix(0.8378 -0.546 0.546 0.8378 -90.899 572.8462)" class="st5" cx="918.6" cy="439.4" rx="0.4" ry="1.9"/>
			<path class="st5" d="M930.3,454.1l-10.7-13c1.4,1.9,3,4.1,4.9,6.4c2,2.4,3.9,4.6,5.6,6.5C930.2,454.1,930.2,454.1,930.3,454.1z"
				/>
			<path class="st5" d="M927.6,460c0.8-2,1.7-3.9,2.7-5.7c2.1,0.2,4.3,0.7,6.4,0.9"/>
			<path class="st5" d="M929,462c-1-3.2-0.5-5.8,1.4-7c1-0.6,2.8-0.1,4.5,0.5c1.8,0.6,3.9,2,5.2,3.8"/>
			<path class="st5" d="M938.9,459.9c-1.4-3.1-5.5-4.7-7.5-4.9c-1.1-0.1-1.3,1.4-1.5,2.3c-0.2,1-0.3,2.2,0.2,3.6"/>
			<path class="st5" d="M931.3,461.5c0.6-1.7,0.6-3.9,0-6.3c2,1,4.5,3.4,5.7,5.4"/>
			<path class="st5" d="M939.2,460.5c-0.7-1.3-2-2.5-3.4-3.4c-1.3-0.8-2.6-1.3-3.8-1.7c-0.6,0.7-1.5,1.6-1.6,2.7
				c-0.2,1.1,0.1,2.6,1.2,4.1"/>
			<path class="st5" d="M935.1,460.3c-0.9-1.7-2-3.4-3.3-5C932.6,457.8,934.3,457.8,935.1,460.3z"/>
		</g>
	</g>
</g>
</svg>
