<?xml version="1.0" encoding="utf-8"?>
<!-- Generator: Adobe Illustrator 25.0.0, SVG Export Plug-In . SVG Version: 6.00 Build 0)  -->
<svg version="1.1" id="Calque_1" xmlns="http://www.w3.org/2000/svg" xmlns:xlink="http://www.w3.org/1999/xlink" x="0px" y="0px"
	 viewBox="0 0 595.3 841.9" style="enable-background:new 0 0 595.3 841.9;" xml:space="preserve">
<style type="text/css">
	.st0{fill:#FFFFFF;stroke:#000000;stroke-width:0.25;stroke-miterlimit:9.9984;}
	.st1{fill:#FFFFFF;stroke:#000000;stroke-width:0.25;stroke-miterlimit:10;}
	.st2{fill:none;stroke:#000000;stroke-width:0.25;stroke-miterlimit:10;}
	.st3{fill:#463F32;}
	.st4{font-family:'Apple-Chancery';}
	.st5{font-size:15px;}
	.st6{letter-spacing:30;}
</style>
<g>
	<g>
		<g>
			
				<ellipse transform="matrix(0.6515 -0.7586 0.7586 0.6515 -137.2213 349.8163)" class="st0" cx="312.2" cy="324.3" rx="1.3" ry="3.6"/>
			<path class="st1" d="M341.7,339.9l-26.6-13.1c3.6,2.4,7.7,4.9,12.4,7.3c4.9,2.5,9.6,4.5,13.9,6C341.5,340,341.6,340,341.7,339.9z
				"/>
			<path class="st2" d="M340,361.2c0.4-6.9,1-13.9,1.9-20.8c3.9-3.8,8.3-7,12.2-10.8"/>
			<path class="st2" d="M343.5,363.9c-3.5-6.6-4-14.6-1.2-21.5c1.4-3.6,5.1-6,8.6-8s8.1-2.6,11.7-0.7"/>
			<path class="st2" d="M360.7,337.8c-4.2-5.7-12.7-1.4-16.4,2.3c-2.1,2.1-1.7,6.5-1.6,9.4c0.1,3.3,0.6,6.5,2.3,9.4"/>
			<path class="st2" d="M347.4,357.7c0.1-5.8-1-11.6-3.3-16.9c4.3-1.5,10-0.1,13.3,3"/>
			<path class="st2" d="M361.5,338.8c-1.9-2-5.1-2.6-8-2.2c-2.9,0.4-5.4,1.8-7.9,3.2c-0.8,3.2-1.8,7.4-1.6,10.7
				c0.2,3.3,1.6,6.6,4.4,8.5"/>
			<path class="st2" d="M353.8,346.7c-2.6-2.6-5.6-4.9-8.8-6.8C347.9,345,351,341.6,353.8,346.7z"/>
		</g>
		<g>
			
				<ellipse transform="matrix(0.6515 -0.7586 0.7586 0.6515 -137.2213 349.8163)" class="st0" cx="312.2" cy="324.3" rx="1.3" ry="3.6"/>
			<path class="st1" d="M341.7,339.9l-26.6-13.1c3.6,2.4,7.7,4.9,12.4,7.3c4.9,2.5,9.6,4.5,13.9,6C341.5,340,341.6,340,341.7,339.9z
				"/>
			<path class="st2" d="M340,361.2c0.4-6.9,1-13.9,1.9-20.8c3.9-3.8,8.3-7,12.2-10.8"/>
			<path class="st2" d="M343.5,363.9c-3.5-6.6-4-14.6-1.2-21.5c1.4-3.6,5.1-6,8.6-8s8.1-2.6,11.7-0.7"/>
			<path class="st2" d="M360.7,337.8c-4.2-5.7-12.7-1.4-16.4,2.3c-2.1,2.1-1.7,6.5-1.6,9.4c0.1,3.3,0.6,6.5,2.3,9.4"/>
			<path class="st2" d="M347.4,357.7c0.1-5.8-1-11.6-3.3-16.9c4.3-1.5,10-0.1,13.3,3"/>
			<path class="st2" d="M361.5,338.8c-1.9-2-5.1-2.6-8-2.2c-2.9,0.4-5.4,1.8-7.9,3.2c-0.8,3.2-1.8,7.4-1.6,10.7
				c0.2,3.3,1.6,6.6,4.4,8.5"/>
			<path class="st2" d="M353.8,346.7c-2.6-2.6-5.6-4.9-8.8-6.8C347.9,345,351,341.6,353.8,346.7z"/>
		</g>
	</g>
	<g>
		<g>
			
				<ellipse transform="matrix(0.6515 -0.7586 0.7586 0.6515 -137.2213 349.8163)" class="st0" cx="312.2" cy="324.3" rx="1.3" ry="3.6"/>
			<path class="st1" d="M341.7,339.9l-26.6-13.1c3.6,2.4,7.7,4.9,12.4,7.3c4.9,2.5,9.6,4.5,13.9,6C341.5,340,341.6,340,341.7,339.9z
				"/>
			<path class="st2" d="M340,361.2c0.4-6.9,1-13.9,1.9-20.8c3.9-3.8,8.3-7,12.2-10.8"/>
			<path class="st2" d="M343.5,363.9c-3.5-6.6-4-14.6-1.2-21.5c1.4-3.6,5.1-6,8.6-8s8.1-2.6,11.7-0.7"/>
			<path class="st2" d="M360.7,337.8c-4.2-5.7-12.7-1.4-16.4,2.3c-2.1,2.1-1.7,6.5-1.6,9.4c0.1,3.3,0.6,6.5,2.3,9.4"/>
			<path class="st2" d="M347.4,357.7c0.1-5.8-1-11.6-3.3-16.9c4.3-1.5,10-0.1,13.3,3"/>
			<path class="st2" d="M361.5,338.8c-1.9-2-5.1-2.6-8-2.2c-2.9,0.4-5.4,1.8-7.9,3.2c-0.8,3.2-1.8,7.4-1.6,10.7
				c0.2,3.3,1.6,6.6,4.4,8.5"/>
			<path class="st2" d="M353.8,346.7c-2.6-2.6-5.6-4.9-8.8-6.8C347.9,345,351,341.6,353.8,346.7z"/>
		</g>
		<g>
			
				<ellipse transform="matrix(0.6515 -0.7586 0.7586 0.6515 -137.2213 349.8163)" class="st0" cx="312.2" cy="324.3" rx="1.3" ry="3.6"/>
			<path class="st1" d="M341.7,339.9l-26.6-13.1c3.6,2.4,7.7,4.9,12.4,7.3c4.9,2.5,9.6,4.5,13.9,6C341.5,340,341.6,340,341.7,339.9z
				"/>
			<path class="st2" d="M340,361.2c0.4-6.9,1-13.9,1.9-20.8c3.9-3.8,8.3-7,12.2-10.8"/>
			<path class="st2" d="M343.5,363.9c-3.5-6.6-4-14.6-1.2-21.5c1.4-3.6,5.1-6,8.6-8s8.1-2.6,11.7-0.7"/>
			<path class="st2" d="M360.7,337.8c-4.2-5.7-12.7-1.4-16.4,2.3c-2.1,2.1-1.7,6.5-1.6,9.4c0.1,3.3,0.6,6.5,2.3,9.4"/>
			<path class="st2" d="M347.4,357.7c0.1-5.8-1-11.6-3.3-16.9c4.3-1.5,10-0.1,13.3,3"/>
			<path class="st2" d="M361.5,338.8c-1.9-2-5.1-2.6-8-2.2c-2.9,0.4-5.4,1.8-7.9,3.2c-0.8,3.2-1.8,7.4-1.6,10.7
				c0.2,3.3,1.6,6.6,4.4,8.5"/>
			<path class="st2" d="M353.8,346.7c-2.6-2.6-5.6-4.9-8.8-6.8C347.9,345,351,341.6,353.8,346.7z"/>
		</g>
	</g>
</g>
<text transform="matrix(1 0 0 1 111.7822 328.3835)" class="st3 st4 st5 st6">   </text>
</svg>
