<?xml version="1.0" encoding="utf-8"?>
<!-- Generator: Adobe Illustrator 25.0.0, SVG Export Plug-In . SVG Version: 6.00 Build 0)  -->
<svg version="1.1" id="Calque_1" xmlns="http://www.w3.org/2000/svg" xmlns:xlink="http://www.w3.org/1999/xlink" x="0px" y="0px"
	 viewBox="0 0 595.3 841.9" style="enable-background:new 0 0 595.3 841.9;" xml:space="preserve">
<style type="text/css">
	.st0{fill:#FFFFFF;stroke:#000000;stroke-width:0.25;stroke-miterlimit:9.9985;}
	.st1{fill:#FFFFFF;stroke:#000000;stroke-width:0.25;stroke-miterlimit:10;}
	.st2{fill:none;stroke:#000000;stroke-width:0.25;stroke-miterlimit:10;}
	.st3{fill:#463F32;}
	.st4{font-family:'Apple-Chancery';}
	.st5{font-size:15px;}
	.st6{letter-spacing:30;}
</style>
<g>
	<g>
		<g>
			
				<ellipse transform="matrix(0.4617 -0.887 0.887 0.4617 -229.8155 436.067)" class="st0" cx="244.4" cy="407.4" rx="3.5" ry="1.3"/>
			<path class="st1" d="M251.8,376l-5.8,28.1c1.4-3.9,2.8-8.4,3.9-13.4c1.1-5.2,1.8-10,2.2-14.4C252,376.2,251.9,376.1,251.8,376z"
				/>
			<path class="st2" d="M273.7,371.7c-7.1,1.6-14.2,2.9-21.4,4.1c-4.9-2.5-9.4-5.7-14.2-8.2"/>
			<path class="st2" d="M275.5,367.7c-5.6,5-13.5,7.7-21.3,7.1c-4.1-0.3-7.5-3-10.4-5.7c-3-2.7-4.9-6.7-3.9-10.5"/>
			<path class="st2" d="M244.4,359.2c-4.6,5.4,2.1,12,7,14.4c2.7,1.4,7-0.2,9.9-1.1c3.2-1,6.4-2.4,8.8-4.8"/>
			<path class="st2" d="M268.1,365.8c-5.8,1.5-11.4,4.1-16.1,7.8c-2.8-3.5-2.9-9.2-0.7-13.1"/>
			<path class="st2" d="M245.2,358.2c-1.5,2.3-1.2,5.4,0.1,7.9s3.4,4.5,5.4,6.4c3.4-0.1,7.9-0.4,11.2-1.5c3.2-1.1,6.2-3.3,7.4-6.4"
				/>
			<path class="st2" d="M255.3,363c-1.9,3.1-3.4,6.5-4.3,10C255.2,368.9,251,367.1,255.3,363z"/>
		</g>
		<g>
			
				<ellipse transform="matrix(0.4617 -0.887 0.887 0.4617 -229.8155 436.067)" class="st0" cx="244.4" cy="407.4" rx="3.5" ry="1.3"/>
			<path class="st1" d="M251.8,376l-5.8,28.1c1.4-3.9,2.8-8.4,3.9-13.4c1.1-5.2,1.8-10,2.2-14.4C252,376.2,251.9,376.1,251.8,376z"
				/>
			<path class="st2" d="M273.7,371.7c-7.1,1.6-14.2,2.9-21.4,4.1c-4.9-2.5-9.4-5.7-14.2-8.2"/>
			<path class="st2" d="M275.5,367.7c-5.6,5-13.5,7.7-21.3,7.1c-4.1-0.3-7.5-3-10.4-5.7c-3-2.7-4.9-6.7-3.9-10.5"/>
			<path class="st2" d="M244.4,359.2c-4.6,5.4,2.1,12,7,14.4c2.7,1.4,7-0.2,9.9-1.1c3.2-1,6.4-2.4,8.8-4.8"/>
			<path class="st2" d="M268.1,365.8c-5.8,1.5-11.4,4.1-16.1,7.8c-2.8-3.5-2.9-9.2-0.7-13.1"/>
			<path class="st2" d="M245.2,358.2c-1.5,2.3-1.2,5.4,0.1,7.9s3.4,4.5,5.4,6.4c3.4-0.1,7.9-0.4,11.2-1.5c3.2-1.1,6.2-3.3,7.4-6.4"
				/>
			<path class="st2" d="M255.3,363c-1.9,3.1-3.4,6.5-4.3,10C255.2,368.9,251,367.1,255.3,363z"/>
		</g>
	</g>
	<g>
		<g>
			
				<ellipse transform="matrix(0.4617 -0.887 0.887 0.4617 -229.8155 436.067)" class="st0" cx="244.4" cy="407.4" rx="3.5" ry="1.3"/>
			<path class="st1" d="M251.8,376l-5.8,28.1c1.4-3.9,2.8-8.4,3.9-13.4c1.1-5.2,1.8-10,2.2-14.4C252,376.2,251.9,376.1,251.8,376z"
				/>
			<path class="st2" d="M273.7,371.7c-7.1,1.6-14.2,2.9-21.4,4.1c-4.9-2.5-9.4-5.7-14.2-8.2"/>
			<path class="st2" d="M275.5,367.7c-5.6,5-13.5,7.7-21.3,7.1c-4.1-0.3-7.5-3-10.4-5.7c-3-2.7-4.9-6.7-3.9-10.5"/>
			<path class="st2" d="M244.4,359.2c-4.6,5.4,2.1,12,7,14.4c2.7,1.4,7-0.2,9.9-1.1c3.2-1,6.4-2.4,8.8-4.8"/>
			<path class="st2" d="M268.1,365.8c-5.8,1.5-11.4,4.1-16.1,7.8c-2.8-3.5-2.9-9.2-0.7-13.1"/>
			<path class="st2" d="M245.2,358.2c-1.5,2.3-1.2,5.4,0.1,7.9s3.4,4.5,5.4,6.4c3.4-0.1,7.9-0.4,11.2-1.5c3.2-1.1,6.2-3.3,7.4-6.4"
				/>
			<path class="st2" d="M255.3,363c-1.9,3.1-3.4,6.5-4.3,10C255.2,368.9,251,367.1,255.3,363z"/>
		</g>
		<g>
			
				<ellipse transform="matrix(0.4617 -0.887 0.887 0.4617 -229.8155 436.067)" class="st0" cx="244.4" cy="407.4" rx="3.5" ry="1.3"/>
			<path class="st1" d="M251.9,376.1c-0.6,9.6-3.9,18.6-5.8,28C248,394.7,250.5,385.7,251.9,376.1z"/>
			<path class="st2" d="M273.7,371.7c-7.1,1.6-14.2,2.9-21.4,4.1c-4.9-2.5-9.4-5.7-14.2-8.2"/>
			<path class="st2" d="M275.5,367.7c-5.6,5-13.5,7.7-21.3,7.1c-4.1-0.3-7.5-3-10.4-5.7c-3-2.7-4.9-6.7-3.9-10.5"/>
			<path class="st2" d="M244.4,359.2c-4.6,5.4,2.1,12,7,14.4c2.7,1.4,7-0.2,9.9-1.1c3.2-1,6.4-2.4,8.8-4.8"/>
			<path class="st2" d="M268.1,365.8c-5.8,1.5-11.4,4.1-16.1,7.8c-2.8-3.5-2.9-9.2-0.7-13.1"/>
			<path class="st2" d="M245.2,358.2c-1.5,2.3-1.2,5.4,0.1,7.9s3.4,4.5,5.4,6.4c3.4-0.1,7.9-0.4,11.2-1.5c3.2-1.1,6.2-3.3,7.4-6.4"
				/>
			<path class="st2" d="M255.3,363c-1.9,3.1-3.4,6.5-4.3,10C255.2,368.9,251,367.1,255.3,363z"/>
		</g>
	</g>
</g>
<text transform="matrix(1 0 0 1 111.7822 328.3835)" class="st3 st4 st5 st6">   </text>
</svg>
