<?xml version="1.0" encoding="utf-8"?>
<!-- Generator: Adobe Illustrator 25.0.0, SVG Export Plug-In . SVG Version: 6.00 Build 0)  -->
<svg version="1.1" id="Calque_1" xmlns="http://www.w3.org/2000/svg" xmlns:xlink="http://www.w3.org/1999/xlink" x="0px" y="0px"
	 viewBox="0 0 1920 1080" style="enable-background:new 0 0 1920 1080;" xml:space="preserve">
<style type="text/css">
	.st0{fill:#431F4B;}
</style>
<g>
	<path class="st0" d="M954.5,334.8c7.8,0,15.5,0,23.2,0c1,0.2,1.9,0.5,2.9,0.6c28.8,2.2,56,10.2,80.8,25
		c51.1,30.4,82.4,74.8,93.4,133.3c1.3,7,2,14.1,2.9,21.1c0,7.8,0,15.5,0,23.2c-0.2,1.2-0.5,2.4-0.6,3.6c-1,7.5-1.7,15.1-3.1,22.6
		c-14.9,77.3-77.5,138.4-155.2,151.6c-7,1.2-14,2-21.1,2.9c-8,0-16,0-24,0c-0.8-0.2-1.6-0.6-2.5-0.6c-16.3-1.2-32.2-4.2-47.5-9.8
		c-69.7-25.8-112-75.3-127-148.1c-1.4-7.1-2-14.3-3-21.4c0-8,0-16,0-24c1-7,1.7-14.1,2.9-21.1C789.9,416,851,353.5,928.2,338.5
		C936.9,336.9,945.7,336,954.5,334.8z M936.5,493.1c0,45.1,0,89.7,0,134.6c13.8,0,27.4,0,41.3,0c0-1.7,0-3.1,0-4.6c0-21-0.1-42,0-63
		c0-7.5,0.6-15,4.1-21.9c4.5-9,13.4-13,25.4-11.5c8.4,1,14.2,6.7,16,16.4c0.9,5,1.4,10.2,1.5,15.3c0.2,21.6,0.1,43.2,0.1,64.9
		c0,1.4,0,2.9,0,4.3c14.2,0,27.9,0,41.7,0c0.1-1.2,0.2-2.2,0.2-3.2c0-24,0.3-48-0.1-72c-0.2-9.6-1.1-19.2-2.9-28.6
		c-3.1-15.8-11.9-27.5-28.2-31.8c-6.7-1.7-13.8-2.6-20.7-2.4c-15.6,0.4-28.5,6.7-37.2,20.3c-0.2,0.3-0.6,0.5-1.6,1.3
		c0-6.6,0-12.4,0-18.1C962.7,493.1,949.8,493.1,936.5,493.1z M868.3,493.1c0,45.1,0,89.7,0,134.6c13.9,0,27.5,0,41.3,0
		c0-45,0-89.7,0-134.6C895.8,493.1,882.2,493.1,868.3,493.1z M888.6,474.4c13.6,0.1,24.6-10.8,24.7-24.3c0-13.3-11-24.3-24.3-24.4
		s-24.4,10.9-24.4,24.2C864.4,463.4,875.2,474.3,888.6,474.4z"/>
</g>
</svg>
