<?xml version="1.0" encoding="utf-8"?>
<!-- Generator: Adobe Illustrator 25.0.0, SVG Export Plug-In . SVG Version: 6.00 Build 0)  -->
<svg version="1.1" id="Calque_1" xmlns="http://www.w3.org/2000/svg" xmlns:xlink="http://www.w3.org/1999/xlink" x="0px" y="0px"
	 viewBox="0 0 1920 1080" style="enable-background:new 0 0 1920 1080;" xml:space="preserve">
<style type="text/css">
	.st0{fill:#FEFEFE;}
	.st1{fill:#8E8E8E;}
	.st2{fill:#2A2A2A;}
</style>
<g>
	<path class="st0" d="M1258.5,593.6c0,61.1,0,122.1,0.1,183.2c0,2.6-0.5,3.1-3.1,3.1c-125.8-0.1-251.7-0.1-377.5,0
		c-2.6,0-3.1-0.5-3.1-3.1c0.1-125.8,0.1-251.7,0-377.5c0-2.6,0.5-3.1,3.1-3.1c125.8,0.1,251.7,0.1,377.5,0c2.6,0,3.1,0.5,3.1,3.1
		c-0.1,56.8-0.1,113.6-0.1,170.4c-2.5,0.2-2.3-1.7-2.6-3.2c-1-6-2-12-3.6-17.9c-5.1-19.6-14.3-37-27.6-52.4
		c-10-11.5-22.5-20-34.3-29.3c-10.7-8.4-21.5-16.6-32.3-24.8c-4.2-3.2-4.5-4.5-1.2-8.9c5.7-7.7,9.7-16.2,13.3-25
		c0.2-0.5,0.4-0.9,0.5-1.4c0.3-1,1.1-2.5-0.2-3c-1.3-0.5-1.8,1.1-2.2,2c-2.4,6.1-5,12.2-8.5,17.9c-8.5,14-20.4,24.6-34,33.5
		c-18.2,11.8-38.7,17.4-59.7,21.6c-22.2,4.4-44.4,9-66.6,13.7c-37.8,8.1-65.6,38.3-69.5,77c-2.5,24.8,4.8,47,21.1,66.1
		c16,18.8,33.1,36.5,47.6,56.5c5.7,7.9,11,16,14.4,25.2c3.7,10.1,5,20.3,0.4,30.5c-5.5,12.2-15.9,17.6-28.3,20.1
		c-1.2,0.2-2.5-0.2-3.4,1.3c1,1.3,2.4,1.1,3.7,1c17-2.4,31.9-13.4,33.5-33.5c0.8-9.4-2-18.2-6.1-26.6c-6.7-13.6-16-25.5-25.7-37.1
		c-11.6-14-24.1-27.2-35.7-41.2c-11.1-13.5-17.5-29-18.8-46.7c-1.2-15.8,1.6-30.7,8.6-44.8c8.9-17.6,22.3-30.6,40.2-39.1
		c5.5-2.6,7.2-1.5,7.3,4.6c0.1,30.4,0,60.8,0.1,91.2c0,14.1,2.6,27.7,8.3,40.7c5.9,13.5,14.9,24.7,25.9,34.3c4.8,4.2,9.3,8.6,14,13
		c12.6,11.8,25.4,23.5,37.9,35.5c8.4,8.1,18.3,12.3,30,11.9c4.7-0.2,9.5,0.3,14.2-0.3c9.3-1.2,16.8-5.8,23.5-12.1
		c10.2-9.7,20.6-19.2,31-28.7c1.1-1,2.2-2.2,3.9-1.6c1.9,0.7,1.9,2.5,1.9,4.1c0.3,11.6,0.6,23.1,3,34.5c3.1,14.8,8.7,28.5,16.9,41.2
		c0.1,0.2,0.2,0.4,0.4,0.6c0.7,0.8,1.3,2.3,2.5,1.6c1.2-0.8,0.2-2-0.4-2.9c-4.2-6.6-7.9-13.5-10.9-20.9c-5.6-14-8.6-28.6-8.5-43.7
		c0-6.2,0.3-12.5-0.2-18.7c-0.2-1.9,0.9-3,2-4.2c4.4-5,9.7-9,14.3-13.6c17.1-17,27.2-37.2,29-61.4c0.3-4.4,0.6-8.7,0.6-13
		c0-25,0-50.1,0-75.1c0-1.7-0.1-3.5,0.2-5.2c0.2-1.2,0.6-2.2,1.9-2.5c1.1-0.3,1.9,0.4,2.6,1.2c1.9,2.1,3.2,4.5,4.5,6.9
		c10.2,18.8,16.1,38.7,16.3,60.3c0.2,18.9-3.3,36.9-10.8,54.1c-0.2,0.5,0-0.1-0.1,0.3c-0.3,1.1-1.6,2.6,0,3.2
		c1.4,0.5,1.9-1.3,2.4-2.3c2.5-5.3,4.6-10.8,6.1-16.4c1.7-6.3,3.2-12.5,4.1-19C1255.6,596.6,1255.1,593.7,1258.5,593.6z"/>
	<path class="st1" d="M1258.5,593.6c-1.6,3-1.5,6.4-2,9.6c-2,11.9-5.7,23.2-10.8,34c-0.1,0.2-0.2,0.5-0.3,0.7
		c-0.9,1.8-2.2,3.3-4.4,2.4c-2.4-1-2.4-2.9-1.4-5c2.9-6.3,5.6-12.8,7.4-19.5c9.9-36.3,5.1-70.5-14.9-102.5c-0.4-0.7-1-1.4-1.9-2.7
		c-0.1,2-0.2,3.3-0.2,4.6c0,27.3,0,54.6,0,81.9c0,20.3-5.2,39.1-16.6,56c-6.1,9.1-13.7,16.8-22.1,23.7c-5.4,4.4-7.1,9.2-7.1,16.1
		c0.1,17.8,1.2,35.3,7.7,52.1c3,7.7,6.6,15,11.2,21.9c0.8,1.1,1.5,2.3,2.2,3.4c1.1,1.8,1.4,3.6-0.6,4.9c-2,1.4-3.5,0.3-4.7-1.4
		c-3.8-5.5-7.3-11.3-10.2-17.4c-8.3-17.3-11.9-35.5-12-54.6c0-3.7,0-7.4,0-11.2c-1.9,0-2.5,1.4-3.5,2.3
		c-12.1,10.9-23.6,22.5-36.1,33c-5.5,4.6-12,7.4-19,7.9c-12,0.8-24.2,1.9-35.4-4.4c-2.9-1.6-5.5-3.5-7.9-5.6
		c-20.3-18.9-40.9-37.6-60.8-57c-19.3-18.8-28-42.2-28.1-69c-0.1-30.8,0-61.5,0-92.3c0-1.4,0-2.7,0-4.5c-8.4,3.1-15.6,7.3-22.1,12.8
		c-27.9,23.6-37.5,57.8-25.8,92.4c3.3,9.7,8.5,18.3,15.1,26c16.3,19,33.6,37.2,48.3,57.4c7.9,10.9,15,22.4,17.6,35.9
		c5.5,28.1-15.7,46.2-38.2,47c-2.2,0.1-4.5-0.1-4.6-3c-0.1-2.9,2.1-3.2,4.4-3.3c16-0.9,28.4-10.1,31.9-24.1c2.8-11-0.5-21.2-5.3-31
		c-5.6-11.5-13.3-21.6-21.5-31.4c-12.3-14.6-24.8-28.9-37.4-43.3c-35.6-40.6-26-105.2,19.7-133.9c12.7-8,26.8-11.6,41.3-14.5
		c23.8-4.8,47.6-9.5,71.2-14.9c24.3-5.6,46-16.5,63.9-34.3c9.3-9.2,15.7-20.2,20.3-32.3c0.7-1.7,1.4-3.5,2.2-5.2
		c0.8-1.6,2.1-2.6,3.9-1.9c2,0.7,2.4,2.4,1.9,4.3c-0.2,0.8-0.6,1.6-0.9,2.4c-4.4,10.5-8.6,21-16.1,29.7c-1.9,2.2,0.2,2.8,1.3,3.6
		c14.4,11.1,28.7,22.3,43.2,33.3c14,10.5,26.5,22.2,36,37c11.2,17.5,17.9,36.6,20.2,57.2c0.1,0.9-0.4,2,0.8,2.7c0,1,0,2,0,3
		c-0.6,5.2-0.6,10.5,0,15.7C1258.5,590.1,1258.5,591.8,1258.5,593.6z"/>
	<path class="st2" d="M1258.5,588.3c-1.2-5.2-1.2-10.5,0-15.7C1258.5,577.9,1258.5,583.1,1258.5,588.3z"/>
	<path class="st1" d="M986.4,744.7c0.4-9.8-4.3-17.4-10.8-24.1c-10.4-10.6-23.5-17-36.8-23c-11.7-5.3-23.8-9.6-35-15.8
		c-13.8-7.5-23.5-18.6-27.6-34.1c-0.6-2.2-0.6-4.1,1.9-4.8c2.5-0.7,3.7,0.9,4.2,3c4.5,16.8,16,27,31.3,33.8
		c13.1,5.8,26.4,11.1,39.2,17.5c10.5,5.2,20.4,11.5,28.6,20c7.6,7.9,12.1,17,11.7,28.1c0,1.4-0.2,2.7-0.6,4
		c-0.4,1.7-1.8,2.4-3.4,2.1c-1.5-0.2-2.5-1.2-2.6-2.7C986.3,747.4,986.4,746,986.4,744.7z"/>
	<path class="st1" d="M926.2,489.7c-0.6-25.8,6.7-49.3,21.8-70.2c1.3-1.8,2.8-3.1,5-1.6c2.1,1.5,1.5,3.5,0.2,5.2
		c-7.8,10.9-13.7,22.8-17.1,35.8c-3.7,14-4.6,28.2-2.4,42.5c0.2,1.5,0.4,3,0.6,4.4c0.2,2.1-0.1,3.9-2.6,4.2
		c-2.3,0.2-3.4-1.1-3.7-3.3C927.1,501.1,926.2,495.4,926.2,489.7z"/>
	<path class="st1" d="M953.5,487.8c-0.1,0.3-0.2,0.9-0.5,1.5c-2.6,6.6-4.6,13.4-6.1,20.2c-0.5,2.4-1.7,4-4.3,3.3
		c-2.6-0.7-2.3-2.8-1.8-4.9c1.6-7.3,3.8-14.4,6.5-21.3c0.7-1.8,1.7-3.1,3.8-2.7C952.9,484.2,953.7,485.6,953.5,487.8z"/>
	<path class="st1" d="M1119.2,424.7c-2.8,0-4.3-2.4-3-4.7c1.9-3.3,4.1-6.5,6.2-9.7c0.9-1.4,2.4-1.8,3.9-1c1.3,0.7,2.2,2,1.6,3.4
		c-1.7,4.3-4.3,8.1-7.4,11.4C1120.2,424.5,1119.5,424.5,1119.2,424.7z"/>
	<path class="st0" d="M993.3,558.1c0-20.9,0.1-38.5-0.1-56.1c0-2.6,0.8-3.7,3.3-4.2c23.8-4.9,47.5-10,71.2-14.8
		c19.6-4,38.7-9.4,56.1-19.5c9.2-5.3,17.7-11.6,25.2-19.1c1.1-1.1,2-2.3,3.9-0.7c19.9,15.6,40.5,30.3,59.7,46.7
		c3.5,3,6.4,6.6,9.6,9.9c1,1,1.1,2.1,1.1,3.4c-0.1,33.1,0.3,66.3-0.3,99.4c-0.4,24.8-10.9,45.4-28.8,62.3
		c-18.8,17.7-37.7,35.2-56.5,52.8c-7.2,6.7-15.6,9.9-25.4,9.9c-8.7,0-17.5,0.4-25.5-4.1c-2.5-1.4-4.9-3-7-5
		c-21-19.7-42.6-38.7-62.8-59.2c-14.6-14.9-22.3-33.4-23.5-54.3C992.7,588.6,993.7,571.6,993.3,558.1z"/>
	<path class="st1" d="M1063.6,458.1c-2,0-3.6-0.8-3.8-2.9c-0.3-2.3,1.4-3.3,3.4-3.7c9.1-1.6,17.8-4.6,26-9
		c5.4-2.9,10.4-6.3,15.1-10.2c1-0.9,2.1-1.8,3.5-1.9c1.4-0.1,2.5,0.5,3,1.7c0.8,1.8,0,3.1-1.3,4.3c-4.4,3.8-9.2,7.3-14.2,10.2
		c-9.5,5.6-19.8,9.3-30.6,11.3C1064.3,458,1064,458.1,1063.6,458.1z"/>
	<path class="st1" d="M1108.5,688.7c-14.5-0.5-25.9-6.5-34.3-18.3c-1.9-2.7-2-4.8,0-7.7c4.9-7.1,11.2-12.2,19.1-15.5
		c3.6-1.5,7.3-1.8,10.8-0.1c2.9,1.4,5.6,1.5,8.5,0c6.3-3,11.6,0,16.8,2.9c5.7,3.3,10.2,7.9,13.8,13.4c1.5,2.2,1.3,4-0.1,6.1
		C1134.9,682,1123.3,688.3,1108.5,688.7z"/>
	<path class="st1" d="M1026.8,561.3c-4.5-3.4-9.1-3.8-13.9-2.1c-1.4,0.5-2.7,1.2-4.1,1.8c-2,0.8-3.7,0.7-4.7-1.4
		c-0.9-2,0.2-3.2,1.9-4.3c8.1-5.1,17.4-4.9,25.1,1c8.6,6.6,18,9.9,28.8,8.8c4.5-0.4,8.7-1.8,12.8-3.7c2.1-1,4.4-2,5.7,0.9
		c1.2,2.6-0.9,3.8-2.9,4.8c-12,6.2-24.4,6.3-36.8,1.4c-5.8-2.3-10.7-1.6-15.1,2.5c-1.8,1.7-3.7,3-5.7,0.8c-2-2.1-0.2-3.9,1.2-5.5
		C1021.2,564.1,1023.8,562.8,1026.8,561.3z"/>
	<path class="st1" d="M1190.5,561.4c3,1.4,5.8,3,8,5.4c1.4,1.6,2.5,3.4,0.5,5.2c-1.7,1.5-3.4,0.9-4.9-0.6c-4.8-4.8-10-5.4-16.3-2.8
		c-12,4.8-24.1,4.4-35.8-1.4c-2.1-1-3.9-2.3-2.7-4.8c1.2-2.6,3.4-1.9,5.5-0.9c14.4,6.5,27.9,4.9,40.4-4.6c8.3-6.3,16.8-6.7,25.8-1.8
		c1.8,1,3.2,2.1,2.3,4.4c-1,2.4-2.9,2.2-5,1.3C1199.7,557.3,1195.7,557.4,1190.5,561.4z"/>
	<path class="st1" d="M1206.3,515.9c-5.7-1.2-11.9-2.7-18.2-3.4c-10-1-19.9-0.9-29.5,2.1c-6.6,2-12.2,5.5-15.6,11.8
		c-1,1.9-2.4,3.5-4.7,2.2c-2.5-1.4-1.8-3.5-0.7-5.5c4.7-8.7,12.6-13.2,21.8-15.5c14.7-3.7,29.4-2.4,43.9,1c1.6,0.4,3.1,0.7,4.7,1.1
		c2,0.5,3.1,1.6,2.8,3.7C1210.5,515.4,1209.3,516.1,1206.3,515.9z"/>
	<path class="st1" d="M1038.9,512c-9-0.2-17.6,1.4-26,3.4c-1,0.2-1.9,0.4-2.9,0.6c-1.8,0.2-3.3-0.4-3.7-2.3
		c-0.5-2.1,0.6-3.4,2.6-3.8c5.9-1.4,11.8-2.8,17.9-3.5c12-1.4,23.8-1.3,35.4,2.8c7.6,2.7,13.9,7.2,17.7,14.6c1,1.9,1.2,3.7-0.8,4.9
		c-2.1,1.2-3.7,0.2-4.6-1.7c-5-9.3-13.8-12.3-23.4-14C1046.9,512.1,1042.8,511.7,1038.9,512z"/>
	<path class="st1" d="M1109.1,633.6c-6.2-0.1-11-1.9-15.2-5.6c-1.5-1.3-2.1-2.9-0.9-4.6c1.4-1.9,3.1-1.6,4.9-0.4
		c8.7,5.8,13,5.8,21.3,0.1c1.8-1.2,3.5-1.7,4.9,0.2c1.4,1.8,0.7,3.4-0.9,4.8C1118.9,631.7,1114,633.5,1109.1,633.6z"/>
	<path class="st0" d="M1108.6,682.3c-11.1-0.4-20.3-4.6-27.5-13.4c-1.5-1.8-1.3-3,0.1-4.8c4-5,8.9-8.6,14.8-11
		c2.4-1,4.7-0.7,6.8,0.3c3.8,1.8,7.6,2,11.5,0c3.8-1.9,7.2-0.5,10.6,1.3c4.4,2.4,8.2,5.5,11.3,9.5c1.4,1.7,1.3,2.8,0,4.5
		C1129.1,677.6,1119.9,681.9,1108.6,682.3z"/>
</g>
</svg>
