<?xml version="1.0" encoding="utf-8"?>
<!-- Generator: Adobe Illustrator 25.0.0, SVG Export Plug-In . SVG Version: 6.00 Build 0)  -->
<svg version="1.1" id="Calque_1" xmlns="http://www.w3.org/2000/svg" xmlns:xlink="http://www.w3.org/1999/xlink" x="0px" y="0px"
	 viewBox="0 0 1920 1080" style="enable-background:new 0 0 1920 1080;" xml:space="preserve">
<style type="text/css">
	.st0{fill:#FEFEFE;}
	.st1{fill:#FDFDFD;}
	.st2{fill:#FCFCFC;}
	.st3{fill:#FBFBFB;}
	.st4{fill:#FAFAFA;}
	.st5{fill:#F6F6F6;}
	.st6{fill:#F9F9F9;}
	.st7{fill:#F1F1F1;}
	.st8{fill:#F8F8F8;}
	.st9{fill:#F7F7F7;}
	.st10{fill:#F5F5F5;}
	.st11{fill:#EBEBEB;}
	.st12{fill:#F4F4F4;}
	.st13{fill:#151515;}
	.st14{fill:#F3F3F3;}
	.st15{fill:#F2F2F2;}
	.st16{fill:#EFEFEF;}
	.st17{fill:#EAEAEA;}
	.st18{fill:#E9E9E9;}
	.st19{fill:#EDEDED;}
	.st20{fill:#CFCFCF;}
	.st21{fill:#E8E8E8;}
	.st22{fill:#E5E5E5;}
	.st23{fill:#E3E3E3;}
	.st24{fill:#ECECEC;}
	.st25{fill:#EEEEEE;}
	.st26{fill:#242424;}
	.st27{fill:#DEDEDE;}
	.st28{fill:#1F1F1F;}
	.st29{fill:#E6E6E6;}
	.st30{fill:#F0F0F0;}
	.st31{fill:#E1E1E1;}
	.st32{fill:#0C0C0C;}
	.st33{fill:#DCDCDC;}
	.st34{fill:#E7E7E7;}
	.st35{fill:#1D1D1D;}
	.st36{fill:#D5D5D5;}
	.st37{fill:#131313;}
	.st38{fill:#262626;}
	.st39{fill:#838383;}
	.st40{fill:#E2E2E2;}
	.st41{fill:#E4E4E4;}
	.st42{fill:#E0E0E0;}
	.st43{fill:#DADADA;}
	.st44{fill:#606060;}
	.st45{fill:#C4C4C4;}
	.st46{fill:#CECECE;}
	.st47{fill:#D1D1D1;}
	.st48{fill:#DBDBDB;}
	.st49{fill:#898989;}
	.st50{fill:#232323;}
	.st51{fill:#B5B5B5;}
	.st52{fill:#A9A9A9;}
	.st53{fill:#313131;}
	.st54{fill:#DDDDDD;}
	.st55{fill:#BABABA;}
	.st56{fill:#CBCBCB;}
	.st57{fill:#D7D7D7;}
	.st58{fill:#3A3A3A;}
	.st59{fill:#D0D0D0;}
	.st60{fill:#CCCCCC;}
	.st61{fill:#2C2C2C;}
	.st62{fill:#D2D2D2;}
	.st63{fill:#050505;}
	.st64{fill:#C5C5C5;}
	.st65{fill:#C2C2C2;}
	.st66{fill:#5A5A5A;}
	.st67{fill:#B7B7B7;}
	.st68{fill:#3D3D3D;}
	.st69{fill:#C7C7C7;}
	.st70{fill:#090909;}
	.st71{fill:#191919;}
	.st72{fill:#0F0F0F;}
	.st73{fill:#171717;}
	.st74{fill:#202020;}
	.st75{fill:#141414;}
	.st76{fill:#464646;}
	.st77{fill:#252525;}
	.st78{fill:#434343;}
	.st79{fill:#121212;}
	.st80{fill:#0A0A0A;}
	.st81{fill:#111111;}
	.st82{fill:#222222;}
	.st83{fill:#1A1A1A;}
	.st84{fill:#1B1B1B;}
	.st85{fill:#2D2D2D;}
	.st86{fill:#0E0E0E;}
	.st87{fill:#020202;}
	.st88{fill:#212121;}
	.st89{fill:#A1A1A1;}
	.st90{fill:#404040;}
	.st91{fill:#383838;}
	.st92{fill:#323232;}
</style>
<g>
	<path class="st0" d="M1168,411.4c0-0.3-0.1-0.4-0.4-0.4c-3.6,0-7.2,0-10.9,0c0.7,0.2,1.3,0.4,2,0.6c7.4,2.9,8.3,10.8,1.3,15
		c-12.3,7.5-28.2-5.4-39-10.4c-2.5-1.1-3-3.3-2.3-5.3c-31.7,0-63.5,0-95.2,0c-0.4,0-0.5,0.1-0.5,0.5c0,24.5,0,49,0,73.5
		c2.1-0.2,4.1,0.9,4.5,3.6c1.2,8.4,1.8,16.9,1.9,25.4c46.1,0,92.1,0,138.2,0c0.4,0,0.4-0.1,0.4-0.4
		C1168,479.5,1168,445.5,1168,411.4z"/>
	<path d="M1080.9,500.2c-0.5,0.2-0.9,0.5-1.3,0.7c-2.8,1.4-5.7,2.4-8.9,2.2c-2.1-0.1-4.2-0.6-6.2-1.4c-1.5-0.6-2.4-1.9-3.1-3.3
		c-0.2-0.3-0.1-0.7,0-1c0.3-0.7,0.6-1.3,1.2-1.8c0.2-0.2,0.3-0.3,0.4-0.5c0.3-0.5,0.3-0.8-0.2-1.2c-0.2-0.1-0.3-0.2-0.5-0.3
		c-1.2-0.7-1.9-1.8-2.1-3.2c-0.2-1.5,0.6-2.6,1.7-3.6c0.2-0.1,0.4-0.2,0.6-0.5c-0.4-0.3-0.9-0.5-1.3-0.7c-1.3-0.6-2.4-1.5-3.2-2.7
		c-0.9-1.3-1-2.6-0.3-4.1c0.6-1.2,1.2-2.3,2.1-3.3c0.1-0.1,0.2-0.2,0.2-0.3c-0.2-0.1-0.4,0-0.6,0.1c-3.1,1.6-6.4,2.4-9.9,2.9
		c-2.5,0.3-4.9,0.2-7.4-0.1c-5.4-0.7-10.5-2.5-15.2-5.3c-1.3-0.8-2.4-1.8-3.5-2.8c-0.3-0.2-0.4-0.5-0.4-0.9c1.1,0.4,2.3,0.6,3.4,0.4
		c1.7-0.2,3.3-0.8,4.8-1.4c1.5-0.6,2.8-1.5,4.2-2.1c4.5-2,9.1-3.7,13.9-4.8c1.2-0.3,2.4-0.5,3.6-0.7c-0.2-0.3-0.4-0.4-0.6-0.6
		c-2.3-1.6-4.4-3.5-6.3-5.6c-0.1-0.1-0.2-0.2-0.3-0.3c-2.6-2.3-5-4.7-7.4-7.1c-1.5-1.5-3.2-2.7-4.8-4c-0.6-0.5-1.2-0.8-2-0.9
		c8.3-2.5,15.9-0.8,22.8,4.5c0-0.4-0.1-0.5-0.2-0.6c-0.9-1.6-1.7-3.2-2.2-4.9c-0.2-0.8-0.7-1.5-1.1-2.1c-1.4-2.3-3-4.4-4.2-6.9
		c-0.1-0.1-0.3-0.3-0.1-0.4c0.1-0.1,0.3,0,0.5,0.1c1.2,0.6,2.3,1.3,3.5,2c0.1,0.1,0.3,0.2,0.4,0.1c0.2-0.1,0-0.3,0-0.5
		c-0.2-1.2-0.5-2.5-0.6-3.8c0-0.2,0-0.3,0-0.5c0.5-2.5,0.3-5-0.7-7.4c0-0.1-0.1-0.2,0-0.3c0.1-0.1,0.2-0.1,0.3,0
		c0.3,0.1,0.5,0.3,0.6,0.4c1.6,1.6,3.4,3,5.3,4.2c1.9,1.3,3.5,3,4.8,4.9c0,0.1,0.1,0.1,0.1,0.2c0.2-0.1,0.1-0.2,0.2-0.3
		c0.6-2.2,1.3-4.4,2-6.6c0.3-1,1-1.8,1.5-2.7c0.1-0.2,0.3-0.2,0.4,0c1.3,1.7,3.4,2.5,4.8,4.2c0.3,0.4,0.7,0.8,1,1.2
		c0.4-1.2,0.7-2.4,1.2-3.5c0.7-1.7,1.4-3.4,2.2-5c0.6-1.2,1.4-2.3,2.1-3.4c0.2-0.3,0.3-0.5,0.5-0.8c0.1-0.1,0.1-0.3,0.2-0.2
		c0.2,0,0.2,0.2,0.2,0.3c0.1,0.3,0.2,0.7,0.3,1c1.2,3.8,2.5,7.5,4,11.2c0.1,0.2,0.1,0.3,0.2,0.5c0.5-0.6,1-1.2,1.5-1.7
		c1.9-2,4.4-3.3,6.9-4.3c0.6-0.2,1.2-0.5,1.9-0.7c0.6-0.2,0.6-0.2,0.5,0.4c-0.2,1.3-0.3,2.6-0.2,3.9c0.1,1.7,0.3,3.3,0.3,5.1
		c0.9-0.5,1.6-1,2.5-1.3c2.1-0.9,4.2-1.9,6.4-2.3c0.5-0.1,1.1-0.1,1.6-0.1c0.3,0,0.4,0,0.3,0.4c-0.7,1.6-1.1,3.4-1.4,5.1
		c0,0.1-0.1,0.3,0,0.4c0.1,0.1,0.3,0,0.5-0.1c1.5-0.8,3.1-1.6,4.6-2.4c1.3-0.7,2.7-1.4,4-2c0.9-0.4,1.8-0.6,2.7-1
		c0.3-0.1,0.3,0.2,0.3,0.4c0,2.2-0.5,4.3-1.5,6.3c-1,2.1-2.3,4.1-3.7,6c0,0.1-0.1,0.1-0.2,0.3c0.6-0.1,1-0.2,1.5-0.4
		c3.2-1,6.5-1.5,9.7-2.1c1.5-0.3,3-0.6,4.5-0.7c0.4,0,0.9,0,1.3,0.1c0.2,0.1,0.3,0.2,0.1,0.4c-1.3,1.1-2.2,2.6-3.1,4
		c-3,4.4-6.1,8.7-10.8,11.6c-0.2,0.1-0.4,0.2-0.4,0.5c1-0.2,2-0.1,2.9-0.1c1,0.1,1.9,0.5,2.8,0.9c0.2,0.1,0.5,0.3,0.7,0.4
		c1.2,0.7,2.4,0.7,3.7,0.2c0.5-0.2,1-0.5,1.5-0.8c1.8-1.2,3.8-2.1,5.8-3c2.8-1.2,6,0.3,7.3,1.7c0.9,1,2,1.2,3.2,0.8
		c1.3-0.4,2.5-0.9,3.8-1.2c1.5-0.3,2.9-0.2,4.4,0.2c1,0.3,1.8,0.9,2.4,1.8c0.4,0.7,0.9,1.3,1.3,2c0.5,0.7,1.1,1.1,2,1.1
		c0.6,0,1.3,0.1,1.9,0.2c2.4,0.4,4,2.6,3.5,4.9c-0.2,1.1,0,2.2,0.9,3c0.9,0.8,1.4,1.8,2.1,2.8c0.8,1.1,1.1,2.3,1.2,3.6
		c0.1,1.2-0.1,2.3-0.6,3.4c-0.2,0.5-0.6,1-1,1.3c-0.7,0.6-1.5,1.2-2.3,1.6c-1.5,0.9-2.4,2.2-2.8,3.9c-0.1,0.2,0,0.5,0,0.7
		c0.1,1.2,0.3,2.5,0.3,3.7c0.1,2.1-0.8,3.7-2.5,4.8c-0.6,0.4-1.3,0.7-2,1c-1.6,0.7-2.9,1.8-3.9,3.3c-0.5,0.8-0.8,1.7-1,2.6
		c-0.3,1-0.7,1.9-1.3,2.8c-0.3,0.5-0.8,0.5-1.3,0.5c-0.4,0-0.7,0-1,0.2c-1.5,1.1-3.1,1-4.8,0.6c-0.8-0.2-1.6-0.5-2.3-1.1
		c-0.7-0.6-1.5-0.7-2.3-0.3c-1.2,0.6-2.2,1.4-2.8,2.6c-0.6,1.1-1.3,1.3-2.4,0.5c-1-0.7-1.7-0.6-2.4,0.5c-0.7,1-1,1.1-2.1,0.5
		c-1.1-0.6-2.3-0.6-3.4-0.3c-1.9,0.6-3.8,1.3-5.7,1.9c-2.1,0.6-4.1,0.6-6.2,0.1c-1-0.3-2.1-0.5-3.1-0.9c-1.3-0.4-2.5-0.2-3.7,0.1
		c-1.4,0.3-2.8,0.7-4.3,0.9c-1.7,0.2-3.3-0.1-4.8-0.9c-1-0.5-1.7-1.4-2.2-2.4c-0.5-0.8-1-1.6-1.6-2.3c-1.2-1.4-2.8-1.9-4.6-1.8
		c-0.4,0-0.5,0.2-0.5,0.5c0.2,1.8,0.4,3.5,0.5,5.3c0,0.1,0.1,0.3,0.2,0.4c0.4,0.5,0.2,0.8-0.4,0.9c-0.8,0.1-1.5,0.1-2.3,0.1
		c-0.4,0-0.9,0-1.3-0.1c-0.4-0.1-0.4-0.3-0.2-0.5c0.1-0.1,0.2-0.3,0.2-0.4C1081.1,503.5,1081.1,501.9,1080.9,500.2z"/>
	<path class="st0" d="M1113.8,496.9c0-0.1-0.1-0.2-0.2-0.3c-0.1-0.2,0-0.3,0.2-0.2c0.2,0.1,0.5,0.2,0.7,0.3c-0.3-0.2-0.7-0.3-1-0.5
		c-0.8-0.5-1.4-1.1-1.9-1.8c-0.1-0.1-0.2-0.2-0.3-0.4c0.3-0.1,0.5,0.1,0.7,0c-0.3-0.3-0.6-0.5-0.9-0.7c-0.3-0.2-0.5-0.5-0.7-0.9
		c0.4,0,0.6,0.4,1,0.4c-0.2-0.2-0.4-0.4-0.7-0.5c-0.8-0.4-1.1-1.2-1.4-2c-0.3-0.7-0.4-1.5-0.6-2.3c0-0.1,0-0.2,0-0.3
		c0.2,0,0.3,0.1,0.5,0.3c1.5,1.4,3,2.8,4.6,4.1c2.1,1.6,4.4,2.5,6.9,3.4c3,1,6.2,1.7,9.4,1.9c0.2,0,0.3,0,0.4,0.1
		c0.2,0.2,0.4,0.2,0.7,0.1c1-0.2,1.9-0.1,2.9-0.1c0.3,0,0.6-0.1,0.7,0.3c0,0.1,0.2,0.1,0.4,0.1c0.4,0,0.8,0,1.2,0
		c0.3,0,0.5,0,0.8,0.2c0.2,0.2,0.6,0.1,0.9,0.1c2.4-0.5,4.7-1,7.1-1.5c0.2,0,0.5-0.1,0.6-0.4c-1.4,0.3-2.9,0.6-4.3,0.8
		c-1.4,0.2-2.8,0.8-4.3,0.3c2.1-0.5,4.3-1.1,6.4-1.6c-0.4-0.2-0.7-0.1-1.1,0c-1.6,0.4-3.2,0.7-4.7,1.2c-1.2,0.3-2.5,0.2-3.7,0.1
		c0,0,0-0.1,0-0.1c1.9-0.5,3.7-1.1,5.6-1.6c-0.3-0.2-0.6,0-0.9,0c-2,0.5-4,1.1-6,1.6c-1,0.2-2,0-3-0.1c-0.5,0-1,0-1.5-0.3
		c0.5-0.1,1-0.2,1.5-0.3c1.3-0.2,2.6-0.5,3.9-0.8c0.1,0,0.2,0,0.2-0.1c0.2-0.4,0.6-0.4,0.9-0.4c0.2,0,0.3,0.1,0.4-0.1
		c1.3-0.5,2.6-1.1,4.1-1.4c-0.3-0.3-0.5-0.2-0.8-0.1c-1.8,0.7-3.6,0.7-5.6,0.6c0.3-0.2,0.5-0.3,0.6-0.4c0,0,0-0.1,0-0.1
		c-1,0.3-1.9,0.8-3,0.6c-1-0.1-2-0.3-3.2-0.4c0.5-0.4,1-0.4,1.3-0.7c-0.5,0.1-1,0.2-1.4,0.3c-0.5,0.1-0.9,0.2-1.4-0.1
		c-0.6-0.3-1.3-0.3-1.9-0.4c-0.9-0.1-1.6-0.5-2.5-0.8c0.4-0.3,0.9-0.4,1.3-0.6c1.6-0.8,3.2-0.7,4.9-0.4c0.3,0.1,0.6,0.1,0.9,0
		c-0.8-0.4-1.7-0.3-2.5-0.6c0-0.2,0.3-0.2,0.3-0.4c-0.8,0.2-1.7,0.4-2.5-0.2c1.5-0.6,3.1-0.9,4.7-0.9c4.9-0.1,9.8-0.4,14.7-1
		c0.9-0.1,1.7-0.3,2.6-0.4c0.2,0,0.4-0.1,0.5-0.2c-0.3-0.2-0.6-0.1-0.8-0.1c-1.7,0.2-3.5,0.3-5.2,0.5c-3.3,0.3-6.5,0.4-9.8,0.5
		c-2.1,0.1-4.3,0.1-6.4,0.1c-2.4,0-4.7-0.5-7-0.9c-1.7-0.3-3.4-0.7-5-1.3c-0.1,0-0.3,0-0.4-0.2c0.7-0.1,1.4,0,2.1,0.1
		c2.5,0.5,4.9,0.8,7.4,0.8c2.9-0.1,5.8,0,8.7-0.2c3.2-0.2,6.3-1,9.2-2.3c0.1,0,0.2-0.1,0.3-0.2c0,0,0-0.1,0-0.1
		c-3.4,1.4-6.9,2.2-10.5,2.3c0,0,0-0.1-0.1-0.1c1.2-0.5,2.3-1.1,3.5-1.6c-0.3-0.1-0.5,0-0.6,0.1c-1.3,0.5-2.6,1.1-3.9,1.6
		c-1,0.4-1.9,0.2-3,0.2c0.2-0.2,0.4-0.3,0.6-0.4c3.1-1.7,6.5-2.3,9.9-2.9c2.8-0.5,5.5-1,8.2-1.8c1-0.3,2.1-0.7,3.1-1.1
		c0.2-0.1,0.3-0.2,0.6-0.2c-0.1,0.3-0.2,0.5-0.2,0.7c0.7-1.5,2.3-1.6,3.5-2.3c1-0.5,2-0.8,3-1.4c-0.4,0-0.7,0-1.4,0.3
		c-1.5,0.6-2.9,1.3-4.4,2c-3.4,1.4-7,2.4-10.7,3c-0.7,0.1-1.4,0.3-2.2,0.4c0.4-0.6,1.1-0.8,1.4-1.6c-0.7,0.4-1.2,0.9-1.8,1.4
		c-0.3,0.3-0.7,0.5-1.1,0.5c-0.2,0-0.3,0.1-0.4-0.1c-0.1-0.2-0.2,0-0.3,0c-0.4,0.2-0.7,0.5-1.3,0.5c0.3-0.3,0.6-0.5,0.9-0.8
		c-0.4,0.1-0.7,0.3-0.9,0.5c-0.7,0.5-1.5,0.8-2.3,0.8c-0.4,0-0.7,0.1-1.1,0.2c-0.2,0.1-0.4,0.1-0.4-0.2c0-0.3-0.2-0.3-0.4-0.2
		c-0.3,0.2-0.6,0.3-0.9,0.5c-0.3,0.1-0.6,0.1-0.9,0.1c-0.7,0-1.3-0.1-2,0.1c-0.4,0.1-0.8,0.2-1.2,0.3c0.1-0.3,0.3-0.3,0.4-0.4
		c0.1-0.2,0.2-0.2,0.4-0.2c2.5-1.4,5.3-1.7,7.9-2.6c2.6-0.9,5.2-1.9,7.7-2.9c0.2-0.1,0.4-0.1,0.6-0.3c-0.2-0.1-0.3,0-0.5,0.1
		c-3.9,1.5-7.9,2.9-11.9,4.1c-0.9,0.2-1.8,0.4-2.7,0.7c-0.5,0.1-1-0.2-1.5,0.1c-0.1-0.2,0.1-0.3,0-0.4c-0.1-0.4,0-0.5,0.4-0.6
		c0.1,0,0.2-0.1,0.3-0.3c0.5-0.8,1.2-1.2,2-1.5c4.9-2.1,9.7-4.6,14.4-7c0.2-0.1,0.3-0.2,0.6-0.2c-0.1,0.4-0.6,0.6-0.6,1.1
		c0.6,0,0.7-0.4,0.8-0.9c0.1-0.5,0.4-0.8,0.9-1c0.3-0.1,0.6-0.3,1-0.4c-0.2,0.6-0.4,1.2-0.6,1.7c0.3-0.4,0.5-0.8,0.6-1.3
		c0.1-0.3,0.3-0.6,0.6-0.8c0.1-0.1,0.2-0.2,0.4-0.1c0.2,0.1,0.1,0.2,0,0.4c-0.1,0.5-0.2,0.9-0.4,1.4c0.3-0.1,0.2-0.3,0.3-0.4
		c0.6-1.8,0.6-1.8,2.2-2.7c0.3-0.2,0.5-0.3,0.8-0.5c0.2,0.2-0.1,0.4,0,0.7c0.1-0.3,0.2-0.5,0.4-0.8c0.2-0.5,0.9-1,1-0.9
		c0.3,0.4,0.1,0.8,0.1,1.2c-0.1,0.3-0.2,0.6-0.2,0.9c0.2,0,0.2-0.2,0.2-0.3c0.2-0.7,0.4-1.4,0.6-2.1c0.2-0.6,0.6-0.9,1.1-1
		c0.2-0.1,0.3,0,0.3,0.3c-0.2,0.6-0.4,1.2-0.5,1.8c0.6-1.1,0.6-2.5,1.8-3.3c0.1,0.8-0.3,1.4-0.3,2.2c0.6-1,0.2-2.4,1.4-3.2
		c-0.4,1.5-0.7,2.9-1.1,4.4c0,0,0.1,0,0.1,0c0.5-1.8,1-3.6,1.5-5.4c-1,0.4-1.7,1.2-2.5,1.8c-3.7,2.9-7.8,5-11.9,7.2
		c-1.6,0.9-3.3,1.6-4.9,2.4c-0.9,0.5-2,0.8-2.9,1.3c-0.9,0.5-1.9,0.9-2.8,1.4c-0.7,0.4-1.5,0.7-2.4,1c0.5-0.8,1-1.6,1.4-2.3
		c0,0-0.1-0.1-0.1-0.1c-0.5,0.7-1,1.4-1.5,2.1c-0.3,0.4-0.6,0.6-1,0.8c-0.8,0.3-1.6,0.7-2.4,1c-0.1-0.2,0.2-0.4,0.1-0.7
		c-0.3,0.8-1.2,0.5-1.6,1.1c-0.6-0.1-1,0.3-1.6,0.4c-0.3,0-0.2-0.2-0.2-0.3c-0.2,0.2-0.3,0.4-0.5,0.5c-0.2,0.2-0.4,0.1-0.4-0.2
		c-0.1-0.2,0.1-0.3,0.2-0.3c0.3-0.2,0.6-0.6,0.8-0.9c0.2-0.2,0.4-0.3,0.6-0.4c0.1,0.2-0.2,0.2-0.1,0.4c0.2,0,0.3-0.2,0.5-0.4
		c0.2-0.3,0.5-0.7,0.9-0.7c0.9,0,1.4-0.8,2.2-1.1c0.1,0,0.2-0.2,0.4-0.1c-0.1,0.3-0.2,0.5-0.3,0.8c0.7-0.9,1.4-1.8,2.6-2.1
		c0,0.4-0.4,0.6-0.4,1c0.2,0,0.3-0.2,0.3-0.3c0.7-1,1.6-1.7,2.6-2.4c3.4-2.3,6.9-4.5,9.8-7.5c0,0,0.1-0.1,0.2-0.2
		c-0.4,0.1-0.6,0.2-0.8,0.4c-1.8,2-4.2,3.2-6.3,4.8c-1.8,1.3-3.7,2.5-5.7,3.4c-2.6,1.1-5,2.4-7.6,3.5c-0.1,0.1-0.3,0.1-0.4,0
		c1.6-1.1,3.2-2.1,4.9-3.2c0.9-0.6,1.8-1.3,2.7-2c0.4-0.4,0.9-0.7,1.6-0.5c0-0.3-0.2-0.4-0.3-0.5c-0.6-0.5-0.9-1.2-1.6-1.5
		c-0.1-0.1-0.2-0.1-0.1-0.3c0.1-0.3,0.4-0.5,0.7-0.6c0.4-0.1,0.2,0.3,0.4,0.4c0.2-0.9,1.1-1,1.8-1.3c0.2-0.1,0.1,0.2,0.3,0.3
		c0.5-0.6,1-1.2,1.8-1.5c0.1,0,0,0.2,0,0.2c0,0.1-0.1,0.2,0.1,0.2c0.1,0,0.1-0.1,0.2-0.1c0.2-0.3,0.3-0.6,0.5-0.9
		c0.3-0.5,0.6-0.9,1.1-1.2c0.1,0.4-0.2,0.6-0.1,1c0.5-0.6,0.6-1.4,1.1-1.9c0,0.6-0.2,1.1-0.1,1.7c0.5-1.5,0.8-3,1.7-4.4
		c0,1.2-0.4,2.2-0.5,3.2c0.7-0.1,0.8-0.7,0.9-1.2c0.2-0.9,0.5-1.9,0.6-2.8c0.2-0.9,0.6-1.6,1.5-2.1c0,1.4-0.3,2.7-0.4,4.1
		c0.2-0.1,0.2-0.3,0.2-0.5c0.2-1.1,0.3-2.2,0.5-3.3c0.1-0.6,0.3-1,0.8-1.3c0.4-0.3,0.8-0.6,1.2-0.9c0.2,0.2,0,0.4,0,0.6
		c-0.2,1-0.4,2.1-0.6,3.1c0,0.1,0,0.2,0,0.3c-0.1,0.1,0,0.3,0,0.4c0-0.1-0.1-0.2,0-0.3c0,0,0.1-0.1,0.1-0.1c0.2-0.1,0.2-0.2,0.2-0.4
		c0.2-1.1,0.4-2.2,0.6-3.3c0.1-0.5,0.3-0.9,0.8-1.2c0.2-0.1,0.4-0.3,0.7-0.5c-0.3,2.1-0.9,4-1.2,6c0.2-0.2,0.2-0.2,0.4-0.7
		c0.4-1.6,0.7-3.2,1.1-4.9c0.1-0.5,0.4-0.9,0.8-1.2c0.4-0.2,0.7-0.5,1.1-0.9c-0.7,0.1-1.2,0.5-1.7,0.9c-0.6,0.4-1.1,0.8-1.6,1.1
		c-0.5,0.4-1.1,0.8-1.6,1.2c-0.5,0.4-1,0.9-1.5,1.3c-0.5,0.4-1,0.9-1.6,1.3c0.1-0.6,0.2-1.3,0.4-1.9c0.1-0.7,0.3-1.4,0.4-2.1
		c0-0.2,0-0.4,0-0.5c0-0.3-0.1-0.5-0.4-0.2c-2.1,1.7-4.7,2.3-7.4,2.5c-2,0.2-4,0.1-6.1-0.1c0.1-0.2,0.3-0.3,0.6-0.3
		c1.6-0.2,3.1-0.3,4.7-0.4c0.4,0,0.8-0.1,1.2-0.2c-0.7-0.2-1.4-0.1-2.1,0c-1.2,0.1-2.4,0.2-3.6,0.3c-0.4,0-0.4-0.1-0.3-0.4
		c0.1-0.3,0.4-0.4,0.7-0.5c1.6-0.3,3.3-0.5,4.9-0.8c0,0,0.1,0,0.1-0.1c-1.7,0-3.4,0.3-5.1,0.5c0.1-0.7,0.5-1,1.1-1.1
		c1.8-0.5,3.7-0.7,5.6-0.9c0.1-0.1,0.3-0.1,0.4-0.1c-0.4,0-0.7-0.1-1.1,0c-1.7,0-3.4,0.4-5.1,0.7c0.2-0.6,0.5-0.9,1-1
		c1.5-0.5,3.1-0.7,4.7-1c0.4-0.1,0.7-0.1,1.1-0.3c-2.3,0.3-4.6,0.5-6.8,1.4c-0.1,0-0.3,0.1-0.3,0.2c0.1,0.6-0.5,0.8-0.8,1.3
		c-0.4,0.7-0.8,1.3-1.2,2c-0.2,0.5-0.5,0.6-1,0.5c-2.2-0.2-4.4-0.6-6.5-1.2c-0.5-0.1-0.5-0.3-0.3-0.7c0.2-0.4,0.4-0.7,0.5-1.3
		c-0.5,0.3-0.6,0.7-0.8,1.1c-0.2,0.5-0.5,0.6-1,0.4c-1.3-0.4-2.6-0.7-3.8-1.1c-0.1,0-0.4,0-0.4-0.2c0-0.2,0.2-0.3,0.4-0.3
		c1-0.1,2-0.3,3-0.4c0.8-0.1,1.6-0.2,2.5-0.2c0.5,0,1-0.1,1.4-0.1c-0.6,0-1.3,0-2.1,0.1c-1.4,0.1-2.8,0.3-4.2,0.5
		c-0.2,0-0.4,0.1-0.5,0c0.8-0.8,1.9-1,3-1.3c0.5-0.1,1-0.2,1.6-0.3c-0.6-0.2-1.1,0.1-1.8,0c1.6-0.8,3.1-1,4.6-0.5
		c-0.3,0.2-0.7,0-1,0.1c0.1,0.3,0.3,0.1,0.5,0.1c0.8-0.1,1.6,0.1,2.4,0.5c2.4,1.1,4.6,0.9,6.7-0.6c1.7-1.2,3.5-2.2,5.5-2.9
		c1.1-0.4,2.2-0.5,3.4-0.1c0.3,0.1,0.8,0.1,0.8,0.6c0,0,0.1,0,0.2,0c0.7,0,1.1,0.4,1.5,0.8c0.6,0.6,1.3,1.2,2.2,1.5
		c1.1,0.3,2.1,0.1,3.1-0.3c1.9-0.8,3.9-1.1,5.9-0.9c1.1,0.1,2.1,0.5,2.6,1.6c0.2,0.5,0.6,0.9,0.9,1.4c0.8,1.4,2.1,2,3.7,2.1
		c0.6,0,1.3,0.1,1.9,0.3c1,0.2,1.8,1.2,1.8,2.2c0,0.5,0,1.1-0.1,1.6c-0.2,1.7,0.6,3,1.9,4c0.5,0.4,1.1,0.7,1.4,1.4
		c0.2,0.4,0.3,0.7,0.4,1.1c0.1,1.3,0.1,2.5-0.3,3.7c-0.3,0.9-0.8,1.7-1.6,2.2c-2.2,1.3-3.5,3.2-3.9,5.7c-0.3,1.6-0.6,3.1-0.7,4.7
		c-0.1,2.1-1,3.9-2.4,5.4c-0.2,0.2-0.4,0.3-0.7,0.4c-1.4,0.8-2.7,1.7-3.8,3c-0.8,1-1.3,2.2-1.7,3.4c-0.1,0.3-0.3,0.5-0.7,0.5
		c-1.9,0.2-3.8,0.5-5.6,0.8c-0.1,0-0.2,0-0.4,0.1c0.2,0.2,0.3,0.2,0.5,0.2c1.7-0.2,3.4-0.4,5.1-0.7c0.2,0,0.5-0.1,0.7,0
		c0.2,0.2-0.1,0.5-0.2,0.7c-0.2,0.4-0.5,0.8-0.8,1.2c-0.1,0.2-0.2,0.2-0.4,0.1c-0.3,0-0.6,0-0.9-0.1c-0.2,0-0.4,0-0.6,0.2
		c-0.9,0.9-1.9,0.7-2.9,0.3c-0.6-0.2-1.2-0.7-1.7-1.1c-0.6-0.4-1.3-0.6-2-0.5c-1.6,0.3-3.2,0.6-4.4,1.9c-0.5,0.5-1,1-1.3,1.6
		c-0.3,0.4-0.5,0.5-1,0.2c-1-0.8-2.1-0.7-3.2-0.2c-0.3,0.2-0.6,0.4-0.8,0.7c-0.2,0.2-0.3,0.3-0.6,0.2c-0.4-0.2-0.8-0.3-1.2-0.5
		c-0.5-0.2-1-0.3-1.5-0.1c-0.4,0.1-0.9,0-1.3-0.1c-1.2-0.4-2.4-0.7-3.6-1.1c-1.1-0.3-2-0.9-2.7-1.8c2,0.6,4,1.4,6.1,1.8
		c-0.6-0.3-1.2-0.5-1.8-0.7c-0.9-0.3-1.7-0.5-2.5-1.1c-0.3-0.2-0.5,0-0.8-0.1c-1.5-0.5-2.9-1.2-3.8-2.6c0.4-0.1,1,0.3,1.9,0.8
		c0.6,0.4,1,1,1.7,1.3c0-0.4-0.4-0.5-0.5-0.9c0.9,0.1,1.5,1.1,2.5,0.9c-1.1-0.5-2.1-1.1-3.1-1.8c0,0-0.1,0-0.2,0
		C1113.9,497.2,1113.8,497.2,1113.8,496.9z"/>
	<path class="st0" d="M1066,466.9c-2.5,1.2-5.1,1.9-7.6,2.9c-0.1,0-0.2,0.1-0.3,0.2c0.3,0.1,0.4,0,0.6-0.1c1.7-0.6,3.3-1.3,5.1-1.6
		c0.6-0.1,1.2-0.3,1.7-0.5c0.3-0.1,0.6-0.2,0.9-0.1c-3.9,2-7.5,4.4-11.8,5.5c0.8,0.1,3.5-0.8,5.9-2c1.9-0.9,3.8-1.9,5.7-2.8
		c0,0.2-0.1,0.2-0.2,0.3c-2.3,1.6-4.5,3.3-6.9,4.8c-3.3,2.2-6.9,3.4-10.9,3.6c-4.4,0.2-8.6-0.3-12.7-1.8c-2.7-1-5.4-2-7.8-3.5
		c-0.2-0.1-0.4-0.2-0.6-0.5c0.6,0.1,1.2,0.3,1.8,0.4c0-0.2-0.3-0.2-0.3-0.4c0.9,0,1.8,0.1,2.8,0.1c3.9,0.2,7.7,0.3,11.6,0.2
		c3.2-0.1,6.3-0.9,9.4-1.6c2.1-0.5,4.1-1.4,6.1-2.3c2.7-1.2,5.5-2.1,8.5-2.4c0.7-0.1,0.9-0.1,1.4,0.1c-2.8,0.6-5.4,1.5-8,2.7
		c0.3,0.1,0.4,0,0.6,0c1.3-0.4,2.5-0.9,3.8-1.3c0.3-0.1,0.7-0.2,1.1-0.3C1065.9,466.5,1066.1,466.6,1066,466.9
		C1066,466.9,1066,466.9,1066,466.9C1066,466.9,1066,466.9,1066,466.9z"/>
	<path class="st0" d="M1026.2,470.2c1.6-0.4,3.1-0.3,4.7-0.6c-0.3,0-0.6,0-0.8,0c0-0.2,0.1-0.2,0.1-0.2c2.6-0.6,4.9-1.9,7.3-2.9
		c4-1.7,8.2-3.1,12.4-4.2c1-0.2,2-0.4,2.9-0.5c0.1,0,0.3,0,0.5,0c-0.5,0.3-1,0.4-1.4,0.7c0.9-0.2,1.7-0.4,2.6-0.5
		c-1.6,0.7-3.2,1.3-4.9,2c0.2,0.1,0.4,0,0.6,0c1.9-0.5,3.9-1,5.8-1.5c0.2-0.1,0.4-0.2,0.6,0.1c-1.1,0.4-2.3,0.8-3.4,1.1
		c0,0,0,0.1,0,0.1c1.1-0.3,2.2-0.6,3.4-1c-0.1,0.3-0.3,0.3-0.5,0.3c-1.8,0.7-3.6,1.3-5.4,2c-0.6,0.2-1.1,0.7-1.7,1
		c-1.5,0.5-3.1,0.9-4.7,1.4c-1.9,0.6-3.8,0.9-5.7,1.4c-0.3,0.1-0.6,0.2-0.8,0.3c0.6,0,1.3-0.2,1.9-0.3c3.4-0.7,6.8-1.5,10.1-2.8
		c1.5-0.6,3.1-1,4.7-1.4c1.2-0.3,2.4-0.7,3.6-1.1c0.3-0.1,0.7-0.2,1,0.1c-1.1,0.5-2.3,0.6-3.3,1.2c1.5-0.4,2.9-0.9,4.5-0.7
		c-1.6,0.9-3.4,1.2-5.1,2c0.4,0.2,0.4,0.3,0.8,0.1c1.5-0.6,3.1-1.1,4.6-1.6c0.8-0.3,1.5-0.1,2.4,0.3c-2.5,1-5,1.9-7.6,2.7
		c1.1,0,2.1-0.7,3.3-0.4c-1,0.4-1.9,0.9-2.9,1.3c-4.6,1.7-9.4,2.9-14.4,2.8c-3.8,0-7.7-0.1-11.5-0.3c-0.9-0.1-1.9-0.2-2.8-0.4
		C1026.8,470.5,1026.5,470.5,1026.2,470.2z"/>
	<path class="st0" d="M1075.6,469c-1.9,2.1-2.9,4.6-3.4,7.3c0.4-0.3,0.4-0.8,0.5-1.3c0.2-0.5,0.3-0.9,0.6-1.4
		c0.3-0.4,0.5-0.8,0.7-1.3c0.2-0.4,0.5-0.8,0.8-1.3c0.2,0.3,0,0.4,0,0.5c-0.4,0.9-0.9,1.8-1.4,2.6c-0.1,0.1-0.3,0.3,0,0.5
		c0.3,0.2,0.3-0.1,0.4-0.3c0.7-1.5,1.5-2.9,2.4-4.2c0.1-0.1,0.2-0.3,0.3-0.4c-0.4,2.2-0.9,4.3-1.6,6.3c-0.1,0.4-0.3,0.8-0.4,1.1
		c-0.1,1.8-1.1,3.2-2.1,4.6c0,0,0,0.1,0,0.1c0.2,0,0.2-0.2,0.3-0.3c1.1-1.4,1.8-3,2.4-4.7c0.8-2.5,1.6-5,2.4-7.4
		c0.1-0.3,0.2-0.7,0.6-1.1c-0.1,1.4-0.4,2.6-0.6,3.8c-0.2,1.3-0.5,2.6-0.7,3.8c-0.2,1.3-0.8,2.4-1.1,3.6c0.4-0.5,0.7-1.1,0.9-1.8
		c0.6-1.8,0.9-3.8,1.2-5.7c0.2-1.4,0.5-2.8,0.8-4.2c0.1-0.3,0.2-0.4,0.4-0.7c0.1,2-0.1,4-0.4,5.9c-0.4,1.9-0.9,3.8-1.5,5.7
		c0.3-0.3,0.4-0.4,0.6-1c0.7-2.6,1.5-5.3,1.8-8c0-0.1,0-0.1,0-0.2c0.2,0.1,0.2,0.3,0.3,0.4c0.6,2.3,0.4,4.6-0.2,6.8
		c-0.2,0.6-0.4,1.2-0.6,1.9c-0.6,2.2-1.8,3.9-3.5,5.4c-1.1,1-2.5,1.5-3.9,1.1c-1.6-0.5-2.9-1.5-3.9-2.9c-0.4-0.6-0.5-1.4-0.6-2.1
		c0-0.2,0.1-0.3,0.2-0.5c0.8-0.8,1.5-1.8,2.1-2.8c0.8-1.4,1.6-2.8,2.4-4.2c0.7-1.2,1.7-2.2,2.7-3.2
		C1074.8,469.4,1075.1,469.1,1075.6,469z"/>
	<path class="st0" d="M1068.9,494.4c0.2-0.1,0.4-0.2,0.5-0.2c0.1,0,0.3-0.1,0.4-0.1c0.8,0.3,1.6,0,2.4,0.2c0.2,0,0.4,0,0.6-0.1
		c-0.1-0.2-0.2-0.2-0.4-0.2c-0.4,0.1-0.7,0-1.1,0c-0.1,0-0.2,0-0.2,0c-0.1-0.6-0.4-0.1-0.7-0.1c-0.1,0-0.3,0.1-0.4-0.1
		c0-0.1-0.1-0.1-0.2,0c-0.5,0.3-1.1-0.1-1.6,0c0.4-0.4,0.8-0.8,1.5-0.5c0.3,0.1,0.6,0.1,0.9,0.1c0.5,0,1,0.3,1.5,0
		c0.2-0.1,0.4,0,0.6,0.1c0.9,0.3,1.9,0,2.8,0.2c-1.7-0.3-3.5-0.6-5.3-0.8c0.4-0.2,0.7-0.7,1.3-0.4c0.1,0,0.2-0.1,0.3-0.1
		c0.5-0.1,1-0.1,1.4,0.1c0.4,0.2,0.8,0,1.1,0c0.9,0.1,1.8,0.2,2.7,0.3c0.2,0,0.4,0.1,0.6-0.1c-0.8-0.2-1.5-0.2-2.2-0.3
		c-0.7-0.1-1.4-0.4-2.2-0.2c-0.2,0-0.4,0-0.5-0.3c0.1-0.1,0.2,0,0.3-0.1c1-0.6,2-0.4,3-0.3c0.6,0.1,1.1,0.1,1.7,0
		c-0.5-0.1-1-0.2-1.5-0.3c0,0,0,0,0-0.1c0.9,0,1.8,0,2.7,0c0,0,0-0.1,0-0.1c-1.1-0.1-2.1-0.2-3.3-0.3c0.2-0.4,0.6-0.5,0.9-0.5
		c1,0,2,0.1,3,0.1c0.3,0,0.4,0.1,0.4,0.4c0,0.4,0.1,0.9,0.1,1.3c0,0.2-0.1,0.3-0.2,0.4c-0.5,0.4-1.1,0.8-1.7,1.2
		c0.5,0,0.7-0.3,1-0.4c0.9-0.5,0.9-0.5,0.9,0.5c0,0.7,0.1,1.4,0.1,2.1c0,0.5-0.1,0.9-0.5,1.2c-1,0.9-2,1.8-2.9,2.7
		c1.2-0.7,2.2-1.7,3.4-2.7c0.1,0.6,0.1,1.2,0.2,1.7c0,0.3-0.1,0.4-0.3,0.5c-2.6,1.1-5.1,2.3-7.9,2.6c-0.9,0.1-1.8,0-2.6-0.3
		c-0.4-0.1-0.7-0.2-1.1-0.3c-0.4-0.1-0.7-0.2-0.4-0.9c-0.5,0.5-0.9,0.3-1.2,0.2c-0.1-0.1-0.4,0-0.3-0.3c0-0.2,0.2-0.5,0.4-0.5
		c0.5,0.1,1.1-0.3,1.4,0.4c0.1,0.1,0.2,0,0.3-0.1c0.2-0.1,0.4-0.2,0.4-0.5c-0.8,0.1-1.6,0-2.4-0.2c-0.2,0-0.5,0-0.5-0.2
		c0-0.2,0.2-0.4,0.3-0.6c0.3-0.3,0.7-0.3,1.1-0.3c0.8,0.1,1.6,0.2,2.4,0.3c-0.8-0.4-1.7-0.4-2.7-0.6c0.3-0.3,0.5-0.5,0.7-0.8
		c0,0,0,0,0,0c0.4-0.3,0.8-0.3,1.2-0.2c0.3,0.1,0.6,0.1,1,0c-0.4-0.1-0.8-0.2-1.2-0.3c0-0.6,1-0.2,0.8-1c-0.4,0.3-0.8,0.3-1.3,0.1
		c-0.3-0.1-0.2-0.2,0-0.4c-0.4,0.2-0.7,0.5-1,0c-0.1-0.1-0.2,0.1-0.4,0.1c-0.1,0-0.3,0-0.3-0.1c0-0.1,0.1-0.2,0.2-0.3
		c0.3-0.2,0.4-0.2,0.7,0.1c0.1,0.1,0.2,0,0.4-0.1c0.2-0.1,0.5-0.3,0.7,0c0.1,0.2,0.2,0,0.3,0c0.5-0.1,0.9-0.1,1.3,0.2
		c0.3,0.2,0.4-0.2,0.7-0.2c-0.2-0.2-0.4-0.1-0.6-0.1c-0.5,0-0.9-0.4-1.5-0.2C1068.8,494.8,1068.9,494.5,1068.9,494.4L1068.9,494.4z"
		/>
	<path class="st0" d="M1084.4,457.8c0.9-2.1,2.4-3.8,3.9-5.5c2.2-2.5,4.5-4.8,7.4-6.6c3.1-2,6.4-3.4,10.1-3.8c0.1,0,0.3-0.1,0.4,0
		c0.1,0.2,0,0.3-0.2,0.4c-0.6,0.6-1.1,1.1-1.8,1.6c-1,0.6-1.7,1.6-2.5,2.4c-3,3-5.4,6.5-8.3,9.6c-1,1.1-2.1,2.1-3.3,3.1
		c-0.6,0.5-1.2,1-1.7,1.6c-0.1,0.2-0.3,0.2-0.5,0.1c-0.2-0.2-0.1-0.3,0-0.4c1.4-1.4,2.3-3.2,3.5-4.8c1.7-2.1,3.2-4.4,5.1-6.3
		c1.5-1.5,3.3-2.7,4.9-4.1c0.1-0.1,0.4-0.2,0.4-0.5c-3.5,2.4-6.6,5.2-9.1,8.6c0.5-1.3,1.4-2.4,2.3-3.4c-0.4-0.1-0.5,0.1-0.7,0.3
		c-1.6,2.3-3.6,4.3-5,6.7c-0.6,1-1.4,1.9-2.1,2.8c0,0.1-0.1,0.1-0.2,0.1c0.7-2,2-3.7,2.7-5.6c-1,1.2-1.6,2.7-2.6,3.8
		c0,0.3,0.1,0.7-0.4,0.7c-0.6,0.4-0.9,1-1.4,1.5c-0.5,0.5-0.9,1.1-1.4,1.5c0.6-0.9,1.1-1.8,1.7-2.8c0,0-0.1-0.1-0.1-0.1
		c-1,1.5-1.9,3.1-2.9,4.6c0.2-1.3,0.9-2.5,1.4-3.6c0.6-1.2,1.2-2.3,1.9-3.5c-0.6,0.5-0.9,1.2-1.3,1.8
		C1084.4,457.9,1084.3,457.9,1084.4,457.8z"/>
	<path class="st0" d="M1086.8,470.8c0.7,0.6,1.1,1.4,1.9,1.9c-0.5-0.9-1.2-1.5-1.8-2.3c0-0.1,0-0.1,0.1-0.1c1.7,1.9,3.5,3.6,5.6,5
		c1.9,1.3,3.8,2.3,5.9,3.2c0.3,0.1,0.3,0.1,0.8,0.1c-4.5-1.9-8.5-4.4-11.6-8.3c0.9,0.6,1.5,1.6,2.6,2.1c-1.2-1.3-2.4-2.5-3.6-3.7
		c0.2-0.1,0.3,0.1,0.5,0.2c0.9,0.8,1.8,1.6,2.6,2.4c0.6,0.6,1.4,1.1,2.1,1.6c0.3,0.3,0.6,0.7,1,0.9c-0.3-0.2-0.6-0.5-0.9-0.9
		c0.1-0.4,0.3-0.1,0.3,0c0.7,0.5,1.4,1,2.1,1.4c0.1,0,0.2,0.1,0.4,0c-1.4-0.9-2.7-1.9-4-2.9c-1.2-1.1-2.6-2-3.5-3.4
		c1.7,1.1,3.1,2.5,4.9,3.4c-1.2-1-2.5-1.9-3.7-3c0.5,0,0.9,0.2,1.2,0.4c1.5,1.1,3.1,2.1,4.5,3.3c1.2,1.2,2.6,1.9,4,2.7
		c2.1,1.1,4.3,1.8,6.6,2c1.2,0.1,2.5,0,3.6-0.4c2.4-0.8,4.8-1.6,7.2-2.5c1.1-0.4,2.3-0.6,3.4-0.9c0.3-0.1,0.6,0,0.9,0.1
		c0,0.1,0,0.1-0.1,0.2c-2.7,1.1-5.2,2.5-7.6,4.1c-0.6,0.4-1.2,0.5-1.9,0.6c-5.2,0.4-10.1-0.5-14.6-3.2c-0.1-0.1-0.3-0.2-0.5-0.1
		c4.7,2.9,9.8,4,15.2,3.5c0.1,0.2,0,0.2-0.1,0.3c-1.5,0.6-3,1.4-4.7,1.7c-2.1,0.4-4.2,0.2-6.4,0c-1.3-0.1-2.5-0.4-3.6-1.1
		c-0.2-0.1-0.4-0.2-0.5-0.4c0.2-0.1,0.4-0.1,0.6-0.2c0.1,0,0.2-0.1,0.2-0.3c0-0.1-0.2-0.1-0.2-0.1c-0.1,0-0.2,0-0.2,0
		c-1.5,0.1-2.8-0.6-3.8-1.6c-0.7-0.7-1.5-1.2-2.1-1.9c-0.8-0.8-1.7-1.5-2.3-2.4c-0.1-0.1-0.2-0.2-0.4-0.3c-0.2-0.4-0.4-0.7-0.6-1.1
		C1086.6,471,1086.6,470.8,1086.8,470.8z"/>
	<path class="st0" d="M1092.3,467.3c-0.1-0.5-0.7-0.8-0.9-1.3c2.6,0.7,4.7,2.2,7.1,3c-1.2-0.8-2.5-1.4-3.7-2.1
		c0.9,0.1,1.7,0.5,2.5,0.9c1.5,0.9,3,1.8,4.5,2.7c0.3,0.2,0.5,0.4,1,0.3c-1.6-1-3.2-2-4.8-2.9c0.3-0.1,0.6,0,0.8,0.2
		c2.3,1,4.5,2,6.8,2.9c0.4,0.1,0.7,0.2,1.1,0.1c-4.9-2.1-9.8-4.2-14.6-6.6c0.9,0.1,1.7,0.3,2.6,0.5c2.2,0.7,4.3,1.8,6.4,2.9
		c2.8,1.6,5.8,3.1,8.9,3.9c2.1,0.6,4.3,0.8,6.4,1.2c0.3,0,0.5,0.1,0.8,0.1c0,0.2-0.2,0.2-0.3,0.3c-0.4,0.1-0.9,0.2-1.3,0.4
		c-0.1,0-0.2,0-0.3,0.1c-1.1,0.9-2.5,1-3.8,1.5c-1.2,0.4-2.4,1-3.7,1c-4.3,0.1-8.4-0.8-11.9-3.5c-0.9-0.7-1.7-1.3-2.5-2.2
		c0-0.1-0.1-0.1-0.1-0.3c0.9,0.3,1.7,1,2.8,1.1c0.2-0.2,0.4-0.1,0.6,0c0.1,0.1,0.2,0.2,0.3,0.3c0.7,0.3,1.4,0.5,2.1,0.6
		c0.5,0,0.9,0.3,1.3,0.5c0.1,0.1,0.3,0.2,0.5,0.2c-1.1-1.1-2.5-1.8-3.7-3c1.1,0.3,2,0.6,2.9,0.9c-0.3-0.3-0.7-0.4-1.1-0.5
		c-1.4-0.5-2.7-1.1-4-1.7c-0.8-0.4-1.4-1-2.1-1.5C1092.5,467.6,1092.3,467.6,1092.3,467.3z"/>
	<path class="st0" d="M1122.4,439c-2.3,1.9-4.5,3.7-6.6,5.7c0,0,0.1,0.1,0.1,0.1c1.8-1.6,3.7-3.1,5.5-4.7c0,0,0.1,0.1,0.1,0.1
		c-0.2,0.3-0.5,0.6-0.7,0.9c-1.3,1.7-2.4,3.5-3.8,5c-3.2,3.6-7.1,6-11.6,7.4c-1.3,0.4-2.6,0.9-3.9,1.3c-0.3,0.1-0.7,0.2-1,0.3
		c0,0,0-0.1-0.1-0.1c2.1-1,4.2-1.9,6.4-2.9c-0.5,0-1.3,0.2-1.9,0.5c-2.1,1.1-4.3,2-6.5,2.9c-0.5,0.2-1,0.3-1.6,0.3
		c3.3-2.2,6.9-4,10.6-5.7c-0.3,0-0.3,0-0.6,0.1c-2.5,1.1-5,2.4-7.4,3.6c-0.9,0.5-1.9,1-2.8,1.5c-0.2,0.1-0.3,0.2-0.5,0.1
		c2.6-1.6,5.3-3.2,7.9-4.8c-2.6,1-4.8,2.7-7.4,3.9c0.2-0.4,0.4-0.6,0.7-0.7c4.6-3.4,9.4-6.5,14.7-8.9c3.3-1.5,6.2-3.6,9.2-5.5
		C1121.5,439.2,1121.9,439,1122.4,439z"/>
	<path class="st0" d="M1098.2,501.3c-0.3,1.2-0.8,2.3-0.7,3.7c0.3-0.3,0.4-0.5,0.4-0.7c1-3.2,1.8-6.4,3-9.5c0.9-2.4,2-4.8,3.7-6.8
		c0.1-0.2,0.2-0.4,0.5-0.4c-0.7,2-1.6,3.8-2.3,5.7c0.2,0,0.2-0.2,0.4-0.2c-0.3,1.8-1,3.6-0.6,5.6c0.2-1.2,0.4-2.2,0.4-3.3
		c0-1.1,0.7-1.9,0.8-3c0.1-1.1,0.7-2,1.2-3c0.1,0.3,0.1,0.5,0.1,0.7c-0.1,0.5-0.3,1-0.1,1.5c0.1,0.4-0.3,0.9-0.5,1.3
		c-0.2,0.3-0.5,0.6-0.4,1.1c0.3-0.5,0.5-0.9,0.8-1.3c0.2,0.4,0.2,0.4-0.3,1.6c0.2,0.1,0.3-0.3,0.5-0.1c0.1,0.1,0,0.4,0,0.5
		c-0.1,0.3-0.4,0.6-0.4,1.1c0.2-0.2,0.3-0.4,0.6-0.6c0.2,1-0.7,1.5-0.7,2.4c0.3-0.5,0.5-0.8,0.8-1.2c1,2.9,2.3,5.6,4,8.2
		c-0.5-0.2-0.9-0.3-1.3-0.4c-2.2-1-4.5-1-6.8-0.3c-1,0.3-2,0.6-2.9,1.1c-1.3,0.7-2.6,0.4-3.9,0.1c-0.3-0.1-0.1-0.2-0.1-0.3
		c0.5-1.1,1.1-2.1,1.7-3.2c0.4,0.7,0.8,1.4,1.2,2.1c0.1-0.4,0-0.7-0.2-1c-0.2-0.4-0.4-0.7-0.7-1.1c-0.2-0.3-0.2-0.5,0.1-0.7
		c0.3,0.3,0.1,0.8,0.6,1c0-0.4,0-0.7-0.2-1c-0.3-0.5-0.1-0.8,0.2-1.2c0.4,0.5,0.6,1.1,0.9,1.7
		C1098.2,501.2,1098.2,501.2,1098.2,501.3z"/>
	<path class="st0" d="M1101.3,487.1c-2.3,1.3-4.3,2.9-6.2,4.7c-0.3,0.3-0.5,0.6-0.5,1.2c2.7-2.2,5.2-4.4,8.5-5.4c-1,0.8-2,1.5-3,2.3
		c-3.5,2.5-6.5,5.6-9.1,9c-0.3,0.4-0.5,0.9-0.9,1c-0.4,0.1-0.8-0.4-1.2-0.7c-1.2-0.8-2.4-1.3-3.9-1.2c-0.4,0-0.6-0.2-0.6-0.6
		c0-0.7-0.1-1.5-0.1-2.2c0-0.4,0.1-0.6,0.4-0.9c2.6-2.5,5.8-3.9,9.1-5.1c1.6-0.6,3.1-1.1,4.7-1.7c0.4-0.2,0.9-0.3,1.4-0.3
		c-3,1.6-6.1,3-8.8,5.2c3.2-2.1,6.7-3.8,10.2-5.3C1101.3,486.9,1101.3,487,1101.3,487.1z"/>
	<path class="st0" d="M1127.8,464.3c-0.5,0.1-0.8,0.4-1.2,0.6c-3.3,2.3-7,3.3-11,3.2c-1.8,0-3.5-0.3-5-1.3c-0.1-0.1-0.2-0.1-0.3-0.3
		c1.6,0.1,3.2,0.2,4.9,0.3c-0.3-0.3-0.6-0.2-0.8-0.2c-1.2-0.1-2.5-0.2-3.7-0.3c-0.9-0.1-1.8-0.4-2.6-0.8c-0.9-0.5-1.8-0.9-2.6-1.4
		c-0.2-0.1-0.3-0.2-0.5-0.3c0,0,0-0.1,0-0.1c0.9,0.3,1.9,0.5,2.8,0.8c-0.1-0.3-0.2-0.3-0.4-0.3c-0.7-0.2-1.3-0.5-2-0.6
		c-1.4-0.3-2.7-1.1-4.1-1.6c-2-0.7-4.1-0.8-6.2-0.8c-0.2,0-0.4,0-0.6-0.1c0.8-0.2,1.6-0.1,2.3-0.1c4.5,0.2,8.8,1.2,13.1,2.1
		c0.3,0.1,0.6,0.1,0.9,0.1c-2.6-1.2-5.5-1.4-8.2-1.9c-2.8-0.5-5.6-0.7-8.5-0.8c0.5-0.3,1-0.3,1.6-0.4c2.7-0.3,5.3,0.1,7.9,0.8
		c0.7,0.2,1.4,0.4,2.2,0.5c-0.4-0.3-0.8-0.4-1.2-0.6c0.2-0.1,0.4,0,0.5,0c3,0.6,5.8,1.5,8.7,2.3c3.8,1,7.6,1.4,11.4,1
		c0.8-0.1,1.6-0.2,2.4-0.4c0.1,0,0.3-0.2,0.4,0.1C1128.2,464.2,1128.2,464.5,1127.8,464.3z"/>
	<path class="st0" d="M1079,439.2c0.1,1.3,0.3,2.5,0.6,3.7c0.3,1.4,0.7,2.8,1.1,4.2c0,0.2,0.2,0.4-0.1,0.5c-0.3,0.2-0.4,0.3-0.6-0.1
		c-0.5-1.5-1-3-1.5-4.6c0-0.1,0-0.3-0.3-0.5c0.3,1.8,1,3.4,1.2,5.1c-0.4-0.2-0.4-0.4-0.5-0.6c-1-2.1-1.6-4.3-1.9-6.6
		c-0.3-1.9-0.7-3.7-0.8-5.6c-0.2-3.5-0.3-7.1,0.1-10.6c0.2-1.9,0.2-3.8,0.4-5.7c0-0.4,0-0.8,0.3-1.2c0.3,1.5,0.6,2.8,0.9,4.2
		c0.6,2.7,1.2,5.4,1.6,8.1c0.1,0.7,0.2,1.3,0.2,2c0,0.4,0,0.8,0.1,1.2c0,0.1,0.1,0.3,0,0.4c-0.4,1.3,0,2.5,0.1,3.8
		c0.3,3.2,0.9,6.3,1.6,9.4c0,0.2,0.1,0.4,0.1,0.6c0,0.2,0,0.3-0.2,0.3c-0.2,0-0.3-0.1-0.3-0.2c0-0.1-0.1-0.3-0.1-0.4
		c-0.7-2.4-1.4-4.8-1.8-7.3C1079.2,439.4,1079.2,439.3,1079,439.2z"/>
	<path class="st0" d="M1089.3,463.2c3.1-0.4,6.1,0.1,9.1,0.9c-3-1.1-6.1-1.5-9.5-1.2c0.4-0.3,0.7-0.4,0.9-0.4
		c3.5-0.4,6.9-0.3,10.4,0.4c0.9,0.2,1.7,0.6,2.5,1c3.2,1.7,6.4,3.4,9.6,5.1c2.3,1.2,4.7,2,7.1,3c0.2,0.1,0.4,0.1,0.5,0.3
		c-0.2,0.2-0.4,0.1-0.5,0.1c-3.1-0.1-6.1-0.5-9.1-1.4c-2.9-0.8-5.7-2-8.4-3.6c-2.9-1.7-5.9-3.1-9.1-3.8
		C1091.6,463.4,1090.5,463.3,1089.3,463.2C1089.3,463.3,1089.3,463.3,1089.3,463.2C1089.3,463.2,1089.3,463.2,1089.3,463.2z"/>
	<path class="st0" d="M1068.4,470.4c-0.1,0.1-0.1,0.2-0.2,0.3c0,0,0,0,0.1,0.1c0.5-0.4,1.1-0.7,1.6-1.1c0,0,0.1,0.1,0.1,0.1
		c-1.7,1.7-3.7,3.1-5.2,5c-1.5,1.9-2.5,4.1-3.8,6.1c0.1,0,0.1,0.1,0.2,0.1c0.1-0.1,0.2-0.3,0.3-0.4c1-1.5,1.9-3.1,2.9-4.6
		c0.4-0.6,0.8-1.2,1.4-1.5c0.3-0.1,0.5-0.4,0.7-0.6c1.4-1.6,3-2.9,4.6-4.2c0.2-0.2,0.4-0.3,0.8-0.3c-1.4,1.5-3.1,2.5-3.9,4.4
		c0.9-0.6,1.5-1.4,2.3-2.3c-0.1,0.5-0.4,0.7-0.5,1.1c0.7-0.7,1.2-1.5,2-2.1c0.7-0.6,1.4-1.3,2.3-1.7c0,0,0.1,0.1,0.1,0.1
		c-0.2,0.2-0.4,0.3-0.6,0.5c-0.8,0.8-1.4,1.8-2,2.8c-1.3,2.2-2.5,4.4-3.9,6.5c-0.1,0.2-0.3,0.5-0.6,0.5c0-0.5,0.2-0.9,0.1-1.3
		c-0.1,0-0.1,0-0.2,0.1c-1.1,1.8-2.9,2.7-4.7,3.6c-0.7,0.3-1.3,0.8-2.1,0.7c0,0,0,0,0,0c-1.6,0-2.1-0.6-1.5-2.1
		c0.6-1.8,1.8-3.2,3-4.6c1.3-1.4,2.7-2.6,4.2-3.8c0.1-0.1,0.3-0.3,0.3,0.1c0,0.1,0.2-0.1,0.2-0.1
		C1067.1,471.2,1067.7,470.8,1068.4,470.4C1068.3,470.3,1068.4,470.3,1068.4,470.4z"/>
	<path class="st0" d="M1063.9,439.5c0.5,1.8,1.3,3.6,2,5.4c0.1,0.2,0.2,0.4,0.2,0.7c-0.9-0.6-1.6-1.4-1.9-2.5
		c-0.3-1.1-0.7-2.1-1-3.2c-0.1-0.2-0.1-0.3-0.2-0.4c0.2,1.4,0.7,2.8,1.1,4.1c-0.5-0.2-0.9-0.5-1-1c-0.5-2.3-1.1-4.7-1.2-7.1
		c0-0.9,0.3-1.8,0.3-2.7c0-2.4,1-4.5,1.5-6.8c0.2-0.8,0.6-1.5,0.9-2.3c0.4,0.8,0.4,1.5,0.6,2.3c0.7,3.6,1.6,7,3.1,10.3
		c0.4,0.9,0.9,1.8,1.3,2.6c0.1,0.2,0.2,0.4,0.2,0.7c-0.7-0.6-1.4-1.2-2-1.8c-0.3-0.2-0.5-0.5-0.8-0.7c-0.2-0.1-0.5-0.2-0.8-0.1
		c-0.3,0.2-0.2,0.5-0.1,0.7c0.4,1.2,0.8,2.3,1,3.5c0.1,0.6,0.2,1.2,0.3,1.9c-1-2.6-1.6-5.4-2.3-8.2c-0.1,0.5,0,1,0.2,1.5
		c0.4,1.8,0.8,3.5,1.2,5.3c0.1,0.3,0.2,0.5,0.3,0.8c0.1,0.1,0.1,0.2,0,0.3c-0.1-0.2-0.3,0.1-0.4-0.1c-0.1-0.2-0.2-0.4-0.3-0.6
		c-0.9-2.3-1.4-4.6-1.9-7c0-0.2-0.1-0.4-0.1-0.6c-0.3,0-0.1,0.2-0.1,0.3c0.3,2.3,0.9,4.5,1.6,6.6c0.6,1.9,1.5,3.6,2.1,5.5
		c0,0.2,0.1,0.3,0.1,0.5c-0.3-0.2-0.4-0.5-0.5-0.7c-1.2-2.3-2.1-4.7-3-7.1c0-0.1-0.1-0.2-0.1-0.3c-0.1-0.1-0.2-0.1-0.2-0.2
		c0-0.1,0-0.2-0.1-0.3C1063.8,439,1063.8,439.3,1063.9,439.5z"/>
	<path class="st0" d="M1106.8,488c0.6,2.9,1.7,5.6,3.5,8c0.6,0.8,1.2,1.5,1.8,2.3c0.2,0.2,0.4,0.4,0.6,0.6c1.2,0.7,2.3,1.8,3.5,2.5
		c0.3,0.2,0.6,0.4,0.9,0.6c0.2,0.1,0.4,0.4,0.6,0c0,0,0.1,0,0.2,0c0.9,0.3,1.9,0.5,2.8,0.8c-0.4,0.3-0.6,0.4-1,0.3
		c-0.3-0.1-0.6-0.2-1-0.3c0,0.2,0.4,0.3,0.3,0.4c-0.1,0.1-0.3,0.1-0.4,0.2c-1.9,0.7-3.9,1.3-5.9,1.7c-0.5,0.1-1,0.1-1.5,0.1
		c-0.2,0-0.4-0.1-0.6-0.3c-0.9-0.6-1.4-1.6-1.9-2.5c-0.3-0.4-0.5-0.9-0.7-1.5c0.3,0.1,0.5,0.2,0.7,0.4c0,0,0.1,0,0.1,0
		c0.4,0.8,1.1,1.2,1.6,1.8c-0.5-0.6-1.2-1.1-1.6-1.8c0,0-0.1,0-0.1,0c0.1-0.2-0.1-0.3-0.2-0.4c-0.7-0.8-1.2-1.7-1.3-2.9
		c0.7,0.9,1.3,1.6,1.9,2.4c0,0,0.1-0.1,0.1-0.1c-0.1-0.2-0.3-0.4-0.4-0.6c-0.8-1.1-1.6-2.1-2.1-3.4c0-0.1-0.1-0.2-0.1-0.3
		c0-0.2,0.1-0.3,0.2-0.4c0.1,0,0.2,0.1,0.2,0.2c0.4,0.7,0.9,1.3,1.3,2c0.1,0.1,0.1,0.3,0.4,0.4c-0.1-0.2-0.2-0.3-0.3-0.5
		c-0.7-1.2-1.5-2.4-2.2-3.6c-0.2-0.3-0.4-0.6-0.2-1.1c0.5,0.8,1,1.6,1.4,2.4c0.2-0.4,0-0.6-0.1-0.9c-0.4-1.1-0.9-2.2-1.3-3.3
		c-0.1-0.3-0.2-0.5-0.3-0.8c0,0,0.1,0,0.1-0.1c0.3,0.6,0.6,1.3,0.9,1.9c0.1-0.2,0-0.3,0-0.5c-0.3-0.7-0.5-1.4-0.8-2.1
		c-0.2-0.6-0.1-1.1,0.2-1.8c0.2,0.9,0.4,1.7,0.5,2.5c0.1,0.2,0.1,0.5,0.4,0.6c0,0.2,0,0.4,0.1,0.5c0-0.1,0-0.3-0.1-0.5
		c-0.1-0.7-0.3-1.4-0.3-2.1C1106.7,488.5,1106.5,488.2,1106.8,488z"/>
	<path class="st0" d="M1066.2,491.9c0-0.3,0.3-0.6-0.2-0.6c-0.1,0-0.1,0-0.2,0.1c-0.3,0.5-0.9,0.7-1.3,1.1c-0.1,0.1-0.2,0.1-0.3,0.2
		c-0.3,0.1-0.6,0-0.8-0.2c-0.3-0.3,0.3-0.3,0.2-0.5c-0.4,0.2-0.8,0.3-1.1-0.2c-0.2-0.4,0.4-0.5,0.5-0.9c-0.2,0-0.4,0.2-0.5,0.2
		c-0.1,0-0.2,0.2-0.4,0c-0.1-0.2-0.2-0.3-0.1-0.5c0.1-0.1,0.2-0.3,0.3-0.5c-0.5,0.3-0.5,0-0.5-0.3c0.1-0.8,0.5-1.3,1.2-1.8
		c0.9-0.7,1.9-0.9,3-0.5c1.7,0.5,3.4,0.8,5.2,0.5c1.5-0.3,2.8-1,4.2-1.6c0.8-0.4,1.3-1,1.8-1.6c0.2-0.2,0.3-0.2,0.6,0
		c0.3,0.2-0.1,0.3-0.1,0.5c0.7-0.3,0.9,0.4,1.4,0.5c0.2-0.2-0.1-0.3-0.1-0.4c0.5,0,0.8,0.2,0.8,0.7c0.2,1.6,0.2,1.6-1.3,2.2
		c-3.3,1.2-6.4,2.9-9.6,4.4c-0.3,0.1-0.5,0.2-0.8,0.4c-0.4,0.3-0.8,0.1-1.1-0.1c-0.1,0-0.2-0.1-0.2-0.2
		C1067.1,491.9,1066.5,492,1066.2,491.9L1066.2,491.9z"/>
	<path class="st0" d="M1057.4,451.4c-1.8-1.1-3.6-2.2-5.4-3.3c0,0.3,0.2,0.4,0.4,0.5c1.7,1,3.3,2.1,4.9,3.2c0.4,0.3,0.8,0.7,0.9,1.4
		c-2-1-4-2-5.9-3.1c0,0,0,0.1-0.1,0.1c0.4,0.3,0.9,0.6,1.3,0.8c1.5,0.8,3.1,1.7,4.6,2.5c0.5,0.3,0.8,0.7,0.9,1.2
		c-0.3,0-0.6-0.2-0.8-0.3c-2.5-1.3-4.9-2.8-7.2-4.5c-0.2-0.1-0.8-0.2-0.4-0.7c-0.1-0.1-0.1-0.1-0.2-0.2c-1-0.5-1.9-1.2-2.8-1.9
		c-1.8-1.3-3.8-2.1-5.8-3.1c-1.6-0.8-3.3-1.3-4.9-2c-0.1-0.1-0.3-0.1-0.5-0.3c1.2-0.1,2.3,0,3.4,0c4.5,0,8.3,2.1,12,4.3
		c1.3,0.8,2.5,1.6,3.7,2.5c0.3,0.2,0.5,0.4,0.7,0.8c-0.9-0.3-1.7-0.9-2.7-1.2c0.7,0.7,1.4,1,2.1,1.4
		C1056.3,450.1,1057.1,450.4,1057.4,451.4z"/>
	<path class="st0" d="M1081.9,439.1c0.1,2.3,0.2,4.5,0.5,6.8c0.1,0.4,0.1,0.9,0.2,1.3c0,0.1,0.1,0.3-0.1,0.4c-0.2,0-0.3-0.1-0.4-0.3
		c-0.1-0.6-0.3-1.3-0.4-1.9c-0.4-1.9-0.5-3.9-0.7-5.8c-0.3-2.6-0.7-5.2-1.1-7.9c-0.5-4-1.3-8-2.2-12c-0.1-0.4-0.1-0.7-0.1-1.1
		c0.1,0.2,0.2,0.4,0.2,0.6c1.3,3.8,2.8,7.6,4.2,11.4c1.3,3.6,1.9,7.4,2.1,11.2c0.1,1.8-0.3,3.6-0.6,5.4c0,0.2-0.2,0.4-0.5,0.4
		c-0.2-1.2-0.3-2.3-0.5-3.4c-0.2-1.5-0.4-3-0.5-4.6C1082.1,439.4,1082.1,439.2,1081.9,439.1c0-0.8,0.1-1.6,0-2.3c0-0.4,0-0.8,0-1
		C1081.9,436.7,1082.1,437.9,1081.9,439.1z"/>
	<path class="st0" d="M1092.6,442c-0.5,0.8-1.3,1.1-1.8,1.8c-0.6,0.8-1.2,1.6-1.8,2.4c-0.1,0.1-0.2,0.3-0.4,0.3
		c1-1.8,2.2-3.5,3.2-5.2c-1.5,1.8-2.7,3.8-4.1,5.8c0.9-2.2,2-4.2,3.1-6.2c-0.3,0.1-0.5,0.5-0.6,0.7c-1.4,2.2-2.5,4.6-3.6,7
		c-0.3,0.7-0.8,1.3-1.4,1.8c0.7-1.1,1.2-2.4,1.7-3.6c2.2-4.9,5.3-9.2,8.7-13.3c1.3-1.5,2.8-2.9,4.3-4.2c0.1-0.1,0.2-0.3,0.5-0.3
		c-0.1,0.5-0.3,1-0.5,1.5c-1.1,2.7-2.3,5.5-3.4,8.2c-0.4,0.9-0.9,1.6-1.5,2.3c-0.1,0.1-0.3,0.1-0.1,0.4c0.1,0.2-0.3,0.9-0.5,0.9
		c-0.3,0,0.1-0.2-0.1-0.2c-1.1,0.9-1.7,2.3-2.9,3.1c0,0-0.1-0.1-0.1-0.1c0.5-0.6,0.9-1.2,1.4-1.8c0.1-0.1,0.4-0.2,0-0.4
		C1092.3,442.5,1092.8,442.3,1092.6,442z"/>
	<path class="st0" d="M1054.5,456.5c1.3,0.8,2.7,1.4,4,2.1c1.2,0.5,2.5,1,3.8,1.4c0.5,0.1,1,0.3,1.3,0.7c0.3,0.4,0.7,0.6,1.1,1.1
		c-2.3-0.5-4.4-1.4-6.4-2.5c0.6,0,1,0.4,1.6,0.3c-0.3-0.3-0.6-0.3-0.8-0.4c-2.4-0.8-4.6-1.9-6.6-3.4c-1.2-0.9-2.3-2-3.3-3.1
		c-0.7-0.7-1.4-1.5-2-2.2c-2.8-3.4-6.4-5.6-10.5-7.1c-0.5-0.2-1-0.4-1.6-0.7c0.3-0.1,0.5-0.1,0.7,0c3.8,1.1,7.4,2.5,10.7,4.7
		c2,1.3,3.7,2.9,5.6,4.5c1.9,1.6,3.8,3.2,5.9,4.5c0.1,0,0.1,0.1,0.2,0.2c-3.5-1.3-6.8-3.2-9.7-5.6c0,0.1-0.1,0.1-0.1,0.2
		c0.2,0.2,0.4,0.4,0.7,0.6c0.2,0.2,0.5,0.4,0.7,0.6c2.6,2,5.5,3.4,8.5,4.7c0.9,0.4,1.9,0.9,2.8,1.2c0.7,0.2,1,0.9,1.4,1.4
		C1059.6,459,1057.2,457.5,1054.5,456.5z"/>
	<path class="st0" d="M1127.8,464.3c0.2-0.1,0.3-0.3,0.5-0.4c0.2,0.1,0.4-0.1,0.5-0.2c0.6-0.5,1.3-1,1.9-1.4
		c0.7-0.5,1.1-1.3,1.7-1.9c0.1-0.1,0.1-0.5,0.5-0.2c0.1,0.1,0.2-0.2,0.3-0.3c0.2-0.3,0.2-0.7,0.6-0.9c-0.5,6.3-6.4,11.4-12.1,11.7
		c2.5-0.5,4.4-1.9,6.3-3.5c1.9-1.5,3.5-3.3,4.4-5.8c-0.3,0.2-0.4,0.4-0.5,0.6c-1.1,2.4-3,4.2-5.1,5.8c-1.8,1.4-3.8,2.2-6,2.8
		c-0.9,0.2-1.7,0.2-2.6-0.2c-1.2-0.6-2.5-1-3.7-1.5c-0.2-0.1-0.3-0.1-0.6-0.3c0.4,0,0.8,0,1.1-0.1c1.3-0.1,2.6,0.1,3.9-0.1
		c3.2-0.6,6.1-1.8,8.6-3.9C1127.7,464.4,1127.8,464.3,1127.8,464.3z"/>
	<path class="st0" d="M1098.8,451.7c0.4-0.7,0.8-1.1,1.3-1.5c1.6-1.1,3.1-2.1,4.7-3.2c0.1-0.1,0.3-0.2,0.4-0.5c-1.7,0.9-3.1,2-4.7,3
		c0.8-1.2,1.4-2.4,2.4-3.3c0.7-0.6,1.5-1.3,2.2-2c0.1-0.1,0.3-0.1,0.5-0.1c3.3-1.5,6.7-2.7,10.2-3.8c1.5-0.5,3-0.7,4.5-1.1
		c0.1,0,0.1,0,0.2,0c-0.3,0.4-0.7,0.6-1.1,0.9c-3.4,2.1-6.8,4.1-10.4,5.8c-3.2,1.5-6.3,3.5-9.4,5.3
		C1099.4,451.4,1099.1,451.5,1098.8,451.7z"/>
	<path class="st0" d="M1061,440.1c-0.5-1.2-0.9-2.4-1.5-3.5c0,0-0.1,0-0.1,0.1c0.6,1.4,1.1,2.8,1.7,4.2c0,0-0.1,0-0.1,0.1
		c-0.7-1.2-1.3-2.4-2-3.6c0,0-0.1,0-0.1,0.1c0.5,0.9,0.9,1.9,1.4,2.9c-0.4-0.1-0.5-0.3-0.6-0.5c-1.8-2.4-3.1-5.1-4.1-7.9
		c-0.9-2.3-1.9-4.4-3-6.6c-0.1-0.2-0.2-0.4-0.3-0.6c0.1-0.1,0.1-0.1,0.2,0c1.8,1.3,3.6,2.5,5.2,4c1.2,1.1,2.1,2.4,2.9,3.8
		c0.5,0.8,0.3,1.7,0.2,2.7c-0.3-0.5-0.6-1-0.9-1.4c-0.1,0-0.1,0-0.2,0.1c0.8,1.4,1.5,2.9,1.2,4.6c-0.4-0.7-0.5-1.6-1-2.3
		c0,0-0.1,0-0.1,0.1c0.5,1.3,0.9,2.6,1.4,3.9C1061.2,440.1,1061.1,440.1,1061,440.1z"/>
	<path class="st0" d="M1075.7,438.3c0.1,2,0.5,3.9,1,5.8c0.2,1,0.5,2.1,0.8,3.1c0,0.2,0.3,0.5,0,0.6c-0.3,0.1-0.4-0.2-0.5-0.4
		c-0.5-1.4-1-2.9-1.4-4.4c-0.9-3.3-1.7-6.6-2.1-10c-0.4-3.7-0.1-7.4,1.2-10.9c0.4-1,0.7-2.1,1.1-3.2c0.1-0.2,0.2-0.5,0.4-0.7
		c-0.9,8.5-1.1,17,0.7,25.5c-0.7-1.9-0.9-3.8-1.1-5.7c-0.1-0.1-0.1-0.2-0.1-0.3C1075.8,437.8,1075.6,438.1,1075.7,438.3z"/>
	<path class="st0" d="M1099.9,459.5c1.1-0.1,2.3-0.2,3.4,0.1c2.7,0.7,5.5,1.3,8.1,2.2c0.5,0.2,1.1,0.4,1.6,0.5
		c-2.8-1.3-5.8-1.7-8.8-2.8c3.4,0,6.5,0.5,9.6,1.4c2.7,0.7,5.3,1.4,8,1.8c1.5,0.2,3.1,0,4.6-0.2c2-0.1,3.5-1.3,5-2.3
		c0.3-0.2,0.3-0.3,0.8-0.4c-0.7,1.1-1.5,2.1-2.5,2.8c-1.4,0.9-2.9,1.2-4.5,1.4c-4.7,0.5-9.2-0.5-13.6-1.7c-3.7-1.1-7.3-2-11.1-2.5
		C1100.3,459.6,1100.1,459.5,1099.9,459.5z"/>
	<path class="st0" d="M1066,463c-2-0.5-3.9-1.1-5.8-1.8c-3.6-1.3-6.8-3.4-10-5.5c-3.5-2.4-6.4-5.4-9.5-8.3c-1.5-1.4-3-2.7-4.7-3.9
		c-0.1-0.1-0.3-0.2-0.3-0.4c0.8,0.3,1.6,0.5,2.4,0.9c4,1.7,7.3,4.3,9.9,7.7c1.9,2.5,4.3,4.2,6.9,5.9c3.2,2.1,6.6,3.6,10.2,4.6
		C1065.4,462.4,1065.8,462.5,1066,463z"/>
	<path class="st0" d="M1069.5,440.7c0.9,0.8,1.6,1.6,2.2,2.6c2.3,3.5,4.4,7.1,6.4,10.7c0.5,0.8,0.5,1.8,0.7,2.7
		c0.5,2.2,0.9,4.3,1.8,6.3c0.2,0.4,0.2,0.8-0.1,1.1c-0.2,0.3-0.3,0.3-0.5,0c-0.8-1.4-1.5-3-2.2-4.5c-0.3-0.7-0.5-1.4-0.8-2.1
		c-0.1-0.2-0.2-0.5-0.5-0.6c0.5,1.8,1.2,3.5,1.8,5.2c0,0-0.1,0-0.1,0.1c-0.3-0.5-0.5-1-0.8-1.5c-0.2-0.5-0.5-1-0.7-1.6
		c-0.2-0.5-0.4-1.1-0.6-1.6c-0.8-2.6-1.5-5.2-2.5-7.7c-1.2-2.9-2.7-5.6-4.2-8.3C1069.7,441.1,1069.5,441,1069.5,440.7z"/>
	<path class="st0" d="M1065.7,455c0.7,0.8,1.6,1.5,2.3,2.3c-0.5-0.3-1-0.7-1.4-1.1c-1.9-1.7-3.8-3.4-5.4-5.5
		c-0.1-0.1-0.2-0.2-0.1-0.4c0.1-0.2-0.1-0.3-0.2-0.5c-0.7-1-1.3-1.9-1.8-3c-1.4-3-3.2-5.8-5.2-8.4c-0.7-0.9-1.6-1.8-2.5-2.6
		c-0.4-0.3-0.7-0.7-1-1.1c0.2-0.1,0.3,0,0.5,0.1c0.9,0.7,1.8,1.4,2.5,2.2c1.4,1.6,3.1,2.9,4.4,4.5c2.1,2.5,3.8,5.2,5.6,7.8
		c1.1,1.5,2.3,2.9,3.5,4.4c0.1,0.1,0.3,0.2,0.3,0.6c-2.5-1.9-4.5-4.1-6.6-6.3c0,0.3,0.2,0.4,0.3,0.6c2,2.3,4.2,4.5,6.6,6.4
		c0.4,0.3,0.7,0.6,0.7,1.2c0,0.1,0.1,0.3-0.1,0.3c-0.1,0-0.2-0.1-0.3-0.1c-0.7-0.5-1.3-1.1-1.9-1.6c-0.5-0.3-0.9-0.8-1.3-1.1
		C1064.8,454.2,1065.4,454.4,1065.7,455z"/>
	<path class="st0" d="M1073.4,439.9c0.3,1.6,0.5,3.1,0.8,4.7c0,0.1,0,0.2,0.1,0.4c-0.8-0.8-1-1.6-1.2-2.5c-0.2-0.9-0.3-1.8-0.7-2.6
		c0.2,1,0.3,1.9,0.5,2.9c-0.4-0.5-1-0.8-1.1-1.6c-0.3-2.4-0.6-4.8-0.4-7.2c0.2-4.5,1.1-8.8,3.1-12.9c0-0.1,0.1-0.1,0.2-0.3
		c0,0.5-0.1,0.8-0.2,1.1c-1.7,4.5-1.7,9.2-0.8,13.9c0.7,3.9,1.6,7.8,2.7,11.6c0,0.1,0.1,0.3,0.1,0.4c0,0.1,0,0.1,0,0.2
		c-0.2,0-0.3-0.2-0.4-0.3c-0.7-1-1.1-2-1.4-3.2C1074.2,443,1073.8,441.4,1073.4,439.9c0-0.2,0-0.4,0-0.5
		C1073.4,439.5,1073.4,439.7,1073.4,439.9z"/>
	<path class="st0" d="M1066.2,450.7c0.5,0.6,1,1.3,1.5,1.9c0.1,0.1,0.1,0.2,0.2,0.3c0.2,0.2,0.3,0.5,0.1,0.7
		c-0.2,0.2-0.4-0.1-0.6-0.2c-1.2-1-2.3-2.2-3.2-3.5c-1.2-1.7-2.4-3.3-3.6-5.1c-1.5-2.3-3.4-4.2-5.2-6.1c-0.3-0.4-0.7-0.7-1-1.1
		c-0.1-0.1-0.3-0.2-0.3-0.5c0.2,0,0.4,0.2,0.5,0.3c2.4,1.8,4.8,3.7,7.1,5.8c1.3,1.3,2.8,2.3,4,3.7c0.7,0.9,1.4,1.7,2,2.6
		c-0.7-0.5-1.2-1.3-1.8-1.9c0,0.4,0.2,0.6,0.5,0.9c0.4,0.5,0.9,1.1,1.4,1.6c0.3,0.4,0.5,0.7,0.5,1.3c0,0.4,0,0.7,0,1.2
		c-0.8-0.7-1.3-1.4-1.9-2c-0.4-0.2-0.6-0.7-0.8-0.9C1065.7,450,1066,450.3,1066.2,450.7z"/>
	<path class="st0" d="M1095.3,442.5c-0.4,0.3-0.7,0.7-1.1,1.1c-0.5,0.5-1.2,0.9-1.9,1c0-0.1,0-0.2,0.1-0.3c1.7-1.2,2.8-2.9,3.8-4.7
		c0.6-1.2,1.1-2.5,1.6-3.7c1-2.3,2-4.5,2.8-6.9c0.3-0.9,0.9-1.6,1.8-2c-0.3,1.1-0.7,2.2-0.9,3.3c-0.4,2.3-0.9,4.6-1.2,6.9
		c-0.2,1.2-0.6,2.4-1.1,3.5c-0.3,0.8-1,1.3-1.8,1.4c0.1-0.4,0.4-0.6,0.6-0.8c0.2-0.3,0.4-0.5,0.6-0.8c-1.1,0.9-1.9,2.4-3.5,2.6
		C1095.1,442.9,1095.3,442.8,1095.3,442.5c0.4-0.5,0.8-1,1.1-1.4C1096.2,441.5,1095.7,442,1095.3,442.5z"/>
	<path class="st0" d="M1068.2,431.6c0.5,1.8,1.1,3.5,1.5,5.3c0.1,0.6,0.2,1.1,0.4,1.7c-3-4.9-4-10.3-5-15.8c0.4,0.3,0.8,0.6,1.2,0.8
		c1,0.7,1.8,1.5,2.6,2.3c1.2,1.2,1.7,2.7,1.6,4.5c0,0.8-0.2,1.5-0.4,2.3c-0.6-2.2-1.2-4.4-1.8-6.6c-0.1,0-0.1,0-0.2,0
		c1,3.9,2.2,7.9,2.3,12c-0.7-2.2-1.3-4.4-2.1-6.6c-0.1-0.1-0.2-0.2-0.2-0.4C1068.1,431.3,1068.2,431.5,1068.2,431.6z"/>
	<path class="st0" d="M1083.7,431.6c-0.4-0.6-0.4-1.1-0.2-1.7c0.3-0.8,0.7-1.6,1-2.4c0.1-0.2,0.2-0.3,0.1-0.6
		c-0.5,1.1-0.9,2-1.4,3.1c-0.4-0.4-0.4-0.8-0.2-1.3c0.3-0.5,0.5-1,0.8-1.6c0-0.1,0.2-0.2,0-0.4c-0.4,0.6-0.8,1.2-1.1,1.8
		c-0.3-0.3-0.2-0.5,0-0.8c1.6-2.4,3.9-4,6.5-5.3c0.6-0.3,1.3-0.6,2-1c-1.1,3.2-2.7,5.9-4.3,8.7c0-0.4,0-0.8,0.3-1
		c0.1-0.1,0.2-0.3,0.3-0.5c0.4-1,0.9-2,1.3-3c0.1-0.1,0.2-0.3,0.1-0.6c-1.6,3.2-3.1,6.3-4.2,9.7c-0.2-0.5-0.2-0.6,0-1.4
		c0.3-1.5,0.9-3,1.5-4.4c0.1-0.3,0.2-0.5,0.2-0.8c-0.9,1.6-1.5,3.3-2,5.2c-0.3-0.4-0.3-0.7-0.2-1.1c0.4-1.6,1-3,1.7-4.5
		c0.1-0.2,0.2-0.5,0.3-0.7C1085,428.4,1084.4,430,1083.7,431.6z"/>
	<path class="st0" d="M1105.4,440.1c1.3-1.6,2.5-3.1,3.9-4.8c-0.3,0.1-0.4,0.2-0.5,0.4c-1.3,1.4-2.5,2.8-3.8,4.3
		c-0.2,0.2-0.4,0.5-0.9,0.4c0.7-1.1,1.7-2.1,2.5-3.3c-0.4,0.2-0.6,0.4-0.8,0.7c-0.7,0.9-1.5,1.7-2.2,2.6c-0.2,0.3-0.5,0.5-1,0.5
		c0.8-1.3,1.8-2.3,2.6-3.6c-0.3,0.1-0.4,0.2-0.5,0.4c-0.8,1-1.6,2-2.4,3c-0.2,0.2-0.3,0.5-0.7,0.4c0.1-0.1,0.1-0.3,0.2-0.4
		c1.1-1.7,2.5-3.2,3.9-4.6c2.5-2.5,5-5.1,7.4-7.7c0.2-0.2,0.4-0.4,0.6-0.6c0,0.6-0.2,1.2-0.4,1.8c-0.5,1.2-0.9,2.3-1.5,3.5
		c-0.6,1.3-1.3,2.4-2.3,3.4c-0.9,1-1.8,2-2.7,3C1106.5,439.9,1106,440.1,1105.4,440.1z"/>
	<path class="st0" d="M1130.6,460.4c-1.3,1-2.8,1.6-4.4,1.8c-2.8,0.5-5.5-0.1-8.2-0.7c-3.5-0.9-6.9-1.9-10.4-2.4
		c-3.8-0.6-7.5-1-11.3-0.6c-0.7,0.1-1.3,0.2-2,0.1c0.7-0.3,1.4-0.4,2.1-0.5c3.8-0.6,7.6-0.4,11.4,0c3.1,0.3,6.1,1.3,9.1,1.9
		c4.4,0.9,8.8,1,13.2,0.3C1130.2,460.3,1130.4,460.3,1130.6,460.4z"/>
	<path class="st0" d="M1101.1,426.8c-0.1,0.4-0.4,0.5-0.6,0.7c-2.9,2-5.9,4-8.6,6.3c-0.9,0.8-1.6,1.9-2.4,2.8
		c-1.7,1.9-2.5,4.3-3.8,6.3c-0.1,0.2-0.1,0.3-0.3,0.5c-0.2-0.3,0-0.6,0.1-0.9c0.6-1.4,1.3-2.7,2-4.1c0.1-0.2,0.2-0.3,0.2-0.6
		c-0.9,1.2-1.5,2.5-2.2,3.7c0.2-1.7,0.9-3.1,1.7-4.6c-0.8,0.7-1.1,1.8-1.9,2.6c-0.3-0.5-0.1-1,0.2-1.4c1.9-2.9,4.3-5.3,7.2-7.1
		c2.6-1.6,5.2-3,8-4.1C1100.8,426.9,1100.9,426.9,1101.1,426.8z"/>
	<path class="st0" d="M1074.3,453.1c0-0.3,0-0.6,0-0.9c0-0.1,0-0.3-0.2-0.3c-0.1,0-0.2,0.1-0.2,0.2c-0.1,0.3-0.1,0.7-0.1,1
		c-0.1,2.4,0.5,4.6,1.5,6.8c0.7,1.6,1.7,3,2.7,4.3c0.3,0.3,0.5,0.7,0.7,1.1c-0.7-0.2-1.3-0.6-1.7-1.1c-0.3-0.4-0.6-0.9-0.9-1.3
		c-1.4-1.7-2.4-3.7-3-5.7c-0.6-1.9-0.9-3.8-1.1-5.8c-0.3-2.7-0.8-5.3-1.6-7.8c-0.1-0.3-0.2-0.7-0.2-1.1c0.2,0.3,0.4,0.7,0.5,1
		c1.4,2.9,3,5.6,3.8,8.8c0.6,2,1.1,4.1,1.9,6.1c0.8,2.1,1.8,4.1,3.3,5.8c0.2,0.2,0.2,0.2,0.3,0.6c-0.3-0.1-0.5-0.4-0.8-0.8
		c-1.9-2.9-3.6-5.9-4.5-9.3c0-0.1,0-0.2-0.2-0.3C1074.2,454,1074.1,453.5,1074.3,453.1z"/>
	<path class="st0" d="M1088.7,440.7c-1.4,2.2-2.5,4.7-3.8,7c-0.2-0.1-0.1-0.2-0.1-0.3c1.3-4.2,2.9-8.3,5.7-11.8
		c0.8-1,1.8-1.9,2.9-2.7c1.9-1.4,3.8-2.8,5.7-4.3c0.3-0.2,0.6-0.5,0.9-0.6c-1.4,1.5-3,2.9-4.4,4.5c-1.4,1.6-2.7,3.2-4,4.8
		c-1.3,1.6-2.3,3.5-3.3,5.3c-1,1.8-2,3.7-3,5.6c-0.3-0.2-0.1-0.4,0-0.6c1-2.1,2-4.2,3.1-6.2c0.1-0.2,0.2-0.4,0.3-0.6
		C1088.8,440.8,1088.8,440.7,1088.7,440.7z"/>
	<path class="st0" d="M1102.3,433.6c1-1.3,2.4-2.1,3.9-2.7c2.1-0.9,4.1-2,6.1-3c0.2-0.1,0.5-0.2,0.8-0.2c-1.6,2-3.5,3.8-5.3,5.6
		c-1.8,1.8-3.4,3.8-5.5,5.4c0.1-0.4,0.5-0.7,0.7-1c0.1-0.2,0.4-0.3,0.1-0.6c-0.1-0.1,0.1-0.2,0.1-0.3c0.7-0.9,1.4-1.8,2.1-2.7
		c0.1-0.1,0.3-0.3,0.2-0.6c-0.3,0.2-0.5,0.6-0.8,0.8c-0.1-0.2,0.2-0.2,0.1-0.4c-1.4,1.3-2.5,2.9-3.7,4.4c0.7-1.6,1.9-2.9,2.9-4.4
		c0,0-0.1-0.1-0.1-0.1c-0.8,1-1.6,2-2.4,3c0.2-1,0.8-1.7,1.2-2.5c-0.5,0.2-0.6,0.8-1.1,1C1101.5,434.6,1102,434.2,1102.3,433.6
		C1102.2,433.7,1102.3,433.6,1102.3,433.6z"/>
	<path class="st0" d="M1051.9,436.9c2.9,3,5,6.5,6.8,10.2c0,0-0.1,0-0.1,0.1c-0.2-0.4-0.5-0.8-0.7-1.2c-0.3-0.4-0.5-0.8-0.8-1.2
		c0,0.5,0.2,0.9,0.4,1.2c1.1,1.7,2.3,3.3,3.4,5c1.4,2.3,3.1,4.3,4.7,6.3c0.1,0.2,0.2,0.3,0.4,0.5c0,0,0,0.1,0,0.1
		c-0.1,0.1-0.2-0.1-0.4-0.1c0.7,1.1,1.9,1.7,2.5,2.7c-1.4-0.8-2.3-2-3.5-3c1.1,1.5,2.5,2.6,3.8,3.9c-0.3,0.1-0.4,0-0.5-0.1
		c-1.4-1.2-2.9-2.5-4.2-3.8c-0.9-1-1.7-2.1-2.3-3.4c-0.9-1.9-2.4-3.5-3.2-5.5c-0.8-2-2-3.7-3-5.5c-1-1.9-2-3.7-3.1-5.5
		c-0.1-0.2-0.2-0.4-0.3-0.6C1051.8,436.9,1051.8,436.9,1051.9,436.9z"/>
	<path class="st0" d="M1081,478.1c0-0.2,0.1-0.4,0.2-0.6c0.3,0.2,0.3,0.5,0.5,0.6c0,0,0.1-0.1,0.1-0.1c-0.4-1.1-0.2-2.3-0.1-3.5
		c0.2-1.8-0.1-3.6,0-5.4c0-0.2,0-0.4,0.2-0.6c0,0.3,0,0.7,0,1c-0.1,1.1,0,2.2,0.1,3.2c0,0.3,0,0.6,0,0.8c0,0.7-0.2,1.5,0.1,2.2
		c0.1,0.3,0,0.5-0.1,0.8c-0.1,0.3-0.2,0.6,0.1,0.9c0.1,0.1,0.1,0.3,0,0.5c-0.1,0.6-0.4,1.2-0.2,1.8c0.1,0.3-0.2,0.7-0.1,1
		c0,0.1-0.1,0.3,0.1,0.2c0.5-0.2,0.3,0.2,0.3,0.4c-0.1,0.3-0.2,0.6-0.3,1c0,0.1-0.1,0.3,0,0.4c0.5,0.1,0.3,0.4,0.3,0.7
		c-0.1,0.8-0.1,1.6-0.1,2.4c0,0.6,0,1.1-0.1,1.7c0.2,0.1,0.3-0.1,0.5,0c-0.1,0.6-0.2,1.3-0.3,1.9c0.3,0,0.2-0.3,0.5-0.3
		c-0.1,0.7-0.2,1.5-0.3,2.2c0.3,0.1,0.2-0.2,0.4-0.3c-0.1,0.6-0.3,1.2-0.2,1.8c0.2,0,0.1-0.2,0.2-0.2c0.1,0,0.1,0.2,0.1,0.3
		c0,0.3-0.1,0.5-0.1,0.8c0,0.3-0.3,0.7,0.2,0.9c0,0,0,0.1,0,0.2c-0.1,0.9,0.1,1.8,0,2.6c0,0.1,0,0.2,0,0.3c0.3,0.5,0.2,1,0,1.5
		c-0.2,0.7,0.1,1.4,0,2c0,0,0,0.1,0.1,0.1c0.4,0.2,0.4,0.2,0.3,0.5c-0.2,0.9,0,1.8,0.3,2.7c0.1,0.4,0,0.5-0.4,0.5
		c-0.3,0-0.5,0-0.8,0c-0.2,0-0.3-0.2-0.2-0.3c0.4-0.2,0.1-0.4,0-0.6c-0.2-0.4-0.3-0.8-0.2-1.2c0.1-0.4,0-0.8-0.1-1.2
		c-0.1-0.3-0.1-0.6,0.1-0.9c0.1-0.1,0-0.2,0-0.4c-0.2-0.7-0.4-1.3-0.2-2c0.1-0.2-0.1-0.5-0.2-0.7c-0.1-0.3-0.2-0.7-0.2-1.1
		c0.1,0,0.1,0,0.1,0c0.1,0.1,0,0.4,0.3,0.3c0.2-0.1,0.1-0.3,0-0.4c-0.2-0.5-0.5-1.1-0.5-1.6c0-0.2-0.1-0.4,0.1-0.6
		c0.2,0.1,0.2,0.3,0.4,0.5c0.1-0.8-0.6-1.5-0.6-2.3c0.3,0.2,0.3,0.5,0.5,0.7c0-0.9-0.7-1.6-0.6-2.5c0.2,0.4,0.3,0.8,0.5,1.1
		c0.2-0.2,0.1-0.3,0.1-0.5c-0.2-0.5-0.3-1.1-0.6-1.6c-0.2-0.3-0.1-0.7,0-1.1c0.3,0.1,0.1,0.4,0.4,0.5c0.1-0.5,0-1-0.3-1.4
		c-0.3-0.6-0.5-1.7-0.3-2.4c0.2,0,0.2,0.3,0.4,0.2c-0.1-0.7-0.5-1.3-0.5-2c0.2,0,0.2,0.3,0.4,0.2c-0.1-0.5-0.3-0.9-0.4-1.3
		c0-0.2-0.3-0.5,0.2-0.5c0.1,0,0.1-0.1,0.1-0.2c-0.1-0.3,0-0.6-0.3-0.8c-0.3-0.3-0.2-0.6-0.2-0.9c0-0.1,0-0.1,0.1-0.1
		c0,0,0.1,0,0.1,0c0-0.6,0.3-1.3-0.2-1.8C1081,478.3,1080.9,478.2,1081,478.1z"/>
	<path class="st0" d="M1068.3,485c-0.2,0.5-0.1,0.9-0.2,1.3c0,0.2,0.2,0.6-0.2,0.6c-0.4,0.1-0.8,0-0.9-0.4c-0.1-0.4-0.2-0.8-0.3-1.3
		c0-0.1,0-0.2-0.1-0.2c0,0.4,0,0.7,0,1.1c0,0.2,0.1,0.4-0.2,0.4c-0.3,0-0.5-0.1-0.6-0.4c-0.1-0.4-0.1-0.8-0.1-1.2
		c0-0.2,0.1-0.4-0.1-0.7c-0.2,0.5-0.1,0.9-0.1,1.4c0,0.2,0.2,0.6-0.2,0.6c-0.4,0-0.7-0.1-0.8-0.5c-0.1-0.4,0-0.7,0.1-1.1
		c0.1-0.7,0.2-1.4,0.4-2.3c-0.4,0.4-0.4,0.9-0.5,1.3c-0.2,0.6-0.2,1.3-0.2,1.9c0,0.3-0.1,0.4-0.4,0.3c-0.7-0.2-0.8-0.3-0.6-1
		c0-0.3,0.1-0.7,0.2-1c0,0,0,0,0-0.1c-0.3,0.3-0.3,0.7-0.4,1c-0.1,0.2,0,0.6-0.3,0.6c-0.3,0-0.7-0.1-0.8-0.5
		c-0.1-0.2-0.1-0.5-0.2-0.7c0,0-0.1,0-0.1,0.1c-0.1,0.2,0,0.5-0.3,0.5c-0.3,0-0.2-0.3-0.3-0.5c0-0.1-0.1-0.2-0.1-0.3
		c-0.2,0.5-0.2,0.5-0.7,0.2c-0.3-0.2-0.6-0.5-0.9-0.8c1.3-0.1,2.5-0.4,3.7-0.9c1.1-0.6,2.2-1.4,3.2-2.2c0.2,0.3,0.2,0.6,0.2,0.9
		c0.1,1,0.6,1.9,1.3,2.6c0.7,0.7,1.5,1.4,2.4,1.9c0.3,0.2,0.6,1.1,0.4,1.4c-0.1,0.1-0.2,0.1-0.3,0.1c-0.4,0-0.8,0-1.1,0
		c-0.4,0-0.5-0.2-0.6-0.5C1068.5,486,1068.4,485.5,1068.3,485z"/>
	<path class="st0" d="M1087.6,483.7c-0.5-0.4-0.9-0.7-1.4-1c0.4-0.2,0.7-0.1,1,0c0.3,0.2,0.5,0.4,1,0.4c-0.2-0.2-0.4-0.4-0.6-0.5
		c0.4-0.2,0.7-0.1,1,0.1c0.3,0.2,0.6,0.4,1,0.5c-0.2-0.3-0.5-0.4-0.7-0.7c0.3-0.1,0.6-0.1,0.9,0c0.4,0.2,0.8,0.2,1.3,0.2
		c0.6,0,1.3,0.1,1.9,0.2c1.2,0.1,2.4,0.6,3.4,1.3c-0.5,0.1-1,0.1-1.5,0.2c-3,0.3-5.9,0.7-8.8,1.6c-0.7,0.2-1.3,0.4-1.9,0.6
		c-0.2,0.1-0.4,0.1-0.4-0.2c-0.1-1-0.1-2.1-0.2-3.1c0-0.2,0-0.3,0.2-0.3c0.7-0.1,1.3-0.2,1.8,0.4c0.2,0.2,0.3,0.3,0.5,0.4
		c0.1,0.1,0.2,0.2,0.3-0.1c0-0.2,0.2-0.1,0.3-0.1C1086.9,483.5,1087.1,483.7,1087.6,483.7z"/>
	<path class="st0" d="M1082.5,460.8c-0.1-0.2,0-0.5,0-0.7c0.5-2.4,1.6-4.5,2.6-6.6c0.1-0.3,0.3-0.5,0.4-0.8c0.9-2,2.3-3.5,4.1-4.8
		c1.8-1.3,3.8-2.5,5.8-3.6c1.7-0.9,3.5-1.5,5.3-2c0.2,0,0.3-0.1,0.4-0.1C1092.5,445.9,1086.2,452,1082.5,460.8z"/>
	<path class="st0" d="M1071.5,454.4c0,0.1,0,0.2-0.1,0.2c-0.2,0-0.1-0.1-0.1-0.2c0-0.7,0-1.3-0.1-1.9c-0.3-1.8-0.7-3.6-1-5.4
		c-0.1,0.1-0.1,0.1-0.1,0.1c-0.1,2.3-0.3,4.5-0.3,6.8c0,0.8,0.1,1.6,0.1,2.5c0,1.4,0.2,2.8,0.6,4.2c0.1,0.2,0.2,0.5-0.1,0.7
		c-0.2,0.2,0,0.5,0.2,0.8c0.4,0.8,0.5,1.6,0.7,2.4c-0.6-1-1-2-1.2-3.1c-0.1-0.5-0.2-0.9-0.2-1.4c0-0.2-0.1-0.3-0.3-0.5
		c-0.2-0.4-0.2-0.9-0.2-1.3c-0.1-2.6,0.1-5.2,0-7.8c-0.2-3.4-0.7-6.8-1.5-10.1c-0.1-0.3-0.1-0.5-0.2-1c0.5,0.4,0.8,0.9,1,1.3
		c1.1,2.1,1.8,4.3,2.2,6.5c0.4,2,0.6,3.9,0.7,5.9c0,0.2,0.1,0.4,0.1,0.5C1071.7,454,1071.7,454.3,1071.5,454.4z"/>
	<path class="st0" d="M1089.3,431.1c-0.4,0.7-0.7,1.5-1.2,2.1c0.3-1.3,1-2.4,1.5-3.6c-1.1,1.5-1.6,3.2-2.6,4.7
		c0.1-0.9,0.5-1.6,0.7-2.4c-0.9,1.3-1.1,3-2.1,4.2c0,0-0.1,0-0.1-0.1c0.1-0.3,0.3-0.7,0.4-1c0.5-1.3,1.2-2.6,1.4-4.1
		c0-0.1,0.1-0.2,0.1-0.3c0.6-1.1,1.1-2.2,1.7-3.3c0.8-1.5,1.5-3,2.1-4.5c0.1-0.2,0.1-0.4,0.3-0.5c0,0.6,0.1,1.2,0.1,1.8
		c0.1,1.2,0.2,2.4,0.3,3.5c0,0.4,0,0.7-0.3,1c-0.8,0.8-1.2,1.7-1.7,2.6c-0.2,0.3-0.4,0.7-0.7,1c0-0.4,0.2-0.6,0.3-1
		c0.2-0.8,0.7-1.5,1-2.2c0.1-0.2,0.2-0.4,0.3-0.6c-0.4,0.7-0.8,1.5-1.2,2.3C1089.5,430.9,1089.5,431,1089.3,431.1z"/>
	<path class="st0" d="M1106.7,443.1c0.1-0.1,0.1-0.1,0.2-0.2c1.3-1,2.6-2.1,4.1-2.9c1.9-0.9,3.9-1.2,5.8-1.6
		c2.4-0.5,4.7-0.9,7.1-1.2c0.1,0,0.2-0.1,0.3,0.1c-0.2,0.3-0.5,0.5-0.9,0.7c-1.4,0.7-3,1-4.5,1.2c-2.8,0.5-5.5,1.5-8.1,2.5
		C1109.4,442.2,1108.1,442.6,1106.7,443.1z"/>
	<path class="st0" d="M1102.6,485.8c-0.3,0.2-0.6,0.3-0.8,0.3c-2,0.2-3.9,0.9-5.8,1.6c-2.7,1-5.5,1.9-8,3.4c-1,0.6-2,1.1-2.7,2
		c-0.2,0.3-0.6,0.7-1,0.6c-0.2-0.1-0.1-0.6-0.1-0.9c0-0.3,0-0.6,0-0.8c-0.2-0.9,0.4-1.3,1-1.7c0.6-0.3,1.2-0.7,1.8-1.1
		c0.8-0.5,1.7-0.8,2.6-1c0.1,0.2-0.1,0.2-0.2,0.3c-0.5,0.2-1.1,0.5-1.6,0.7c-0.1,0.1-0.3,0.1-0.4,0.3c0,0.1-0.1,0.2,0,0.3
		c0.1,0.1,0.2,0,0.3,0c1.1-0.4,2.1-0.7,3.2-1.1c1.4-0.5,2.9-1,4.3-1.4c0.1,0,0.3-0.1,0.3-0.1c0.5,0.2,1-0.1,1.4-0.3
		c1.4-0.6,2.9-0.7,4.4-1C1101.7,485.9,1102.1,485.8,1102.6,485.8z"/>
	<path class="st0" d="M1051.7,424.9c1.3,2.3,2.4,4.5,3.2,6.9c-0.3-0.3-0.4-0.7-0.7-1.1c-0.1,0.1-0.1,0.2,0,0.3
		c0.4,1.1,0.7,2.2,1.2,3.3c0.1,0.2,0.1,0.5,0.4,0.6c0,0,0.1,0.1,0.1,0.1c0,0.9,0.5,1.5,0.8,2.3c0,0.1,0.1,0.2,0,0.3
		c-0.8-1.1-1.2-2.3-1.8-3.4c0.1,1,0.7,1.8,1,2.8c-0.4-0.1-0.6-0.3-0.8-0.7c-0.6-1.8-1.4-3.5-2-5.3c0-0.1,0-0.1-0.1-0.2
		c0.3,1.9,1.1,3.5,1.7,5.4c-0.6-0.2-0.8-0.6-1-1c-0.3-0.9-0.7-1.9-1-2.8c-0.1-0.1,0-0.3-0.3-0.4c0.2,1.1,0.6,2.2,0.9,3.3
		c-0.6-0.2-0.7-0.6-0.8-1c-0.3-1.9-0.6-3.7-0.7-5.6C1051.6,427.3,1051.7,426.1,1051.7,424.9z"/>
	<path class="st1" d="M1121.9,474.5c-2.1,1.8-4.2,3.6-6.4,5.2c0.3-0.5,0.8-0.9,1-1.4c-1.6,1.2-2.8,3-4.8,3.7c0.4-0.3,0.8-0.7,1.1-1
		c1.4-1.3,2.7-2.8,3.9-4.3c0.6-0.7,1.4-0.9,2.1-1.1c0.3-0.1,0.5-0.2,0.7-0.3C1120.3,474.6,1121.1,474.5,1121.9,474.5z"/>
	<path class="st1" d="M1135,495.1c0,0.2-0.1,0.2-0.3,0.3c-0.3,0.1-0.7,0.1-1,0.2c-1.1,0-2.2,0.3-3.3,0.4c-1.4,0.2-2.7,0.6-4.1,0.5
		c-1.2-0.1-2.3-0.5-3.5-0.9c3-0.2,6-0.3,8.9-0.5c0,0,0.1,0,0.1-0.1c0,0,0,0,0,0c-0.4-0.1-0.8,0.1-1.2-0.1c0.2-0.2,0.5-0.3,0.9-0.3
		c1.5,0,2.9-0.1,4.5-0.2c-0.4,0.3-0.8,0.4-1.1,0.5c-0.1,0-0.2,0.1-0.1,0.2C1134.8,495.2,1134.9,495.1,1135,495.1z"/>
	<path class="st0" d="M1096.7,472c-0.4,0-0.5-0.4-0.9-0.4c0-0.1-0.1-0.1-0.2-0.2c-1.3-0.7-2.7-1.1-3.7-2.2c-1.3-0.4-2.2-1.4-3.3-2.2
		c-0.1-0.1-0.3-0.2-0.4-0.4c1.5-0.1,2.1,1.2,3.1,1.8c-0.2-0.3-0.4-0.6-0.7-0.9c2.9,1.2,5.6,2.8,8,4.8c-0.5-0.1-1-0.2-1.5-0.3
		C1097,471.9,1096.9,471.8,1096.7,472z"/>
	<path class="st1" d="M1124.7,474.2c-1.1,1.3-10,7.1-10.9,7.2c2.9-2,5.6-4.2,8.2-6.4C1122.7,474.3,1123.6,474.1,1124.7,474.2z"/>
	<path class="st0" d="M1092.5,502.6c0.2-0.8,0.5-1.6,0.8-2.3c0.1-0.2,0.2-0.3,0.4-0.1c0.1,0.2,0.3,0.3,0.5,0.5
		c0.1,0.1,0.2,0.3,0.4,0.3c0.2-0.1,0.1-0.3,0.1-0.5l0,0c0.5-0.2,0.7,0.3,1,0.5c0.3,0.2,0.1,0.5,0,0.7c-0.2,0.5-0.5,1-0.7,1.5
		c-0.2,0.6-0.8,0.9-1.1,1.4c-0.1,0.2-0.2,0-0.3,0c-0.4-0.3-0.7-0.7-0.9-1.1C1092.4,503.1,1092.4,502.8,1092.5,502.6z"/>
	<path class="st1" d="M1071.8,454.4c0.5,2.6,1.6,5,2.5,7.5c0.5,1.3,1.2,2.5,2.1,3.6c0.2,0.2,0.3,0.4,0.5,0.7
		c-0.7-0.4-1.1-1.2-1.7-1.7c-0.1,0.1,0.1,0.3,0,0.4c-0.2-0.1-0.2-0.2-0.3-0.3c-0.8-1.4-1.6-2.8-2.3-4.4c-0.5-1.3-0.8-2.6-0.9-4
		c-0.1-0.5,0-1.1,0-1.6C1071.7,454.5,1071.7,454.4,1071.8,454.4z"/>
	<path class="st1" d="M1090.5,481.6c0-0.2-0.3-0.3-0.3-0.5c0.7-0.1,1.2,0.2,1.7,0.5c0.1,0.1,0.4,0.6,0.6,0c0-0.1,0.2,0,0.3,0.1
		c0.4,0.2,0.8,0.4,1.3,0.5c0.1-0.2-0.4-0.2-0.2-0.4c0.2-0.2,0.4,0,0.6,0.1c0.4,0.3,0.9,0.3,1.4,0.4c1.4,0.3,2.7,0.6,4.1,0.9
		c0.1,0,0.2,0,0.3,0.1c0,0.1-0.1,0.2-0.2,0.1c-1.3-0.2-2.7-0.4-4.1-0.5c-0.1,0-0.3,0-0.4-0.1c-0.9-0.3-2-0.3-2.9-0.5
		c-0.7-0.1-1.5-0.2-2.2-0.2c-0.9-0.1-1.7-0.4-2.1-1c-0.4-0.5-0.9-0.5-1.3-0.7c-0.3-0.1-0.6-0.3-0.8-0.5c0.6-0.1,2,0.2,2.1,0.6
		c0.2,0.5,0.5,0.4,0.7,0.4C1089.6,481.1,1090,481.4,1090.5,481.6z"/>
	<path class="st1" d="M1117.9,493.9c1.1,0,2.2-0.1,3.2,0.3c0.3,0.1,0.5-0.1,0.8-0.1c2.4,0.1,4.8,0.4,7.2,0.5c0.1,0,0.4,0,0.4,0.2
		c0,0.2-0.2,0.2-0.4,0.2c-1.5,0-3,0.2-4.4,0c-0.7-0.1-1.3,0.2-2,0.2c-1.6,0-3.1-0.4-4.5-1.2C1118,494,1118,493.9,1117.9,493.9z"/>
	<path class="st1" d="M1074.3,453.1c0.1,0.4,0.2,0.9,0.2,1.3c0,1.3,0.5,2.5,1.1,3.7c1,2.4,2.2,4.6,3.7,6.7c0.1,0.1,0.2,0.2,0.2,0.4
		c-0.7-0.1-3-3.3-4.1-5.7c-1.1-2.3-1.6-4.9-1.3-6.9C1074.2,452.7,1074.1,453,1074.3,453.1z"/>
	<path class="st1" d="M1124.7,485c-1.1,0.6-2.3,0.8-3.5,1.2c0.2,0.2,0.3,0.1,0.5,0c1.1-0.3,2.2-0.6,3.2-1.1c0.9-0.4,1.8-0.6,2.8-0.4
		c-2.8,1.6-5.7,2-8.8,1.6c1.9-0.5,3.8-1,5.7-1.5C1124.6,484.9,1124.6,485,1124.7,485z"/>
	<path class="st1" d="M1091,501c-0.4,0-0.7-0.8-0.6-1c0.8-1.2,1.7-2.4,2.7-3.5c0.2-0.2,0.3-0.1,0.5,0c0.1,0.1,0.3,0.2,0.1,0.4
		c-0.4,0.5-0.6,1.3-1.3,1.6c0,0-0.1,0.1-0.1,0.2c-0.2,0.9-0.8,1.5-1.3,2.2C1091,500.9,1091,501,1091,501z"/>
	<path class="st2" d="M1070.3,449c0.6,2.7,0.9,5.5,0.7,8.3C1070.4,456.5,1069.9,450.9,1070.3,449z"/>
	<path class="st2" d="M1119.5,493.4c-0.3-0.2-0.6-0.4-1-0.6c1.2-0.2,5.1,0.3,6.6,0.9c-0.4,0.2-0.8,0.2-1.1,0.2
		c-1.5-0.1-2.9-0.2-4.3-0.5C1119.6,493.5,1119.5,493.4,1119.5,493.4L1119.5,493.4z"/>
	<path class="st2" d="M1079,455.7c0.8,1.8,1.8,3.6,2,5.7c0,0.3,0.1,0.6,0,0.8c0,0.1,0,0.3-0.2,0.3c-0.1,0-0.2-0.1-0.2-0.2
		c-0.5-1.4-1-2.8-1.3-4.2C1079.2,457.3,1079.1,456.5,1079,455.7z"/>
	<path class="st2" d="M1086.7,458.4c0.1-0.2,0.3-0.5,0.4-0.7c0,0.2,0.5-0.1,0.3,0.3c-1,2.2-2.4,4.1-4.3,5.6
		c-0.1,0.1-0.2,0.1-0.3,0.2c0.1-0.3,0.3-0.5,0.4-0.7c1.1-1.4,2.2-2.8,3.3-4.2C1086.6,458.7,1086.7,458.6,1086.7,458.4z"/>
	<path class="st2" d="M1098.2,501.3c0,0-0.1-0.1-0.1-0.1c0.2-0.1,0.1-0.2,0-0.4c-0.2-0.3-0.3-0.6-0.4-0.9c-0.3-0.5-0.2-0.9,0.1-1.3
		c0.3,0.1,0.2,0.5,0.5,0.6c0.1-0.5-0.5-0.9-0.2-1.4c0.3,0.1,0.3,0.5,0.6,0.6c0.1-0.2-0.1-0.4-0.1-0.6c-0.1-0.1-0.1-0.3-0.2-0.4
		c-0.1-0.3,0.1-0.6,0.4-0.8c0.2-0.1,0.3,0.2,0.5,0.3l0,0l0,0C1099.1,498.4,1098.6,499.9,1098.2,501.3z"/>
	<path class="st2" d="M1114.1,478.2c-1.1,1.2-2.1,2.3-3.2,3.5c-0.2,0.2-0.4,0.5-0.6,0.8c-0.4,0.7-1.1,1.1-1.8,1.5
		c0.4-0.4,0.9-0.9,1.3-1.4c0.9-1,1.9-2.1,2.5-3.3C1112.6,478.5,1113.3,478.2,1114.1,478.2z"/>
	<path class="st2" d="M1095.4,466.7c-2.3-0.5-4.5-1.3-6.7-2.4c0.4-0.3,0.8-0.2,1.1-0.1c1.9,0.8,3.7,1.6,5.6,2.3
		C1095.5,466.6,1095.4,466.7,1095.4,466.7z"/>
	<path class="st1" d="M1086.9,488.7c-0.5,0.3-0.9,0.6-1.2,0.9c-0.3,0.2-0.7,0.2-1.1,0.1c-0.8-0.4-0.9-0.5-0.8-1.4
		c0-0.3,0.1-0.3,0.3-0.2C1085,488.3,1085.9,488.5,1086.9,488.7z"/>
	<path class="st2" d="M1124.1,490.6c-1.1,0.5-2.2,0.8-3.3,1.1c-0.5,0.1-1-0.1-1.5-0.5c1.2-0.3,2.2-0.6,3.3-0.9
		C1123,490.3,1123.5,490.5,1124.1,490.6z"/>
	<path class="st2" d="M1085.6,452.1c-0.9,1.9-1.8,3.7-2.7,5.6c0-2.3,1.1-4.1,2.6-5.7C1085.5,452,1085.6,452.1,1085.6,452.1z"/>
	<path class="st2" d="M1088.5,488c-0.6,0.5-1.2,0.7-1.9,0.5c-0.8-0.2-1.6-0.4-2.4-0.6c-0.2,0-0.4-0.1-0.6-0.3
		c0.2-0.3,0.5-0.4,0.9-0.3C1085.8,487.4,1087.1,487.7,1088.5,488z"/>
	<path class="st3" d="M1117.6,490.4c1.2-0.7,2.9-0.8,4.3-0.2c-0.4,0.2-0.8,0.2-1.2,0.3c-0.3,0.1-0.7,0.1-1,0.2
		C1118.9,491.1,1118.2,490.8,1117.6,490.4z"/>
	<path class="st3" d="M1119.5,493.4c0,0.2-0.1,0.2-0.3,0.2c-1.5,0.1-2.9-0.2-4.1-1.2c0,0-0.1-0.1-0.1-0.2c0.9,0,1.7,0.2,2.6,0.4
		C1118.3,492.9,1118.8,493.3,1119.5,493.4C1119.5,493.4,1119.5,493.4,1119.5,493.4z"/>
	<path class="st1" d="M1123.1,482.2c-0.1,0.2-0.3,0.4-0.4,0.6c-0.4,0.4-0.8,0.8-1.3,0.9c-0.3,0.1-0.6,0.2-0.7-0.3
		c-0.2-0.4-0.1-0.6,0.3-0.7c0.2,0.1,0.4-0.1,0.5-0.3c0.5-0.5,1.1-0.8,1.9-1C1123.4,481.7,1123,481.9,1123.1,482.2z"/>
	<path class="st3" d="M1116.1,491.2c-1-0.2-1.9-0.6-2.7-1.2c-0.1-0.1-0.2-0.1-0.2-0.3c1.8,0.1,3.3,1.1,4.9,1.7c-0.3,0-0.7,0-1,0
		C1116.7,491.7,1116.5,491.6,1116.1,491.2z"/>
	<path class="st4" d="M1087.9,486c1.7-0.4,3.3,0.2,5,0.4c-0.4,0.3-0.9,0.4-1.4,0.4c-1.1-0.2-2.2-0.3-3.3-0.5c-0.1,0-0.2-0.1-0.3-0.1
		C1087.9,486.1,1087.9,486.1,1087.9,486z"/>
	<path class="st5" d="M1106.8,457.7c-2.6-0.2-5.3-0.3-7.9-0.3C1101.6,456.8,1104.2,457,1106.8,457.7z"/>
	<path class="st6" d="M1116.1,491.2c0.4-0.1,0.7,0.2,1,0.2c0.3,0.2,0.7,0.2,1,0.3c0.5,0.1,1.1,0.2,1.6,0.5c0.3,0.2,0.6,0,0.8,0.1
		c0.2,0.1,0.4,0.1,0.6,0.3c-1.7-0.3-3.5-0.1-5.1-0.9c-0.1,0-0.1-0.1-0.2-0.2C1115.7,491.2,1116.1,491.3,1116.1,491.2z"/>
	<path class="st7" d="M1102.7,458.9c-2.8,0.2-5.6,0-8.5,0.5C1095.3,458.7,1100.8,458.4,1102.7,458.9z"/>
	<path class="st2" d="M1091.7,502.4c-0.2-0.3-0.3-0.5-0.4-0.7c-0.1-0.2-0.1-0.3,0-0.5c0.4-0.5,0.7-1.1,1.1-1.6
		c0.1-0.1,0.1-0.3,0.4-0.2c0.2,0.1,0.4,0.2,0.3,0.5C1092.6,500.7,1092.1,501.5,1091.7,502.4z"/>
	<path class="st4" d="M1116.6,486.2c1.8-0.5,3.6-1.2,5.5-0.9C1120.3,485.7,1118.5,486.4,1116.6,486.2z"/>
	<path class="st3" d="M1115.4,489.8c1-0.7,3.2-0.7,4.1-0.1C1118.1,489.7,1116.9,490.3,1115.4,489.8z"/>
	<path class="st4" d="M1063.6,454.1c0.2,0.2,0.5,0.4,0.7,0.6c1.1,1,2.2,2,3.4,3c0.2,0.2,0.4,0.4,0.3,0.8
		C1066.3,457.2,1064.9,455.8,1063.6,454.1z"/>
	<path class="st4" d="M1076.8,489.7c0.5-0.4,1-0.8,1.7-0.6c0.5,0.1,0.9,0.2,1.4,0.2c0.3,0,0.3,0.2,0.3,0.4c0,0.3-0.2,0.2-0.4,0.2
		C1078.8,489.9,1077.8,489.8,1076.8,489.7z"/>
	<path class="st4" d="M1099.8,493.7c0.1-0.1,0.1-0.3,0.3-0.3c0.1,0,0.2,0.2,0.3,0.3c0.1,0.2,0.1,0.4,0,0.6c-0.3,0.7-0.5,1.4-0.8,2.2
		c-0.1,0.2-0.2,0.3-0.3,0.4c0,0,0,0,0,0c-0.3-0.7-0.3-1.3,0.2-1.8c0.1-0.1,0.2-0.3,0.1-0.5c-0.2-0.3,0.1-0.6,0.2-0.8
		C1099.7,493.7,1099.8,493.7,1099.8,493.7z"/>
	<path class="st3" d="M1090.4,485.6c1.1-0.4,3-0.2,4.3,0.2C1093.1,486.6,1091.8,485.6,1090.4,485.6z"/>
	<path class="st3" d="M1092.3,467.3c0.1,0.1,0.3,0.2,0.4,0.3c0,0.1,0,0.2-0.2,0.1c-1.2-0.5-2.4-1.2-3.6-2c1.1,0,2,0.2,2.7,1
		C1091.8,467,1092,467.1,1092.3,467.3z"/>
	<path class="st4" d="M1082.5,453.8c0.1-0.5,0.1-1,0.2-1.5c0-0.2,0.1-0.3,0.3-0.3c0.5-0.1,0.8-0.5,1-0.9c0.1-0.1,0.1-0.3,0.2-0.3
		c0.1,0,0.2-0.1,0.3,0c0.1,0.1,0,0.2,0,0.2c-0.1,0.3-0.3,0.6-0.5,0.9c-0.4,0.6-0.9,1.2-1.3,1.9
		C1082.6,453.8,1082.5,453.8,1082.5,453.8z"/>
	<path class="st2" d="M1094,499.3c-0.2-0.3,0-0.6,0.1-0.8c0.2-0.3,0.3-0.5,0.5-0.8c0.4,0.3,0.7,0.5,0.8,1c0.1,0.2,0.1,0.5-0.2,0.6
		c-0.2,0.4-0.5,0.6-0.9,0.2C1094.2,499.4,1094.1,499.3,1094,499.3L1094,499.3z"/>
	<path class="st8" d="M1091.1,487.1c-0.3,0.2-0.6,0.2-1,0.2c-1.3-0.2-2.5-0.4-3.9-0.6c0.3-0.3,0.5-0.4,0.8-0.3
		c1.1,0.3,2.3,0.4,3.5,0.6C1090.8,486.9,1091,486.9,1091.1,487.1z"/>
	<path class="st2" d="M1083.9,450.1c-0.4,0-0.7-0.3-0.6-0.8c0-0.5,0.3-0.8,0.8-0.7c0.4,0,0.7,0.3,0.7,0.7
		C1084.8,449.7,1084.3,450.2,1083.9,450.1z"/>
	<path class="st5" d="M1095.8,483.4c1.5,0,3,0.2,4.4,0.6C1098.7,484.1,1097.2,484.3,1095.8,483.4z"/>
	<path class="st5" d="M1124.9,489.3c-1.1,0.7-2.2,0.8-3.5,0.3C1122.6,489.1,1123.7,489.1,1124.9,489.3z"/>
	<path class="st3" d="M1082.4,448.6c0,0.4-0.4,0.8-0.8,0.8c-0.4,0-0.7-0.4-0.7-0.8c0-0.4,0.3-0.7,0.7-0.7
		C1082.1,447.9,1082.4,448.2,1082.4,448.6z"/>
	<path class="st4" d="M1121,482.7c-0.1,0.2-0.2,0.5-0.3,0.7c-0.3,0-0.4,0.3-0.6,0.4c-0.3,0.2-0.7,0.3-1.2,0.3c0.6-0.8,1-1.8,2.2-1.8
		C1121.2,482.5,1121,482.5,1121,482.7z"/>
	<path class="st3" d="M1099.4,492.4c0.1,0.1,0.3-0.1,0.4,0c0.1,0.1,0,0.2-0.1,0.3c-0.2,0.2-0.3,0.5-0.5,0.7c-0.1,0.1-0.3,0.2-0.3,0
		c0.1-0.3-0.2-0.4-0.3-0.6c-0.3-0.4,0.1-1.5,0.6-1.6c0.2,0,0.2,0.1,0.2,0.2C1099.6,491.8,1099.5,492.1,1099.4,492.4z"/>
	<path class="st9" d="M1086.8,470.8c-0.1,0.1,0,0.2,0,0.3c-0.1,0.2,0.1,0.3,0.1,0.4c0,0.1,0.1,0.3-0.1,0.3c-0.9-1.1-1.8-2.1-2.5-3.3
		c-0.1-0.2-0.2-0.3-0.2-0.6C1085.1,468.8,1085.6,470.1,1086.8,470.8z"/>
	<path class="st3" d="M1079.1,449.7c-0.4,0-0.7-0.4-0.7-1c0-0.4,0.3-0.5,0.7-0.5c0.4,0,0.7,0.3,0.7,0.6
		C1079.8,449.3,1079.5,449.7,1079.1,449.7z"/>
	<path class="st4" d="M1081.4,457.6c-0.2-0.9-0.3-1.7-0.5-2.6c0-0.1,0-0.3,0.2-0.3c0.2,0,0.5-0.2,0.6,0.1c0.1,0.2,0.1,0.4,0.1,0.6
		c-0.1,0.7-0.2,1.4-0.3,2.1C1081.5,457.6,1081.5,457.6,1081.4,457.6z"/>
	<path class="st4" d="M1079.7,454.3c-0.3-0.6-0.7-1.3-1-1.9c0.2-0.2,0.4-0.2,0.7-0.2c0.4-0.1,0.7,0.2,0.6,0.6
		c-0.1,0.5-0.1,1-0.2,1.5C1079.8,454.3,1079.8,454.3,1079.7,454.3z"/>
	<path class="st9" d="M1115.9,491.5c0.1,0.1,0.1,0.1,0.2,0.2c0.1,0.3,0.1,0.4-0.3,0.3c-0.7-0.1-1.5-0.1-2.1-0.6
		c-0.2-0.1-0.3-0.2-0.4-0.5c0.7,0,1.3,0.1,1.9,0.4C1115.4,491.4,1115.6,491.7,1115.9,491.5z"/>
	<path class="st3" d="M1078,449.3c0,0.2-0.1,0.4-0.3,0.5c-0.2,0.1-0.4,0-0.6-0.2c-0.1-0.2-0.3-0.4-0.4-0.6c-0.1-0.3-0.1-0.5,0.2-0.7
		c0.3-0.2,0.5-0.1,0.7,0.1C1077.9,448.7,1078,449,1078,449.3z"/>
	<path class="st8" d="M1071.7,461.8c-0.6-1.3-1.2-2.6-0.9-4.1C1071.2,459.1,1071.4,460.5,1071.7,461.8z"/>
	<path class="st4" d="M1115.2,484.4c-0.5,0.1-0.8,0.6-1.3,0.6c-0.2,0-0.4,0.1-0.5,0c-0.1-0.2,0.1-0.3,0.2-0.5c0.4-0.8,1.2-0.7,2-0.9
		C1115.5,484,1115.2,484.2,1115.2,484.4L1115.2,484.4z"/>
	<path class="st8" d="M1102.4,488.8c-0.6,0.6-1,1.2-1.8,1.6c-0.1,0-0.1,0.1-0.1,0.2c0,0.2-0.1,0.4-0.3,0.6c-0.1,0.1-0.2,0.4-0.4,0.3
		c-0.2-0.1-0.2-0.4-0.1-0.6c0.1-0.1,0.1-0.2,0.2-0.3c0.8-0.6,1.5-1.4,2.4-1.8C1102.4,488.7,1102.4,488.7,1102.4,488.8z"/>
	<path class="st4" d="M1110.6,484.9c0.9-0.3,1.8-0.5,2.8-0.8c-0.3,0.8-0.5,1-1.2,1C1111.6,485.2,1111.1,485.3,1110.6,484.9z"/>
	<path class="st9" d="M1085.6,487.1c1.4-0.1,2.8,0.1,4.2,0.5c-0.4,0.4-0.7,0.3-1.1,0.3C1087.6,487.5,1086.6,487.3,1085.6,487.1z"/>
	<path class="st2" d="M1078.8,450.3c0.4,0,0.8,0.4,0.8,0.8c0,0.4-0.2,0.5-0.6,0.5c-0.4,0-0.9-0.4-0.9-0.7
		C1078.2,450.5,1078.5,450.2,1078.8,450.3z"/>
	<path class="st6" d="M1066.7,497c0.4-0.1,0.7-0.3,1.1-0.2c0.3,0.1,0.4,0.2,0.3,0.5c0,0,0,0,0,0c-0.2,0-0.4,0.2-0.6,0.3
		c-0.4,0.4-0.8,0.5-1.4,0.3c0-0.2,0.3-0.3,0.2-0.6C1066.4,497.1,1066.5,497,1066.7,497z"/>
	<path class="st4" d="M1066.2,491.9c0,0.2,0.4,0.3,0.1,0.5c-0.3,0.2-0.6,0.4-0.9,0c0,0.4-0.3,0.9-0.7,0.9c-0.2,0-0.3-0.2-0.4-0.3
		c-0.1-0.1-0.1-0.2,0-0.3c0.4-0.4,1-0.6,1.4-1C1065.9,491.7,1066.1,491.9,1066.2,491.9C1066.2,491.9,1066.2,491.9,1066.2,491.9z"/>
	<path class="st10" d="M1087.2,477.9c-1,0.3-3.2-0.1-3.6-0.6c0.4-0.2,0.7-0.1,1.1,0.1c0.3,0.1,0.7,0.3,1,0.3c0-0.2-0.2-0.2-0.3-0.5
		C1086.1,477.3,1086.6,477.6,1087.2,477.9z"/>
	<path class="st6" d="M1080.5,450.7c0.6,0,0.8,0.2,0.8,0.6c0,0.4-0.3,0.7-0.6,0.7c-0.4,0-0.8-0.4-0.8-0.7
		C1079.9,450.9,1080.2,450.7,1080.5,450.7z"/>
	<path class="st9" d="M1116.7,483.6c0.3-0.2,0.7-0.4,1-0.6c0.1-0.1,0.3-0.1,0.5-0.1c-0.1,0.3-0.5,0.5-0.4,0.9c0,0.1-0.1,0.2-0.2,0.2
		c-0.2,0.1-0.4,0.3-0.7,0.4c-0.2,0.1-0.5,0.3-0.7-0.1C1116,483.8,1116.4,483.7,1116.7,483.6z"/>
	<path class="st4" d="M1117.6,484c0.1-0.1,0.1-0.1,0.2-0.2c0.4-0.4,0.7-0.8,1.2-1.1c0.2-0.1,0.4-0.2,0.7-0.1c-0.4,0.5-0.7,1-1,1.4
		c-0.1,0.2-0.4,0.2-0.6,0.3C1117.7,484.4,1117.5,484.3,1117.6,484z"/>
	<path class="st8" d="M1095.2,499.2c0.1-0.2,0.2-0.4,0.2-0.6c0.1,0.3,0.2,0.4,0.4,0.6c0.5,0.4,0.6,0.9,0.4,1.4
		c-0.1,0.2-0.2,0.3-0.4,0.1c-0.1-0.1-0.2-0.2-0.3-0.3c-0.3-0.3-0.5-0.5-0.2-0.9C1095.3,499.3,1095.4,499.2,1095.2,499.2z"/>
	<path class="st4" d="M1110.7,495.1c1,0.2,1.6,0.8,2,1.7C1111.9,496.8,1110.9,496,1110.7,495.1z"/>
	<path class="st3" d="M1096.7,496.6c0,0.2-0.1,0.5-0.3,0.7c-0.1,0.1-0.2,0.1-0.3,0c-0.2-0.3-0.4-0.5-0.6-0.8
		c-0.2-0.4,0.2-0.6,0.3-0.8c0.2-0.2,0.3,0,0.4,0.1C1096.5,496,1096.6,496.2,1096.7,496.6z"/>
	<path class="st11" d="M1071.5,456.2c0,2.1,0.6,4.1,1.3,6.1c0.1,0.1,0,0.1-0.1,0.1c-0.7-1.6-1.4-3.2-1.3-5c-0.1-0.4,0-0.7,0-1.1
		C1071.4,456.3,1071.4,456.2,1071.5,456.2z"/>
	<path class="st3" d="M1081.7,453c0,0.1,0,0.3,0,0.4c0,0.4-0.4,0.6-0.7,0.4c0,0-0.1,0-0.1-0.1c-0.2-0.3,0.2-1.5,0.5-1.7
		c0.2-0.1,0.4-0.1,0.3,0.2C1081.7,452.6,1081.7,452.8,1081.7,453C1081.7,453,1081.7,453,1081.7,453z"/>
	<path class="st12" d="M1123.1,484.1c-0.1,0.1-0.3,0.1-0.4,0.2c-0.3-0.2-0.5,0-0.8,0.1c-0.5,0.2-1,0.4-1.6,0.3
		c0.9-0.7,1.9-0.9,2.9-1.1C1123.2,483.8,1123.2,484,1123.1,484.1z"/>
	<path class="st8" d="M1082.7,451.3c-0.4,0-0.8-0.3-0.8-0.6c0-0.4,0.3-0.5,0.7-0.6c0.3,0,0.7,0.3,0.7,0.7
		C1083.3,451.1,1083,451.3,1082.7,451.3z"/>
	<path class="st8" d="M1086.9,464.5c1.1-0.3,1.9,0.2,2.6,0.8C1088.6,465.3,1087.7,465.3,1086.9,464.5z"/>
	<path class="st9" d="M1110.2,481c-1,0.7-2.3,0.5-3.4,0.6c0,0,0-0.1,0-0.1c1.1-0.2,2.3-0.4,3.4-0.6
		C1110.2,480.9,1110.2,481,1110.2,481z"/>
	<path class="st9" d="M1115.1,477.8c-0.9,1.2-1.9,2.3-3.1,3.2C1113.1,479.9,1113.9,478.6,1115.1,477.8z"/>
	<path class="st8" d="M1068,459.6c-0.9-0.7-1.6-1.7-2.3-2.6c0.1-0.1,0.2,0,0.3,0.1c0.6,0.6,1.3,1.2,1.9,1.9
		C1068,459.1,1068.2,459.3,1068,459.6z"/>
	<path class="st6" d="M1111.2,494.8c-1-0.3-1.4-1-1.7-1.8C1110.1,493,1110.6,493.4,1111.2,494.8z"/>
	<path class="st8" d="M1113.8,490.6c-1,0-1.8-0.4-2.5-1.3C1112.4,489.5,1113.1,490.1,1113.8,490.6z"/>
	<path class="st9" d="M1066.6,498.3c-0.3,0.4-0.6,0.8-1.1,0.9c-0.2,0.1-0.4,0-0.5-0.1c-0.1-0.1,0-0.3,0.1-0.4
		C1065.5,498.1,1065.9,498,1066.6,498.3z"/>
	<path class="st10" d="M1088.8,481.9c-0.6,0.3-0.9,0.1-2.3-0.9C1087,480.8,1087.8,481,1088.8,481.9z"/>
	<path class="st6" d="M1081.5,450c-0.4,0.2-0.8,0.2-1.2,0.4c-0.2,0.1-0.4-0.1-0.5-0.3c-0.1-0.1,0.1-0.3,0.2-0.4
		c0.4-0.4,0.9-0.4,1.3,0C1081.2,449.8,1081.4,449.9,1081.5,450z"/>
	<path class="st13" d="M1113.4,455.6c-1.5,0.2-2.9,0.4-4.4,0.5c-0.4,0-0.7,0.4-1.1,0.1c0,0,0-0.1,0-0.1c1.2-0.2,2.4-0.4,3.6-0.5
		c0.4,0,0.8-0.1,1.2-0.1C1112.9,455.5,1113.2,455.3,1113.4,455.6z"/>
	<path class="st4" d="M1097.4,495.3c-0.2-0.2-0.4-0.4-0.5-0.6c-0.2-0.3,0.1-0.8,0.4-0.9c0.2-0.1,0.2,0.1,0.3,0.1
		C1098,494.3,1098,494.7,1097.4,495.3z"/>
	<path class="st8" d="M1098,491.7c0,0.4-0.1,0.7-0.5,0.9c-0.2,0.1-0.2,0.2-0.2,0.3c0,0.4-0.3,0.6-0.6,0.8c-0.2,0.2-0.2-0.1-0.3-0.2
		c-0.1-0.1-0.3-0.2-0.1-0.4C1096.9,492.6,1097.4,492.1,1098,491.7z"/>
	<path class="st7" d="M1092.3,479.8c1.2,0,2.1,0.8,3.3,1.1C1094.9,481.1,1092.9,480.4,1092.3,479.8z"/>
	<path class="st10" d="M1085,480.9c0.2-0.2,0.4-0.2,0.6-0.1c0.5,0.3,1,0.6,1.5,0.9c0.1,0.1,0.3,0.1,0.2,0.2
		c-0.1,0.1-0.2,0.1-0.3,0.1c-0.4,0-0.7-0.2-1-0.4C1085.7,481.4,1085.3,481.2,1085,480.9z"/>
	<path class="st6" d="M1113.3,483.4c0.3-0.6,1-1.1,1.9-1.3C1115,482.9,1114.2,483.4,1113.3,483.4z"/>
	<path class="st14" d="M1068.9,494.4c-0.7,0.5-1.3,0.1-2,0.1c0.4-0.4,0.8-0.7,1.4-0.4c0.1,0.1,0.3,0,0.4,0
		C1069.2,494,1069,494.2,1068.9,494.4C1068.9,494.4,1068.9,494.4,1068.9,494.4z"/>
	<path class="st3" d="M1116.5,482.3c-0.2,0.3-0.6,0.5-0.9,0.6c-0.1,0-0.2,0-0.2,0c-0.1-0.1,0-0.1,0-0.2c0.4-0.6,0.8-1.1,1.6-1.3
		c0,0.3-0.2,0.4-0.3,0.6C1116.6,482.1,1116.7,482.3,1116.5,482.3z"/>
	<path class="st6" d="M1096.1,497.6c-0.1,0.2-0.2,0.4-0.4,0.5c-0.2,0.1-0.2-0.1-0.3-0.2c-0.2-0.2-0.3-0.4-0.5-0.6
		c-0.1-0.2,0-0.4,0.2-0.6c0.2-0.2,0.3,0.1,0.4,0.2C1095.7,497.2,1095.9,497.4,1096.1,497.6z"/>
	<path class="st15" d="M1088.8,479.1c1,0.1,1.8,0.2,2.5,0.7c0.1,0,0.3,0.1,0.1,0.2c-0.1,0.1-0.2,0.6-0.5,0.2
		c-0.3-0.5-0.8-0.5-1.3-0.6C1089.4,479.5,1089.1,479.4,1088.8,479.1z"/>
	<path class="st12" d="M1071.5,462.7c0.6,1,1.2,2,1.7,3.1C1072.6,465.4,1071.8,463.9,1071.5,462.7z"/>
	<path class="st6" d="M1097.5,498.1c0,0.2-0.1,0.5-0.3,0.5c-0.2,0.1-0.3-0.2-0.4-0.4c-0.3-0.4-0.3-0.8,0-1.1c0.1-0.1,0.2-0.2,0.3,0
		C1097.2,497.2,1097.5,497.9,1097.5,498.1z"/>
	<path class="st5" d="M1086,482.1c-1,0.1-1.5-0.6-2.1-1.1C1084.4,480.9,1085.3,481.3,1086,482.1z"/>
	<path class="st5" d="M1114.3,488c-1.2,0.4-1.8,0.4-2.3,0C1112.7,487.8,1113.5,487.6,1114.3,488z"/>
	<path class="st7" d="M1066,466.9c0.3-0.5,0.8-0.6,1.3-0.7c0.5-0.1,1-0.2,1.5,0C1067.8,466.4,1067,466.9,1066,466.9
		C1066,466.9,1066,466.9,1066,466.9z"/>
	<path class="st12" d="M1103.8,482.8c0.6-0.3,1.3-0.5,2-0.6c0.2,0,0.2,0.1,0.3,0.3c0,0.1,0,0.2-0.2,0.2c-0.7,0.1-1.4,0.2-2,0.2
		C1103.9,482.9,1103.9,482.9,1103.8,482.8z"/>
	<path class="st16" d="M1096.5,485.5c-1.3,0.3-2.3-0.1-3.4-0.3C1094.2,485.1,1095.3,485.1,1096.5,485.5z"/>
	<path class="st14" d="M1095.4,494.9c-0.3,0.2-0.1,0.7-0.4,0.7c-0.3,0.1-0.6-0.1-0.8-0.4c0-0.1,0.7-0.8,0.8-0.8
		C1095.2,494.5,1095.4,494.7,1095.4,494.9z"/>
	<path class="st5" d="M1096.6,499.8c-0.2-0.3-0.3-0.6-0.5-0.8c-0.2-0.3,0-0.5,0.2-0.8c0.1-0.1,0.1-0.1,0.2,0
		C1096.9,498.7,1097,499.2,1096.6,499.8z"/>
	<path class="st17" d="M1080.2,435.5c0.2,1.2,0.3,2.4,0.4,3.7c0,0.2,0,0.3-0.1,0.5c-0.3-1.2-0.4-2.5-0.5-3.7
		C1080.1,435.8,1079.9,435.6,1080.2,435.5z"/>
	<path class="st15" d="M1116.5,482.3c0.1-0.1,0.1-0.2,0.2-0.3c0,0.2,0,0.2,0.2,0.1c0.3-0.3,0.5-0.5,0.8-0.8c0.1-0.1,0.3-0.3,0.5-0.3
		c0,0.3-0.3,0.4-0.3,0.7c-0.1,0.1-0.1,0.2-0.2,0.3c-0.2,0.1-0.4,0.3-0.5,0.4C1116.9,482.7,1116.7,482.7,1116.5,482.3z"/>
	<path class="st18" d="M1084.9,435.1c0.3-1.3,0.6-2.5,1.3-3.7c-0.4,1.2-0.8,2.5-1.1,3.7C1085,435.1,1085,435.1,1084.9,435.1z"/>
	<path class="st9" d="M1072.3,486.5c-0.4,0.1-0.8,0.2-1.1,0.3c-0.1,0-0.3,0.1-0.3-0.1c-0.1-0.2-0.1-0.5,0-0.7c0-0.2,0.2-0.1,0.3,0
		c0.4,0.1,0.8,0.2,1.2,0.4C1072.3,486.5,1072.3,486.5,1072.3,486.5z"/>
	<path class="st8" d="M1116.7,483.6c-0.1,0.3-0.4,0.4-0.5,0.7c-0.3,0-0.4,0.3-0.7,0.4c-0.3,0.1-0.4,0-0.3-0.3c0,0,0,0,0,0
		c0.2-0.3,0.6-0.4,0.8-0.9C1116,483.3,1116.4,483.3,1116.7,483.6z"/>
	<path class="st18" d="M1058.6,460.8c1.4,0.5,2.8,1.1,4.1,1.6c-1.5-0.3-2.9-0.9-4.2-1.5C1058.6,460.9,1058.6,460.8,1058.6,460.8z"/>
	<path class="st12" d="M1110.4,484.2c0.8-0.4,1.6-0.7,2.5-1.1C1112.8,483.7,1111.8,484.1,1110.4,484.2z"/>
	<path class="st4" d="M1080,483.6c-0.5-0.1-0.7-0.4-1-0.8c-0.2-0.2,0.1-0.3,0.1-0.4c0.1-0.2,0.2-0.1,0.3,0
		C1079.8,482.7,1080.2,483,1080,483.6z"/>
	<path class="st9" d="M1074.1,464.8c0.5,0.6,1,1.2,1.5,1.8c0.1,0.1,0.1,0.1,0,0.2c-0.1,0.1-0.3,0.1-0.4-0.1
		C1074.7,466.2,1074.3,465.6,1074.1,464.8z"/>
	<path class="st5" d="M1098.1,496.9c-0.2-0.3-0.3-0.6-0.4-0.8c-0.2-0.3,0.2-0.4,0.3-0.7c0-0.1,0.1-0.1,0.2,0
		c0.2,0.2,0.4,0.5,0.3,0.8C1098.4,496.4,1098.3,496.6,1098.1,496.9z"/>
	<path class="st19" d="M1058,438.6c-0.6-0.2-1.3-1.4-1.7-2.9C1056.8,436.6,1057.4,437.6,1058,438.6z"/>
	<path class="st9" d="M1096.5,494.7c0.6,0.6,0.7,0.9,0.4,1.5C1096.3,495.6,1096.1,495.2,1096.5,494.7z"/>
	<path class="st4" d="M1066.7,497c-0.1,0.1-0.2,0.2-0.3,0.3c-0.3,0.2-0.5,0.3-0.8,0.5c-0.1,0.1-0.2,0.1-0.3,0
		c-0.1-0.1,0-0.2,0.1-0.3c0.2-0.3,0.5-0.5,0.8-0.7C1066.5,496.5,1066.7,496.7,1066.7,497z"/>
	<path class="st15" d="M1121.7,489.1c-1,0.4-1.8,0.1-2.7-0.2C1119.6,488.7,1120.7,488.8,1121.7,489.1z"/>
	<path class="st14" d="M1086.4,480.5c-0.9,0.3-1.3-0.4-1.9-0.8C1085.3,479.5,1085.8,480.1,1086.4,480.5z"/>
	<path class="st8" d="M1079.5,484.2c-0.4,0.1-0.7,0-1-0.3c-0.2-0.2-0.2-0.3,0-0.5c0.2-0.2,0.3-0.2,0.5,0c0.3,0.2,0.5,0.5,0.8,0.7
		C1079.7,484.2,1079.6,484.1,1079.5,484.2z"/>
	<path class="st12" d="M1094,497.3c-0.1,0.6-0.5,1.2-0.7,1.8c0,0.1-0.1,0.1-0.2,0.1c-0.1-0.1-0.3-0.3-0.2-0.5
		C1093.2,498.2,1093.5,497.7,1094,497.3z"/>
	<path class="st12" d="M1078.6,488.8c0.4-0.4,0.9-0.4,1.4-0.5c0.3-0.1,0.2,0.2,0.2,0.4c0,0.2,0,0.3-0.2,0.3
		C1079.5,488.9,1079.1,488.9,1078.6,488.8z"/>
	<path class="st14" d="M1084,472c-0.3-0.2-0.6-0.4-0.9-0.6c-0.1-0.1-0.2-0.2-0.2-0.3c-0.1-0.2-0.1-0.4,0-0.5
		c0.2-0.1,0.3,0.1,0.4,0.2C1083.7,471,1083.9,471.5,1084,472z"/>
	<path class="st12" d="M1114.4,489.1c0.7-0.2,1.3-0.5,2-0.3C1116,489.3,1115.1,489.4,1114.4,489.1z"/>
	<path class="st10" d="M1063.4,497.4c0.3-0.4,0.5-0.7,0.7-1c0.2-0.2,0.4-0.1,0.6,0c0.2,0.1-0.1,0.2-0.1,0.3
		C1064.3,497.1,1064,497.4,1063.4,497.4z"/>
	<path class="st20" d="M1101.4,438.6c0.9-1.2,1.8-2.5,2.7-3.7c0,0,0.1,0.1,0.1,0.1c-0.9,1.2-1.8,2.5-2.7,3.7
		C1101.5,438.7,1101.4,438.6,1101.4,438.6z"/>
	<path class="st10" d="M1065.7,496c-0.1,0-0.2,0.1-0.4,0.1c-0.2,0.1-0.5,0.1-0.6-0.1c-0.1-0.2,0.1-0.4,0.3-0.5
		c0.2-0.2,0.5-0.2,0.7-0.1c0.2,0.1,0.2,0.2,0.1,0.4C1065.9,495.9,1065.9,496.1,1065.7,496z"/>
	<path class="st12" d="M1065.8,496.7c-0.5,0.4-0.9,0.9-1.6,1C1064.5,496.9,1065.2,496.5,1065.8,496.7z"/>
	<path class="st21" d="M1076.8,471.1c0.1-1.1,0.5-2.1,1-3c0,0,0.1,0,0.1,0C1077.5,469.1,1077.2,470.1,1076.8,471.1z"/>
	<path class="st7" d="M1084.8,480.4c-0.3,0.1-0.6,0-0.8-0.1c-0.1-0.1-0.3-0.4-0.5,0c0,0.1-0.1,0.1-0.2,0c-0.1-0.2-0.1-0.3-0.1-0.5
		c0-0.1,0.2-0.1,0.3-0.1C1084.1,479.8,1084.4,480.1,1084.8,480.4z"/>
	<path class="st16" d="M1098.2,482c-0.9-0.3-1.7-0.5-2.5-1C1096.2,480.9,1097.8,481.6,1098.2,482z"/>
	<path class="st4" d="M1083.7,478.2c0.1,0,0.2,0,0.3,0c0.2,0,0.4,0.1,0.5,0.3c0,0.3-0.3,0.1-0.4,0.2c-0.1,0.1-0.2,0.1-0.3,0.1
		c-0.1,0-0.3,0.2-0.4,0c-0.1-0.2-0.1-0.4,0-0.6C1083.4,478.1,1083.6,478.3,1083.7,478.2z"/>
	<path class="st10" d="M1069,496.3c-0.4,0.5-0.8,0.5-1.2,0.3c-0.2-0.1-0.2-0.2,0-0.3C1068.1,496,1068.5,496,1069,496.3z"/>
	<path class="st7" d="M1098.2,494.1c-0.5-0.8-0.5-0.8,0-1.3C1098.6,493.3,1098.6,493.6,1098.2,494.1z"/>
	<path class="st22" d="M1064.5,465.2c-0.8,0.2-1.7,0.5-2.7,0.7C1062.5,465.4,1063.7,465.1,1064.5,465.2z"/>
	<path class="st17" d="M1112.7,487.5c-0.6,0.2-1.2,0.3-1.8,0C1111.5,487.1,1112.2,487.1,1112.7,487.5z"/>
	<path class="st23" d="M1098,486c-1,0.4-2.1,0.8-3.2,1C1095.8,486.5,1096.9,486.1,1098,486z"/>
	<path class="st12" d="M1108.7,491.4c0.6,0.2,0.9,0.7,1.2,1.3C1109.3,492.6,1108.8,492,1108.7,491.4z"/>
	<path class="st18" d="M1091.7,429c-0.5,0.8-1,1.7-1.6,2.6C1090.2,431.1,1091,429.6,1091.7,429z"/>
	<path class="st15" d="M1109.7,486.8c0.5-0.4,1-0.4,1.5,0.1C1110.3,487.2,1110.1,487.2,1109.7,486.8z"/>
	<path class="st24" d="M1094,499.3c0.2,0.3,0.7,0.6,0.6,1.1c0,0,0,0,0,0c-0.4-0.1-0.7-0.4-1-0.7
		C1093.4,499.4,1093.8,499.3,1094,499.3C1094,499.3,1094,499.3,1094,499.3z"/>
	<path class="st25" d="M1074,466c-0.2-0.3-0.4-0.6-0.6-0.9c-0.3-0.4-0.4-0.9-0.6-1.4c0,0,0.1,0,0.1-0.1c0.4,0.8,0.8,1.5,1.2,2.3
		C1074.1,465.9,1074.1,466,1074,466z"/>
	<path class="st14" d="M1066.2,493.6c-0.2,0.2-0.4,0.5-0.7,0.5c-0.2,0-0.4-0.2-0.4-0.3c0.1-0.3,0.4-0.4,0.7-0.5
		C1066,493.2,1066.1,493.4,1066.2,493.6z"/>
	<path class="st15" d="M1064.1,498.3c0.5,0.1,0.7-0.4,1.3-0.3c-0.2,0.4-0.5,0.6-0.8,0.8C1064.3,499,1064.1,498.7,1064.1,498.3
		L1064.1,498.3z"/>
	<path class="st5" d="M1117.3,485.5c-0.6,0.4-1.3,0.4-2.1,0.4C1115.9,485.4,1116.6,485.5,1117.3,485.5z"/>
	<path class="st25" d="M1065.7,496c0.1-0.1,0.1-0.1,0.2-0.2c0.2,0.2,0.2-0.1,0.4-0.1c0.3-0.1,0.5-0.1,0.7,0.2c0,0.2-0.1,0.1-0.2,0.2
		c-0.2,0.1-0.4,0.2-0.7,0.2C1065.7,496.4,1065.7,496.3,1065.7,496z"/>
	<path class="st15" d="M1097.8,497.7c-0.2-0.3-0.4-0.6-0.5-0.9c-0.1-0.2-0.1-0.4,0.1-0.5c0.3-0.2,0.3,0.1,0.3,0.2
		C1097.9,496.9,1098,497.2,1097.8,497.7z"/>
	<path class="st26" d="M1081.9,439.1c0-1.2,0-2.5,0-3.7C1082,436.6,1082.2,437.9,1081.9,439.1L1081.9,439.1z"/>
	<path class="st27" d="M1096.1,484.9c0.7-0.2,1.3,0.1,1.9,0.2C1097.4,485.4,1096.7,485.1,1096.1,484.9z"/>
	<path class="st15" d="M1115.2,488.5c-0.6,0.2-1.2,0.4-1.8,0.3C1113.9,488.4,1114.6,488.3,1115.2,488.5z"/>
	<path class="st28" d="M1089.3,431.1c0.5-0.9,0.9-1.8,1.4-2.7c0,0,0.1,0,0.1,0.1c-0.5,0.9-0.9,1.9-1.4,2.8
		C1089.4,431.2,1089.3,431.2,1089.3,431.1z"/>
	<path class="st29" d="M1090.3,455.7c0.4-0.8,0.9-1.4,1.5-2.1C1091.4,454.5,1090.9,455.1,1090.3,455.7z"/>
	<path class="st15" d="M1094,495.3c0.2,0.4,0.6,0.6,0.2,1c-0.3,0.2-0.4-0.1-0.5-0.2C1093.3,495.7,1094,495.7,1094,495.3z"/>
	<path class="st9" d="M1083.9,489.7c0.3,0.1,0.6,0.2,1,0.4c-0.2,0.3-0.5,0.4-0.8,0.6C1083.9,490.3,1083.9,490,1083.9,489.7z"/>
	<path class="st30" d="M1105.4,483.7c0.2-0.1,0.5-0.1,0.7-0.2c0.1,0,0.2-0.1,0.3,0c0.1,0.1,0.2,0.3,0.1,0.5
		c-0.1,0.1-0.2,0.1-0.4,0.1C1105.8,484.1,1105.6,484,1105.4,483.7z"/>
	<path class="st5" d="M1095.8,494.4c-0.2-0.1-0.5-0.1-0.5-0.2c0-0.2,0.3-0.5,0.5-0.5c0.2,0,0.4,0.2,0.4,0.5
		C1096.3,494.3,1096,494.4,1095.8,494.4z"/>
	<path class="st31" d="M1066.8,443.4c0.4,0.6,0.8,1.9,0.8,2.5C1067.2,445.1,1066.9,444.3,1066.8,443.4z"/>
	<path class="st17" d="M1099.7,482.2c0.7,0,1.3,0.3,1.7,0.8C1100.8,482.9,1100.2,482.6,1099.7,482.2z"/>
	<path class="st25" d="M1084.9,476.9c-0.4-0.1-0.8-0.3-1.2-0.4c-0.2-0.1-0.5,0.2-0.4-0.1c0-0.3,0.4-0.2,0.6-0.1
		c0.4,0.1,0.8,0.3,1.1,0.6C1084.9,476.8,1084.9,476.9,1084.9,476.9z"/>
	<path class="st18" d="M1086.1,479.3c0.7-0.4,1.1-0.3,1.6,0.2C1087.1,479.5,1086.6,479.5,1086.1,479.3z"/>
	<path class="st32" d="M1092,473c0.5,0.4,1,0.8,1.4,1.3C1092.8,474,1092.2,473.7,1092,473C1091.9,473,1092,473,1092,473z"/>
	<path class="st12" d="M1066.5,493.4c-0.2,0-0.4-0.2-0.4-0.4c0-0.2,0.2-0.4,0.4-0.4c0.2,0,0.4,0.2,0.4,0.4
		C1067,493.2,1066.7,493.3,1066.5,493.4z"/>
	<path class="st17" d="M1106.8,498.3c-0.4-0.6-0.7-1.1-0.8-1.7C1106.4,496.8,1106.7,497.5,1106.8,498.3z"/>
	<path class="st24" d="M1101.9,439.9c-0.3,0.5-0.6,1.1-1.4,1.3c0.4-0.5,0.8-0.9,1.3-1.4C1101.8,439.8,1101.9,439.9,1101.9,439.9z"/>
	<path class="st21" d="M1088.1,477.3c0.6,0,0.9,0.1,1.5,0.7C1089.2,478.1,1089,478,1088.1,477.3z"/>
	<path class="st7" d="M1100.7,493.2c-0.5-0.5-0.4-0.7,0.2-1.2C1101.1,492.5,1100.8,492.8,1100.7,493.2z"/>
	<path class="st24" d="M1087.9,477c-0.7,0-1.1-0.3-1.6-0.6C1087,476.3,1087.4,476.6,1087.9,477z"/>
	<path class="st24" d="M1100.3,440.6c0.1-0.7,0.4-1.2,0.9-1.6C1101.1,439.7,1100.8,440.1,1100.3,440.6z"/>
	<path class="st24" d="M1109.2,480.6c0.5-0.4,1.1-0.4,1.6-0.6C1110.5,480.5,1110,480.6,1109.2,480.6z"/>
	<path class="st33" d="M1055,464c0.7-0.4,1.5-0.7,2.3-0.7C1056.5,463.6,1055.8,463.8,1055,464z"/>
	<path class="st18" d="M1066.7,496.1c0.1-0.1,0.1-0.1,0.2-0.2c0.1,0,0.3,0,0.4,0c0.1,0,0.3-0.1,0.3,0.1c0,0.2-0.1,0.4-0.3,0.4
		c-0.2,0-0.4,0-0.7,0.1C1066.5,496.3,1066.9,496.2,1066.7,496.1z"/>
	<path class="st34" d="M1108.7,438c-0.3,0.6-0.7,1.1-1.2,1.5C1107.7,438.8,1108.2,438.4,1108.7,438z"/>
	<path class="st7" d="M1084.2,472.6c-0.8-0.1-1.2-0.4-1.2-0.9C1083.5,471.9,1083.9,472.2,1084.2,472.6z"/>
	<path class="st15" d="M1080,482.4c-0.4-0.2-0.7-0.4-0.4-0.9c0-0.1,0-0.2,0.1-0.2c0.1,0,0.2,0.1,0.2,0.2
		C1080.1,481.8,1080,482.1,1080,482.4z"/>
	<path class="st35" d="M1113.5,496.2c0.7,0.1,1.2,0.5,1.8,0.9c-0.6,0-1-0.4-1.5-0.6c-0.1,0-0.2-0.1-0.2,0.1
		C1113.5,496.5,1113.5,496.3,1113.5,496.2z"/>
	<path class="st36" d="M1102.3,433.6C1102.3,433.7,1102.3,433.7,1102.3,433.6c-0.3,0-0.3-0.1-0.3-0.4c0.1-0.4,0.5-0.5,0.9-0.7
		C1102.8,433,1102.3,433.2,1102.3,433.6z"/>
	<path class="st37" d="M1066.2,450.7c-0.5-0.5-0.9-1.1-1.3-1.7c0.6,0.5,0.9,1.1,1.4,1.6C1066.3,450.6,1066.2,450.7,1066.2,450.7z"/>
	<path class="st19" d="M1113.8,496.9c0.1,0.1,0.2,0.2,0.3,0.3c0,0.1,0.1,0.2,0.1,0.2c0,0.1-0.1,0-0.2,0c-0.4-0.2-0.7-0.5-1-1
		C1113.4,496.7,1113.6,496.8,1113.8,496.9z"/>
	<path class="st38" d="M1065.7,455c-0.5-0.5-1-1.1-1.4-1.5c0.5,0.4,1,0.9,1.5,1.4C1065.8,454.9,1065.7,455,1065.7,455z"/>
	<path class="st39" d="M1081,478.1c0,0.1,0.1,0.1,0.1,0.2c0.3,0.6,0.2,1.3,0,1.9c0,0-0.1,0.1-0.1,0.1
		C1080.9,479.6,1080.8,478.8,1081,478.1z"/>
	<path class="st24" d="M1084.6,475.5c0.5-0.3,0.9,0.1,1.2,0.3C1085.5,476,1085.2,475.9,1084.6,475.5z"/>
	<path class="st24" d="M1088.2,477.9c-0.5,0-0.9-0.3-1.3-0.6C1087.4,477.2,1087.8,477.5,1088.2,477.9z"/>
	<path class="st16" d="M1120.8,479.3c0.2-0.4,0.6-0.7,1-0.9C1121.8,479,1121.6,479.1,1120.8,479.3z"/>
	<path class="st21" d="M1084.1,482.2c-0.7,0.1-0.8,0.1-0.7-0.8C1083.7,481.7,1083.9,482,1084.1,482.2z"/>
	<path class="st25" d="M1100.5,491.2c0.3,0.5-0.1,0.7-0.3,0.9c-0.1,0-0.1,0.1-0.2,0c0-0.1-0.1-0.2,0-0.2
		C1100.1,491.6,1100.3,491.4,1100.5,491.2z"/>
	<path class="st40" d="M1084.7,473.6c-0.5,0.1-0.8,0-1-0.1c-0.1-0.1-0.2-0.2-0.2-0.3c0.1-0.2,0.2-0.1,0.3,0
		C1084.1,473.3,1084.3,473.4,1084.7,473.6z"/>
	<path class="st41" d="M1088.1,466c-0.6,0-1,0-1.3-0.4C1087.3,465.4,1087.6,465.7,1088.1,466z"/>
	<path class="st7" d="M1117,481c0.3-0.4,0.6-0.7,1.1-0.8C1117.9,480.7,1117.6,480.9,1117,481z"/>
	<path class="st17" d="M1098.8,495.3c-0.3-0.2-0.4-0.5-0.1-0.7c0.1-0.1,0.2-0.3,0.3-0.1C1099.3,494.8,1098.9,495,1098.8,495.3z"/>
	<path class="st42" d="M1084.9,476.2c0.6,0,1,0.3,1.4,0.6C1085.8,476.9,1085.5,476.7,1084.9,476.2z"/>
	<path class="st24" d="M1066.9,499.7c-0.3,0.2-0.4,0.7-0.8,0.3c-0.1-0.1-0.2-0.1-0.2-0.3c0-0.1,0.2-0.2,0.3-0.2
		C1066.4,499.6,1066.6,499.7,1066.9,499.7z"/>
	<path class="st21" d="M1104.7,483.3c0.4-0.3,0.9-0.4,1.4-0.3C1105.7,483.3,1105.2,483.3,1104.7,483.3z"/>
	<path class="st17" d="M1122.5,478.6c0.2-0.5,0.6-0.7,1.2-0.7C1123.2,478.2,1122.8,478.4,1122.5,478.6z"/>
	<path class="st43" d="M1093.5,481.2c-0.4,0-0.8-0.1-1.3-0.2C1092.7,480.7,1093.1,480.8,1093.5,481.2z"/>
	<path class="st44" d="M1108.5,482.1c-0.5,0.1-0.9,0.2-1.4,0C1107.6,482,1108.1,482,1108.5,482.1z"/>
	<path class="st33" d="M1073.2,491.5c-0.1,0.1-0.2,0.1-0.3,0.1c-0.2,0.1-0.4,0.1-0.6,0.1c0.3-0.3,0.7-0.5,1.1-0.6
		c-0.1,0.2-0.2,0.2-0.3,0.3C1073,491.5,1073.2,491.5,1073.2,491.5z"/>
	<path class="st24" d="M1101.8,489.8c-0.2,0.5-0.4,0.9-0.8,1.2C1100.9,490.4,1101.5,490.2,1101.8,489.8z"/>
	<path class="st45" d="M1076.5,447.1c-0.2-0.6-0.4-1.2-0.6-1.8c0,0,0.1,0,0.1,0c0.2,0.6,0.4,1.2,0.6,1.8
		C1076.6,447.1,1076.5,447.1,1076.5,447.1z"/>
	<path class="st42" d="M1076.8,468.8c-0.3,0.4-0.6,0.9-0.8,1.3C1076,469.5,1076.3,469.1,1076.8,468.8z"/>
	<path class="st17" d="M1084.3,475c-0.5,0.1-0.8,0.1-1-0.3C1083.6,474.6,1083.6,474.6,1084.3,475z"/>
	<path class="st19" d="M1118.6,484.8c0.3-0.4,0.7-0.4,1.1-0.4C1119.4,484.7,1119.1,484.8,1118.6,484.8z"/>
	<path class="st11" d="M1092.5,502.6c0,0.3,0,0.6,0,0.8c-0.1-0.1-0.1-0.3-0.1-0.4c0-0.1,0-0.1-0.1-0.2c-0.4-0.2-0.4-0.2-0.1-0.6
		C1092.4,502.2,1092.3,502.5,1092.5,502.6z"/>
	<path class="st46" d="M1107.7,488.2c0-0.5-0.1-0.9-0.1-1.4c0,0,0.1,0,0.1,0c0.2,0.5,0.1,0.9,0.1,1.4
		C1107.8,488.2,1107.8,488.2,1107.7,488.2z"/>
	<path class="st47" d="M1094.8,481.4c0.5,0,0.9,0.1,1.4,0.3C1095.6,481.7,1095.2,481.6,1094.8,481.4z"/>
	<path class="st48" d="M1115.2,477.5c0.2-0.4,0.5-0.7,0.9-0.8C1115.9,477.2,1115.6,477.4,1115.2,477.5z"/>
	<path class="st11" d="M1071.8,454.4c-0.2,0.6,0,1.1-0.1,1.7c0-0.4-0.1-0.9-0.1-1.3c0-0.1,0-0.3-0.1-0.4c0-0.2,0.1-0.4,0.1-0.6
		C1071.7,454,1071.7,454.2,1071.8,454.4z"/>
	<path class="st18" d="M1084.5,474.6c0.5,0,0.8,0.2,1.2,0.5C1085.2,475.2,1084.9,474.9,1084.5,474.6z"/>
	<path class="st49" d="M1130.7,494.9c0.6,0,1.3,0,1.9,0c-0.3,0.1-0.5,0.3-0.8,0.2C1131.4,494.9,1131,495.2,1130.7,494.9z"/>
	<path class="st10" d="M1079.5,484.2c0.1-0.1,0.1-0.1,0.2-0.2c0.2,0.1,0.3,0.3,0.3,0.5c0,0.1,0,0.2-0.2,0.3c-0.1,0-0.2,0-0.2,0
		c-0.1-0.1,0-0.2,0-0.3C1079.7,484.4,1079.8,484.2,1079.5,484.2z"/>
	<path class="st50" d="M1086.8,471.8c0.2-0.2,0-0.3-0.1-0.4c0-0.1-0.1-0.2,0.1-0.3c0.1,0.2,0.2,0.4,0.3,0.6c0.1,0.2,0.1,0.3,0.1,0.5
		C1087,472.1,1086.9,472,1086.8,471.8z"/>
	<path class="st24" d="M1064.1,498.3c0,0-0.1,0-0.1,0c-0.1,0-0.4,0.2-0.4,0c0-0.2,0.1-0.4,0.3-0.4
		C1064.2,497.9,1064.1,498.1,1064.1,498.3C1064.1,498.3,1064.1,498.3,1064.1,498.3C1064.1,498.3,1064.1,498.3,1064.1,498.3z"/>
	<path class="st51" d="M1071.5,456.2c-0.2,0.4,0,0.8-0.1,1.2c-0.1-0.6-0.1-1.3,0-1.9C1071.4,455.7,1071.5,456,1071.5,456.2z"/>
	<path class="st29" d="M1085.3,473.4c-0.4-0.1-0.8-0.2-1.1-0.6C1084.7,472.9,1085,473.1,1085.3,473.4z"/>
	<path class="st46" d="M1086.2,475.5c0.5,0.1,0.8,0.3,1.1,0.6C1086.9,476,1086.6,475.8,1086.2,475.5z"/>
	<path class="st52" d="M1127.4,494.2c-0.4,0-0.9,0.1-1.3-0.2C1126.5,493.9,1127,494.1,1127.4,494.2z"/>
	<path class="st53" d="M1128.3,455.5c0.6-0.1,1.2-0.1,1.8,0c-0.3,0-0.7,0.1-1,0.1C1128.8,455.5,1128.5,455.6,1128.3,455.5z"/>
	<path class="st54" d="M1105.9,494.5c0.2,0.4,0.2,0.8,0.2,1.1C1105.8,495.3,1105.7,495,1105.9,494.5z"/>
	<path class="st15" d="M1066.4,494.8c0.2,0,0.4,0,0.4,0.2c0,0.2-0.2,0.1-0.4,0.1c-0.2,0-0.4,0-0.4-0.2
		C1066,494.8,1066.3,494.9,1066.4,494.8z"/>
	<path class="st23" d="M1119.6,479.8c0.2-0.4,0.4-0.6,0.8-0.8C1120.3,479.5,1120.1,479.8,1119.6,479.8z"/>
	<path class="st31" d="M1086.1,474.7c0.4,0,0.5,0,0.9,0.4C1086.5,475.2,1086.4,475.1,1086.1,474.7z"/>
	<path class="st55" d="M1106.5,493.3c-0.2-0.4-0.4-0.9-0.4-1.4c0.2,0.4,0.4,0.9,0.6,1.3C1106.6,493.3,1106.5,493.3,1106.5,493.3z"/>
	<path class="st54" d="M1091.6,429.9c0.1,0.4,0,0.6-0.4,0.8C1091.2,430.4,1091.4,430.2,1091.6,429.9z"/>
	<path class="st56" d="M1087,470.3c0,0-0.1,0.1-0.1,0.1c-0.3-0.3-0.6-0.7-0.8-1.1C1086.4,469.6,1086.7,470,1087,470.3z"/>
	<path class="st23" d="M1134.1,463.5c0,0.4-0.1,0.8-0.2,1.2C1133.8,464.2,1133.9,463.8,1134.1,463.5z"/>
	<path class="st19" d="M1089.3,463.2C1089.3,463.2,1089.3,463.3,1089.3,463.2c-0.4,0.2-0.8,0.3-1.1,0.3
		C1088.5,463.3,1088.9,463.2,1089.3,463.2z"/>
	<path class="st33" d="M1107.2,482.9c0.3-0.2,0.7-0.2,1-0.1C1107.9,483,1107.6,483,1107.2,482.9z"/>
	<path class="st33" d="M1084.8,474.1c0.6-0.2,0.7-0.1,0.9,0.3c-0.1,0-0.1,0-0.1,0C1085.3,474.4,1085.1,474.3,1084.8,474.1z"/>
	<path class="st57" d="M1088.9,477c-0.4-0.1-0.7-0.3-1-0.5C1088.4,476.5,1088.7,476.8,1088.9,477z"/>
	<path class="st47" d="M1115.3,481.7c0.2-0.3,0.5-0.4,1-0.6C1116,481.5,1115.6,481.6,1115.3,481.7z"/>
	<path class="st58" d="M1137.7,463c-0.1,0.4,0.1,0.8-0.4,1.2c0.1-0.5,0.1-0.9,0.3-1.2C1137.6,463,1137.7,463,1137.7,463z"/>
	<path class="st59" d="M1084.4,457.8c0,0,0.1,0.1,0.1,0.1c-0.2,0.4-0.3,0.7-0.6,1C1084,458.5,1084.1,458.1,1084.4,457.8z"/>
	<path class="st60" d="M1084,474.2c-0.3,0.2-0.5,0.1-0.7-0.1c-0.1-0.1,0-0.1,0.1-0.1C1083.7,473.8,1083.9,474,1084,474.2z"/>
	<path class="st48" d="M1108.3,486c0.4,0,0.7,0.1,1,0.2C1108.9,486.6,1108.7,486.4,1108.3,486z"/>
	<path class="st36" d="M1091.8,479.2c-0.3,0-0.6-0.2-0.9-0.4C1091.3,478.8,1091.6,479,1091.8,479.2z"/>
	<path class="st61" d="M1063.9,439.5c-0.2-0.4-0.3-0.8-0.3-1.2c0.1,0.3,0.3,0.7,0.4,1C1064,439.4,1063.9,439.4,1063.9,439.5z"/>
	<path class="st62" d="M1069.8,462.4c-0.2-0.3-0.3-0.7-0.3-1.1C1069.7,461.7,1069.8,462.1,1069.8,462.4z"/>
	<path class="st28" d="M1063.9,434.8c-0.1-0.4-0.2-0.8-0.1-1.2c0.2,0.3,0.2,0.6,0.2,0.9C1064,434.6,1063.9,434.7,1063.9,434.8z"/>
	<path class="st17" d="M1085.7,478.3c0.3-0.1,0.5-0.1,0.8-0.1C1086.2,478.5,1086,478.4,1085.7,478.3z"/>
	<path class="st21" d="M1123,472c0.2-0.2,0.4-0.3,0.6-0.2c0,0,0.1,0.2,0,0.3C1123.5,472.2,1123.3,472,1123,472z"/>
	<path class="st47" d="M1089.1,480.3c0.3,0.1,0.5,0.2,0.9,0.4C1089.4,480.9,1089.2,480.6,1089.1,480.3z"/>
	<path class="st63" d="M1073.4,439.9c-0.1-0.3-0.1-0.7-0.2-1C1073.5,439.2,1073.4,439.5,1073.4,439.9
		C1073.5,439.9,1073.4,439.9,1073.4,439.9z"/>
	<path class="st46" d="M1106.8,488c-0.1,0.2,0,0.5-0.1,0.7c-0.1-0.4-0.1-0.8-0.1-1.4C1106.7,487.6,1106.8,487.8,1106.8,488z"/>
	<path class="st64" d="M1080.2,435.5c0,0.1-0.1,0.3-0.1,0.4c-0.1-0.4-0.1-0.8,0-1.2C1080.1,435,1080.2,435.2,1080.2,435.5z"/>
	<path class="st65" d="M1099.8,493.7c0,0-0.1,0.1-0.1,0.1c0,0,0,0,0,0c-0.1,0.1-0.2,0.3-0.4,0.2c-0.1-0.1,0-0.1,0-0.2
		C1099.4,493.6,1099.6,493.4,1099.8,493.7z"/>
	<path class="st33" d="M1109,490.9c-0.4-0.2-0.6-0.4-0.6-0.8C1108.7,490.3,1108.8,490.6,1109,490.9z"/>
	<path class="st66" d="M1114.9,454.2c-0.3,0.1-0.7,0.1-1.2,0.1c0.3-0.2,0.4-0.2,0.6-0.2C1114.6,454.2,1114.8,454.2,1114.9,454.2z"/>
	<path class="st37" d="M1075.7,438.3c-0.1-0.4-0.1-0.7,0-1.1c0,0.2,0.1,0.5,0.1,0.7C1075.8,438,1075.7,438.2,1075.7,438.3z"/>
	<path class="st67" d="M1101.3,487.1c0,0-0.1-0.1-0.1-0.1c0.3-0.2,0.6-0.3,0.9-0.3C1101.8,486.8,1101.6,486.9,1101.3,487.1z"/>
	<path class="st68" d="M1068.2,431.6c-0.1-0.3-0.2-0.7-0.3-1c0.3,0.2,0.3,0.6,0.4,0.9C1068.2,431.6,1068.2,431.6,1068.2,431.6z"/>
	<path class="st45" d="M1052.2,464.8c0.3-0.1,0.7-0.2,1-0.3C1052.9,464.8,1052.6,464.9,1052.2,464.8z"/>
	<path class="st27" d="M1101.8,484.9c-0.4,0-0.7-0.1-1.1-0.1c0.4-0.1,0.8,0,1.2,0C1101.8,484.8,1101.8,484.9,1101.8,484.9z"/>
	<path class="st56" d="M1061,440.1c0,0,0.1-0.1,0.1-0.1c0.1,0.3,0.3,0.6,0.4,0.9c0,0-0.1,0-0.1,0.1
		C1061.3,440.7,1061.1,440.4,1061,440.1z"/>
	<path class="st69" d="M1102.4,488.8c0,0-0.1-0.1-0.1-0.1c0.2-0.2,0.3-0.3,0.5-0.5C1102.8,488.5,1102.6,488.7,1102.4,488.8z"/>
	<path class="st62" d="M1072.7,462.4c0,0,0.1-0.1,0.1-0.1c0.2,0.3,0.3,0.6,0.4,1C1072.9,463,1072.8,462.7,1072.7,462.4z"/>
	<path class="st70" d="M1153.6,466c0.1-0.8,0.3-1.5,0.4-2.3c-0.5,0.2-0.6,0.3-0.6,0.9c0,0.7-0.3,1.4-0.8,2c0.4-1.2,0.1-2.8,1.8-3.5
		C1154.2,464.1,1154.1,465.1,1153.6,466z"/>
	<path class="st32" d="M1136.5,464.2c0.2-1.4,0.4-2.8,0.8-4.2C1137.3,461.5,1137,462.9,1136.5,464.2z"/>
	<path class="st32" d="M1127,453.4c-1,0.4-2,0.9-2.9,1.3c0,0,0-0.1-0.1-0.1c0.8-0.7,1.9-1.1,2.9-1.3
		C1127,453.3,1127,453.4,1127,453.4z"/>
	<path class="st71" d="M1135.1,464.9c0.1-1,0.3-2,0.4-3.1C1135.7,462.3,1135.6,464.1,1135.1,464.9z"/>
	<path class="st72" d="M1141.3,465.4c0.8-0.6,1.6-1.1,2.5-1.8C1143.5,464.2,1141.9,465.3,1141.3,465.4z"/>
	<path class="st73" d="M1135.8,492.7c0,0,0,0.1-0.1,0.1c-0.7,0.3-1.4,0.6-2.1,0.9C1133.7,493.3,1135.1,492.7,1135.8,492.7z"/>
	<path class="st74" d="M1144.4,473.2c0.2-0.8,0.4-1.6,0.6-2.4c0.1,0,0.1,0,0.2,0c-0.2,0.8-0.4,1.6-0.6,2.4
		C1144.5,473.2,1144.5,473.2,1144.4,473.2z"/>
	<path class="st75" d="M1138.3,467.6c0.4-0.5,1-0.9,1.6-1.1C1139.4,467,1138.9,467.3,1138.3,467.6z"/>
	<path class="st73" d="M1130,452.4c-0.5,0.2-0.9,0.3-1.4,0.5c-0.1,0-0.2,0-0.2-0.1c0-0.1,0-0.1,0.1-0.1
		C1129,452.5,1129.4,452.3,1130,452.4z"/>
	<path class="st76" d="M1113.4,455.6c-0.2-0.1-0.5,0-0.7-0.1c0.9-0.2,1.7-0.1,2.6,0C1114.7,455.5,1114,455.6,1113.4,455.6z"/>
	<path class="st77" d="M1126.3,483.3c-0.3,0.3-0.6,0.5-1,0.5C1125.5,483.6,1125.8,483.4,1126.3,483.3z"/>
	<path class="st78" d="M1132.1,451.8c-0.2,0.2-0.5,0.2-0.9,0.2C1131.5,451.8,1131.8,451.8,1132.1,451.8z"/>
	<path class="st79" d="M1034.7,473.4c-1.5-0.4-3.1-0.6-4.6-1.1c0-0.1,0-0.1,0-0.2c1.5,0.4,3,0.7,4.6,1.1
		C1034.7,473.3,1034.7,473.3,1034.7,473.4z"/>
	<path class="st80" d="M1051.5,473.4c-0.9,0.3-1.8,0.8-2.9,0.7C1048.9,473.6,1050.8,473.2,1051.5,473.4z"/>
	<path class="st81" d="M1035.6,473.5c0.9,0,1.8,0.1,2.6,0.4C1037.3,474,1036.5,473.7,1035.6,473.5z"/>
	<path class="st82" d="M1052.6,464c-0.7,0.3-1.5,0.6-2.2,0.9c0.6-0.6,1.4-0.8,2.1-1C1052.5,463.9,1052.6,463.9,1052.6,464z"/>
	<path class="st38" d="M1056.6,467.8c0.2-0.2,0.5-0.3,0.9-0.4C1057.1,467.7,1056.9,467.8,1056.6,467.8z"/>
	<path class="st83" d="M1076.9,494.8c0.2-0.3,0.5-0.7,1-0.8C1077.6,494.4,1077.3,494.7,1076.9,494.8z"/>
	<path class="st84" d="M1086.7,454.6c-0.1,0.5-0.3,0.9-0.7,1.3C1086,455.2,1086.4,454.9,1086.7,454.6z"/>
	<path class="st85" d="M1094.1,472.5c-0.4,0-0.7-0.1-0.9-0.4C1093.6,472,1093.8,472.2,1094.1,472.5z"/>
	<path class="st77" d="M1093.7,474.7c0.4,0.1,0.6,0.3,0.8,0.6C1094,475.2,1093.8,475,1093.7,474.7z"/>
	<path class="st81" d="M1112.4,473.8c-1.6,0-3.2-0.3-4.7-0.8C1109.3,473.2,1110.9,473.5,1112.4,473.8z"/>
	<path class="st86" d="M1103.6,471.3c0.3,0.1,0.5,0.2,0.8,0.3c0.6,0.2,1.1,0.5,1.7,0.7c0.1,0,0.2,0.1,0.2,0.2c0,0.1-0.1,0.1-0.2,0
		c-0.8-0.3-1.7-0.6-2.5-1c-0.1,0-0.2-0.1-0.1-0.2C1103.4,471.3,1103.5,471.3,1103.6,471.3z"/>
	<path class="st73" d="M1114.3,464.2c-0.9-0.1-1.7-0.3-2.6-0.6C1112.3,463.4,1113.6,463.8,1114.3,464.2z"/>
	<path class="st87" d="M1078.2,432.5c-0.1-1.1-0.1-2.2,0-3.3c0.1,0.6,0.1,1.3,0.1,2C1078.2,431.6,1078.3,432.1,1078.2,432.5z"/>
	<path class="st28" d="M1078.5,434.7c0.1,1,0.2,2,0.3,3.1c0,0-0.1,0-0.1,0C1078.5,436.8,1078.4,435.7,1078.5,434.7
		C1078.4,434.7,1078.5,434.7,1078.5,434.7z"/>
	<path d="M1078.2,432.5c0-0.4-0.1-0.9,0.1-1.3c0,0.6,0,1.2,0,1.8C1078.1,432.9,1078.2,432.7,1078.2,432.5z"/>
	<path class="st88" d="M1078.5,434.7C1078.5,434.7,1078.4,434.7,1078.5,434.7c-0.2-0.4-0.2-0.8-0.1-1.2
		C1078.4,433.9,1078.4,434.3,1078.5,434.7z"/>
	<path class="st89" d="M1063.4,430.6c-0.1-0.5-0.1-0.9,0-1.4c0.1,0.4,0.2,0.8,0.1,1.2C1063.4,430.5,1063.5,430.6,1063.4,430.6z"/>
	<path class="st90" d="M1063.4,430.6c0-0.1,0.1-0.1,0.1-0.2c0,0.6,0.1,1.1,0.1,1.7c0,0-0.1,0-0.1,0
		C1063.5,431.6,1063.4,431.1,1063.4,430.6z"/>
	<path class="st76" d="M1063.5,432.1C1063.6,432.1,1063.6,432.1,1063.5,432.1c0.2,0.4,0.2,0.7,0.2,1.1
		C1063.5,432.9,1063.6,432.5,1063.5,432.1z"/>
	<path class="st70" d="M1108.6,501.2c0.1,0,0.2,0.1,0.3,0.2c0.6,0.7,1.2,1.4,1.9,1.9c0,0,0,0.1,0,0.1c-0.1,0.1-0.1,0.1-0.2,0
		c-0.7-0.5-1.3-1.1-1.9-1.7C1108.7,501.6,1108.9,501.3,1108.6,501.2C1108.6,501.2,1108.6,501.2,1108.6,501.2z"/>
	<path class="st91" d="M1107,490.9c0.1,0.4,0.2,0.8,0.3,1.3C1106.9,491.7,1107,491.3,1107,490.9C1107,490.9,1107,490.9,1107,490.9z"
		/>
	<path class="st79" d="M1063.4,490.4c0.5-0.6,1.2-0.9,1.8-1.2c0,0.1,0.1,0.1,0.1,0.2c-0.6,0.4-1.2,0.8-1.9,1.2
		C1063.5,490.5,1063.5,490.5,1063.4,490.4z"/>
	<path class="st26" d="M1066.3,488.8c0.4-0.4,0.9-0.8,1.6-0.5C1067.3,488.4,1066.8,488.6,1066.3,488.8z"/>
	<path class="st38" d="M1066.9,491.1c0.2-0.3,0.4-0.4,0.7-0.5C1067.4,490.9,1067.2,491,1066.9,491.1z"/>
	<path class="st92" d="M1064.9,488.3c0.3-0.2,0.5-0.4,0.8-0.4C1065.5,488.2,1065.4,488.2,1064.9,488.3z"/>
	<path class="st26" d="M1067.9,490.3c0.4-0.3,0.6-0.4,1-0.4C1068.6,490.1,1068.4,490.3,1067.9,490.3z"/>
	<path class="st26" d="M1052.3,447.6c0.4,0.1,0.8,0.2,1.2,0.6C1053,448,1052.6,447.9,1052.3,447.6z"/>
	<path class="st86" d="M1095.3,442.5c0.4-0.9,1.1-1.5,1.8-2.2C1096.6,441.1,1096.1,441.9,1095.3,442.5
		C1095.3,442.5,1095.3,442.5,1095.3,442.5z"/>
	<path class="st72" d="M1081.1,480.2c0-0.6,0.2-1.3,0-1.9c0.1-0.2,0.2-0.2,0.2,0c0.1,0.5,0.3,0.9,0.1,1.4c-0.1,0.4,0.1,0.7,0.1,1.1
		C1081.2,480.6,1081.1,480.4,1081.1,480.2z"/>
	<path class="st92" d="M1081.5,486.9c0.2,0.4,0.3,0.7,0.4,1C1081.5,487.6,1081.3,487.4,1081.5,486.9z"/>
	<path class="st13" d="M1118.2,476.4c0.2-0.4,0.4-0.7,0.9-0.8C1118.8,475.9,1118.6,476.1,1118.2,476.4z"/>
	<path class="st82" d="M1122.4,494.5c-0.3,0.1-0.5,0-0.8-0.1C1121.9,494.3,1122.1,494.4,1122.4,494.5z"/>
</g>
</svg>
