<?xml version="1.0" encoding="utf-8"?>
<!-- Generator: Adobe Illustrator 25.0.0, SVG Export Plug-In . SVG Version: 6.00 Build 0)  -->
<svg version="1.1" id="Calque_1" xmlns="http://www.w3.org/2000/svg" xmlns:xlink="http://www.w3.org/1999/xlink" x="0px" y="0px"
	 viewBox="0 0 1920 1080" style="enable-background:new 0 0 1920 1080;" xml:space="preserve">
<style type="text/css">
	.st0{fill:#8E8E8E;}
</style>
<g>
	<path class="st0" d="M924.5,427.9c0.9-3.1,1.5-5.2,2.1-7.4c3.7-12.3,11.1-21.8,23.1-26.4c17.1-6.5,29.3-18.2,38.8-33.2
		c1.4-2.3,3.1-4.1,6.1-2.6c2.9,1.4,2.7,3.9,1.8,6.4c-1.8,5.4-1.1,10.7,0.8,15.8c2.7,7,5.9,13.8,8.6,20.7c1.9,4.7,3.7,9.6,4.9,14.5
		c2.6,11.2-0.7,21.2-8.6,29.3c-5.8,6-7,13.2-7.6,21.1c8.8,0.7,17.4,1.5,25.9,2.1c0.8,0.1,1.8-0.7,2.4-1.4
		c9.1-11.8,18.3-23.4,27.1-35.4c7.7-10.6,11.6-22.4,11.3-35.7c-0.3-17.3,6.4-24.4,23.7-26.5c28.6-3.5,51.6,19.5,48,48.1
		c-0.4,3.1-2.1,6.6-4.2,8.9c-3.2,3.4-7,6.4-11,8.9c-9.5,5.8-15.9,14-19.7,24.2c-2.5,6.7-4.7,13.4-7.1,20.4c1.3,0.6,2.3,1,3.2,1.5
		c4,2,8.2,3.7,12.1,6c8.5,5,12.4,11.7,8.9,23c-7.1,22.9-9,46.5-11.2,70.1c-1.4,14.7-3.5,29.3-9.1,43.1
		c-9.5,23.3-25.7,40.5-48.6,51.2c-2.6,1.2-5.2,2.4-6.8,3.2c-1,6.2-1.8,11.8-2.7,17.3c7.8,1.5,16.3,3.2,24.8,5
		c5.6,1.2,9.6,4.6,9.2,7.9c-0.7,4.9-4.9,6.4-8.8,7.5c-15.7,4.2-31.8,6.7-48.1,6.9c-32.2,0.4-64.2-1.7-95.6-9.1
		c-9.2-2.2-18.5-4.3-27.7-6.5c-6.4-1.6-11.7-5.3-15.7-10.3c-2.1-2.5-3.6-6.2-3.8-9.5c-0.2-3.4-1.3-5-4.3-6.3
		c-29.6-13.9-46.4-38-53.5-69.1c-4-17.7-6.5-35.8-9.1-53.9c-2.4-16.2-5.1-32.2-13.5-46.8c-4.9-8.5-2.9-15.7,5.1-21.5
		c9.5-6.9,20.6-9.8,31.8-12.7c3.1-0.8,6.2-1.5,9.6-2.3c-2.6-10.8-0.7-21.1,2-31.3c4-14.9,2.1-29.5-2.4-43.9
		c-1.7-5.5-3.7-10.9-5.5-16.3c-0.8-2.6-0.3-4.8,2.2-6.1c2.5-1.2,4.4,0.1,5.7,2.2c4.9,8,12.4,12.6,21.1,15.1
		c9.7,2.8,19.7,4.6,29.3,7.6c6.7,2.1,13.4,4.9,19.6,8.2C916.2,413.5,921.1,419.7,924.5,427.9z M1100.7,520.1
		c-6.4,2.2-12.6,4.6-18.9,6.4c-30.3,8.4-61.4,11.1-92.6,12.7c-29.4,1.5-58.7,1.2-88-0.8c-23.7-1.6-47.3-4.1-70.4-9.7
		c-8.9-2.2-17.6-5.2-26.4-7.8c0,0.1,0,0.4,0.1,0.7c5.2,12.9,7,26.5,8.5,40.1c2.1,18.4,4.4,36.7,9.6,54.5
		c7.3,24.6,20.9,44.1,44.7,55.3c6.4,3,13,5.9,19.7,8c40.5,12.4,81.2,12.3,121.9,1.1c16.6-4.6,32.1-11.7,45.9-22.1
		c21.4-16.1,31-38.6,34.8-64.1c2.6-17.4,4.4-34.9,6.9-52.4C1097.6,534.6,1099.3,527.4,1100.7,520.1z M1068.8,520.5
		c0.2-2.2,0.3-3.8,0.5-5.4c3.9-25.2,11.8-48.9,24.7-71c4.8-8.2,10.8-15.3,18.9-20.4c9-5.7,11.1-11.2,8.7-21.7
		c-4.4-19.4-23.9-29.3-43.3-22.1c-5.1,1.9-8.2,5.1-8.3,10.7c-0.1,4-0.3,8-0.4,12c0,7.4-1.8,14.4-5.5,20.8
		c-3.6,6.3-7.3,12.5-11.7,18.3c-21.8,28.5-43.8,56.8-65.7,85.2c-0.7,0.9-1.4,1.9-2.6,3.6C1013.1,529.1,1041.1,526.3,1068.8,520.5z
		 M925.5,524.9c-12.1-11.3-19-25.5-25.3-40.1c-2.1-5-4.5-10-7.1-14.9c-3.7-6.9-9-12.2-16.5-15.1c-2.7-1-5.2-2.5-3.9-6
		c1.1-2.9,3.9-3.6,7.6-2.1c6.4,2.6,11.5,6.9,15.8,12.2c7.2,8.9,11.3,19.3,15.7,29.7c4.2,10.2,10,19.2,17.9,27
		c1.8,1.8,3.8,3.4,5.4,4.8c2.9-8.5,5.4-16.7,8.5-24.7c4.3-11.4,1.8-20.8-7.3-28.6c-1.2-1.1-2.4-2.2-3.7-3.2
		c-6.3-4.9-10.4-11.4-12.4-19.1c-0.8-3.1-1.6-6.3-2.3-9.4c-2.3-9.3-7.8-16.2-16.4-20.2c-4.8-2.3-9.9-4.1-15-5.6
		c-13.7-3.9-28.2-5.2-41.3-13.2c0.5,2,0.8,3.3,1.1,4.6c3.4,12.3,4.8,24.8,2.6,37.4c-1.1,6.6-3,13.2-4,19.8
		c-1.1,6.8-1.5,13.9,2.2,20.1c4.2,7.2,9,14.1,13.7,21c4.8,7,10.5,13,18.6,16.4C894.1,521.7,909.8,522.9,925.5,524.9z M987.1,377.6
		c-8.6,11.6-20.8,18.4-33.7,24.5c-13,6.1-19.6,17.1-21.8,31.1c-1.7,10.9-0.3,20.2,9.8,26.8c3,1.9,5.3,4.8,7.8,7.2
		c3.6-6.7,7-13.3,10.5-19.9c4.6-8.7,8.8-17.4,6.3-27.8c-0.3-1.2,1.7-4.3,2.7-4.3c1.6-0.1,3.8,1.3,4.8,2.7c1.1,1.5,1.2,3.8,1.4,5.7
		c1.3,9.8-2.5,18.4-6.8,26.7c-3.6,6.8-7.3,13.6-10.6,20.6c-2.4,5.1-2.8,10.7-1.7,16.5c6-2,11.6-4,17.3-5.9
		c8.9-2.9,13.9-8.7,13.6-18.2c-0.3-9.6,3.3-17.5,9.7-24.3c6.7-7.1,7.9-15.6,5.3-24.8c-0.9-3.1-2-6.2-3.2-9.2
		C994.9,396.1,991.1,387.1,987.1,377.6z M944.5,531.2c8.4,0,16.8,0.1,25.1-0.1c1.7-0.1,3.8-1.2,4.9-2.5
		c12.9-16.4,25.6-32.9,38.3-49.4c0.6-0.8,1.1-1.6,1.8-2.8c-6.9-0.6-13.3-1.2-19.8-1.5c-0.9,0-2.3,0.9-2.7,1.7
		c-2.9,5.8-7.8,9.4-13.6,11.6c-4.5,1.8-9.1,3.3-13.8,4.8c-9.3,2.9-16.1,7.8-18.3,18.1C945.1,517.6,942.6,523.8,944.5,531.2z
		 M894.5,529.5c0.1-0.4,0.2-0.8,0.3-1.3c-11.9-3.5-22.8-8.7-32.4-16.6c-9.6-7.8-17.1-17.4-22.6-28.5c-12.8,2.7-25.2,5.4-36.4,11.8
		c-9.2,5.3-9.3,10.3,0.2,15c6.8,3.4,14,6.1,21.2,8.2c20.3,5.8,41.3,8.4,62.3,10.5C889.6,529,892,529.3,894.5,529.5z M879.3,686.7
		c2.4,7.7,7.8,11.2,14,13.1c35.4,10.8,70.9,11.7,106.6,1.4c7-2,13.9-4.8,20.6-7.7c3.5-1.5,6-4.3,5.7-9
		C977.6,700.1,929,701.3,879.3,686.7z M1088.3,489.3c-2,9.7-3.8,18.4-5.6,27.1c0.3,0.3,0.6,0.7,1,1c6.7-3.2,13.6-6,19.9-9.8
		c5.4-3.2,5.3-6.9,0-10.3C1099.1,494.5,1094,492.3,1088.3,489.3z"/>
	<path class="st0" d="M952.5,653.1c-18.1-0.1-34.2-2.1-49.1-10c-26.3-13.9-23.9-42.5-3.5-57.4c10-7.3,21.4-10.4,33.7-10.6
		c21.2-0.3,40.9,4.5,57.9,17.7c4.3,3.4,8.2,7.8,11.1,12.4c6.8,11.1,4.6,23.8-5,32.6c-8.1,7.4-18.1,10.9-28.6,13
		C963.1,652.1,957,652.6,952.5,653.1z M948.3,644.7c5.2-0.4,10.5-0.6,15.7-1.4c9.3-1.4,18.4-3.9,26.1-9.7c9.5-7.2,11.3-18,3.7-27.1
		c-4-4.8-9.1-9.1-14.5-12.2c-16.4-9.5-34.4-12.6-53.1-10c-11.3,1.6-21.5,5.8-28.6,15.4c-7,9.5-6.2,21.6,2.1,29.7
		c2.9,2.8,6.4,5.3,10,7.1C921.9,642.7,934.9,644.3,948.3,644.7z"/>
</g>
</svg>
