<?xml version="1.0" encoding="utf-8"?>
<!-- Generator: Adobe Illustrator 25.0.0, SVG Export Plug-In . SVG Version: 6.00 Build 0)  -->
<svg version="1.1" id="Calque_1" xmlns="http://www.w3.org/2000/svg" xmlns:xlink="http://www.w3.org/1999/xlink" x="0px" y="0px"
	 viewBox="0 0 1920 1080" style="enable-background:new 0 0 1920 1080;" xml:space="preserve">
<style type="text/css">
	.st0{fill:#FEFEFE;}
	.st1{fill:#1E1E1E;}
	.st2{fill:#FDFDFD;}
	.st3{fill:#FBFBFB;}
	.st4{fill:#FCFCFC;}
	.st5{fill:#F8F8F8;}
	.st6{fill:#FAFAFA;}
	.st7{fill:#F9F9F9;}
	.st8{fill:#F5F5F5;}
	.st9{fill:#F7F7F7;}
	.st10{fill:#F1F1F1;}
	.st11{fill:#F6F6F6;}
	.st12{fill:#F4F4F4;}
	.st13{fill:#F2F2F2;}
	.st14{fill:#EEEEEE;}
	.st15{fill:#EDEDED;}
	.st16{fill:#E7E7E7;}
	.st17{fill:#F3F3F3;}
	.st18{fill:#CCCCCC;}
	.st19{fill:#EBEBEB;}
	.st20{fill:#E5E5E5;}
	.st21{fill:#DEDEDE;}
	.st22{fill:#DFDFDF;}
	.st23{fill:#D9D9D9;}
	.st24{fill:#E1E1E1;}
	.st25{fill:#E6E6E6;}
	.st26{fill:#DBDBDB;}
	.st27{fill:#C2C2C2;}
	.st28{fill:#E8E8E8;}
	.st29{fill:#E9E9E9;}
	.st30{fill:#606060;}
	.st31{fill:#D6D6D6;}
	.st32{fill:#CECECE;}
	.st33{fill:#C1C1C1;}
	.st34{fill:#D0D0D0;}
	.st35{fill:#D2D2D2;}
	.st36{fill:#BEBEBE;}
	.st37{fill:#CFCFCF;}
	.st38{fill:#C7C7C7;}
	.st39{fill:#E3E3E3;}
	.st40{fill:#DDDDDD;}
	.st41{fill:#BCBCBC;}
	.st42{fill:#E2E2E2;}
	.st43{fill:#C3C3C3;}
	.st44{fill:#C8C8C8;}
	.st45{fill:#F0F0F0;}
	.st46{fill:#202020;}
	.st47{fill:#212121;}
	.st48{fill:#242424;}
	.st49{fill:#232323;}
	.st50{fill:#262626;}
	.st51{fill:#222222;}
	.st52{fill:#2B2B2B;}
	.st53{fill:#2D2D2D;}
</style>
<g>
	<path class="st0" d="M905.5,540c18,0,36,0,54,0c0.4,0,0.5,0.1,0.5,0.5c0,35.3,0,70.7,0,106c0,0.4,0,0.5-0.5,0.5c-36,0-72,0-108.1,0
		c-0.4,0-0.5-0.1-0.5-0.5c0-35.3,0-70.7,0-106c0-0.4,0-0.5,0.5-0.5C869.5,540,887.5,540,905.5,540z"/>
	<path class="st1" d="M853.9,614.4c0.9-0.6,1.8-0.9,2.8-1.1c2.7-0.5,4.8-1.9,6.6-4c1.4-1.5,2.7-3.1,4.5-4.3
		c-0.5-0.1-0.9-0.3-1.2-0.4c-1.5-0.5-2.7-1.5-3.8-2.5c-0.2-0.2-0.1-0.3,0-0.5c0.1-0.1,0.3-0.1,0.5-0.1c1.2,0.1,2.2-0.3,3.2-0.7
		c1.6-0.5,3.1-1.2,4.8-1.5c2.3-0.4,4.3-0.1,6,1.5c0.1,0.1,0.1,0.2,0.3,0.1c-0.4-0.6-0.7-1.2-1.1-1.8c-1.6-2.6-3.2-5.3-4.2-8.2
		c-0.5-1.3-0.8-2.6-1.1-3.9c-0.1-0.3-0.2-0.7-0.3-1c-0.9-1.6-0.9-3.4-0.7-5.2c0-0.3,0.1-0.5,0.1-0.8c0-0.1,0.1-0.2,0-0.3
		c-0.1-0.1-0.2,0.1-0.3,0.2c-0.1,0.1-0.1,0.4-0.3,0.5c-0.3-0.2,0-0.6-0.2-0.8c-0.1-0.1,0.2-0.2,0.3-0.2c0.4,0,0.5-0.2,0.6-0.6
		c0.2-1.1,0.8-1.8,1.8-2.3c2-1,4.1-1.9,6.2-2.7c4.1-1.4,8.3-2.2,12.5-2.7c5.3-0.6,10.6-0.8,16-0.7c4.9,0.1,9.7,0.3,14.6,0.8
		c0.5,0,0.9-0.1,1.2-0.6c1-1.6,2-3.2,2.7-5c0.3-0.8,0.5-1.6,0.5-2.5c0-0.1-0.1-0.2,0.1-0.3c0.2,0,0.3-0.3,0.4-0.4c1-1.5,2-3,3.5-4
		c1.5-0.9,3.2-1.5,5-1.6c0.8,0,1.5,0.2,2.1,0.7c0.3,0.3,0.7,0.5,1.1,0.6c0.1,0,0.2,0.1,0.3,0.2c1,1,1.9,2,2.9,3
		c1.5,1.6,2,3.6,1.6,5.8c-0.2,0.9-0.7,1.7-1.3,2.5c-1.3,1.6-2.8,2.9-4.4,4.2c-0.6,0.5-1.2,1-1.8,1.6c0.6,0.3,1.1,0.5,1.6,0.8
		c1.9,1,3.4,2.3,4.7,4c0.3,0.4,0.4,0.8,0.4,1.3c0.2,6.4-1.7,12-5.4,17.1c-1.5,2.1-3.3,4.1-5.1,6c-0.2,0.2-0.4,0.3-0.5,0.5
		c0.4,0,1.2-0.6,2.4-1.8c0.7-0.7,1.4-1.5,2.2-2.2c-0.1,0.1-0.2,0.3-0.3,0.4c-1.8,2.5-4.2,4.4-6.8,6c-1.2,0.7-2.4,1.4-3.6,2
		c-0.2,0.1-0.4,0.3-0.6,0.5c-2.2,3.2-5.1,5-9,5.2c-3.1,0.2-6.1,0.5-9.2,0.4c-3.7-0.1-7.3-0.4-10.8-1.6c-1.6-0.6-3-1.3-4.4-2.3
		c-0.1-0.1-0.2-0.3-0.5-0.1c-0.3,0.2-0.4-0.1-0.4-0.3c0-0.3-0.2-0.5-0.4-0.6c-0.8-0.4-1.6-0.8-2.5-1.2c-0.6-0.3-1.2-0.6-1.8-1.1
		c-0.2-0.2-0.4-0.2-0.6,0c-0.2,0.2-0.5,0.4-0.7,0.6c-0.2,0.1-0.4,0.3-0.6,0c-0.3-0.3-0.4-0.1-0.5,0.1c-0.3,0.5-0.6,1-0.8,1.5
		c-0.4,1-1.1,1.6-2.1,2.1c-3.5,1.6-7,2.9-10.8,3.6c-4,0.7-7.9,0.4-11.7-0.9C856.3,615.4,855.1,615,853.9,614.4z"/>
	<path class="st1" d="M898.3,620.1c0.2-0.2,0.3-0.2,0.3-0.3c0.8-1.3,2.2-1.8,3.6-2.3c2.2-0.9,4.4-0.8,6.7-0.4c1.6,0.3,3.3,0.7,5,0.3
		c-0.1,0.4-0.3,0.6-0.6,0.8c-0.2,0.2-0.5,0.5-0.8,0.7c-1.2,0.8-2.1,1.9-2.5,3.3c-0.1,0.4-0.3,0.7-0.6,1c-0.2,0.2-0.1,0.4,0.1,0.5
		c0.3,0.2,0.6,0.4,1,0.6c0.9,0.4,1.6,1.1,2.1,1.9c0.2,0.3,0.4,0.6,0.6,0.9c0.4,0.6,1,0.9,1.7,0.8c0.1,0,0.2,0,0.3,0
		c0.3,0,0.6,0.1,0.6,0.4c0,0.2-0.3,0.2-0.4,0.3c-2.9,1.4-5.9,2.3-9.1,2.3c-1,0-1.9-0.2-2.8-0.4c-1.1-0.4-2.1-1-2.9-1.9
		c-0.5-0.6-1.1-1.2-1.8-1.8c-0.9-0.7-1.9-1.1-3-1c-0.2,0-0.4-0.1-0.5-0.2c-0.2-0.3-0.5-0.5-0.7-0.8c-0.9-1-1.3-2.2-0.8-3.5
		c0.4-1.2,1.5-1.7,2.7-1.9c0.3-0.1,0.6-0.1,0.8-0.1C897.9,619.2,898.4,619.3,898.3,620.1z"/>
	<path class="st1" d="M883.6,622.3c-1.2,0-2.1-0.6-3.1-1.1c-0.7-0.4-1.5-0.7-2.3-0.6c-0.4,0-0.2-0.2-0.2-0.4c0.2-0.6,0.5-1.1,1-1.5
		c1.1-0.8,2.3-1.2,3.6-1.2c0.7,0,1.4,0,2.1,0.3c0.7,0.3,1.3,0.6,1.7,1.3c0.1,0.2,0.1,0.3,0.4,0.1c1-0.8,2.2-0.8,3.5-0.6
		c2.1,0.3,2.6,1.2,2.4,3.3c-0.1,1.7-1.3,3.1-2.8,3.3c-0.1,0-0.2,0.1-0.3,0c-0.9-0.4-1.7,0-2.6,0.4c-0.7,0.4-1.6,0.3-2.4,0
		c-1.1-0.4-1.6-1.4-1.2-2.6C883.4,622.8,883.5,622.6,883.6,622.3z"/>
	<path class="st1" d="M887.7,628.6c0-0.8,0.3-1.4,1-1.7c0.9-0.4,1.9-0.6,2.9-0.5c1,0.1,1.7,0.7,1.9,1.6c0.3,1.1-0.1,2.1-0.9,2.6
		c-1.1,0.7-2.9,0.7-4-0.1C888,630,887.7,629.4,887.7,628.6z"/>
	<path class="st0" d="M921.5,587.5c-0.4,0.6-1.1,0.7-1.5,1.3c-0.1-0.4,0.2-0.6,0.1-1c-1.1,1.2-2.2,2.3-3.5,3.2
		c-0.1-0.3,0.1-0.5,0.3-0.7c0.2-0.3,0.5-0.6,0.7-0.8c0.2-0.2,0.4-0.4,0.4-0.7c0.1-0.2,0.1-0.5-0.1-0.6c-0.2-0.1-0.3,0.2-0.4,0.3
		c-0.2,0.2-0.2,0.6-0.5,0.7c-0.1-0.3,0.1-0.3,0.2-0.4c0.1-0.1,0.2-0.3,0.1-0.4c-0.1-0.1-0.3-0.1-0.4,0.1c-0.1,0.1-0.2,0.3-0.4,0.4
		c-0.2-0.5-0.3-0.5-0.7-0.1c-0.4,0.4-0.7,0.9-1.1,1.3c-0.3,0.4-0.7,0.7-1.3,0.8c0.1-0.5,0.5-0.8,0.7-1.1c0.2-0.3,0.4-0.6,0.4-1
		c0-0.2-0.1-0.4-0.4-0.2c-1.9,1.5-4,2.7-5.9,4.2c-0.1,0.1-0.5,0.2-0.3,0.4c0.2,0.3,0.4,0.1,0.6-0.1c0.3-0.4,0.6-0.6,1-0.7
		c0.8-0.4,1.6-0.9,2.2-1.5c0.1-0.1,0.3-0.2,0.4-0.3c0.2,0.1-0.1,0.4,0.2,0.5c0.4-0.4,0.6-1.2,1.3-1.5c-0.9,1.6-2.1,2.7-3.6,3.7
		c0.6,0,1-0.2,1.3-0.4c0.6-0.3,1.1-0.7,1.6-1c0.2-0.1,0.4-0.5,0.6,0c0.1,0.2,0.2,0,0.3-0.1c0.7-0.7,1.4-1.4,2.2-2
		c0.1-0.1,0.3-0.2,0.5-0.3c-0.6,2.1-2.4,3.2-4.1,4.4c0.4,0.1,0.7-0.1,0.9-0.3c0.6-0.4,1-0.9,1.8-0.8c0.1,0,0.2-0.1,0.2-0.2
		c0.4-0.6,1-0.9,1.8-1.2c-0.2,0.3-0.4,0.5-0.6,0.8c-0.2,0.3-0.4,0.6-0.1,0.9c0.1,0.2,0,0.3-0.1,0.4c-0.5,0.5-1.2,0.8-1.8,1.2
		c-0.5,0.3-0.9,0.6-1.4,1c0.6,0,0.9-0.2,1.3-0.5c0.9-0.6,1.7-1.2,2.5-1.8c0.3-0.2,0.6-0.4,0.9-0.6c0.2-0.1,0.3-0.2,0.4,0.1
		c0.1,0.3,0.3,0.2,0.3,0c0.2-0.9,1-1.2,1.6-1.6c0.4-0.2,0.8-0.5,1.2-0.7c-1.4,2.3-3.5,3.9-5.7,5.4c2.5-1.1,4.5-2.9,6.8-4.5
		c-0.2,0.7-0.7,1.1-1.1,1.6c0.4,0,0.6-0.1,0.8-0.3c0.6-0.6,1-1.3,1.5-1.9c0.3-0.4,0.6-0.8,1.1-0.9c0.5-0.2,0.9-0.6,1.4-1
		c-0.5,1-1.1,1.8-1.7,2.5c-1.5,1.6-3.3,2.8-5.1,3.9c-0.7,0.5-1.5,0.9-2.3,1.4c0.5,0.1,0.8,0,1.1-0.2c1.4-1.1,3.1-1.9,4.5-3
		c0.1-0.1,0.2-0.2,0.3-0.1c0.3,0.3,0.4,0.1,0.5-0.1c0.4-0.5,0.8-0.9,1.3-1.3c0.6-0.5,1.3-1,1.9-1.5c-0.1,0.6-0.4,1-0.7,1.5
		c-0.7,1-1.6,1.8-2.6,2.5c-1.1,0.8-2.3,1.5-3.4,2.3c-0.1,0.1-0.3,0.2-0.4,0.4c1.3-0.5,2.4-1.2,3.4-1.9c1.1-0.7,2.1-1.5,3.2-2.3
		c-0.3,1.3-3.1,3.9-5.3,5c0.3,0.1,0.5,0,0.7-0.1c1.5-0.6,2.9-1.5,4.2-2.5c1.2-0.9,2.5-1.7,3.9-2.3c0.3-0.1,0.6-0.2,0.9-0.3
		c-0.5,0.9-1.1,1.8-2.3,1.8c0,0.1,0.4,0.1,0.1,0.4c-0.3,0.3-0.7,0.6-1.3,0.7c0.3-0.4,0.7-0.7,0.9-1.1c-0.3,0-0.5,0.1-0.7,0.3
		c-0.2,0.2-0.5,0.4-0.6,0.7c-0.7,1.1-1.6,1.8-2.7,2.3c-1.3,0.7-2.6,1.3-3.9,2c-0.4,0.2-0.8,0.5-1.1,0.8c1.8-0.5,3.3-1.5,5-2.5
		c0,0.3-0.3,0.3-0.4,0.6c0.5-0.1,0.9-0.4,1.2-0.7c0.6-0.6,1.3-1.2,2.2-1.4c0.1,0,0.1,0,0.2,0c0,0,0.1,0,0.2,0
		c-0.4,0.8-0.9,1.4-1.5,2c-1.3,1.2-2.9,1.9-4.5,2.6c-1.2,0.5-2.4,1-3.5,1.5c-0.1,0-0.2,0.1-0.4,0.2c0.5,0.1,0.8,0,1.2-0.1
		c1.4-0.5,2.8-1.2,4.2-1.8c0.4-0.2,0.8-0.4,1.3-0.5c-0.3,0.7-0.8,1.1-1.3,1.6c0.5-0.1,0.9-0.4,1.1-0.8c0.7-1.1,1.6-1.8,2.8-2.2
		c0.5-0.2,0.9-0.5,1.4-0.8c0,0.4-0.3,0.6-0.6,0.8c-0.6,0.3-1.1,0.5-1.7,0.7c-0.1,0-0.2,0.1-0.3,0.2c-0.1,0.1-0.3,0.1-0.2,0.2
		c0.1,0.1,0.2,0.1,0.3,0.1c0.3-0.1,0.6-0.4,1-0.3c-0.4,0.5-0.9,0.8-1.3,1.1c-2.1,1.4-4.4,2.1-6.7,2.8c-1.3,0.4-2.7,0.7-4,1.1
		c-0.2,0-0.3,0.1-0.4,0.2c3.7-0.5,7.1-1.8,10.7-3.2c-0.4,0.7-0.9,1.2-1.5,1.6c-1.4,1.1-3,1.7-4.7,2.2c-1.7,0.5-3.4,1-5,1.4
		c0.4,0.2,2.7-0.3,5.3-1.1c1.7-0.6,3.4-1.2,5.2-1.8c-0.3,0.5-0.7,0.8-1.1,1c-1.8,1.3-3.8,2.1-5.9,2.7c-1.7,0.5-3.4,0.9-5.1,1.3
		c-0.1,0-0.1,0-0.2,0.1c2.9,0,5.5-1,8.1-2.1c-0.3,0.3-0.6,0.4-0.9,0.6c-2.6,1.3-5.4,2-8.3,2.3c-7,0.8-13.8,0-20.4-2.4
		c-2.4-0.9-4.6-2.1-6.5-3.7c-0.5-0.4-1.2-0.7-1.8-1.1c-1.3-0.8-2.4-1.8-3.1-3.2c-0.2-0.3-0.2-0.4,0.1-0.7c0.9-0.7,1.6-1.5,2.4-2.3
		c0.1-0.1,0.2-0.2,0.2-0.3c-0.2,0-0.4,0.2-0.5,0.3c-0.8,0.6-1.5,1.3-2.2,2.1c-0.1,0.1-0.2,0.5-0.5,0.3c-0.3-0.2-0.6-0.5-0.4-0.9
		c0.2-0.5,0.5-0.8,0.9-1.2c0.5-0.6,1.1-1.1,1.5-1.7c0-0.1,0.1-0.1,0.1-0.3c-0.5,0.2-0.8,0.4-1,0.7c-0.5,0.6-1,1.1-1.6,1.7
		c-0.2,0.2-0.3,0.2-0.6,0.1c-1-0.8-1.1-1.6-0.3-2.6c0.6-0.8,1.5-1.5,2.3-2.2c0.3-0.3,0.7-0.6,0.9-1.1c-0.3,0.1-0.5,0.3-0.7,0.5
		c-1.1,0.9-2.1,1.8-3,2.8c-0.3,0.3-0.4,0.2-0.5-0.1c-0.4-0.6-0.6-1.3-0.9-2c-0.1-0.3,0.1-0.3,0.2-0.5c2.1-1.3,4-3,5.6-4.8
		c0.1-0.1,0.2-0.2,0.3-0.4c-0.2-0.1-0.3,0.1-0.5,0.2c-1,0.7-1.9,1.6-2.8,2.5c-0.9,0.9-1.9,1.7-3,2.3c-0.1-0.5-0.5-0.9-0.7-1.4
		c-0.2-0.4-0.2-0.8,0.1-1.3c1.1-1.4,2.3-2.7,3.8-3.7c0.5-0.4,1.1-0.3,1.6-0.2c0.4,0.1,0.8,0.2,1.2,0.4c0.6,0.2,1.2,0.5,1.9,0.6
		c-2.2,2-4.1,4-5.9,6.2c0.3,0.1,0.4-0.1,0.5-0.2c1-0.8,1.8-1.8,2.6-2.7c0.8-0.9,1.6-1.8,2.7-2.4c0.2-0.1,0.3-0.2,0.5-0.2
		c0.1,0.4-0.2,0.7-0.4,1c-0.4,0.4-0.8,0.7-1.3,1c-0.4,0.3-0.7,0.6-0.9,1.2c0.6-0.2,1-0.5,1.4-0.8c0.5-0.4,0.9-0.9,1.4-1.3
		c0.6-0.5,1.2-0.8,2-0.9c0.2,0,0.3,0,0.6,0.1c-1.1,0.9-2.2,1.8-3.6,2.5c0.7,0.2,1.2-0.1,1.6-0.4c0.5-0.4,0.9-0.8,1.4-1.2
		c0.5-0.4,1-0.7,1.7-0.7c-0.5,0.8-1.7,1-1.8,2.1c0.4-0.1,0.7-0.4,1-0.7c0.4-0.4,0.7-0.7,1-1.1c0.2-0.3,0.4-0.3,0.7-0.3
		c3.7,0.5,7.4,0.9,11.1,1c3.9,0.2,7.8-0.1,11.6-0.2c3.3-0.1,6.7-0.4,10-0.7C921.1,587.5,921.3,587.5,921.5,587.5z"/>
	<path class="st0" d="M898.3,572.8c-0.6,0.9-2,0.9-2.1,2.3c0.6-0.6,1.3-1.1,1.8-1.6c0.6-0.7,1.4-1,2.3-1.1c2.4-0.2,4.8-0.3,7.2,0
		c0.1,0,0.3,0,0.3,0.1c0,0.1-0.1,0.2-0.2,0.3c-1.1,1.1-2.2,2-3.3,3c-0.4,0.4-0.7,0.7-1.1,1.1c0.3,0.1,0.4-0.1,0.5-0.2
		c1.6-1.1,3-2.5,4.3-3.9c0.2-0.3,0.5-0.4,0.8-0.4c1.7,0,3.3,0.2,4.9,0.4c0.1,0,0.2,0,0.3,0.1c-2,2-4.2,3.8-6.3,5.7
		c0.7-0.2,1.3-0.8,1.9-1.1c-1.5,1.7-3.4,2.9-5,4.6c0.5-0.1,0.9-0.4,1.2-0.7c0.4-0.4,0.8-0.8,1.3-1.1c0.6-0.4,1.2-0.5,1.9-0.4
		c-1.1,1.1-2.1,2.1-3.4,2.9c-0.1,0-0.2,0.1-0.2,0.1c-0.9-0.2-1.7,0.1-2.6,0.5c-0.3,0.1-0.5,0.1-0.7-0.1c-1.3-1.4-4.1-1.9-5.9-1.1
		c-0.2,0.1-0.3,0.2-0.5,0c-1.1-1-2.5-1.5-4-1.7c-2-0.3-3.9-0.2-5.7,0.6c-0.4,0.2-0.7,0.4-1.1,0.6c-0.3,0.2-0.6,0.4-0.3,0.8
		c0.1,0.3-0.1,0.2-0.3,0.3c-1.3,0.5-2.6,0.6-3.9,0.2c-1.7-0.5-3.2-1.1-4.7-2c-1.7-1-1.7-1.8-0.2-3c2-1.6,4.4-2.5,6.9-3.1
		c3.3-0.7,6.7-1.1,10.1-1.5c1.7-0.2,3.5-0.4,5.2-0.6C897.9,572.8,898,572.8,898.3,572.8z"/>
	<path class="st0" d="M927.9,578.3c-0.8,0.4-1.6,0.5-2.5,0.6c-0.1,0-0.4-0.1-0.3,0.2c0,0.2,0.2,0.2,0.4,0.2c0.3,0,0.5-0.1,0.8,0
		c-1,0.9-2.5,0.6-3.7,1.3c0.4,0.2,0.7,0,0.9,0c0.3-0.1,0.7-0.1,0.9,0.2c0.2,0.2,0.4,0,0.6-0.1c0.2-0.1,0.4-0.4,0.8-0.3
		c-0.1,0.2-0.3,0.3-0.5,0.4c-1.1,0.6-2.2,0.8-3.4,1c-0.1,0-0.4-0.1-0.3,0.2c0.1,0.2,0.2,0.2,0.4,0.1c0.2,0,0.4-0.2,0.5,0
		c0.1,0.2-0.2,0.3-0.3,0.5c-0.4,0.3-0.9,0.4-1.4,0.4c-0.4,0-0.9,0-1.3,0c-0.2,0-0.4,0-0.6,0.1c-0.2,0-0.5,0.1-0.4,0.3
		c0,0.2,0.3,0.2,0.5,0.2c0.4,0,0.7-0.1,1.1-0.1c0.3,0,0.6-0.1,0.7,0.3c0.1,0.2,0.3,0,0.4,0c0.7-0.3,1.5-0.6,2.3-0.7
		c0.4-0.1,0.8-0.1,1.2,0c-2.3,1.1-4.8,1.1-7.2,1.3c0.2,0.4,0.5,0.2,0.8,0.4c-1.4,0.2-2.7,0.3-4.1,0.3c0.6-0.7,1.2-1.3,1.9-2
		c1.7-1.8,3.5-3.6,5-5.5c1-1.2,1.8-2.5,2.6-3.9c0.1-0.1,0.1-0.3,0.2-0.3c0.8-0.6,1.2-1.5,1.7-2.4c0.3-0.6,0.7-1.2,1.2-1.7
		c0.1-0.1,0.2-0.3,0.2-0.4c0.8-2.5,1.9-4.9,2.8-7.3c0.4-1.1,1.2-2,2.5-2.2c0.7-0.1,1.3,0.1,1.9,0.2c1,0.3,2.1,0.5,3.2,0.4
		c0.4,0,0.5,0.3,0.6,0.4c0.3,0.6,0.8,0.9,1.2,1.4c1.1,1.5,1,3.3-0.3,4.6c-0.5,0.5-1.1,0.9-1.8,1.2c-0.8,0.4-1.6,0.6-2.5,0.6
		c-0.6,0.1-0.7,0.3-0.7,0.9c0.4-0.1,0.8-0.3,1.2-0.4c0.3-0.1,0.7-0.2,0.9,0.2c0.1,0.1,0.2,0.1,0.3,0.1c0.4-0.2,0.9-0.3,1.3-0.4
		c0.9-0.1,1.8-0.2,2.8-0.5c-0.3,0.6-0.8,0.7-1.3,0.8c-0.9,0.2-1.8,0.2-2.7,0.3c-0.6,0.1-1.1,0.1-1.7,0.3c-0.2,0.1-0.4,0.1-0.7,0.4
		c1.7,0.3,3.3-0.6,5-0.6c-0.3,0.4-0.6,0.6-0.9,0.7c-0.9,0.4-1.8,0.4-2.7,0.5c-0.8,0.1-1.5,0.1-2.3,0.2c-0.1,0-0.3,0.1-0.4,0.1
		c0.5,0.4,1,0.3,1.5,0.3c1.1,0,2.2-0.3,3.3-0.6c0.1,0,0.2,0,0.4-0.1c-0.2,0.4-0.3,0.4-0.8,0.6c-0.8,0.3-1.7,0.4-2.5,0.5
		c-0.7,0.1-1.5,0.2-2.1,0.6c1.3,0.3,2.5-0.3,3.9-0.3c-0.3,0.3-0.6,0.4-0.9,0.5c-1.1,0.4-2.4,0.4-3.5,0.7c-0.3,0.1-0.5,0.1-0.8,0.2
		c-0.1,0-0.2,0-0.2,0.1c0,0.1,0.1,0.2,0.2,0.2c0.3,0.2,0.6,0.2,0.9,0c1.1-0.6,2.3-0.4,3.5-0.7c-0.3,0.6-0.7,0.8-1.2,0.9
		c-0.9,0.3-1.8,0.4-2.6,0.5c-0.8,0.1-1.7,0.2-2.5,0.5c-0.2,0.1-0.4,0.1-0.6,0.3c1.5,0.3,2.8-0.5,4.3-0.5c-0.4,0.5-0.9,0.7-1.4,0.8
		c-1,0.3-2,0.5-3,0.7c-0.4,0.1-0.8,0.2-1.2,0.5c1.2,0,2.2-0.5,3.4-0.5c-0.3,0.6-0.8,0.8-1.3,0.9c-0.9,0.3-1.8,0.4-2.7,0.6
		c-0.4,0.1-0.8,0.2-1.2,0.3c0,0.1,0.1,0.2,0.3,0.2c0.6-0.1,1.2-0.2,1.8-0.3c0.1,0,0.3-0.2,0.4,0c0.1,0.1-0.1,0.3-0.1,0.4
		C927.6,578.2,927.9,578,927.9,578.3z"/>
	<path class="st0" d="M880.4,609.1c-1.9,3.3-4.4,5.9-8.6,6c-2,0.1-4,0.1-6,0c-1.3-0.1-2.5-0.5-3.8-0.6c0.1-0.2,0.2-0.2,0.3-0.2
		c3.7-1,7.2-2.3,10.4-4.3c0.7-0.4,1.3-0.9,1.9-1.4c0.1-0.1,0.2-0.2,0.4-0.2c1.8,0.1,3.4-0.5,5.1-0.7c0.3-0.1,0.6-0.1,0.9-0.1
		c0.4-0.1,0.4,0.1,0.2,0.4c-0.2,0.3-0.5,0.6-0.8,0.7c-0.5,0.2-0.9,0.3-1.4,0.5c-0.3,0.1-0.5,0.2-0.8,0.5
		C879,609.6,879.7,609.3,880.4,609.1z"/>
	<path class="st0" d="M877.5,604.5c-1.6,0.9-2.7,2.2-4,3.4c-0.2,0.1-0.3,0.3-0.2,0.5c0.1,0.2,0,0.3-0.2,0.3c-1.3,0.7-2.6,1.5-4,2.1
		c-0.7,0.3-0.7,0.3-0.8-0.4c-0.5,0.2-0.5,1-1.2,1c0.2-0.5,0.4-1,0.4-1.6c-0.7,0.5-0.6,1.6-1.6,2c0.4-0.7,0.8-1.3,1.1-1.9
		c-0.5,0.1-0.6,0.3-1.1,1.1c-0.4,0.7-0.6,0.9-1.1,1.1c-0.1-0.5,0.1-0.8,0.4-1.1c0.3-0.5,0.7-0.9,1-1.4c0.1-0.2,0.2-0.4,0.3-0.6
		c-0.4,0.2-0.6,0.4-0.9,0.7c-0.8,0.9-1.5,2-2.5,2.8c-0.1,0.1-0.2,0.2-0.1,0.3c0.2,0.2,0.3-0.1,0.5-0.1c-0.3,0.4-0.7,0.5-1,0.6
		c0-0.1,0-0.1,0-0.1c1.6-2,3.1-4.2,4.9-6.1c2.2-2.2,4.8-3.4,8-3.3c0.3,0,0.7,0.1,1.1,0.1c-1.8,1.2-3.4,2.4-4.8,4
		c0.6-0.1,1-0.4,1.3-0.8c0.8-0.9,1.8-1.6,2.8-2.2C876.4,604.8,876.9,604.5,877.5,604.5z"/>
	<path class="st0" d="M894.8,582.6c-1.6,0.1-3.1,0.5-4.6,0.8c0-0.3,0.2-0.6-0.1-0.7c-0.3-0.1-0.7-0.1-0.9,0.3
		c-0.1,0.3-0.3,0.2-0.5,0.2c-0.3,0-0.7-0.1-1-0.2c-0.7-0.3-1.3-0.6-2-0.9C887.5,580.4,893.2,580.5,894.8,582.6z"/>
	<path class="st2" d="M886,573.5c-0.6,0.1-1.3,0.3-1.9,0.4c-2.5,0.6-5,1.2-7.3,2.4c-0.9,0.4-1.7,1-2.5,1.7c-1.1,1-1,2.2,0.3,3
		c0.6,0.4,1.2,0.7,1.8,1c0.4,0.2,0.8,0.6,0.8,1.2c-1.9-0.6-3.7-1.2-4.7-3.1c-0.5-1-0.5-1.2,0.2-2c0.9-1,2-1.6,3.2-2.1
		c3.1-1.3,6.4-2.1,9.8-2.6C885.8,573.4,885.9,573.4,886,573.5C886,573.4,886,573.5,886,573.5z"/>
	<path class="st0" d="M864.1,602.3c1.6-0.6,3.1-1.3,4.7-1.8c0.9-0.2,1.8-0.3,2.6,0.3c-0.3,0.3-0.7,0.6-1.1,0.9
		c-0.7,0.5-1.5,1-2.1,1.6c-0.2,0.2-0.2,0.6-0.6,0.6c-0.4,0-0.8-0.1-1.2-0.2C865.5,603.5,864.9,602.9,864.1,602.3z"/>
	<path class="st2" d="M906.9,612.5c-1.2,0.1-2.3,0-3.4-0.1c-1.7-0.2-3.4-0.3-5.2-0.4c-0.2,0-0.3,0-0.4,0.2c0,0.2-0.2,0.3-0.4,0.2
		c-3.7-1.1-7.4-2-10.6-4.3c-0.2-0.2-0.4-0.3-0.6-0.5c0,0,0,0-0.1-0.1c0.1-0.1,0.2,0,0.3,0c2.3,1.3,4.7,2.1,7.3,2.7
		c1.4,0.3,2.8,0.9,4.2,1.1c1.3,0.1,2.6,0.2,3.9,0.3c1.6,0.1,3.2,0.3,4.8,0.7C906.8,612.4,906.8,612.4,906.9,612.5z"/>
	<path class="st2" d="M934.5,593.8c1.4-1.9,2.8-3.6,4.3-5.2c0.1-0.1,0.2-0.2,0.2-0.3c0.1-0.2,0.1-0.4,0-0.5
		c-0.1-0.2-0.3,0.1-0.3,0.2c-0.3,0.3-0.6,0.5-0.8,0.9c-0.2,0.3-0.4,0.4-0.7,0.2c-0.2-0.1-0.5-0.2-0.8-0.2c0-0.3,0.2-0.5,0.3-0.7
		c0.5-0.6,1.2-1,1.5-1.8c0.1-0.3,0.2,0,0.3,0.2c0,0.1,0.1,0.2,0.2,0.1c0.1-0.1,0.1-0.2,0-0.3c-0.1-0.1-0.4-0.3-0.3-0.4
		c0.3-0.3,0.5-0.6,0.8-0.8c0.1-0.1,0.1,0,0.2,0.1c0.2,0.2,0.1,0.6-0.1,0.8c-0.1,0.2-0.2,0.5-0.1,0.7c0.3,0.9,0,1.8-0.3,2.6
		c-0.6,1.6-1.6,2.9-3,3.8C935.5,593.5,935.1,593.7,934.5,593.8z"/>
	<path class="st2" d="M915.7,576.2c-0.1,0.5-0.4,0.8-0.8,0.9c-0.4,0.1-0.8,0.3-1.1,0.4c-0.1,0-0.3,0-0.3,0.2c0,0.2,0.2,0.2,0.3,0.2
		c-0.8,0.9-1.7,1.5-3,1.3c2.3-1.9,4.1-4.3,7-5.4c-0.2-0.3-0.4-0.1-0.6-0.2c0.3-0.3,0.6-0.4,1-0.3c0.9,0.1,1.8,0.4,2.7,0.4
		c0.2,0,0.2,0.2,0.1,0.3c-0.2,0.2-0.4,0.3-0.6,0.5c-0.1-0.1,0.2-0.3,0-0.4c-0.2-0.1-0.4,0.1-0.5,0.2c-0.2,0.2-0.4,0.4-0.6,0.6
		c-0.3,0.3-0.6,0.6-1.1,0.6c0.4-0.6,1-1,1.3-1.6c-0.4-0.1-0.8,0-1.1,0.3c-0.3,0.2-0.5,0.4-0.9,0.5c-0.1,0-0.2,0-0.2,0.1
		c0.2,0.4-0.2,0.5-0.5,0.7c-0.1,0.1-0.2,0.1-0.2,0.2c-0.4,0.4-0.8,0.6-1.4,0.5c-0.2,0-0.4,0-0.6,0.1c0,0,0,0.1,0,0.1
		c0.2,0.1,0.4,0,0.6,0C915.4,576.3,915.5,576.3,915.7,576.2z"/>
	<path class="st0" d="M912.2,584.3c-0.6,0.7-1.4,0.9-2.3,1c-0.6,0.1-1.2,0-1.8-0.1c-0.3,0-0.3-0.2-0.2-0.4c0.2-0.4,0.6-0.6,0.9-0.8
		c0.1-0.1,0.4-0.2,0.3-0.4c-0.1-0.2-0.4-0.1-0.5,0c-0.4,0.2-0.8,0.4-1.2,0.6c-0.1-0.6,0.2-1.1,0.8-1.4c1.2-0.5,2.4-0.4,3.6-0.1
		c0.3,0.1,0.1,0.2,0.1,0.3C911.5,583.7,911.6,583.9,912.2,584.3z"/>
	<path class="st2" d="M897.4,586.6c-1.7,0.6-4.1,0.5-5.6-0.2c-0.1-0.1-0.2-0.2-0.3,0c-0.1,0.2-0.3,0.1-0.5,0.1
		c-2.5-0.4-5-0.8-7.4-1.4c-0.2-0.1-0.5-0.1-0.7-0.3c1.2-0.1,2.4,0.1,3.6,0.3c3.6,0.5,7.1,1.2,10.7,1.4
		C897.2,586.6,897.3,586.6,897.4,586.6z"/>
	<path class="st3" d="M902.6,587.1c7.7-0.1,15.5-0.1,23.2-1.2C918.1,587.5,910.4,587.5,902.6,587.1z"/>
	<path class="st2" d="M920,577.6c0.7-1.5,1.8-2.8,2.8-4.2c0.8-1.1,1.5-2.3,2-3.6c0-0.1,0-0.1,0.1-0.2c1.4-1.5,1.9-3.5,2.5-5.4
		c0.4-1.2,0.9-2.4,1.7-3.4c0-0.1,0.1-0.1,0.2-0.1C927.2,566.9,924.2,572.6,920,577.6z"/>
	<path class="st2" d="M912.6,613.9c-3.1,0.5-6.2,0.7-9.4,0.6c-1,0-2-0.1-3-0.3c-0.6-0.1-1.1-0.3-1.7-0.4c4.5,0,8.9,0.2,13.4,0.1
		C912.2,613.8,912.4,613.6,912.6,613.9z"/>
	<path class="st2" d="M857.5,615c3.2-0.4,6.2,0.8,9.4,1.1C865.1,616.8,859.9,615.9,857.5,615z"/>
	<path class="st2" d="M926.5,604.7c-2.6,2.9-6,4.1-9.7,4.7c2.2-0.9,4.4-1.7,6.5-3.1c0,0.4-0.4,0.4-0.4,0.7
		C924.3,606.5,925.1,605.1,926.5,604.7z"/>
	<path class="st2" d="M898.5,585.5c0.1-0.1,0.3-0.1,0.4,0c0.2,0.1,0.3,0.1,0.4,0.2c0.3,0.1,0.7,0.3,0.8,0c0.2-0.3-0.2-0.6-0.4-0.7
		c-0.2-0.1-0.5-0.3-0.7-0.4c-0.3-0.2-0.5-0.4-0.5-0.7c0-0.3,0.3-0.4,0.6-0.5c0.6-0.3,1.2-0.2,1.8,0.2c0.2,0.2,0.4,0.4,0.6,0.6
		c0.6,0.8,0.6,0.9-0.4,1.1c-0.3,0.1-0.5,0.1-0.3,0.5c0.2,0.2,0,0.3-0.2,0.3C899.9,586.3,899.1,586.1,898.5,585.5z"/>
	<path class="st2" d="M937.6,592.1c-0.7,2.5-6.4,9-8.2,9.4c1.5-1.5,3-3,4.3-4.6C935.2,595.3,936.4,593.7,937.6,592.1z"/>
	<path class="st2" d="M908,579.9c1.6-1.7,3.4-2.9,4.8-4.8c0.1,0.5,0,1,0.3,1.4c0,0.1-0.1,0.1-0.1,0.2c-0.8,0.6-1.5,1.3-2.2,2
		c-0.7,0.6-1.4,1.1-2.4,1.3C908.3,579.9,908.2,579.9,908,579.9z"/>
	<path class="st4" d="M909.2,611c3.2-0.6,6.5-0.8,9.7-1.4C915.8,611.1,912.5,611,909.2,611z"/>
	<path class="st2" d="M916.9,593c0.1-0.6,0.3-1,0.6-1.4c0.6-0.9,1.5-1.6,2.3-2.3c0.3-0.3,0.6-0.5,0.9-0.8c0.1-0.1,0.1-0.2,0.3-0.1
		c0.1,0.1,0.1,0.2,0.1,0.3c0,0.1-0.1,0.2-0.1,0.3c-1.1,1.4-2.1,2.8-3.6,3.7C917.2,592.9,917.1,592.9,916.9,593z"/>
	<path class="st2" d="M925.3,595.3c0.7-0.7,1.2-1.6,1.8-2.3c0.6-0.7,1.3-1.3,2.2-1.5c0.2,0,0.3-0.1,0.5,0c-0.3,1.1-0.8,1.6-1.9,1.7
		c-0.1,0-0.2,0-0.2,0.1c0,0.1,0,0.2,0.1,0.2c0.1,0,0.1,0.1,0,0.2C927.1,594.2,926.2,594.8,925.3,595.3z"/>
	<path class="st2" d="M936.9,583c0.4-0.3,0.7-0.5,1.1-0.7c1.1-0.8,1.2-1.8,0.4-2.9c-0.3-0.4-0.7-0.8-1-1.2c1.4,0.2,2.5,1.5,2.4,2.8
		C939.6,582,938.2,583.1,936.9,583z"/>
	<path class="st2" d="M875,608.2c0.2-0.3,0.5-0.5,0.7-0.8c0.1-0.1,0.3-0.1,0.5-0.1c1.3,0,2.5-0.2,3.6-0.9c0.4-0.3,0.9-0.2,1.4-0.1
		c0.1,0,0.3,0.1,0.3,0.2c0,0.2-0.1,0.2-0.2,0.3c-0.6,0.3-1.3,0.5-2,0.6C877.8,607.7,876.4,607.9,875,608.2z"/>
	<path class="st2" d="M872.4,583.2c0-0.6,0.1-0.6,0.5-0.4c0.6,0.3,1.2,0.6,1.9,0.8c0.3,0.1,0.3,0.3,0.1,0.4
		c-0.1,0.1-0.2,0.1-0.3,0.1c-0.7,0.1-1,0.6-1.1,1.2c0,0.1-0.1,0.2-0.1,0.3c-0.1,0.1-0.2,0.3-0.3,0.2c-0.1,0-0.1-0.2-0.1-0.3
		c-0.2-0.7-0.3-1.3-0.5-2C872.4,583.5,872.4,583.3,872.4,583.2z"/>
	<path class="st2" d="M873.4,587.1c0-0.5,0.2-0.9,0.6-1.2c0.6-0.5,1.3-0.9,1.7-1.6c0.1-0.2,0.3,0.1,0.4,0.1c0.6,0.1,0.4,0.4,0.2,0.8
		c-0.6,0.9-1.5,1.5-2.3,2.2c-0.1,0.1-0.2,0.3-0.4,0.2C873.4,587.4,873.4,587.2,873.4,587.1z"/>
	<path class="st4" d="M874,589c-0.2-0.5,0-1,0.3-1.4c0.4-0.5,0.9-0.8,1.3-1.2c0.5-0.4,1-0.8,1.3-1.3c0.1-0.2,0.3-0.2,0.5-0.1
		c0.2,0.1,0.4,0.1,0.6,0.3c0.1,0.1-0.1,0.1-0.1,0.2c-1.4,1-2.6,2.2-3.8,3.5C874.1,589,874.1,589,874,589z"/>
	<path class="st2" d="M916.8,573.2c-1.1,0.9-2.1,2-3.4,2.6c-0.1-0.7,0.3-1.5,1-1.9c0.1-0.1,0.4-0.1,0.4-0.3c0-0.3-0.3-0.2-0.4-0.2
		c-0.1,0-0.2-0.1-0.2-0.2c0-0.2,0.1-0.2,0.2-0.2C915.2,573.1,915.9,573.1,916.8,573.2z"/>
	<path class="st4" d="M926.3,598.8c0.9-1.3,2-2.4,3.5-2.8c0.1,0,0.3-0.1,0.4,0c0.1,0.1,0,0.3-0.1,0.4c-0.2,0.5-0.6,0.8-1,1.1
		C928.3,598,927.3,598.3,926.3,598.8z"/>
	<path class="st2" d="M924.3,587.4c-1,1.2-2.4,1.8-3.5,2.8c0.2-0.5,0.6-0.9,0.9-1.3c0.2-0.3,0.3-0.5,0.3-0.8
		c-0.1-0.6,0.1-0.8,0.7-0.7C923.2,587.3,923.7,587.4,924.3,587.4z"/>
	<path class="st3" d="M879.1,601.5c1.3,1.5,2.6,2.9,4.2,4.1c0.2,0.1,0.4,0.3,0.6,0.4c0.5,0.2,0.8,0.6,0.8,1.2
		c-0.7-0.3-1.2-0.7-1.6-1.3c-0.1-0.2-0.2-0.3-0.4-0.4c-1.1-0.5-1.9-1.3-2.5-2.2c-0.4-0.5-0.8-1.1-1.2-1.7
		C879,601.5,879,601.5,879.1,601.5z"/>
	<path class="st3" d="M907.1,611.1c-0.3,0.2-0.6,0.1-0.6,0.5c0,0.1-0.1,0.1-0.2,0.1c-1.5,0-2.9,0-4.4-0.4c-0.1,0-0.1,0-0.3-0.1
		C903.5,611,905.3,611,907.1,611.1z"/>
	<path class="st4" d="M880.7,605.7c-1.5,0.7-2.9,0.9-4.4,1.2C876.7,605.9,879,605.3,880.7,605.7z"/>
	<path class="st5" d="M913,572c2.1,0.1,4.1,0.4,6.2,0.7c0.5,0.1,0.9,0.1,1.4,0.2c0,0.1,0,0.1,0,0.2c-0.7,0-1.5-0.1-2.2-0.1
		c-0.7-0.1-1.5-0.2-2.2-0.3c-0.7-0.1-1.5-0.2-2.2-0.3c-0.7-0.1-1.5-0.1-2.2-0.2c0.1-0.3,0.3-0.1,0.4-0.1
		C912.4,572,912.7,571.9,913,572z"/>
	<path class="st4" d="M931.3,590.7c0-0.5,0.3-0.9,0.6-1.1c0.5-0.5,1.1-0.8,1.8-1c0.1,0,0.3-0.1,0.4,0c0.1,0.1,0,0.3-0.1,0.4
		c-0.1,0.1-0.1,0.2-0.2,0.3C933.2,590,932.3,590.3,931.3,590.7z"/>
	<path class="st6" d="M917.1,585.3c2.2-0.8,4.6-0.7,6.8-1C921.7,585.1,919.4,585.1,917.1,585.3z"/>
	<path class="st3" d="M923.7,588.9c0.9-1.3,2.2-1.5,3.6-1.4c-0.1,0.4-0.4,0.5-0.7,0.7c-0.2,0.1-0.4,0.1-0.5,0.2
		c-0.4,0.2-0.6,0.2-0.6-0.4C924.9,588.3,924.4,588.7,923.7,588.9z"/>
	<path class="st3" d="M937.2,568c0.6-0.6,1.3-0.8,2.1-1c0.4-0.1,0.8-0.2,1.2-0.2c0.1,0,0.3-0.2,0.4,0.1c0.1,0.2,0,0.4-0.2,0.5
		c-0.4,0.2-0.8,0.3-1.2,0.4C938.7,567.9,938,568,937.2,568z"/>
	<path class="st6" d="M928.8,596c0.3-0.6,0.7-0.9,1.2-1.2c0.5-0.2,1-0.5,1.4-0.7c0.1,0,0.2-0.1,0.3,0c0.1,0.1,0,0.2,0,0.3
		c-0.1,0.4-0.4,0.6-0.8,0.8C930.3,595.6,929.6,595.8,928.8,596z"/>
	<path class="st7" d="M908.3,581.4c0.3-0.5,0.6-0.7,1.4-0.8c-0.4-0.4-0.1-0.5,0.2-0.6c0.5-0.1,1-0.3,1.4-0.4c0.1,0,0.2-0.1,0.3,0
		c0.1,0.2-0.1,0.2-0.2,0.3c-0.3,0.2-0.7,0.2-1.1,0.3c-0.1,0-0.4-0.1-0.4,0.2c0,0.2,0.2,0.1,0.4,0.2c0,0,0.1,0,0.2,0
		C909.9,581.2,909.2,581.4,908.3,581.4z"/>
	<path class="st5" d="M933.3,595.6c0.5-0.5,1.1-0.8,1.8-1.2c-1,1.5-2,3.1-4,3.5c0.2-0.4,0.4-0.5,1.1-0.9c0.5-0.2,1-0.4,1.4-0.9
		c0.1-0.2,0.3-0.3,0-0.5C933.5,595.7,933.3,595.9,933.3,595.6z"/>
	<path class="st3" d="M921.4,591.7c0.5-0.9,1-1.8,2-2.2c0.2-0.1,0.5-0.3,0.7-0.1c0.2,0.2-0.1,0.4-0.3,0.6
		C923.1,590.8,922.2,591.2,921.4,591.7z"/>
	<path class="st6" d="M915.6,579.2c1.2-1.3,2.4-2.4,3.9-3.3C918.4,577.2,917.2,578.4,915.6,579.2z"/>
	<path class="st3" d="M928.9,590c-0.5,1.1-1.7,2.1-2.5,2.2c0.4-0.4,0.8-0.8,1-1.3c0.1-0.2,0.2-0.4,0.2-0.6c0-0.6,0.3-0.6,0.7-0.5
		C928.5,590,928.7,590,928.9,590z"/>
	<path class="st6" d="M928.5,600.7c0.7-1.1,1.7-1.5,2.7-2.1C931.1,599.4,929.6,600.6,928.5,600.7z"/>
	<path class="st7" d="M930,578.5c-0.9,1.1-2.2,0.8-3.3,1.1C927.1,579,928.6,578.5,930,578.5z"/>
	<path class="st8" d="M899.2,610.7c-1.4,0-2.6-0.2-3.9-0.6C896,609.8,898.3,610.1,899.2,610.7z"/>
	<path class="st5" d="M891.2,584.3c1.3-0.6,2.8-1,4.2-1.1C895,583.6,891.8,584.5,891.2,584.3z"/>
	<path class="st7" d="M930.1,576.6c0.9-0.6,1.9-1,2.9-1.4c0.1,0,0.3-0.1,0.3,0.1c0,0.1-0.1,0.3-0.2,0.2c-0.4-0.1-0.4,0.1-0.4,0.3
		c0,0.1-0.1,0.2-0.2,0.2c-0.8,0.2-1.5,0.5-2.3,0.6C930.2,576.7,930.2,576.8,930.1,576.6z"/>
	<path class="st6" d="M934.7,590.1c-0.1,0.5-0.5,0.8-0.8,1.2c-0.2,0.2-0.7,0.1-1.1,0.3c-0.1,0-0.2-0.1-0.1-0.2
		c0.2-0.3,0.4-0.6,0.7-0.9c0.1-0.1,0.4-0.1,0.6-0.2C934.1,590.3,934.3,590.1,934.7,590.1z"/>
	<path class="st7" d="M924.4,605c0.6-0.9,1.5-1.5,2.5-2C926.4,604,925.5,604.7,924.4,605z"/>
	<path class="st6" d="M932,595c0.3-0.9,1.2-1.6,2.2-1.7C933.7,594.2,933,594.7,932,595z"/>
	<path class="st7" d="M931.7,600.5c0.8-0.9,1.7-1.8,2.5-2.7c0,0,0.1,0.1,0.1,0.1c-0.6,1.1-1.3,2.2-2.5,2.7
		C931.7,600.6,931.7,600.5,931.7,600.5z"/>
	<path class="st9" d="M933.5,592.8c0.4-1,1.3-1.4,2.2-1.6C935.3,592.1,934.3,592.4,933.5,592.8z"/>
	<path class="st5" d="M924.1,603.7c0.5-0.9,1.2-1.3,2.2-1.4C925.8,603.3,924.9,603.3,924.1,603.7z"/>
	<path class="st9" d="M932.5,588.3c0.8-0.7,1.8-0.8,2.8-1.2c0,0.4-0.3,0.6-0.6,0.7c-0.7,0.2-1.4,0.4-2.1,0.6
		C932.5,588.4,932.5,588.3,932.5,588.3z"/>
	<path class="st10" d="M886.1,606.4c1.8,1,3.5,1.9,5.4,2.6c-2-0.5-3.8-1.4-5.5-2.5C886,606.4,886,606.3,886.1,606.4z"/>
	<path class="st6" d="M914.1,578.6c0.5-0.7,1.2-1.1,2-1.4c0.2-0.1,0.2,0,0.2,0.2c0,0.1-0.1,0.2-0.2,0.3
		C915.6,578.2,914.9,578.5,914.1,578.6z"/>
	<path class="st7" d="M929.1,591.1c0.6-0.7,1.4-1,2-1.6C931.2,590.3,930.1,591.2,929.1,591.1z"/>
	<path class="st11" d="M903.2,586.2c0.4-0.2,0.8-0.2,1.2-0.2c0.7,0,1.4,0,2.1-0.2c0.2,0,0.3-0.1,0.3,0.2c0.1,0.3-0.1,0.2-0.2,0.3
		c-0.5,0.1-1,0.1-1.4,0.1C904.4,586.3,903.8,586.2,903.2,586.2z"/>
	<path class="st11" d="M927.4,604.9c1.3-1.2,2.5-2.2,3.8-3.3C930.9,602.3,928.3,604.6,927.4,604.9z"/>
	<path class="st9" d="M879.2,612.7c0.7-0.8,1.6-1.2,2.2-2C881.5,611.5,880.6,612.3,879.2,612.7z"/>
	<path class="st5" d="M929,602.3c0,0.4-0.2,0.5-0.4,0.7c-0.3,0.3-0.6,0.8-0.9,0.7c-0.5-0.1-0.6,0.4-0.9,0.4
		C927.1,603.4,928.2,602.5,929,602.3z"/>
	<path class="st5" d="M925.8,602c0.5-0.9,1.3-1.3,2.2-1.6C927.6,601.3,926.6,601.6,925.8,602z"/>
	<path class="st12" d="M926.8,606.2c-1,0.9-2.1,1.5-3.4,1.9C924.5,607.3,925.7,606.8,926.8,606.2z"/>
	<path class="st10" d="M874.1,591.6c0.8,1.2,1,2.6,1.8,3.8C874.9,594.4,874.6,593,874.1,591.6z"/>
	<path class="st9" d="M929.7,578c0.6-0.6,1.3-1,2.3-1.1C931.4,577.8,930.5,577.8,929.7,578z"/>
	<path class="st11" d="M937.1,589.3c-0.6,0.7-1.3,1-2,1.4C935.2,590,936.1,589.4,937.1,589.3z"/>
	<path class="st13" d="M865.8,607.9c-0.6,1-1.5,1.8-2.5,2.5C863.9,609.4,864.9,608.7,865.8,607.9z"/>
	<path class="st5" d="M915.5,585.3c-0.1,0.2-0.3,0.3-0.4,0.3c-0.5,0.1-1.1-0.1-1.6,0.1c-0.1,0-0.1,0-0.1-0.1c0-0.1,0-0.1,0-0.2
		c0.1-0.1,0.3-0.2,0.4-0.2c0.5,0,1-0.1,1.5-0.1C915.4,585.2,915.5,585.2,915.5,585.3z"/>
	<path class="st5" d="M927.6,589.2c-0.6,0.6-1.2,1.1-1.9,1.5c0-0.3,0.1-0.4,0.3-0.6c0.1-0.2,0.4-0.3,0.4-0.5
		C926.7,589.1,927.2,589.3,927.6,589.2z"/>
	<path class="st11" d="M910.9,580.9c0.5-0.7,1.4-0.7,2.2-0.8C912.6,580.8,911.7,580.7,910.9,580.9z"/>
	<path class="st12" d="M874.1,601c-0.8,0.7-1.7,1.3-2.6,1.9C872.2,602.1,872.9,601.3,874.1,601z"/>
	<path class="st11" d="M914.7,578.8c-0.6,0.7-1.4,0.8-2.4,1C913,578.9,913.9,579.1,914.7,578.8z"/>
	<path class="st13" d="M896.4,585.8c-0.6-0.2-1.1-0.2-1.7-0.3c0.5-0.4,1-0.5,1.4-0.5C896.4,585.1,896.4,585.5,896.4,585.8z"/>
	<path class="st14" d="M871.5,582.2c0.4,1.1,0.6,2.3,0.7,3.5C871.8,584.6,871.7,583.4,871.5,582.2z"/>
	<path class="st15" d="M899,612.7c1-0.2,1.9,0.1,2.8,0.3C900.9,613.1,900,612.9,899,612.7z"/>
	<path class="st7" d="M939.4,566.4c0.2-0.5,0.6-0.8,1-0.8c0.2,0,0.4-0.1,0.4,0.2c0,0.2-0.1,0.4-0.3,0.5
		C940.2,566.4,939.8,566.2,939.4,566.4z"/>
	<path class="st13" d="M925.2,582c0.6-0.4,1.3-0.8,2.2-0.9C926.7,581.9,925.9,581.8,925.2,582z"/>
	<path class="st8" d="M937.3,586.5c-0.2,0.3-0.3,0.7-0.8,0.7c-0.3,0-0.5,0.4-0.8,0.4C935.9,586.9,936.4,586.6,937.3,586.5z"/>
	<path class="st5" d="M934.4,574.1c-0.3,0.5-0.7,0.7-1.1,0.7c-0.1,0-0.3,0.1-0.4-0.1c-0.1-0.2,0.1-0.4,0.2-0.4
		C933.5,574.1,933.9,574.2,934.4,574.1z"/>
	<path class="st13" d="M931.1,593.3c0.4-0.7,1.1-1.2,2.2-1.4C932.6,592.5,931.9,592.9,931.1,593.3z"/>
	<path class="st11" d="M940,562c0.6,0.3,0.7,0.9,1.1,1.3c0.1,0.1-0.1,0.1-0.1,0.1c-0.2,0-0.5,0.1-0.6-0.2
		C940.3,562.8,940.1,562.4,940,562z"/>
	<path class="st15" d="M911.1,614.8c0.9-0.5,1.8-0.4,2.7-0.5C913.3,614.7,912.1,614.9,911.1,614.8z"/>
	<path class="st13" d="M907,583c-0.1,0.7-0.7,1.1-0.6,1.8C905.8,584.5,906,583.9,907,583z"/>
	<path class="st8" d="M930.4,597.7c-0.3,0.6-0.8,0.9-1.6,1C929.2,598,929.9,597.9,930.4,597.7z"/>
	<path class="st14" d="M869.8,603.1c0.8-0.7,1.5-1.4,2.4-1.9C871.4,601.9,870.8,602.7,869.8,603.1z"/>
	<path class="st8" d="M932.4,595.4c-0.4,0.6-1.1,0.7-1.7,1.1C931.1,595.7,931.7,595.5,932.4,595.4z"/>
	<path class="st14" d="M928.7,601.5c-0.5,0.5-1.1,0.7-1.8,1C927.3,601.7,928.1,601.7,928.7,601.5z"/>
	<path class="st13" d="M917.8,576c0,0.3-0.6,0.8-0.9,0.7c-0.3-0.1-0.2-0.2,0-0.4c0.2-0.2,0.5-0.4,0.8-0.5
		C917.8,575.7,917.8,575.9,917.8,576z"/>
	<path class="st14" d="M907.4,611.7c0.8-0.5,1.4-0.1,2.1,0C908.8,611.7,908.2,611.9,907.4,611.7z"/>
	<path class="st9" d="M897.6,583.6c0.4,0.6,0.3,0.9-0.1,1.1c-0.2,0.1-0.3,0-0.3-0.2C897.2,584.2,897.2,583.9,897.6,583.6z"/>
	<path class="st13" d="M929.8,588.7c-0.1,0.5-0.6,0.8-1,0.8c-0.2,0-0.2-0.1-0.1-0.3C928.8,589,929.2,588.8,929.8,588.7z"/>
	<path class="st16" d="M897.9,587.9c0.9-0.3,1.8-0.2,2.6,0C899.6,587.9,898.7,587.9,897.9,587.9z"/>
	<path class="st17" d="M930.4,589.1c0.3-0.6,0.7-0.8,1.3-0.8C931.4,588.8,931,589,930.4,589.1z"/>
	<path class="st10" d="M939.2,583.5c-0.2,0.5-0.5,0.8-1,0.8c-0.1,0-0.2,0-0.2-0.1c0-0.1,0.1-0.1,0.1-0.2
		C938.4,583.8,938.7,583.6,939.2,583.5z"/>
	<path class="st15" d="M934.5,589.6c0.3-0.5,0.8-0.7,1.2-1C935.7,589.1,935.3,589.4,934.5,589.6z"/>
	<path class="st16" d="M871.2,603.9c-0.6,0.4-1.3,0.7-2,1.1C869.7,604.3,870.5,604.1,871.2,603.9z"/>
	<path class="st18" d="M912.8,611.8c-0.5,0.2-1,0.3-1.6,0.2C911.8,611.7,912.3,611.7,912.8,611.8z"/>
	<path class="st11" d="M903.5,584.5c-0.3,0.2-0.6,0.2-0.9,0.1c-0.2,0-0.3-0.2-0.3-0.4c0-0.2,0.2-0.1,0.3-0.1
		C903,584.2,903.2,584.4,903.5,584.5z"/>
	<path class="st19" d="M931.5,591c-0.3,0.4-0.7,0.5-1.1,0.8C930.5,591.3,930.8,591,931.5,591z"/>
	<path class="st20" d="M924.7,568.8c0-0.7,0.5-1.2,0.9-1.7C925.4,567.8,925,568.2,924.7,568.8z"/>
	<path class="st21" d="M931.1,586.6c-0.6,0.5-1.1,0.2-1.6,0.3C930,586.6,930.5,586.6,931.1,586.6z"/>
	<path class="st22" d="M891,583.8c-0.3,0.3-0.6,0.3-1,0.4c-0.1,0-0.2,0-0.2-0.1c-0.1-0.1,0-0.2,0.1-0.2
		C890.2,583.8,890.6,583.8,891,583.8z"/>
	<path class="st23" d="M934.2,585.8c-0.6,0.4-1.2,0.5-1.9,0.6C932.9,586.1,933.4,585.9,934.2,585.8z"/>
	<path class="st24" d="M927.2,580.3c0.2-0.1,0.4-0.1,0.5-0.2c0.3-0.3,0.6-0.3,1-0.1c-0.6,0.1-0.9,0.5-1.4,0.5
		C927.2,580.5,927.2,580.4,927.2,580.3z"/>
	<path class="st25" d="M915.6,579.6c-0.3,0.4-0.9,0.3-1.3,0.5C914.6,579.6,915.1,579.6,915.6,579.6z"/>
	<path class="st15" d="M933.1,584.3c-0.5,0.2-1,0.2-1.5,0.3C932,584.2,932.6,584.4,933.1,584.3z"/>
	<path class="st15" d="M940.1,565.1c0-0.4,0.2-0.6,0.5-0.6c0.1,0,0.6,0.3,0,0.5C940.5,565.1,940.3,565.1,940.1,565.1z"/>
	<path class="st26" d="M885.9,584.2c0.5-0.3,1,0,1.6,0.2C886.8,584.6,886.4,584.2,885.9,584.2z"/>
	<path class="st15" d="M927,587c0.5-0.1,0.9-0.1,1.4-0.2C928.2,587.2,927.8,587.3,927,587z"/>
	<path class="st13" d="M928.3,607.4c-0.4,0.5-0.6,0.6-1,0.7C927.5,607.6,927.8,607.5,928.3,607.4z"/>
	<path class="st27" d="M913,572c-0.4,0.1-0.9-0.1-1.3,0.1c-0.1,0-0.3,0-0.4,0c-0.2-0.1-0.5,0-0.8,0c-0.1,0-0.3,0.1-0.2-0.1
		C911.2,571.9,912.1,571.8,913,572z"/>
	<path class="st28" d="M876.6,601.5c-0.2-0.1-0.3-0.1-0.4-0.1c-0.2-0.1-0.3-0.2-0.4-0.4c0,0,0-0.1,0.1-0.1c0.2,0,0.4,0,0.5,0.2
		C876.6,601.2,876.7,601.3,876.6,601.5z"/>
	<path class="st26" d="M879.1,601.5c0,0-0.1,0.1-0.1,0.1c-0.4-0.4-0.7-0.9-1.1-1.3C878.4,600.6,878.8,601,879.1,601.5z"/>
	<path class="st29" d="M938.4,584.9c-0.2,0.5-0.2,0.9-0.6,1C937.9,585.5,938,585.2,938.4,584.9z"/>
	<path class="st30" d="M910.3,571.9c0.3,0.2,0.7,0,1,0.2c-0.6,0-1.1,0-1.8,0C909.8,571.9,910.1,571.9,910.3,571.9z"/>
	<path class="st31" d="M871.5,578.3c0,0.5,0,1-0.3,1.4C871.3,579.2,871.3,578.7,871.5,578.3z"/>
	<path class="st32" d="M902.6,587.9c-0.5,0.1-0.8,0-1.2,0.1C901.7,587.8,902,587.8,902.6,587.9z"/>
	<path class="st31" d="M927.8,599.9c0.3-0.4,0.7-0.5,1.2-0.6C928.7,599.6,928.2,599.6,927.8,599.9z"/>
	<path class="st19" d="M913.5,580.7c0.3-0.4,0.7-0.2,1-0.2C914.3,580.8,914,580.9,913.5,580.7z"/>
	<path class="st33" d="M886.1,606.4c0,0-0.1,0.1-0.1,0.1c-0.4-0.2-0.8-0.5-1.2-0.9C885.2,605.9,885.7,606.1,886.1,606.4z"/>
	<path class="st18" d="M929.7,604.1c-0.2,0.4-0.7,0.6-1,0.9C928.9,604.6,929.3,604.4,929.7,604.1z"/>
	<path class="st20" d="M931.8,591.5c-0.2,0.5-0.5,0.6-1,0.8C931.2,591.9,931.4,591.7,931.8,591.5z"/>
	<path class="st34" d="M892.9,584.8c0.3-0.3,0.7-0.3,1.1-0.4C893.7,584.7,893.3,584.8,892.9,584.8z"/>
	<path class="st35" d="M927.9,578.3c-0.1-0.1-0.2-0.1-0.3-0.2c0.5,0.2,0.7-0.5,1.3-0.5C928.6,577.9,928.2,578.1,927.9,578.3z"/>
	<path class="st36" d="M930.7,584.9c-0.3,0.3-0.8,0.3-1.2,0.4C929.8,584.9,930.3,585,930.7,584.9z"/>
	<path class="st37" d="M878.7,583.7c0.6,0.1,1,0.2,1.5,0.3C879.7,584.2,879.3,584.1,878.7,583.7z"/>
	<path class="st3" d="M915.8,586.1c-0.3,0.3-0.6,0.1-0.9,0.2c-0.1,0-0.1,0-0.1-0.1c0-0.1,0.1-0.1,0.1-0.1
		C915.2,586,915.4,585.9,915.8,586.1z"/>
	<path class="st16" d="M864.2,613c0-0.2,0-0.3,0.1-0.3c0.2-0.1,0.4-0.2,0.6-0.1c0.2,0.2-0.1,0.2-0.2,0.3c-0.1,0-0.1,0-0.2,0
		C864.4,613,864.3,613,864.2,613z"/>
	<path class="st31" d="M916.6,579.8c0.2-0.5,0.8-0.6,1-1.1C917.6,579,917.5,579.1,916.6,579.8z"/>
	<path class="st38" d="M922.1,608.6c-0.1,0.1-0.1,0.1-0.1,0.1c-0.2,0.1-0.4,0.2-0.6,0.1c0,0,0-0.1,0-0.1
		C921.6,608.5,921.8,608.5,922.1,608.6z"/>
	<path class="st19" d="M884.2,587.4c-0.2,0-0.3-0.2-0.3-0.3c0-0.1,0.1-0.1,0.2-0.1c0.2,0,0.3,0.1,0.3,0.3
		C884.4,587.3,884.4,587.4,884.2,587.4z"/>
	<path class="st39" d="M941.1,585.6c0.2,0.5,0,0.9-0.1,1.2C941,586.5,941,586.1,941.1,585.6z"/>
	<path class="st36" d="M912.6,613.9c-0.2,0-0.4-0.1-0.6-0.1c0.4-0.1,0.8-0.1,1.3,0C913,613.8,912.8,613.8,912.6,613.9z"/>
	<path class="st31" d="M915.3,612.9c-0.3,0.3-0.5,0.3-0.8,0.2C914.8,612.9,915,612.8,915.3,612.9z"/>
	<path class="st40" d="M928.3,595.7c-0.2,0.4-0.4,0.5-0.7,0.5C927.8,596,927.8,596,928.3,595.7z"/>
	<path class="st41" d="M933.3,595.6c0.1,0.1,0.2,0.1,0.3,0.2c-0.4,0-0.6,0.4-0.9,0.5C932.8,596,933,595.8,933.3,595.6z"/>
	<path class="st25" d="M932,593.5c0.2-0.3,0.4-0.4,0.6-0.5C932.6,593.3,932.5,593.5,932,593.5z"/>
	<path class="st42" d="M911.9,581.6c0.2-0.1,0.4-0.2,0.6,0c0,0.1,0,0.1,0,0.2C912.3,581.8,912.1,581.7,911.9,581.6z"/>
	<path class="st43" d="M927.2,580.3c0,0,0.1,0.1,0.1,0.1c-0.3,0.1-0.5,0.2-0.9,0.3C926.6,580.3,927,580.4,927.2,580.3z"/>
	<path class="st44" d="M881.5,584.5c-0.3,0.2-0.5,0-0.8-0.2C881,584.2,881.3,584.4,881.5,584.5z"/>
	<path class="st0" d="M898.4,624.5c1-0.8,2.1-1.3,3.4-1.5c4.3-1,9.2,1.2,11.2,4.9c0.3,0.5,0.3,0.5-0.3,0.7c-1.7,0.6-3.5,0.9-5.3,0.3
		c-1.2-0.3-2.2-1-3.2-1.8c-0.8-0.6-1.6-1.2-2.5-1.7C900.7,624.8,899.6,624.5,898.4,624.5z"/>
	<path class="st2" d="M895.8,623.1c-0.2,0-0.4,0-0.6-0.1c-0.2-0.1-0.6,0-0.6-0.4c-0.1-0.3,0-0.6,0.2-0.9c0,0,0-0.1,0.1-0.1
		c0.5,0.3,0.6-0.1,0.6-0.4c0-0.6,0.3-0.5,0.7-0.5c0.1,0,0.3,0.1,0.4,0.1c0.6,0.2,0.6,0.3,0.3,0.9c-0.2,0.3-0.4,0.7-0.5,1.1
		C896.3,623.3,896,623,895.8,623.1z"/>
	<path class="st6" d="M904.6,629.9c0.4-0.7,1.1-1,1.7-0.8c0.2,0.1,0.5,0.1,0.5,0.4c0,0.2-0.3,0.1-0.4,0.4c1.1,0.2,2.3-0.2,3.5,0
		c-0.7,0.4-1.4,0.4-2,0.5c-0.8,0.1-1.5,0-2.3-0.1c-0.1,0-0.2,0-0.2-0.1c0-0.1,0.1-0.2,0.2-0.2c0,0,0,0,0,0c0.2-0.1,0.4-0.1,0.4-0.3
		c0-0.1-0.1-0.2-0.1-0.2c-0.2-0.1-0.4,0.1-0.6,0.2C905.2,629.7,905,629.9,904.6,629.9z"/>
	<path class="st4" d="M901.9,621.4c0.9-1.3,1.5-2.9,3.5-3.1C904.2,619.4,903.4,620.8,901.9,621.4z"/>
	<path class="st3" d="M907.3,618.3c-0.8,1-1.4,2.2-2.7,2.7C905.3,619.9,905.8,618.7,907.3,618.3z"/>
	<path class="st7" d="M899.6,622.2c1.1-1.5,2.6-2.4,3.8-3.8C903.3,619,900.5,621.8,899.6,622.2z"/>
	<path class="st5" d="M906.5,621.7c0.1-0.7,0.4-1,0.8-1.3c0.5-0.5,1.2-0.9,1.5-1.6c0.1-0.3,0.4-0.2,0.7-0.2
		C908.6,619.8,907.6,620.7,906.5,621.7z"/>
	<path class="st5" d="M905.8,621.2c0.5-1.1,1.4-1.9,2.4-2.6C907.7,619.7,906.8,620.5,905.8,621.2z"/>
	<path class="st9" d="M902,618.8c-0.8,1.2-1.9,2-2.9,2.9C899.3,621.1,901.1,619.3,902,618.8z"/>
	<path class="st7" d="M903.6,627.9c0.2,0,0.3,0,0.4,0.1c0.1,0.1,0,0.2-0.1,0.3c-0.3,0.3-0.6,0.7-1,0.8c-0.1,0-0.3,0.1-0.4,0
		c-0.1-0.1,0-0.2,0.1-0.3C902.9,628.4,903.1,627.9,903.6,627.9z"/>
	<path class="st9" d="M901,627.9c0.1-0.5,0.3-0.8,0.7-1.1c0.2-0.1,0.4-0.2,0.6,0c0.2,0.2,0,0.3-0.1,0.5
		C901.9,627.6,901.6,627.9,901,627.9z"/>
	<path class="st11" d="M905.1,628.7c-0.4,0.5-0.9,0.8-1.6,1c0.2-0.6,0.9-0.8,1.1-1.4C904.8,628.4,904.9,628.5,905.1,628.7z"/>
	<path class="st5" d="M905.4,619c-0.4,0.8-1,1.5-1.8,1.9C904,620.2,904.7,619.7,905.4,619z"/>
	<path class="st17" d="M900.3,627.2c0,0-0.1,0-0.2-0.1c-0.1-0.1,0-0.2,0.1-0.2c0.3-0.3,0.6-0.4,0.8-0.8c0.1-0.1,0.2,0,0.3,0
		c0.1,0,0.1,0.1,0.1,0.2C901.3,626.5,900.6,627.2,900.3,627.2z"/>
	<path class="st45" d="M899.1,623.2c-0.4,0.3-0.8,0.5-1.3,0.8c-0.3,0.1-0.5,0.3-0.8,0.4C897.3,623.8,898.1,623.3,899.1,623.2z"/>
	<path class="st16" d="M902.1,622.3c0.4-0.4,1-0.5,2-0.4C903.8,622.2,903.1,622.3,902.1,622.3z"/>
	<path class="st9" d="M900.3,625.6c-0.1,0.3-0.3,0.6-0.5,0.7c-0.1,0.1-0.3,0.1-0.4,0c-0.1-0.1,0-0.3,0.1-0.4
		C899.7,625.7,899.9,625.5,900.3,625.6z"/>
	<path class="st17" d="M901.8,628.5c0.6-0.8,0.8-0.9,1.2-1.1C902.8,627.9,902.4,628.3,901.8,628.5z"/>
	<path class="st28" d="M907.3,621.7c0.3-0.5,0.7-1,1.2-1.3C908.3,620.9,907.9,621.4,907.3,621.7z"/>
	<path class="st19" d="M909.1,622c-0.1,0.4-0.2,0.6-0.5,0.7c-0.1,0.1-0.3,0-0.3-0.1c-0.1-0.1,0.1-0.2,0.2-0.3
		C908.6,622.2,908.8,622.1,909.1,622z"/>
	<path class="st11" d="M899.1,625.3c-0.1,0.3-0.2,0.4-0.4,0.4c-0.2,0-0.5,0-0.5-0.2c0-0.2,0.3-0.1,0.4-0.1
		C898.8,625.3,899,625.3,899.1,625.3z"/>
	<path class="st22" d="M900.5,622.7c0.3-0.3,0.6-0.3,1-0.3C901.1,622.6,900.9,622.7,900.5,622.7z"/>
	<path class="st0" d="M891,621.1c-0.1,0-0.1,0-0.1,0c-0.3,0-0.6-0.5-0.7-0.3c-0.4,0.4-0.8,0.7-1.1,1.2c-0.2,0.3-0.1,0.6,0.1,0.8
		c0.2,0.2,0.4,0.4,0.6,0.6c0.3,0.3,0.3,0.5-0.1,0.7c-0.4,0.2-0.7,0.2-1.1,0c-1-0.4-1.7-1-2-2c-0.3-0.7-0.1-1.3,0.4-1.8
		c0.4-0.4,1-0.7,1.5-1c0.3-0.1,0.5,0,0.8,0.1C890.1,619.7,890.6,620.4,891,621.1z"/>
	<path class="st2" d="M880.7,620.6c-0.3-0.2-0.7-0.4-1.1-0.6c-0.5-0.2-0.4-0.4-0.2-0.7c0.6-0.8,1.5-1,2.5-1.1c0,0,0.1,0,0.1,0
		c0.2,0.7,0.5,0.2,0.8,0.2c0.4-0.1,0.9,0,1.3,0.1c0.3,0.1,0.2,0.2,0.1,0.3c-0.4,0.5-1,0.6-1.6,0.7c-0.5,0.1-1,0.1-1.5,0.2
		c-0.6,0.1-0.7,0.4-0.4,0.9C880.8,620.6,880.7,620.7,880.7,620.6z"/>
	<path class="st3" d="M880.7,620.6c0,0,0.1,0,0.1,0c0.8-0.4,1.7-0.5,2.7-0.7c-0.2,0.3-0.5,0.3-0.7,0.5c-0.2,0.2-0.4,0.4-0.3,0.6
		c0.1,0.3,0.4,0.2,0.7,0.1c0.2,0,0.3-0.1,0.6-0.1c-0.3,0.4-0.6,0.6-1.1,0.5C882,621.3,881.3,621,880.7,620.6z"/>
	<path class="st3" d="M885.7,623.3c0,0.3,0,0.5,0,0.8c0,0.2-0.1,0.2-0.2,0.2c-0.4,0.2-0.7,0.2-1-0.1c-0.3-0.2-0.4-0.5-0.3-0.9
		c0.1-0.4,0.4-0.6,0.8-0.7c0.1,0,0.2,0,0.3,0c-0.1,0.2-0.1,0.5-0.2,0.7c0,0.2,0,0.4,0.2,0.4c0.2,0.1,0.3-0.1,0.3-0.3
		C885.5,623.3,885.6,623.3,885.7,623.3z"/>
	<path class="st8" d="M884.1,620c0.2-0.4,0.5-0.7,0.9-0.9c0.2-0.1,0.4-0.1,0.5,0.1c0.1,0.2-0.2,0.2-0.3,0.3
		C884.8,619.6,884.6,620,884.1,620z"/>
	<path class="st14" d="M886,624.9c0.2-0.3,0.4-0.6,0.7-0.6c0.1,0,0.2,0,0.2,0.1c0,0.1,0,0.2-0.1,0.2
		C886.6,624.7,886.3,624.8,886,624.9z"/>
	<path class="st2" d="M891.1,629.2c-0.4,0.7-1,0.9-1.7,0.9c-0.2,0-0.3-0.1-0.4-0.2c-0.7-0.8-0.4-2.2,0.6-2.7
		c0.4-0.2,0.8-0.1,1.1,0.1c0.5,0.4,0.6,0.5,0,0.8c-0.4,0.2-0.6,0.5-0.6,1c0,0.4,0.2,0.4,0.5,0.3
		C890.7,629.3,890.8,629.1,891.1,629.2z"/>
	<path class="st29" d="M891.4,627.2c0.6,0.1,0.7,0.4,0.8,0.8c0,0.1,0.1,0.3-0.1,0.3c-0.2,0-0.5,0-0.4-0.3
		C891.7,627.7,891.6,627.5,891.4,627.2z"/>
	<path class="st46" d="M880.1,586c-0.7,0.9-1.5,1.5-2.3,2.2c-0.9,0.8-1.8,1.5-2.5,2.5c-0.1,0.2-0.3,0.2-0.5,0.2
		c-0.2-0.1-0.2-0.1-0.1-0.3c1.6-1.5,3-3.3,5-4.4C879.8,586.1,879.9,586,880.1,586z"/>
	<path class="st46" d="M905.2,593c1.5-1.5,3-2.7,4.9-3.4C909.5,590.5,906.4,592.7,905.2,593z"/>
	<path class="st47" d="M902.9,592.8c1-1.4,2.6-2.1,3.9-3.1C906.1,591.3,904.4,592,902.9,592.8z"/>
	<path class="st47" d="M900.9,592.4c0.2-0.4,0.6-0.7,0.9-1c0.7-0.6,1.5-1.2,2.1-1.8c0.1-0.1,0.3-0.2,0.4,0c0.1,0.2,0.2,0.4-0.1,0.5
		c-0.6,0.3-1,0.8-1.4,1.2c-0.3,0.3-0.6,0.7-1,0.9C901.4,592.3,901.2,592.4,900.9,592.4z"/>
	<path class="st47" d="M877.6,596.2c1.1-1.5,2.4-2.6,3.9-3.7C881.2,593.3,878.8,595.5,877.6,596.2z"/>
	<path class="st48" d="M888.3,588.9c0.2,0.2,0.6,0,0.6,0.4c0,0.2-0.4,0.3-0.7,0.3c-0.1,0-0.3,0.1-0.4,0c-0.1-0.2-0.1-0.4,0-0.6
		c0.2-0.4,0.6-0.5,0.8-1c0-0.1,0.1,0,0.2,0c0.1,0.1,0.1,0.2,0.1,0.3C888.9,588.6,888.6,588.8,888.3,588.9z"/>
	<path class="st49" d="M882.1,598.2c0.2,0.5,0,0.8-0.2,1.1c-0.4,0.6-0.9,1-1.2,1.7c-0.2-0.6,0-0.9,0.4-1.3
		C881.5,599.3,882,598.9,882.1,598.2z"/>
	<path class="st50" d="M900.5,591.5c-0.3,0-0.4-0.1-0.2-0.3c0.3-0.4,0.6-0.7,1.1-0.8c0.1,0,0.2,0,0.3,0.1c0.1,0.1,0,0.2-0.1,0.3
		C901.3,591.2,900.9,591.5,900.5,591.5z"/>
	<path class="st51" d="M906,577.6c1.1-1.8,3.1-2.6,4.5-4.2C910.3,574.4,909.3,575.3,906,577.6z"/>
	<path class="st47" d="M901.8,572.6c-0.9,1.5-2.2,2.4-3.6,3.4c0.2-0.6,0.6-0.9,0.9-1.2c0.5-0.5,1.1-0.8,1.5-1.5
		C900.8,572.9,901.2,572.7,901.8,572.6z"/>
	<path class="st47" d="M905.5,572.7c-1.3,1.3-2.5,2.6-4.1,3.6C901.9,575.2,904.4,573,905.5,572.7z"/>
	<path class="st49" d="M910.1,575.3c0.7-0.9,1.5-1.8,2.6-2.2C912.7,573.7,911.1,575,910.1,575.3z"/>
	<path class="st52" d="M907.7,577.6c0-0.6,0.4-0.8,0.7-1.2c0.3-0.3,0.6-0.6,0.9-1C909.3,576,909.2,576.2,907.7,577.6z"/>
	<path class="st53" d="M895.1,573.8c-0.2,0.3-0.3,0.5-0.5,0.7c-0.1,0.1-0.2,0.1-0.3,0.1c-0.1-0.1-0.1-0.2-0.1-0.3
		C894.3,573.9,894.6,573.8,895.1,573.8z"/>
</g>
</svg>
