<?xml version="1.0" encoding="utf-8"?>
<!-- Generator: Adobe Illustrator 25.0.0, SVG Export Plug-In . SVG Version: 6.00 Build 0)  -->
<svg version="1.1" id="Calque_1" xmlns="http://www.w3.org/2000/svg" xmlns:xlink="http://www.w3.org/1999/xlink" x="0px" y="0px"
	 viewBox="0 0 1920 1080" style="enable-background:new 0 0 1920 1080;" xml:space="preserve">
<style type="text/css">
	.st0{fill:#8E8E8E;}
</style>
<g>
	<path class="st0" d="M1124.8,592.9c-38.8,0-76.5,0-114.2,0c-2.9,19.8-3.1,20.2-16.3,32c8.8,5.8,14.4,13.8,15.7,24.3
		c1.3,10.5-2.2,19.6-10,28c5.9,0,10.9,0,15.9,0c1.2,0,2.5-0.1,3.7,0.1c2.6,0.4,4.5,2,3.9,4.5c-0.4,1.7-2.3,3.1-3.8,4.3
		c-0.7,0.5-2.2,0.1-3.3,0.1c-49.9,0-99.7,0-149.6,0c-0.9,0-1.8,0-2.6,0c-2.8-0.2-4.5-1.6-4.6-4.4c0-2.8,1.7-4.3,4.5-4.5
		c1.1-0.1,2.2,0,3.4,0c36.4,0,72.7,0,109.1,0c13.4,0,23.9-9.6,24.7-22.3c0.9-13.7-9.7-25.5-23.6-25.6c-14.5-0.2-29,0-43.5,0
		c-37.5,0-75,0-112.5,0c-13.8,0-24.5,10.6-24.4,24.1c0.1,12.8,10.3,23.5,23.2,23.8c8,0.2,16,0,24,0.1c3.9,0,6.1,1.7,6,4.6
		c0,2.9-2.1,4.5-6.2,4.4c-9.4-0.1-18.8,0.6-28.1-0.6c-14.3-1.9-23.6-10.8-26.9-24.7c-3.4-14,1.4-25.5,12.7-34.4
		c0.7-0.5,1.4-1,2.3-1.7c-1.4-1.1-2.5-1.9-3.7-2.9c-10.8-8.7-15.1-23-10.7-36.1c4.4-13.1,16.7-22.3,30.5-22.6
		c10.4-0.2,20.7,0,31.1-0.1c1.2,0,2.4,0,4.7,0c-2.3-2.2-4-3.8-5.5-5.5c-7.8-8.7-13.2-18.7-17.1-29.6c-1.4-4-0.1-6.3,4-7
		c12.9-2.4,25.8-2.4,39,1.1c0.4-1.4,0.8-2.6,1.2-3.9c3.7-11.3,9.7-21.3,17.4-30.4c2.8-3.4,5.5-3.3,8.4,0.2
		c7.9,9.5,14.3,19.9,17.6,31.9c0.2,0.7,0.5,1.4,0.9,2.3c9.6-2.8,19.3-3.1,29.1-2.4c3.2,0.2,6.5,0.7,9.6,1.3c4.4,0.8,5.7,3,4.2,7.2
		c-4.6,12.4-10.9,23.8-20.6,33.1c-0.4,0.4-0.8,0.8-1.5,1.6c9.7,0,18.8,0,28.6,0c0-1.4,0-2.8,0-4.3c0-29.4,0-58.7,0-88.1
		c0-11.7,6.6-18.4,18.3-18.4c2.2,0,4.5,0,7.2,0c0-6-0.2-11.9,0.1-17.7c0.2-5.4,1-10.8,1.4-16.3c0.1-0.8-0.5-1.6-0.5-2.5
		c-0.3-5-0.9-9.9-0.5-14.8c0.3-3.5,3.3-5.6,6.9-5.7c10.1-0.1,20.2-0.1,30.4,0c4.1,0.1,7.3,3.1,7.2,7.1c-0.1,4.8-0.8,9.6-1.2,14.4
		c0,0.4-0.3,0.8-0.2,1.1c3.2,10.8,0.7,21.8,1.5,32.7c0,0.4,0.1,0.7,0.2,1.6c2.8,0,5.6,0,8.4,0c9.7,0.1,16.7,7.1,16.8,16.9
		c0.1,5,0,10,0,15c0,3.1-1.4,5.3-4.5,5.2c-3.2,0-4.5-2.2-4.5-5.3c0-4.9,0.1-9.7,0-14.6c-0.1-5.2-3-8.2-8.2-8.2
		c-20.5-0.1-41,0-61.5,0c-5.3,0-8.3,2.9-8.3,8.1c0,30.9,0,61.7,0,92.6c0,0.4,0.1,0.7,0.2,0.9c3.8,1.2,7.6,2.1,11.1,3.7
		c6.7,3,11.6,8.1,15.1,14.6c0.6,1.1,2,2.4,3.1,2.5c16,0.2,32,0.1,48.6,0.1c0-1.5,0-2.8,0-4.1c0-24.5,0-49,0-73.5
		c0-1.1-0.1-2.3,0.1-3.4c0.4-2.6,1.8-4.1,4.5-4.1c2.7,0,4.1,1.6,4.4,4.2c0.1,1.1,0,2.2,0,3.4c0,24.4,0,48.7,0,73.1
		c0,1.3,0,2.7,0,4.4c4,0,7.6,0.2,11.2-0.1c0.9-0.1,2.1-1.5,2.4-2.5c2.6-9,4.8-18.1,7.4-27.1c2.1-7.1,7-11.4,14.3-12.8
		c6.9-1.3,12.6,1.1,17,6.4c3.7,4.5,4.9,9.8,3.5,15.5c-1.7,6.7-3.5,13.4-5.4,20.6c3.6,0,6.7-0.1,9.8,0c4.3,0.1,5.8,1.7,5.8,6
		c0.3,27-17.3,52.3-43,61.9c-0.9,0.3-1.8,0.7-3,1.2c1.1,1,2,1.8,3,2.6c7.4,6.6,11.3,14.8,12,24.6c0.3,4.2-1.4,6.2-5.5,6.2
		c-19.6,0-39.2,0-58.9,0c-4.1,0-5.8-1.9-5.5-6.2c0.7-9.8,4.6-18.1,11.9-24.6c0.9-0.8,1.9-1.6,2.3-2c-6.9-4.1-14.2-7.7-20.5-12.5
		c-5.1-3.9-9.1-9.1-13.3-14.1c-3.1-3.7-2.8-6.7-0.2-8.4c2.5-1.6,4.8-0.5,7.5,3.3c13.3,18.6,31.6,27.2,54.1,24.4
		c22.6-2.8,38.2-15.7,46.4-36.9C1122.6,604.2,1123.4,598.7,1124.8,592.9z M899.4,572.3c-25.6,0-51.2,0-76.8,0
		c-14.5,0-25.3,10.3-25.3,23.9c0,13.7,10.8,24,25.2,24c14.7,0,29.5,0,44.2,0c36.5,0,72.9,0,109.4,0c7.7,0,14.3-2.5,19.2-8.4
		c6.4-7.7,7.8-16.4,3.6-25.5c-4.2-9.1-11.7-14-21.7-14C951.3,572.1,925.4,572.3,899.4,572.3z M954.9,529.1
		c-10.7-0.9-20.6-1.3-30.5,1.8c-12.1,3.7-19,11.8-20.5,24.4c-0.3,2.5,0.3,3.8,2.7,4.9c11.5,5.1,21.9,3.4,31.2-5
		C945.5,548.2,950.5,539.3,954.9,529.1z M843.6,529.1c4.9,10.9,10.3,20.7,19.4,27.8c9.2,7.2,19.1,7.9,29.4,2.8
		c1.1-0.5,2.3-2.4,2.2-3.5c-0.8-11.3-6.1-19.6-16.8-24C866.9,527.7,855.7,528.1,843.6,529.1z M1032.7,452.2c0-9.4,0.1-18.4-0.1-27.4
		c0-0.9-1.4-1.8-2.2-2.7c-1.2-1.5-3.3-3-3.4-4.6c-0.1-1.3,2.2-2.8,3.3-4.2c0.8-1,2-1.9,2.3-3.1c0.4-1.9,0.1-3.9,0.1-5.8
		c-9.3,0-18.1,0-26.8,0c-0.5,8.5-0.5,8.5,7.6,8.7c0.4,0,0.8,0,1.1,0c2.8,0.2,4.5,1.7,4.5,4.5c0,2.8-1.7,4.3-4.5,4.5
		c-2.1,0.1-4.3-0.2-6.3,0.2c-1,0.2-2.4,1.5-2.4,2.3c-0.2,9.1-0.1,18.2-0.1,27.4c1,0.1,1.6,0.1,2.2,0.1
		C1016,452.2,1024.1,452.2,1032.7,452.2z M1092.5,677.1c-1.6-12.2-13.4-21.9-25.9-21.4c-12.5,0.5-24,10.5-24.5,21.4
		C1058.9,677.1,1075.7,677.1,1092.5,677.1z M899.2,497.1c-6.2,8.3-11.1,16.8-13.5,26.5c-0.2,0.9,0,2.3,0.7,2.9
		c4.4,4.1,8.9,8.1,13,11.7c3.4-3.3,7.1-7.3,11.4-10.6c2.2-1.7,2.4-3,1.7-5.2C909.8,513.3,905.3,505.1,899.2,497.1z M1089.5,583.7
		c6,0,11.6,0.1,17.2-0.1c0.7,0,1.8-0.9,2-1.6c2-7.2,4.1-14.4,5.8-21.7c1-4.7-2.1-8.9-6.7-10.2c-4.4-1.1-9.1,1.1-10.4,5.7
		C1094.4,564.9,1092.1,574,1089.5,583.7z"/>
	<path class="st0" d="M892.1,647.1c21.2,0,42.5-0.3,63.7,0.2c7.8,0.2,15.5,1.9,23.2,3.4c3.8,0.7,5.3,3.4,4.1,6.2
		c-1.3,3.3-4,2.9-6.9,2.4c-7.2-1.2-14.5-2.9-21.8-3c-43.9-0.3-87.7-0.1-131.6-0.1c-1.4,0-3.1,0.4-4-0.3c-1.5-1.1-3.4-3-3.4-4.5
		c0.1-1.4,2.3-3,3.9-4c0.9-0.6,2.4-0.2,3.7-0.2C846.2,647.1,869.1,647.1,892.1,647.1z"/>
	<path class="st0" d="M1019.5,480.6c6.1,0,12.2-0.1,18.4,0c3.9,0,5.4,1.5,5.4,5.5c0.1,8.2,0,16.5,0,24.7c0,3.9-1.5,5.7-5.3,5.7
		c-12.5,0.1-25,0.1-37.5,0c-3.4,0-5.3-1.8-5.3-5.4c0-8.5,0-17,0-25.5c0-3.4,1.7-5.1,5.1-5.1C1006.7,480.6,1013.1,480.6,1019.5,480.6
		z M1004.6,489.7c0,6.1,0,11.9,0,17.7c10,0,19.7,0,29.4,0c0-6,0-11.8,0-17.7C1024.1,489.7,1014.4,489.7,1004.6,489.7z"/>
	<path class="st0" d="M906.7,599.1c-21.1,0-42.2-0.2-63.3,0.1c-7,0.1-14,1.7-21,2.9c-3.9,0.7-6.3,0.2-7.1-2.6
		c-0.8-2.9,0.5-5.2,4.4-6.1c6.2-1.4,12.5-3.2,18.7-3.2c46.4-0.3,92.7-0.2,139.1-0.2c3.7,0,5.7,1.6,5.8,4.4c0,2.9-2.1,4.6-6,4.6
		C953.7,599.1,930.2,599.1,906.7,599.1z"/>
</g>
</svg>
