<?xml version="1.0" encoding="utf-8"?>
<!-- Generator: Adobe Illustrator 25.0.0, SVG Export Plug-In . SVG Version: 6.00 Build 0)  -->
<svg version="1.1" id="Calque_1" xmlns="http://www.w3.org/2000/svg" xmlns:xlink="http://www.w3.org/1999/xlink" x="0px" y="0px"
	 viewBox="0 0 1920 1080" style="enable-background:new 0 0 1920 1080;" xml:space="preserve">
<style type="text/css">
	.st0{fill:#8E8E8E;}
	.st1{fill:#010101;}
	.st2{fill:#0B0B0B;}
	.st3{fill:#111111;}
	.st4{fill:#040404;}
</style>
<g>
	<path class="st0" d="M800.4,578.1c-10.8-13.9-15-29.3-9.8-46.4c5.1-16.9,17-27.5,33.5-32.9c-5.1-27.1-0.7-36.3,24.7-51.9
		c-2.6-2-5.3-3.7-7.7-5.8c-6-5.2-10.2-11.4-7.7-19.7c1.1-3.7,3.3-7.4,6-10.1c11.8-11.8,26.6-18.1,42.7-21c17-3.1,33.8-1.3,49.3,6.5
		c5.9,2.9,11.6,7.1,16,12c8.6,9.3,8.3,20.7,0.3,30.6c-0.4,0.5-0.8,1.1-0.9,1.3c7.9,2.4,15.9,4.2,23.5,7.2
		c9.8,3.8,17.5,10.5,22.6,19.9c7.2,13.4,4.3,29.3-7.3,41.7c-1.5,1.6-3.1,3.2-4.2,4.4c4.1,5,8.3,10,12.7,15.4
		c23.5-11.7,49.7-12.6,75.7-14.8c19.5-1.6,38.9-3.7,56.8-12.3c6.3-3,12-7.6,18-11.3c1.3-0.8,3.4-1.3,4.7-0.8c1,0.4,2.1,2.6,2,3.9
		c-1.8,26.9-3.4,53.9-12.1,79.8c-8,23.4-20.4,43.9-40.7,58.8c-13.5,9.9-29,15-45.3,17.6c-9.2,1.5-18.6,2.4-27.9,3.6
		c-1.2,0.2-2.6,0.5-3.3,1.2c-12,11.9-26.9,18.5-42.6,23.5c-41.5,13.1-83.8,17-127,11.3c-16.4-2.2-32.5-5.9-47-14.2
		c-16.6-9.4-29.1-22.3-33.9-41.4c-5.9-23.3,5.6-46.2,27.8-55.4C799.6,578.7,799.9,578.5,800.4,578.1z M1143.1,502.3
		c-4.7,2.5-8.7,4.9-13,6.9c-17.8,8.4-37,10.9-56.3,12.8c-17.4,1.7-34.9,2.8-52,6.2c-53.5,10.7-85.5,58.9-75.4,112
		c0.8,4.3,2.1,8.5,3.1,12.2c5.4-10.1,10.1-20.7,16.4-30.2c17.7-26.6,43-44.1,71.6-57.3c1.4-0.6,2.8-1.7,4.1-1.6
		c1.7,0.1,4.3,0.8,4.8,2c0.5,1.2-0.8,3.4-1.8,4.9c-0.5,0.8-2,0.9-3,1.5c-10.8,6-22,11.3-32.2,18.2c-23.7,16.1-41.8,37-51.2,64.6
		c-0.4,1.3-0.8,2.6-1.1,3.8c7.9-2.3,15.3-5.3,23-6.4c20.1-3,40.4-5.1,60.5-7.6c14.3-1.8,28.4-4.5,41.4-10.9
		c20.5-10.2,34-27,43.7-47.2c8.8-18.5,12.7-38.3,14.9-58.5C1141.7,519.3,1142.3,511.1,1143.1,502.3z M938.1,602.3
		c-1.1,0.3-2,0.4-2.8,0.6c-27.1,6.7-54.3,7.5-81.7,2.3c-14.9-2.9-29.6-7.1-41.6-16.7c-4.8-3.9-8.6-3.3-13.2-1
		c-2.2,1.1-4.4,2.5-6.3,4c-14.2,11.4-18.7,30-11.4,47.4c7.2,17.4,21,27.9,37.9,34.6c17.8,7.1,36.6,9.5,55.7,10.5
		c22.2,1.2,44.2-0.2,66.1-3.9c1.6-0.3,4.4-1.1,4.4-1.8c0.2-5,2.6-9.8,0.3-15c-7.2-16.8-10-34.4-8.2-52.7
		C937.6,607.9,937.8,605.2,938.1,602.3z M986.2,533.2c-2.4-5.3-5.9-9.8-11-12.8c-1.1-0.7-3-0.6-4.3-0.1c-5.7,1.8-11.2,4.5-17,5.7
		c-31.8,6.6-63.5,6.1-95.2-1.1c-11-2.5-21.1-7.3-28.4-16.3c-1.8-2.2-3.2-2.4-5.7-1.6c-26.4,8.3-36.9,39.6-20.9,62.5
		c7.2,10.3,17.2,17.2,28.7,21.5c34.8,13.1,70.1,12.7,105.6,3.2c1.1-0.3,2.4-1.7,2.8-2.9c6-19.3,17-35.2,32.4-48.1
		C977.4,539.5,981.8,536.5,986.2,533.2z M914.7,523c8.2-0.9,21.7-2,35.1-4.2c12-1.9,23.1-6.5,31.3-16.1
		c11.5-13.3,10.4-29.2-2.8-40.8c-1.6-1.4-3.3-2.7-5.1-3.8c-8.8-5.5-18.5-8.1-28.7-8.9c-3.4-0.3-7.3-1-10.2,0.2
		c-22.3,9.2-45,10.7-68.2,4.4c-5.6-1.6-10.5-1.2-15.5,1.3c-3.4,1.7-6.9,3.6-9.9,6c-9.3,7.6-13,17.5-10.7,29.3
		c2.6,13.3,11.8,20.5,23.7,24.7C871.8,521.4,890.6,522.1,914.7,523z M903.5,397.4c-1.7-0.2-2.8-0.3-3.9-0.5
		c-3.8-0.7-5.6,0.6-6.7,4.6c-4.2,14.7-8.9,29.3-13.3,43.9c-0.3,1-0.5,2.1-0.8,3.4c2,0.2,3.7,0.2,5.2,0.5c2.7,0.6,4-0.3,4.7-3.1
		c1.3-5.1,3-10,4.5-15C896.6,420.2,900,409,903.5,397.4z M907.5,397.7c-5.4,17.6-10.6,34.7-16,52.2c1.9,0,3.3-0.1,4.6,0
		c3.4,0.3,5.3-0.9,6.2-4.6c1.9-7.6,4.5-15.1,6.8-22.6c2.3-7.6,4.7-15.2,7.1-23.2C913.3,398.9,910.6,398.4,907.5,397.7z
		 M1008.2,655.8c-16.6,1.2-32.9,3.6-48.3,10.4c-6.1,2.7-6.7,3.8-6.1,11.2C973,672.7,991.9,667.7,1008.2,655.8z M866,445.8
		c1.5,0.5,2.7,0.8,3.8,1.2c3.5,1.5,5.1,0.6,6.2-3.3c4.1-14.3,8.6-28.4,12.9-42.6c0.3-1.1,0.6-2.3,0.9-3.6c-1.6,0-2.8,0-4.1,0
		c-3.8,0-6,1.5-6.9,5.6c-1.3,5.6-3.3,11-4.9,16.5C871.4,428.3,868.7,437,866,445.8z M905.3,448.8c9.4-0.3,9.4-0.3,11.9-8.5
		c0.4-1.3,0.8-2.6,1.2-3.9c3.3-10.8,6.6-21.6,10-32.7c-2.9-1.1-5.5-2.1-8.3-3.1C915.1,416.9,910.2,432.8,905.3,448.8z M875.9,400.2
		c-7.8,0.6-12.2,4.2-12.9,11.7c0,0.2-0.2,0.5-0.3,0.7c-2.9,9.4-5.7,18.7-8.6,28.3c2.8,1.3,5.4,2.4,8.2,3.7
		C866.9,429.5,871.4,414.9,875.9,400.2z M919.6,446.5c3.2-1.1,5.9-1.8,8.3-2.9c1.1-0.5,2.2-1.7,2.6-2.8c2.9-9,5.7-18,8.4-27.1
		c0.3-1,0.1-2.7-0.5-3.3c-1.8-1.7-4-3.1-6.3-4.8c-4,13-7.8,25.3-11.6,37.7C920.1,444.1,919.9,444.9,919.6,446.5z M860.8,405.6
		c-3,1.7-5.3,2.7-7.2,4.2c-1.8,1.4-3.9,2.9-4.7,4.9c-2,5-3.4,10.2-4.8,15.3c-0.3,1.1-0.2,2.9,0.5,3.7c1.6,1.8,3.6,3.2,6,5.2
		C854.1,427.6,857.3,417.1,860.8,405.6z M934.9,439.8c11-6,14.3-17.1,7.4-24.2C939.9,423.5,937.5,431.3,934.9,439.8z"/>
	<path class="st1" d="M1026.4,625.9c45.1-2.5,79.5-29.5,92.7-72.2c0.4-1.2,1.9-2.1,2.9-3.1c0.3,1.4,1,3,0.7,4.2
		c-10,37.9-44.2,68.2-83.2,73.7c-6.2,0.9-12.4,1-18.6,1.3c-1.1,0-2.3-1.2-3.5-1.9c1.1-0.6,2.2-1.7,3.4-1.8
		C1022.8,625.7,1025,625.9,1026.4,625.9z"/>
	<path class="st1" d="M1038.6,617.6c-0.4-0.3-1.6-0.8-1.6-1.3c0-0.8,0.5-1.9,1.2-2.3c0.7-0.6,1.9-0.6,2.8-0.9
		c26.7-7.7,47-23.5,61-47.5c0.5-0.9,0.9-1.9,1.6-2.5c0.5-0.4,1.8-0.6,2.3-0.3c0.5,0.3,0.7,1.4,0.7,2.2c0,0.5-0.5,1.1-0.8,1.7
		c-14.6,25.7-36.2,42.4-64.6,50.4C1040.5,617.2,1039.7,617.3,1038.6,617.6z"/>
	<path class="st1" d="M1041.1,536.2c1.6,0,3.3-0.2,4.9,0.1c0.9,0.2,1.7,1.1,2.5,1.7c-0.8,0.7-1.6,1.9-2.5,2c-4,0.4-8,0.2-11.9,0.8
		c-23.2,3.4-41.6,14.8-54.7,34.3c-0.5,0.7-0.8,1.7-1.5,2.1c-0.7,0.4-2,0.8-2.5,0.4c-0.5-0.4-0.6-1.7-0.5-2.5
		c0.1-0.7,0.7-1.3,1.1-1.9C991.5,549.9,1013.5,538.1,1041.1,536.2z"/>
	<path class="st2" d="M1026.5,619.9c-0.8-0.6-1.7-1.3-2.6-2c0.8-0.7,1.5-1.7,2.4-2.2c0.9-0.5,2.1-0.9,3.2-0.9c0.9,0,1.9,0.5,2.8,0.7
		c-0.4,0.9-0.5,2.2-1.2,2.6C1029.9,618.9,1028.3,619.2,1026.5,619.9z"/>
	<path class="st1" d="M868.6,670.3c-13.4-0.2-26.7-1.3-39.2-6.6c-15.4-6.5-27.3-16.6-31.7-33.5c-2.6-10.1-1.4-19.9,4.3-28.8
		c0.7-1.1,2.6-1.6,3.9-2.3c-0.2,1.4,0,3.1-0.6,4.2c-7.7,12.4-6.3,28.6,3.6,40.9c9.5,11.8,22.4,17.8,37,20.1
		c9.6,1.5,19.4,1.5,29.1,2.1c0.9,0.1,1.8-0.3,2.6,0c0.9,0.3,1.6,1.2,2.4,1.8c-0.7,0.7-1.5,1.9-2.2,1.9
		C874.6,670.5,871.6,670.3,868.6,670.3z"/>
	<path class="st1" d="M808.2,618.9c0.6-2.7,1-5.4,1.8-8c0.2-0.8,1.6-1.2,2.4-1.8c0.4,0.9,1.4,2,1.1,2.8c-2.2,7.1-1.2,13.9,2.5,20.2
		c4.2,7.3,10.6,12.5,18.5,15c7.9,2.5,16.2,3.7,24.4,5.4c1.2,0.3,2.6,0,3.7,0.4c0.8,0.3,1.3,1.2,2,1.9c-0.8,0.6-1.6,1.8-2.4,1.8
		c-15.2-1.1-30.1-3.2-42.2-13.7C812.7,636.5,808.5,627.8,808.2,618.9z"/>
	<path class="st3" d="M870.8,658.3c-1.6-1.2-2.7-2.1-3.7-3c1.2-0.7,2.5-1.8,3.7-1.9c1.2,0,2.3,1.1,3.5,1.7
		C873.3,656.1,872.2,657,870.8,658.3z"/>
	<path class="st0" d="M834.7,576.1c-7.5-2-13.2-5.5-17.7-11.1c-10.1-12.6-9.5-31.2,1.5-42.2c0.9-0.9,2.7-0.9,4-1.3
		c-0.4,1.3-0.4,2.9-1.2,3.8c-14.2,16.3-7.8,39.3,12.8,46.6c1.1,0.4,1.9,1.8,2.8,2.7C836,575.2,835.2,575.8,834.7,576.1z"/>
	<path class="st0" d="M910.7,513.4c-4.2-0.6-9.7-1.1-15-2.1c-1.1-0.2-1.9-1.7-2.8-2.7c1.2-0.3,2.4-1.2,3.5-1
		c18.1,3.7,35.6,0.6,52.7-4.8c5-1.6,10-4.8,13.9-8.4c8-7.5,7.5-17.6,0-25.5c-0.6-0.7-0.5-2-0.7-3.1c1.1,0.1,2.5-0.2,3.3,0.3
		c6,3.8,8.7,13.3,6.2,21.2c-2.4,7.8-7.8,13-14.8,16.5c-10.1,5.1-21.1,6.8-32.1,8.3C920.5,512.8,916.2,513,910.7,513.4z"/>
	<path class="st4" d="M844.7,481c0-6.9,6-15.2,11.8-16.9c0.8-0.2,1.9,0.4,2.9,0.6c-0.4,0.9-0.5,2.4-1.2,2.7
		c-5.6,2.7-8.8,7.1-9.7,13.3c-0.1,0.8-1.3,1.5-2,2.2C845.8,482.2,845,481.4,844.7,481z"/>
</g>
</svg>
