<?xml version="1.0" encoding="utf-8"?>
<!-- Generator: Adobe Illustrator 25.0.0, SVG Export Plug-In . SVG Version: 6.00 Build 0)  -->
<svg version="1.1" id="Calque_1" xmlns="http://www.w3.org/2000/svg" xmlns:xlink="http://www.w3.org/1999/xlink" x="0px" y="0px"
	 viewBox="0 0 1920 1080" style="enable-background:new 0 0 1920 1080;" xml:space="preserve">
<style type="text/css">
	.st0{fill:#8E8E8E;}
	.st1{fill:#010101;}
	.st2{fill:#0B0B0B;}
	.st3{fill:#111111;}
	.st4{fill:#040404;}
</style>
<g>
	<g>
		<path class="st0" d="M924.5,427.9c0.9-3.1,1.5-5.2,2.1-7.4c3.7-12.3,11.1-21.8,23.1-26.4c17.1-6.5,29.3-18.2,38.8-33.2
			c1.4-2.3,3.1-4.1,6.1-2.6c2.9,1.4,2.7,3.9,1.8,6.4c-1.8,5.4-1.1,10.7,0.8,15.8c2.7,7,5.9,13.8,8.6,20.7c1.9,4.7,3.7,9.6,4.9,14.5
			c2.6,11.2-0.7,21.2-8.6,29.3c-5.8,6-7,13.2-7.6,21.1c8.8,0.7,17.4,1.5,25.9,2.1c0.8,0.1,1.8-0.7,2.4-1.4
			c9.1-11.8,18.3-23.4,27.1-35.4c7.7-10.6,11.6-22.4,11.3-35.7c-0.3-17.3,6.4-24.4,23.7-26.5c28.6-3.5,51.6,19.5,48,48.1
			c-0.4,3.1-2.1,6.6-4.2,8.9c-3.2,3.4-7,6.4-11,8.9c-9.5,5.8-15.9,14-19.7,24.2c-2.5,6.7-4.7,13.4-7.1,20.4c1.3,0.6,2.3,1,3.2,1.5
			c4,2,8.2,3.7,12.1,6c8.5,5,12.4,11.7,8.9,23c-7.1,22.9-9,46.5-11.2,70.1c-1.4,14.7-3.5,29.3-9.1,43.1
			c-9.5,23.3-25.7,40.5-48.6,51.2c-2.6,1.2-5.2,2.4-6.8,3.2c-1,6.2-1.8,11.8-2.7,17.3c7.8,1.5,16.3,3.2,24.8,5
			c5.6,1.2,9.6,4.6,9.2,7.9c-0.7,4.9-4.9,6.4-8.8,7.5c-15.7,4.2-31.8,6.7-48.1,6.9c-32.2,0.4-64.2-1.7-95.6-9.1
			c-9.2-2.2-18.5-4.3-27.7-6.5c-6.4-1.6-11.7-5.3-15.7-10.3c-2.1-2.5-3.6-6.2-3.8-9.5c-0.2-3.4-1.3-5-4.3-6.3
			c-29.6-13.9-46.4-38-53.5-69.1c-4-17.7-6.5-35.8-9.1-53.9c-2.4-16.2-5.1-32.2-13.5-46.8c-4.9-8.5-2.9-15.7,5.1-21.5
			c9.5-6.9,20.6-9.8,31.8-12.7c3.1-0.8,6.2-1.5,9.6-2.3c-2.6-10.8-0.7-21.1,2-31.3c4-14.9,2.1-29.5-2.4-43.9
			c-1.7-5.5-3.7-10.9-5.5-16.3c-0.8-2.6-0.3-4.8,2.2-6.1c2.5-1.2,4.4,0.1,5.7,2.2c4.9,8,12.4,12.6,21.1,15.1
			c9.7,2.8,19.7,4.6,29.3,7.6c6.7,2.1,13.4,4.9,19.6,8.2C916.2,413.5,921.1,419.7,924.5,427.9z M1100.7,520.1
			c-6.4,2.2-12.6,4.6-18.9,6.4c-30.3,8.4-61.4,11.1-92.6,12.7c-29.4,1.5-58.7,1.2-88-0.8c-23.7-1.6-47.3-4.1-70.4-9.7
			c-8.9-2.2-17.6-5.2-26.4-7.8c0,0.1,0,0.4,0.1,0.7c5.2,12.9,7,26.5,8.5,40.1c2.1,18.4,4.4,36.7,9.6,54.5
			c7.3,24.6,20.9,44.1,44.7,55.3c6.4,3,13,5.9,19.7,8c40.5,12.4,81.2,12.3,121.9,1.1c16.6-4.6,32.1-11.7,45.9-22.1
			c21.4-16.1,31-38.6,34.8-64.1c2.6-17.4,4.4-34.9,6.9-52.4C1097.6,534.6,1099.3,527.4,1100.7,520.1z M1068.8,520.5
			c0.2-2.2,0.3-3.8,0.5-5.4c3.9-25.2,11.8-48.9,24.7-71c4.8-8.2,10.8-15.3,18.9-20.4c9-5.7,11.1-11.2,8.7-21.7
			c-4.4-19.4-23.9-29.3-43.3-22.1c-5.1,1.9-8.2,5.1-8.3,10.7c-0.1,4-0.3,8-0.4,12c0,7.4-1.8,14.4-5.5,20.8
			c-3.6,6.3-7.3,12.5-11.7,18.3c-21.8,28.5-43.8,56.8-65.7,85.2c-0.7,0.9-1.4,1.9-2.6,3.6C1013.1,529.1,1041.1,526.3,1068.8,520.5z
			 M925.5,524.9c-12.1-11.3-19-25.5-25.3-40.1c-2.1-5-4.5-10-7.1-14.9c-3.7-6.9-9-12.2-16.5-15.1c-2.7-1-5.2-2.5-3.9-6
			c1.1-2.9,3.9-3.6,7.6-2.1c6.4,2.6,11.5,6.9,15.8,12.2c7.2,8.9,11.3,19.3,15.7,29.7c4.2,10.2,10,19.2,17.9,27
			c1.8,1.8,3.8,3.4,5.4,4.8c2.9-8.5,5.4-16.7,8.5-24.7c4.3-11.4,1.8-20.8-7.3-28.6c-1.2-1.1-2.4-2.2-3.7-3.2
			c-6.3-4.9-10.4-11.4-12.4-19.1c-0.8-3.1-1.6-6.3-2.3-9.4c-2.3-9.3-7.8-16.2-16.4-20.2c-4.8-2.3-9.9-4.1-15-5.6
			c-13.7-3.9-28.2-5.2-41.3-13.2c0.5,2,0.8,3.3,1.1,4.6c3.4,12.3,4.8,24.8,2.6,37.4c-1.1,6.6-3,13.2-4,19.8
			c-1.1,6.8-1.5,13.9,2.2,20.1c4.2,7.2,9,14.1,13.7,21c4.8,7,10.5,13,18.6,16.4C894.1,521.7,909.8,522.9,925.5,524.9z M987.1,377.6
			c-8.6,11.6-20.8,18.4-33.7,24.5c-13,6.1-19.6,17.1-21.8,31.1c-1.7,10.9-0.3,20.2,9.8,26.8c3,1.9,5.3,4.8,7.8,7.2
			c3.6-6.7,7-13.3,10.5-19.9c4.6-8.7,8.8-17.4,6.3-27.8c-0.3-1.2,1.7-4.3,2.7-4.3c1.6-0.1,3.8,1.3,4.8,2.7c1.1,1.5,1.2,3.8,1.4,5.7
			c1.3,9.8-2.5,18.4-6.8,26.7c-3.6,6.8-7.3,13.6-10.6,20.6c-2.4,5.1-2.8,10.7-1.7,16.5c6-2,11.6-4,17.3-5.9
			c8.9-2.9,13.9-8.7,13.6-18.2c-0.3-9.6,3.3-17.5,9.7-24.3c6.7-7.1,7.9-15.6,5.3-24.8c-0.9-3.1-2-6.2-3.2-9.2
			C994.9,396.1,991.1,387.1,987.1,377.6z M944.5,531.2c8.4,0,16.8,0.1,25.1-0.1c1.7-0.1,3.8-1.2,4.9-2.5
			c12.9-16.4,25.6-32.9,38.3-49.4c0.6-0.8,1.1-1.6,1.8-2.8c-6.9-0.6-13.3-1.2-19.8-1.5c-0.9,0-2.3,0.9-2.7,1.7
			c-2.9,5.8-7.8,9.4-13.6,11.6c-4.5,1.8-9.1,3.3-13.8,4.8c-9.3,2.9-16.1,7.8-18.3,18.1C945.1,517.6,942.6,523.8,944.5,531.2z
			 M894.5,529.5c0.1-0.4,0.2-0.8,0.3-1.3c-11.9-3.5-22.8-8.7-32.4-16.6c-9.6-7.8-17.1-17.4-22.6-28.5c-12.8,2.7-25.2,5.4-36.4,11.8
			c-9.2,5.3-9.3,10.3,0.2,15c6.8,3.4,14,6.1,21.2,8.2c20.3,5.8,41.3,8.4,62.3,10.5C889.6,529,892,529.3,894.5,529.5z M879.3,686.7
			c2.4,7.7,7.8,11.2,14,13.1c35.4,10.8,70.9,11.7,106.6,1.4c7-2,13.9-4.8,20.6-7.7c3.5-1.5,6-4.3,5.7-9
			C977.6,700.1,929,701.3,879.3,686.7z M1088.3,489.3c-2,9.7-3.8,18.4-5.6,27.1c0.3,0.3,0.6,0.7,1,1c6.7-3.2,13.6-6,19.9-9.8
			c5.4-3.2,5.3-6.9,0-10.3C1099.1,494.5,1094,492.3,1088.3,489.3z"/>
		<path class="st0" d="M952.5,653.1c-18.1-0.1-34.2-2.1-49.1-10c-26.3-13.9-23.9-42.5-3.5-57.4c10-7.3,21.4-10.4,33.7-10.6
			c21.2-0.3,40.9,4.5,57.9,17.7c4.3,3.4,8.2,7.8,11.1,12.4c6.8,11.1,4.6,23.8-5,32.6c-8.1,7.4-18.1,10.9-28.6,13
			C963.1,652.1,957,652.6,952.5,653.1z M948.3,644.7c5.2-0.4,10.5-0.6,15.7-1.4c9.3-1.4,18.4-3.9,26.1-9.7c9.5-7.2,11.3-18,3.7-27.1
			c-4-4.8-9.1-9.1-14.5-12.2c-16.4-9.5-34.4-12.6-53.1-10c-11.3,1.6-21.5,5.8-28.6,15.4c-7,9.5-6.2,21.6,2.1,29.7
			c2.9,2.8,6.4,5.3,10,7.1C921.9,642.7,934.9,644.3,948.3,644.7z"/>
	</g>
	<g>
		<path class="st0" d="M1153,484.4c-10.8-13.9-15-29.3-9.8-46.4c5.1-16.9,17-27.5,33.5-32.9c-5.1-27.1-0.7-36.3,24.7-51.9
			c-2.6-2-5.3-3.7-7.7-5.8c-6-5.2-10.2-11.4-7.7-19.7c1.1-3.7,3.3-7.4,6-10.1c11.8-11.8,26.6-18.1,42.7-21c17-3.1,33.8-1.3,49.3,6.5
			c5.9,2.9,11.6,7.1,16,12c8.6,9.3,8.3,20.7,0.3,30.6c-0.4,0.5-0.8,1.1-0.9,1.3c7.9,2.4,15.9,4.2,23.5,7.2
			c9.8,3.8,17.5,10.5,22.6,19.9c7.2,13.4,4.3,29.3-7.3,41.7c-1.5,1.6-3.1,3.2-4.2,4.4c4.1,5,8.3,10,12.7,15.4
			c23.5-11.7,49.7-12.6,75.7-14.8c19.5-1.6,38.9-3.7,56.8-12.3c6.3-3,12-7.6,18-11.3c1.3-0.8,3.4-1.3,4.7-0.8c1,0.4,2.1,2.6,2,3.9
			c-1.8,26.9-3.4,53.9-12.1,79.8c-8,23.4-20.4,43.9-40.7,58.8c-13.5,9.9-29,15-45.3,17.6c-9.2,1.5-18.6,2.4-27.9,3.6
			c-1.2,0.2-2.6,0.5-3.3,1.2c-12,11.9-26.9,18.5-42.6,23.5c-41.5,13.1-83.8,17-127,11.3c-16.4-2.2-32.5-5.9-47-14.2
			c-16.6-9.4-29.1-22.3-33.9-41.4c-5.9-23.3,5.6-46.2,27.8-55.4C1152.1,485,1152.4,484.8,1153,484.4z M1495.7,408.7
			c-4.7,2.5-8.7,4.9-13,6.9c-17.8,8.4-37,10.9-56.3,12.8c-17.4,1.7-34.9,2.8-52,6.2c-53.5,10.7-85.5,58.9-75.4,112
			c0.8,4.3,2.1,8.5,3.1,12.2c5.4-10.1,10.1-20.7,16.4-30.2c17.7-26.6,43-44.1,71.6-57.3c1.4-0.6,2.8-1.7,4.1-1.6
			c1.7,0.1,4.3,0.8,4.8,2c0.5,1.2-0.8,3.4-1.8,4.9c-0.5,0.8-2,0.9-3,1.5c-10.8,6-22,11.3-32.2,18.2c-23.7,16.1-41.8,37-51.2,64.6
			c-0.4,1.3-0.8,2.6-1.1,3.8c7.9-2.3,15.3-5.3,23-6.4c20.1-3,40.4-5.1,60.5-7.6c14.3-1.8,28.4-4.5,41.4-10.9
			c20.5-10.2,34-27,43.7-47.2c8.8-18.5,12.7-38.3,14.9-58.5C1494.2,425.7,1494.8,417.4,1495.7,408.7z M1290.7,508.7
			c-1.1,0.3-2,0.4-2.8,0.6c-27.1,6.7-54.3,7.5-81.7,2.3c-14.9-2.9-29.6-7.1-41.6-16.7c-4.8-3.9-8.6-3.3-13.2-1
			c-2.2,1.1-4.4,2.5-6.3,4c-14.2,11.4-18.7,30-11.4,47.4c7.2,17.4,21,27.9,37.9,34.6c17.8,7.1,36.6,9.5,55.7,10.5
			c22.2,1.2,44.2-0.2,66.1-3.9c1.6-0.3,4.4-1.1,4.4-1.8c0.2-5,2.6-9.8,0.3-15c-7.2-16.8-10-34.4-8.2-52.7
			C1290.1,514.2,1290.4,511.5,1290.7,508.7z M1338.8,439.5c-2.4-5.3-5.9-9.8-11-12.8c-1.1-0.7-3-0.6-4.3-0.1
			c-5.7,1.8-11.2,4.5-17,5.7c-31.8,6.6-63.5,6.1-95.2-1.1c-11-2.5-21.1-7.3-28.4-16.3c-1.8-2.2-3.2-2.4-5.7-1.6
			c-26.4,8.3-36.9,39.6-20.9,62.5c7.2,10.3,17.2,17.2,28.7,21.5c34.8,13.1,70.1,12.7,105.6,3.2c1.1-0.3,2.4-1.7,2.8-2.9
			c6-19.3,17-35.2,32.4-48.1C1329.9,445.9,1334.3,442.8,1338.8,439.5z M1267.3,429.4c8.2-0.9,21.7-2,35.1-4.2
			c12-1.9,23.1-6.5,31.3-16.1c11.5-13.3,10.4-29.2-2.8-40.8c-1.6-1.4-3.3-2.7-5.1-3.8c-8.8-5.5-18.5-8.1-28.7-8.9
			c-3.4-0.3-7.3-1-10.2,0.2c-22.3,9.2-45,10.7-68.2,4.4c-5.6-1.6-10.5-1.2-15.5,1.3c-3.4,1.7-6.9,3.6-9.9,6
			c-9.3,7.6-13,17.5-10.7,29.3c2.6,13.3,11.8,20.5,23.7,24.7C1224.3,427.7,1243.1,428.5,1267.3,429.4z M1256.1,303.7
			c-1.7-0.2-2.8-0.3-3.9-0.5c-3.8-0.7-5.6,0.6-6.7,4.6c-4.2,14.7-8.9,29.3-13.3,43.9c-0.3,1-0.5,2.1-0.8,3.4c2,0.2,3.7,0.2,5.2,0.5
			c2.7,0.6,4-0.3,4.7-3.1c1.3-5.1,3-10,4.5-15C1249.1,326.5,1252.5,315.3,1256.1,303.7z M1260.1,304.1c-5.4,17.6-10.6,34.7-16,52.2
			c1.9,0,3.3-0.1,4.6,0c3.4,0.3,5.3-0.9,6.2-4.6c1.9-7.6,4.5-15.1,6.8-22.6c2.3-7.6,4.7-15.2,7.1-23.2
			C1265.8,305.2,1263.2,304.7,1260.1,304.1z M1360.8,562.1c-16.6,1.2-32.9,3.6-48.3,10.4c-6.1,2.7-6.7,3.8-6.1,11.2
			C1325.6,579.1,1344.5,574,1360.8,562.1z M1218.6,352.1c1.5,0.5,2.7,0.8,3.8,1.2c3.5,1.5,5.1,0.6,6.2-3.3
			c4.1-14.3,8.6-28.4,12.9-42.6c0.3-1.1,0.6-2.3,0.9-3.6c-1.6,0-2.8,0-4.1,0c-3.8,0-6,1.5-6.9,5.6c-1.3,5.6-3.3,11-4.9,16.5
			C1223.9,334.6,1221.3,343.3,1218.6,352.1z M1257.9,355.1c9.4-0.3,9.4-0.3,11.9-8.5c0.4-1.3,0.8-2.6,1.2-3.9
			c3.3-10.8,6.6-21.6,10-32.7c-2.9-1.1-5.5-2.1-8.3-3.1C1267.6,323.2,1262.8,339.1,1257.9,355.1z M1228.5,306.5
			c-7.8,0.6-12.2,4.2-12.9,11.7c0,0.2-0.2,0.5-0.3,0.7c-2.9,9.4-5.7,18.7-8.6,28.3c2.8,1.3,5.4,2.4,8.2,3.7
			C1219.5,335.8,1223.9,321.3,1228.5,306.5z M1272.1,352.8c3.2-1.1,5.9-1.8,8.3-2.9c1.1-0.5,2.2-1.7,2.6-2.8c2.9-9,5.7-18,8.4-27.1
			c0.3-1,0.1-2.7-0.5-3.3c-1.8-1.7-4-3.1-6.3-4.8c-4,13-7.8,25.3-11.6,37.7C1272.7,350.4,1272.5,351.2,1272.1,352.8z M1213.4,311.9
			c-3,1.7-5.3,2.7-7.2,4.2c-1.8,1.4-3.9,2.9-4.7,4.9c-2,5-3.4,10.2-4.8,15.3c-0.3,1.1-0.2,2.9,0.5,3.7c1.6,1.8,3.6,3.2,6,5.2
			C1206.6,333.9,1209.8,323.4,1213.4,311.9z M1287.4,346.1c11-6,14.3-17.1,7.4-24.2C1292.4,329.8,1290,337.6,1287.4,346.1z"/>
		<path class="st1" d="M1378.9,532.3c45.1-2.5,79.5-29.5,92.7-72.2c0.4-1.2,1.9-2.1,2.9-3.1c0.3,1.4,1,3,0.7,4.2
			c-10,37.9-44.2,68.2-83.2,73.7c-6.2,0.9-12.4,1-18.6,1.3c-1.1,0-2.3-1.2-3.5-1.9c1.1-0.6,2.2-1.7,3.4-1.8
			C1375.4,532,1377.5,532.3,1378.9,532.3z"/>
		<path class="st1" d="M1391.1,523.9c-0.4-0.3-1.6-0.8-1.6-1.3c0-0.8,0.5-1.9,1.2-2.3c0.7-0.6,1.9-0.6,2.8-0.9
			c26.7-7.7,47-23.5,61-47.5c0.5-0.9,0.9-1.9,1.6-2.5c0.5-0.4,1.8-0.6,2.3-0.3c0.5,0.3,0.7,1.4,0.7,2.2c0,0.5-0.5,1.1-0.8,1.7
			c-14.6,25.7-36.2,42.4-64.6,50.4C1393,523.5,1392.3,523.6,1391.1,523.9z"/>
		<path class="st1" d="M1393.6,442.5c1.6,0,3.3-0.2,4.9,0.1c0.9,0.2,1.7,1.1,2.5,1.7c-0.8,0.7-1.6,1.9-2.5,2c-4,0.4-8,0.2-11.9,0.8
			c-23.2,3.4-41.6,14.8-54.7,34.3c-0.5,0.7-0.8,1.7-1.5,2.1c-0.7,0.4-2,0.8-2.5,0.4c-0.5-0.4-0.6-1.7-0.5-2.5
			c0.1-0.7,0.7-1.3,1.1-1.9C1344,456.2,1366,444.4,1393.6,442.5z"/>
		<path class="st2" d="M1379,526.2c-0.8-0.6-1.7-1.3-2.6-2c0.8-0.7,1.5-1.7,2.4-2.2c0.9-0.5,2.1-0.9,3.2-0.9c0.9,0,1.9,0.5,2.8,0.7
			c-0.4,0.9-0.5,2.2-1.2,2.6C1382.4,525.3,1380.9,525.6,1379,526.2z"/>
		<path class="st1" d="M1221.2,576.7c-13.4-0.2-26.7-1.3-39.2-6.6c-15.4-6.5-27.3-16.6-31.7-33.5c-2.6-10.1-1.4-19.9,4.3-28.8
			c0.7-1.1,2.6-1.6,3.9-2.3c-0.2,1.4,0,3.1-0.6,4.2c-7.7,12.4-6.3,28.6,3.6,40.9c9.5,11.8,22.4,17.8,37,20.1
			c9.6,1.5,19.4,1.5,29.1,2.1c0.9,0.1,1.8-0.3,2.6,0c0.9,0.3,1.6,1.2,2.4,1.8c-0.7,0.7-1.5,1.9-2.2,1.9
			C1227.2,576.8,1224.2,576.7,1221.2,576.7z"/>
		<path class="st1" d="M1160.8,525.2c0.6-2.7,1-5.4,1.8-8c0.2-0.8,1.6-1.2,2.4-1.8c0.4,0.9,1.4,2,1.1,2.8
			c-2.2,7.1-1.2,13.9,2.5,20.2c4.2,7.3,10.6,12.5,18.5,15c7.9,2.5,16.2,3.7,24.4,5.4c1.2,0.3,2.6,0,3.7,0.4c0.8,0.3,1.3,1.2,2,1.9
			c-0.8,0.6-1.6,1.8-2.4,1.8c-15.2-1.1-30.1-3.2-42.2-13.7C1165.2,542.8,1161.1,534.1,1160.8,525.2z"/>
		<path class="st3" d="M1223.3,564.6c-1.6-1.2-2.7-2.1-3.7-3c1.2-0.7,2.5-1.8,3.7-1.9c1.2,0,2.3,1.1,3.5,1.7
			C1225.8,562.4,1224.8,563.4,1223.3,564.6z"/>
		<path class="st0" d="M1187.2,482.4c-7.5-2-13.2-5.5-17.7-11.1c-10.1-12.6-9.5-31.2,1.5-42.2c0.9-0.9,2.7-0.9,4-1.3
			c-0.4,1.3-0.4,2.9-1.2,3.8c-14.2,16.3-7.8,39.3,12.8,46.6c1.1,0.4,1.9,1.8,2.8,2.7C1188.5,481.5,1187.7,482.1,1187.2,482.4z"/>
		<path class="st0" d="M1263.2,419.8c-4.2-0.6-9.7-1.1-15-2.1c-1.1-0.2-1.9-1.7-2.8-2.7c1.2-0.3,2.4-1.2,3.5-1
			c18.1,3.7,35.6,0.6,52.7-4.8c5-1.6,10-4.8,13.9-8.4c8-7.5,7.5-17.6,0-25.5c-0.6-0.7-0.5-2-0.7-3.1c1.1,0.1,2.5-0.2,3.3,0.3
			c6,3.8,8.7,13.3,6.2,21.2c-2.4,7.8-7.8,13-14.8,16.5c-10.1,5.1-21.1,6.8-32.1,8.3C1273,419.1,1268.8,419.3,1263.2,419.8z"/>
		<path class="st4" d="M1197.2,387.4c0-6.9,6-15.2,11.8-16.9c0.8-0.2,1.9,0.4,2.9,0.6c-0.4,0.9-0.5,2.4-1.2,2.7
			c-5.6,2.7-8.8,7.1-9.7,13.3c-0.1,0.8-1.3,1.5-2,2.2C1198.3,388.5,1197.6,387.7,1197.2,387.4z"/>
	</g>
</g>
</svg>
